<?xml version="1.0" encoding="utf-8" standalone="no"?>
<!DOCTYPE svg PUBLIC "-//W3C//DTD SVG 1.1//EN"
  "http://www.w3.org/Graphics/SVG/1.1/DTD/svg11.dtd">
<svg xmlns:xlink="http://www.w3.org/1999/xlink" width="1128.535312pt" height="553.180937pt" viewBox="0 0 1128.535312 553.180937" xmlns="http://www.w3.org/2000/svg" version="1.1">
 <metadata>
  <rdf:RDF xmlns:dc="http://purl.org/dc/elements/1.1/" xmlns:cc="http://creativecommons.org/ns#" xmlns:rdf="http://www.w3.org/1999/02/22-rdf-syntax-ns#">
   <cc:Work>
    <dc:type rdf:resource="http://purl.org/dc/dcmitype/StillImage"/>
    <dc:date>2024-05-27T15:25:27.654543</dc:date>
    <dc:format>image/svg+xml</dc:format>
    <dc:creator>
     <cc:Agent>
      <dc:title>Matplotlib v3.5.1, https://matplotlib.org/</dc:title>
     </cc:Agent>
    </dc:creator>
   </cc:Work>
  </rdf:RDF>
 </metadata>
 <defs>
  <style type="text/css">*{stroke-linejoin: round; stroke-linecap: butt}</style>
 </defs>
 <g id="figure_1">
  <g id="patch_1">
   <path d="M 0 553.180937 
L 1128.535312 553.180937 
L 1128.535312 0 
L 0 0 
L 0 553.180937 
z
" style="fill: none"/>
  </g>
  <g id="axes_1">
   <g id="patch_2">
    <path d="M 71.248313 401.052375 
L 266.750512 401.052375 
L 266.750512 25.965375 
L 71.248313 25.965375 
z
" style="fill: #ffffff"/>
   </g>
   <g id="PathCollection_1">
    <defs>
     <path id="C0_0_bbe7d1249b" d="M 0 7.071068 
C 1.875269 7.071068 3.673985 6.326016 5 5 
C 6.326016 3.673985 7.071068 1.875269 7.071068 -0 
C 7.071068 -1.875269 6.326016 -3.673985 5 -5 
C 3.673985 -6.326016 1.875269 -7.071068 0 -7.071068 
C -1.875269 -7.071068 -3.673985 -6.326016 -5 -5 
C -6.326016 -3.673985 -7.071068 -1.875269 -7.071068 0 
C -7.071068 1.875269 -6.326016 3.673985 -5 5 
C -3.673985 6.326016 -1.875269 7.071068 0 7.071068 
z
"/>
    </defs>
    <g clip-path="url(#pfbe6b3e227)">
     <use xlink:href="#C0_0_bbe7d1249b" x="95.686088" y="267.806666" style="fill: #888888; stroke: #ffffff; stroke-width: 1.131371"/>
    </g>
    <g clip-path="url(#pfbe6b3e227)">
     <use xlink:href="#C0_0_bbe7d1249b" x="144.561638" y="333.807062" style="fill: #888888; stroke: #ffffff; stroke-width: 1.131371"/>
    </g>
    <g clip-path="url(#pfbe6b3e227)">
     <use xlink:href="#C0_0_bbe7d1249b" x="193.437187" y="75.595275" style="fill: #185249; stroke: #ffffff; stroke-width: 1.131371"/>
    </g>
    <g clip-path="url(#pfbe6b3e227)">
     <use xlink:href="#C0_0_bbe7d1249b" x="242.312737" y="135.705298" style="fill: #185249; stroke: #ffffff; stroke-width: 1.131371"/>
    </g>
   </g>
   <g id="PathCollection_2"/>
   <g id="PathCollection_3"/>
   <g id="PathCollection_4">
    <defs>
     <path id="C1_0_d5437bc9f0" d="M 2.915561 -6.338177 
Q 1.475067 -6.338177 0.484006 -5.335592 
Q -0.507054 -4.33877 -0.507054 -2.898275 
Q -0.507054 -1.475067 0.484006 -0.49553 
Q 1.475067 0.484006 2.915561 0.484006 
Q 4.356056 0.484006 5.347116 -0.49553 
Q 6.338177 -1.475067 6.338177 -2.898275 
Q 6.338177 -4.321484 5.335592 -5.32983 
Q 4.33877 -6.338177 2.915561 -6.338177 
z
M 2.915561 -8.660254 
Q 4.067957 -8.660254 5.128161 -8.216582 
Q 6.194127 -7.778671 6.966232 -6.948946 
Q 7.795957 -6.142269 8.21082 -5.110875 
Q 8.625682 -4.085243 8.625682 -2.898275 
Q 8.625682 -0.52434 6.96047 1.123586 
Q 5.295258 2.771512 2.880989 2.771512 
Q 0.449434 2.771512 -1.169682 1.152396 
Q -2.788798 -0.46672 -2.788798 -2.898275 
Q -2.788798 -5.312544 -1.13511 -6.983518 
Q 0.52434 -8.660254 2.915561 -8.660254 
z
"/>
    </defs>
    <g clip-path="url(#pfbe6b3e227)">
     <use xlink:href="#C1_0_d5437bc9f0" x="95.686088" y="350.729882" style="fill: #888888; stroke: #888888; stroke-width: 1.385641"/>
    </g>
    <g clip-path="url(#pfbe6b3e227)">
     <use xlink:href="#C1_0_d5437bc9f0" x="144.561638" y="356.648889" style="fill: #888888; stroke: #888888; stroke-width: 1.385641"/>
    </g>
    <g clip-path="url(#pfbe6b3e227)">
     <use xlink:href="#C1_0_d5437bc9f0" x="193.437187" y="267.018229" style="fill: #185249; stroke: #185249; stroke-width: 1.385641"/>
    </g>
    <g clip-path="url(#pfbe6b3e227)">
     <use xlink:href="#C1_0_d5437bc9f0" x="242.312737" y="384.002966" style="fill: #185249; stroke: #185249; stroke-width: 1.385641"/>
    </g>
   </g>
   <g id="PathCollection_5"/>
   <g id="PathCollection_6"/>
   <g id="matplotlib.axis_1">
    <g id="xtick_1">
     <g id="text_1">
      <!-- DGRP-439_cish -->
      <g transform="translate(99.721369 527.161656)rotate(-90)scale(0.154 -0.154)">
       <defs>
        <path id="DejaVuSans-44" d="M 1259 4147 
L 1259 519 
L 2022 519 
Q 2988 519 3436 956 
Q 3884 1394 3884 2338 
Q 3884 3275 3436 3711 
Q 2988 4147 2022 4147 
L 1259 4147 
z
M 628 4666 
L 1925 4666 
Q 3281 4666 3915 4102 
Q 4550 3538 4550 2338 
Q 4550 1131 3912 565 
Q 3275 0 1925 0 
L 628 0 
L 628 4666 
z
" transform="scale(0.015625)"/>
        <path id="DejaVuSans-47" d="M 3809 666 
L 3809 1919 
L 2778 1919 
L 2778 2438 
L 4434 2438 
L 4434 434 
Q 4069 175 3628 42 
Q 3188 -91 2688 -91 
Q 1594 -91 976 548 
Q 359 1188 359 2328 
Q 359 3472 976 4111 
Q 1594 4750 2688 4750 
Q 3144 4750 3555 4637 
Q 3966 4525 4313 4306 
L 4313 3634 
Q 3963 3931 3569 4081 
Q 3175 4231 2741 4231 
Q 1884 4231 1454 3753 
Q 1025 3275 1025 2328 
Q 1025 1384 1454 906 
Q 1884 428 2741 428 
Q 3075 428 3337 486 
Q 3600 544 3809 666 
z
" transform="scale(0.015625)"/>
        <path id="DejaVuSans-52" d="M 2841 2188 
Q 3044 2119 3236 1894 
Q 3428 1669 3622 1275 
L 4263 0 
L 3584 0 
L 2988 1197 
Q 2756 1666 2539 1819 
Q 2322 1972 1947 1972 
L 1259 1972 
L 1259 0 
L 628 0 
L 628 4666 
L 2053 4666 
Q 2853 4666 3247 4331 
Q 3641 3997 3641 3322 
Q 3641 2881 3436 2590 
Q 3231 2300 2841 2188 
z
M 1259 4147 
L 1259 2491 
L 2053 2491 
Q 2509 2491 2742 2702 
Q 2975 2913 2975 3322 
Q 2975 3731 2742 3939 
Q 2509 4147 2053 4147 
L 1259 4147 
z
" transform="scale(0.015625)"/>
        <path id="DejaVuSans-50" d="M 1259 4147 
L 1259 2394 
L 2053 2394 
Q 2494 2394 2734 2622 
Q 2975 2850 2975 3272 
Q 2975 3691 2734 3919 
Q 2494 4147 2053 4147 
L 1259 4147 
z
M 628 4666 
L 2053 4666 
Q 2838 4666 3239 4311 
Q 3641 3956 3641 3272 
Q 3641 2581 3239 2228 
Q 2838 1875 2053 1875 
L 1259 1875 
L 1259 0 
L 628 0 
L 628 4666 
z
" transform="scale(0.015625)"/>
        <path id="DejaVuSans-2d" d="M 313 2009 
L 1997 2009 
L 1997 1497 
L 313 1497 
L 313 2009 
z
" transform="scale(0.015625)"/>
        <path id="DejaVuSans-34" d="M 2419 4116 
L 825 1625 
L 2419 1625 
L 2419 4116 
z
M 2253 4666 
L 3047 4666 
L 3047 1625 
L 3713 1625 
L 3713 1100 
L 3047 1100 
L 3047 0 
L 2419 0 
L 2419 1100 
L 313 1100 
L 313 1709 
L 2253 4666 
z
" transform="scale(0.015625)"/>
        <path id="DejaVuSans-33" d="M 2597 2516 
Q 3050 2419 3304 2112 
Q 3559 1806 3559 1356 
Q 3559 666 3084 287 
Q 2609 -91 1734 -91 
Q 1441 -91 1130 -33 
Q 819 25 488 141 
L 488 750 
Q 750 597 1062 519 
Q 1375 441 1716 441 
Q 2309 441 2620 675 
Q 2931 909 2931 1356 
Q 2931 1769 2642 2001 
Q 2353 2234 1838 2234 
L 1294 2234 
L 1294 2753 
L 1863 2753 
Q 2328 2753 2575 2939 
Q 2822 3125 2822 3475 
Q 2822 3834 2567 4026 
Q 2313 4219 1838 4219 
Q 1578 4219 1281 4162 
Q 984 4106 628 3988 
L 628 4550 
Q 988 4650 1302 4700 
Q 1616 4750 1894 4750 
Q 2613 4750 3031 4423 
Q 3450 4097 3450 3541 
Q 3450 3153 3228 2886 
Q 3006 2619 2597 2516 
z
" transform="scale(0.015625)"/>
        <path id="DejaVuSans-39" d="M 703 97 
L 703 672 
Q 941 559 1184 500 
Q 1428 441 1663 441 
Q 2288 441 2617 861 
Q 2947 1281 2994 2138 
Q 2813 1869 2534 1725 
Q 2256 1581 1919 1581 
Q 1219 1581 811 2004 
Q 403 2428 403 3163 
Q 403 3881 828 4315 
Q 1253 4750 1959 4750 
Q 2769 4750 3195 4129 
Q 3622 3509 3622 2328 
Q 3622 1225 3098 567 
Q 2575 -91 1691 -91 
Q 1453 -91 1209 -44 
Q 966 3 703 97 
z
M 1959 2075 
Q 2384 2075 2632 2365 
Q 2881 2656 2881 3163 
Q 2881 3666 2632 3958 
Q 2384 4250 1959 4250 
Q 1534 4250 1286 3958 
Q 1038 3666 1038 3163 
Q 1038 2656 1286 2365 
Q 1534 2075 1959 2075 
z
" transform="scale(0.015625)"/>
        <path id="DejaVuSans-5f" d="M 3263 -1063 
L 3263 -1509 
L -63 -1509 
L -63 -1063 
L 3263 -1063 
z
" transform="scale(0.015625)"/>
        <path id="DejaVuSans-63" d="M 3122 3366 
L 3122 2828 
Q 2878 2963 2633 3030 
Q 2388 3097 2138 3097 
Q 1578 3097 1268 2742 
Q 959 2388 959 1747 
Q 959 1106 1268 751 
Q 1578 397 2138 397 
Q 2388 397 2633 464 
Q 2878 531 3122 666 
L 3122 134 
Q 2881 22 2623 -34 
Q 2366 -91 2075 -91 
Q 1284 -91 818 406 
Q 353 903 353 1747 
Q 353 2603 823 3093 
Q 1294 3584 2113 3584 
Q 2378 3584 2631 3529 
Q 2884 3475 3122 3366 
z
" transform="scale(0.015625)"/>
        <path id="DejaVuSans-69" d="M 603 3500 
L 1178 3500 
L 1178 0 
L 603 0 
L 603 3500 
z
M 603 4863 
L 1178 4863 
L 1178 4134 
L 603 4134 
L 603 4863 
z
" transform="scale(0.015625)"/>
        <path id="DejaVuSans-73" d="M 2834 3397 
L 2834 2853 
Q 2591 2978 2328 3040 
Q 2066 3103 1784 3103 
Q 1356 3103 1142 2972 
Q 928 2841 928 2578 
Q 928 2378 1081 2264 
Q 1234 2150 1697 2047 
L 1894 2003 
Q 2506 1872 2764 1633 
Q 3022 1394 3022 966 
Q 3022 478 2636 193 
Q 2250 -91 1575 -91 
Q 1294 -91 989 -36 
Q 684 19 347 128 
L 347 722 
Q 666 556 975 473 
Q 1284 391 1588 391 
Q 1994 391 2212 530 
Q 2431 669 2431 922 
Q 2431 1156 2273 1281 
Q 2116 1406 1581 1522 
L 1381 1569 
Q 847 1681 609 1914 
Q 372 2147 372 2553 
Q 372 3047 722 3315 
Q 1072 3584 1716 3584 
Q 2034 3584 2315 3537 
Q 2597 3491 2834 3397 
z
" transform="scale(0.015625)"/>
        <path id="DejaVuSans-68" d="M 3513 2113 
L 3513 0 
L 2938 0 
L 2938 2094 
Q 2938 2591 2744 2837 
Q 2550 3084 2163 3084 
Q 1697 3084 1428 2787 
Q 1159 2491 1159 1978 
L 1159 0 
L 581 0 
L 581 4863 
L 1159 4863 
L 1159 2956 
Q 1366 3272 1645 3428 
Q 1925 3584 2291 3584 
Q 2894 3584 3203 3211 
Q 3513 2838 3513 2113 
z
" transform="scale(0.015625)"/>
       </defs>
       <use xlink:href="#DejaVuSans-44"/>
       <use xlink:href="#DejaVuSans-47" x="77.001953"/>
       <use xlink:href="#DejaVuSans-52" x="154.492188"/>
       <use xlink:href="#DejaVuSans-50" x="223.974609"/>
       <use xlink:href="#DejaVuSans-2d" x="282.027344"/>
       <use xlink:href="#DejaVuSans-34" x="318.111328"/>
       <use xlink:href="#DejaVuSans-33" x="381.734375"/>
       <use xlink:href="#DejaVuSans-39" x="445.357422"/>
       <use xlink:href="#DejaVuSans-5f" x="508.980469"/>
       <use xlink:href="#DejaVuSans-63" x="558.980469"/>
       <use xlink:href="#DejaVuSans-69" x="613.960938"/>
       <use xlink:href="#DejaVuSans-73" x="641.744141"/>
       <use xlink:href="#DejaVuSans-68" x="693.84375"/>
      </g>
     </g>
    </g>
    <g id="xtick_2">
     <g id="text_2">
      <!-- DGRP-57_cish -->
      <g transform="translate(148.596919 517.363406)rotate(-90)scale(0.154 -0.154)">
       <defs>
        <path id="DejaVuSans-35" d="M 691 4666 
L 3169 4666 
L 3169 4134 
L 1269 4134 
L 1269 2991 
Q 1406 3038 1543 3061 
Q 1681 3084 1819 3084 
Q 2600 3084 3056 2656 
Q 3513 2228 3513 1497 
Q 3513 744 3044 326 
Q 2575 -91 1722 -91 
Q 1428 -91 1123 -41 
Q 819 9 494 109 
L 494 744 
Q 775 591 1075 516 
Q 1375 441 1709 441 
Q 2250 441 2565 725 
Q 2881 1009 2881 1497 
Q 2881 1984 2565 2268 
Q 2250 2553 1709 2553 
Q 1456 2553 1204 2497 
Q 953 2441 691 2322 
L 691 4666 
z
" transform="scale(0.015625)"/>
        <path id="DejaVuSans-37" d="M 525 4666 
L 3525 4666 
L 3525 4397 
L 1831 0 
L 1172 0 
L 2766 4134 
L 525 4134 
L 525 4666 
z
" transform="scale(0.015625)"/>
       </defs>
       <use xlink:href="#DejaVuSans-44"/>
       <use xlink:href="#DejaVuSans-47" x="77.001953"/>
       <use xlink:href="#DejaVuSans-52" x="154.492188"/>
       <use xlink:href="#DejaVuSans-50" x="223.974609"/>
       <use xlink:href="#DejaVuSans-2d" x="282.027344"/>
       <use xlink:href="#DejaVuSans-35" x="318.111328"/>
       <use xlink:href="#DejaVuSans-37" x="381.734375"/>
       <use xlink:href="#DejaVuSans-5f" x="445.357422"/>
       <use xlink:href="#DejaVuSans-63" x="495.357422"/>
       <use xlink:href="#DejaVuSans-69" x="550.337891"/>
       <use xlink:href="#DejaVuSans-73" x="578.121094"/>
       <use xlink:href="#DejaVuSans-68" x="630.220703"/>
      </g>
     </g>
    </g>
    <g id="xtick_3">
     <g id="text_3">
      <!-- DGRP-439_transh -->
      <g transform="translate(197.472469 545.980937)rotate(-90)scale(0.154 -0.154)">
       <defs>
        <path id="DejaVuSans-74" d="M 1172 4494 
L 1172 3500 
L 2356 3500 
L 2356 3053 
L 1172 3053 
L 1172 1153 
Q 1172 725 1289 603 
Q 1406 481 1766 481 
L 2356 481 
L 2356 0 
L 1766 0 
Q 1100 0 847 248 
Q 594 497 594 1153 
L 594 3053 
L 172 3053 
L 172 3500 
L 594 3500 
L 594 4494 
L 1172 4494 
z
" transform="scale(0.015625)"/>
        <path id="DejaVuSans-72" d="M 2631 2963 
Q 2534 3019 2420 3045 
Q 2306 3072 2169 3072 
Q 1681 3072 1420 2755 
Q 1159 2438 1159 1844 
L 1159 0 
L 581 0 
L 581 3500 
L 1159 3500 
L 1159 2956 
Q 1341 3275 1631 3429 
Q 1922 3584 2338 3584 
Q 2397 3584 2469 3576 
Q 2541 3569 2628 3553 
L 2631 2963 
z
" transform="scale(0.015625)"/>
        <path id="DejaVuSans-61" d="M 2194 1759 
Q 1497 1759 1228 1600 
Q 959 1441 959 1056 
Q 959 750 1161 570 
Q 1363 391 1709 391 
Q 2188 391 2477 730 
Q 2766 1069 2766 1631 
L 2766 1759 
L 2194 1759 
z
M 3341 1997 
L 3341 0 
L 2766 0 
L 2766 531 
Q 2569 213 2275 61 
Q 1981 -91 1556 -91 
Q 1019 -91 701 211 
Q 384 513 384 1019 
Q 384 1609 779 1909 
Q 1175 2209 1959 2209 
L 2766 2209 
L 2766 2266 
Q 2766 2663 2505 2880 
Q 2244 3097 1772 3097 
Q 1472 3097 1187 3025 
Q 903 2953 641 2809 
L 641 3341 
Q 956 3463 1253 3523 
Q 1550 3584 1831 3584 
Q 2591 3584 2966 3190 
Q 3341 2797 3341 1997 
z
" transform="scale(0.015625)"/>
        <path id="DejaVuSans-6e" d="M 3513 2113 
L 3513 0 
L 2938 0 
L 2938 2094 
Q 2938 2591 2744 2837 
Q 2550 3084 2163 3084 
Q 1697 3084 1428 2787 
Q 1159 2491 1159 1978 
L 1159 0 
L 581 0 
L 581 3500 
L 1159 3500 
L 1159 2956 
Q 1366 3272 1645 3428 
Q 1925 3584 2291 3584 
Q 2894 3584 3203 3211 
Q 3513 2838 3513 2113 
z
" transform="scale(0.015625)"/>
       </defs>
       <use xlink:href="#DejaVuSans-44"/>
       <use xlink:href="#DejaVuSans-47" x="77.001953"/>
       <use xlink:href="#DejaVuSans-52" x="154.492188"/>
       <use xlink:href="#DejaVuSans-50" x="223.974609"/>
       <use xlink:href="#DejaVuSans-2d" x="282.027344"/>
       <use xlink:href="#DejaVuSans-34" x="318.111328"/>
       <use xlink:href="#DejaVuSans-33" x="381.734375"/>
       <use xlink:href="#DejaVuSans-39" x="445.357422"/>
       <use xlink:href="#DejaVuSans-5f" x="508.980469"/>
       <use xlink:href="#DejaVuSans-74" x="558.980469"/>
       <use xlink:href="#DejaVuSans-72" x="598.189453"/>
       <use xlink:href="#DejaVuSans-61" x="639.302734"/>
       <use xlink:href="#DejaVuSans-6e" x="700.582031"/>
       <use xlink:href="#DejaVuSans-73" x="763.960938"/>
       <use xlink:href="#DejaVuSans-68" x="816.060547"/>
      </g>
     </g>
    </g>
    <g id="xtick_4">
     <g id="text_4">
      <!-- DGRP-57_transh -->
      <g transform="translate(246.348019 536.182687)rotate(-90)scale(0.154 -0.154)">
       <use xlink:href="#DejaVuSans-44"/>
       <use xlink:href="#DejaVuSans-47" x="77.001953"/>
       <use xlink:href="#DejaVuSans-52" x="154.492188"/>
       <use xlink:href="#DejaVuSans-50" x="223.974609"/>
       <use xlink:href="#DejaVuSans-2d" x="282.027344"/>
       <use xlink:href="#DejaVuSans-35" x="318.111328"/>
       <use xlink:href="#DejaVuSans-37" x="381.734375"/>
       <use xlink:href="#DejaVuSans-5f" x="445.357422"/>
       <use xlink:href="#DejaVuSans-74" x="495.357422"/>
       <use xlink:href="#DejaVuSans-72" x="534.566406"/>
       <use xlink:href="#DejaVuSans-61" x="575.679688"/>
       <use xlink:href="#DejaVuSans-6e" x="636.958984"/>
       <use xlink:href="#DejaVuSans-73" x="700.337891"/>
       <use xlink:href="#DejaVuSans-68" x="752.4375"/>
      </g>
     </g>
    </g>
   </g>
   <g id="matplotlib.axis_2">
    <g id="ytick_1">
     <g id="line2d_1">
      <defs>
       <path id="m5be428055b" d="M 0 0 
L -6 0 
" style="stroke: #000000; stroke-width: 1.25"/>
      </defs>
      <g>
       <use xlink:href="#m5be428055b" x="71.248313" y="375.879084" style="stroke: #000000; stroke-width: 1.25"/>
      </g>
     </g>
     <g id="text_5">
      <!-- 0.54 -->
      <g transform="translate(27.45925 381.729881)scale(0.154 -0.154)">
       <defs>
        <path id="DejaVuSans-30" d="M 2034 4250 
Q 1547 4250 1301 3770 
Q 1056 3291 1056 2328 
Q 1056 1369 1301 889 
Q 1547 409 2034 409 
Q 2525 409 2770 889 
Q 3016 1369 3016 2328 
Q 3016 3291 2770 3770 
Q 2525 4250 2034 4250 
z
M 2034 4750 
Q 2819 4750 3233 4129 
Q 3647 3509 3647 2328 
Q 3647 1150 3233 529 
Q 2819 -91 2034 -91 
Q 1250 -91 836 529 
Q 422 1150 422 2328 
Q 422 3509 836 4129 
Q 1250 4750 2034 4750 
z
" transform="scale(0.015625)"/>
        <path id="DejaVuSans-2e" d="M 684 794 
L 1344 794 
L 1344 0 
L 684 0 
L 684 794 
z
" transform="scale(0.015625)"/>
       </defs>
       <use xlink:href="#DejaVuSans-30"/>
       <use xlink:href="#DejaVuSans-2e" x="63.623047"/>
       <use xlink:href="#DejaVuSans-35" x="95.410156"/>
       <use xlink:href="#DejaVuSans-34" x="159.033203"/>
      </g>
     </g>
    </g>
    <g id="ytick_2">
     <g id="line2d_2">
      <g>
       <use xlink:href="#m5be428055b" x="71.248313" y="315.791152" style="stroke: #000000; stroke-width: 1.25"/>
      </g>
     </g>
     <g id="text_6">
      <!-- 0.56 -->
      <g transform="translate(27.45925 321.641949)scale(0.154 -0.154)">
       <defs>
        <path id="DejaVuSans-36" d="M 2113 2584 
Q 1688 2584 1439 2293 
Q 1191 2003 1191 1497 
Q 1191 994 1439 701 
Q 1688 409 2113 409 
Q 2538 409 2786 701 
Q 3034 994 3034 1497 
Q 3034 2003 2786 2293 
Q 2538 2584 2113 2584 
z
M 3366 4563 
L 3366 3988 
Q 3128 4100 2886 4159 
Q 2644 4219 2406 4219 
Q 1781 4219 1451 3797 
Q 1122 3375 1075 2522 
Q 1259 2794 1537 2939 
Q 1816 3084 2150 3084 
Q 2853 3084 3261 2657 
Q 3669 2231 3669 1497 
Q 3669 778 3244 343 
Q 2819 -91 2113 -91 
Q 1303 -91 875 529 
Q 447 1150 447 2328 
Q 447 3434 972 4092 
Q 1497 4750 2381 4750 
Q 2619 4750 2861 4703 
Q 3103 4656 3366 4563 
z
" transform="scale(0.015625)"/>
       </defs>
       <use xlink:href="#DejaVuSans-30"/>
       <use xlink:href="#DejaVuSans-2e" x="63.623047"/>
       <use xlink:href="#DejaVuSans-35" x="95.410156"/>
       <use xlink:href="#DejaVuSans-36" x="159.033203"/>
      </g>
     </g>
    </g>
    <g id="ytick_3">
     <g id="line2d_3">
      <g>
       <use xlink:href="#m5be428055b" x="71.248313" y="255.70322" style="stroke: #000000; stroke-width: 1.25"/>
      </g>
     </g>
     <g id="text_7">
      <!-- 0.58 -->
      <g transform="translate(27.45925 261.554017)scale(0.154 -0.154)">
       <defs>
        <path id="DejaVuSans-38" d="M 2034 2216 
Q 1584 2216 1326 1975 
Q 1069 1734 1069 1313 
Q 1069 891 1326 650 
Q 1584 409 2034 409 
Q 2484 409 2743 651 
Q 3003 894 3003 1313 
Q 3003 1734 2745 1975 
Q 2488 2216 2034 2216 
z
M 1403 2484 
Q 997 2584 770 2862 
Q 544 3141 544 3541 
Q 544 4100 942 4425 
Q 1341 4750 2034 4750 
Q 2731 4750 3128 4425 
Q 3525 4100 3525 3541 
Q 3525 3141 3298 2862 
Q 3072 2584 2669 2484 
Q 3125 2378 3379 2068 
Q 3634 1759 3634 1313 
Q 3634 634 3220 271 
Q 2806 -91 2034 -91 
Q 1263 -91 848 271 
Q 434 634 434 1313 
Q 434 1759 690 2068 
Q 947 2378 1403 2484 
z
M 1172 3481 
Q 1172 3119 1398 2916 
Q 1625 2713 2034 2713 
Q 2441 2713 2670 2916 
Q 2900 3119 2900 3481 
Q 2900 3844 2670 4047 
Q 2441 4250 2034 4250 
Q 1625 4250 1398 4047 
Q 1172 3844 1172 3481 
z
" transform="scale(0.015625)"/>
       </defs>
       <use xlink:href="#DejaVuSans-30"/>
       <use xlink:href="#DejaVuSans-2e" x="63.623047"/>
       <use xlink:href="#DejaVuSans-35" x="95.410156"/>
       <use xlink:href="#DejaVuSans-38" x="159.033203"/>
      </g>
     </g>
    </g>
    <g id="ytick_4">
     <g id="line2d_4">
      <g>
       <use xlink:href="#m5be428055b" x="71.248313" y="195.615288" style="stroke: #000000; stroke-width: 1.25"/>
      </g>
     </g>
     <g id="text_8">
      <!-- 0.60 -->
      <g transform="translate(27.45925 201.466085)scale(0.154 -0.154)">
       <use xlink:href="#DejaVuSans-30"/>
       <use xlink:href="#DejaVuSans-2e" x="63.623047"/>
       <use xlink:href="#DejaVuSans-36" x="95.410156"/>
       <use xlink:href="#DejaVuSans-30" x="159.033203"/>
      </g>
     </g>
    </g>
    <g id="ytick_5">
     <g id="line2d_5">
      <g>
       <use xlink:href="#m5be428055b" x="71.248313" y="135.527356" style="stroke: #000000; stroke-width: 1.25"/>
      </g>
     </g>
     <g id="text_9">
      <!-- 0.62 -->
      <g transform="translate(27.45925 141.378153)scale(0.154 -0.154)">
       <defs>
        <path id="DejaVuSans-32" d="M 1228 531 
L 3431 531 
L 3431 0 
L 469 0 
L 469 531 
Q 828 903 1448 1529 
Q 2069 2156 2228 2338 
Q 2531 2678 2651 2914 
Q 2772 3150 2772 3378 
Q 2772 3750 2511 3984 
Q 2250 4219 1831 4219 
Q 1534 4219 1204 4116 
Q 875 4013 500 3803 
L 500 4441 
Q 881 4594 1212 4672 
Q 1544 4750 1819 4750 
Q 2544 4750 2975 4387 
Q 3406 4025 3406 3419 
Q 3406 3131 3298 2873 
Q 3191 2616 2906 2266 
Q 2828 2175 2409 1742 
Q 1991 1309 1228 531 
z
" transform="scale(0.015625)"/>
       </defs>
       <use xlink:href="#DejaVuSans-30"/>
       <use xlink:href="#DejaVuSans-2e" x="63.623047"/>
       <use xlink:href="#DejaVuSans-36" x="95.410156"/>
       <use xlink:href="#DejaVuSans-32" x="159.033203"/>
      </g>
     </g>
    </g>
    <g id="ytick_6">
     <g id="line2d_6">
      <g>
       <use xlink:href="#m5be428055b" x="71.248313" y="75.439424" style="stroke: #000000; stroke-width: 1.25"/>
      </g>
     </g>
     <g id="text_10">
      <!-- 0.64 -->
      <g transform="translate(27.45925 81.290221)scale(0.154 -0.154)">
       <use xlink:href="#DejaVuSans-30"/>
       <use xlink:href="#DejaVuSans-2e" x="63.623047"/>
       <use xlink:href="#DejaVuSans-36" x="95.410156"/>
       <use xlink:href="#DejaVuSans-34" x="159.033203"/>
      </g>
     </g>
    </g>
    <g id="text_11">
     <!-- area under ECDF curve -->
     <g transform="translate(19.965375 310.855687)rotate(-90)scale(0.168 -0.168)">
      <defs>
       <path id="DejaVuSans-65" d="M 3597 1894 
L 3597 1613 
L 953 1613 
Q 991 1019 1311 708 
Q 1631 397 2203 397 
Q 2534 397 2845 478 
Q 3156 559 3463 722 
L 3463 178 
Q 3153 47 2828 -22 
Q 2503 -91 2169 -91 
Q 1331 -91 842 396 
Q 353 884 353 1716 
Q 353 2575 817 3079 
Q 1281 3584 2069 3584 
Q 2775 3584 3186 3129 
Q 3597 2675 3597 1894 
z
M 3022 2063 
Q 3016 2534 2758 2815 
Q 2500 3097 2075 3097 
Q 1594 3097 1305 2825 
Q 1016 2553 972 2059 
L 3022 2063 
z
" transform="scale(0.015625)"/>
       <path id="DejaVuSans-20" transform="scale(0.015625)"/>
       <path id="DejaVuSans-75" d="M 544 1381 
L 544 3500 
L 1119 3500 
L 1119 1403 
Q 1119 906 1312 657 
Q 1506 409 1894 409 
Q 2359 409 2629 706 
Q 2900 1003 2900 1516 
L 2900 3500 
L 3475 3500 
L 3475 0 
L 2900 0 
L 2900 538 
Q 2691 219 2414 64 
Q 2138 -91 1772 -91 
Q 1169 -91 856 284 
Q 544 659 544 1381 
z
M 1991 3584 
L 1991 3584 
z
" transform="scale(0.015625)"/>
       <path id="DejaVuSans-64" d="M 2906 2969 
L 2906 4863 
L 3481 4863 
L 3481 0 
L 2906 0 
L 2906 525 
Q 2725 213 2448 61 
Q 2172 -91 1784 -91 
Q 1150 -91 751 415 
Q 353 922 353 1747 
Q 353 2572 751 3078 
Q 1150 3584 1784 3584 
Q 2172 3584 2448 3432 
Q 2725 3281 2906 2969 
z
M 947 1747 
Q 947 1113 1208 752 
Q 1469 391 1925 391 
Q 2381 391 2643 752 
Q 2906 1113 2906 1747 
Q 2906 2381 2643 2742 
Q 2381 3103 1925 3103 
Q 1469 3103 1208 2742 
Q 947 2381 947 1747 
z
" transform="scale(0.015625)"/>
       <path id="DejaVuSans-45" d="M 628 4666 
L 3578 4666 
L 3578 4134 
L 1259 4134 
L 1259 2753 
L 3481 2753 
L 3481 2222 
L 1259 2222 
L 1259 531 
L 3634 531 
L 3634 0 
L 628 0 
L 628 4666 
z
" transform="scale(0.015625)"/>
       <path id="DejaVuSans-43" d="M 4122 4306 
L 4122 3641 
Q 3803 3938 3442 4084 
Q 3081 4231 2675 4231 
Q 1875 4231 1450 3742 
Q 1025 3253 1025 2328 
Q 1025 1406 1450 917 
Q 1875 428 2675 428 
Q 3081 428 3442 575 
Q 3803 722 4122 1019 
L 4122 359 
Q 3791 134 3420 21 
Q 3050 -91 2638 -91 
Q 1578 -91 968 557 
Q 359 1206 359 2328 
Q 359 3453 968 4101 
Q 1578 4750 2638 4750 
Q 3056 4750 3426 4639 
Q 3797 4528 4122 4306 
z
" transform="scale(0.015625)"/>
       <path id="DejaVuSans-46" d="M 628 4666 
L 3309 4666 
L 3309 4134 
L 1259 4134 
L 1259 2759 
L 3109 2759 
L 3109 2228 
L 1259 2228 
L 1259 0 
L 628 0 
L 628 4666 
z
" transform="scale(0.015625)"/>
       <path id="DejaVuSans-76" d="M 191 3500 
L 800 3500 
L 1894 563 
L 2988 3500 
L 3597 3500 
L 2284 0 
L 1503 0 
L 191 3500 
z
" transform="scale(0.015625)"/>
      </defs>
      <use xlink:href="#DejaVuSans-61"/>
      <use xlink:href="#DejaVuSans-72" x="61.279297"/>
      <use xlink:href="#DejaVuSans-65" x="100.142578"/>
      <use xlink:href="#DejaVuSans-61" x="161.666016"/>
      <use xlink:href="#DejaVuSans-20" x="222.945312"/>
      <use xlink:href="#DejaVuSans-75" x="254.732422"/>
      <use xlink:href="#DejaVuSans-6e" x="318.111328"/>
      <use xlink:href="#DejaVuSans-64" x="381.490234"/>
      <use xlink:href="#DejaVuSans-65" x="444.966797"/>
      <use xlink:href="#DejaVuSans-72" x="506.490234"/>
      <use xlink:href="#DejaVuSans-20" x="547.603516"/>
      <use xlink:href="#DejaVuSans-45" x="579.390625"/>
      <use xlink:href="#DejaVuSans-43" x="642.574219"/>
      <use xlink:href="#DejaVuSans-44" x="712.398438"/>
      <use xlink:href="#DejaVuSans-46" x="789.400391"/>
      <use xlink:href="#DejaVuSans-20" x="846.919922"/>
      <use xlink:href="#DejaVuSans-63" x="878.707031"/>
      <use xlink:href="#DejaVuSans-75" x="933.6875"/>
      <use xlink:href="#DejaVuSans-72" x="997.066406"/>
      <use xlink:href="#DejaVuSans-76" x="1038.179688"/>
      <use xlink:href="#DejaVuSans-65" x="1097.359375"/>
     </g>
    </g>
   </g>
   <g id="patch_3">
    <path d="M 71.248313 401.052375 
L 71.248313 25.965375 
" style="fill: none; stroke: #000000; stroke-width: 1.25; stroke-linejoin: miter; stroke-linecap: square"/>
   </g>
   <g id="patch_4">
    <path d="M 266.750512 401.052375 
L 266.750512 25.965375 
" style="fill: none; stroke: #000000; stroke-width: 1.25; stroke-linejoin: miter; stroke-linecap: square"/>
   </g>
   <g id="patch_5">
    <path d="M 71.248313 401.052375 
L 266.750513 401.052375 
" style="fill: none; stroke: #000000; stroke-width: 1.25; stroke-linejoin: miter; stroke-linecap: square"/>
   </g>
   <g id="patch_6">
    <path d="M 71.248313 25.965375 
L 266.750513 25.965375 
" style="fill: none; stroke: #000000; stroke-width: 1.25; stroke-linejoin: miter; stroke-linecap: square"/>
   </g>
   <g id="text_12">
    <!-- 2-4h WE -->
    <g transform="translate(133.673475 19.965375)scale(0.168 -0.168)">
     <defs>
      <path id="DejaVuSans-57" d="M 213 4666 
L 850 4666 
L 1831 722 
L 2809 4666 
L 3519 4666 
L 4500 722 
L 5478 4666 
L 6119 4666 
L 4947 0 
L 4153 0 
L 3169 4050 
L 2175 0 
L 1381 0 
L 213 4666 
z
" transform="scale(0.015625)"/>
     </defs>
     <use xlink:href="#DejaVuSans-32"/>
     <use xlink:href="#DejaVuSans-2d" x="63.623047"/>
     <use xlink:href="#DejaVuSans-34" x="99.707031"/>
     <use xlink:href="#DejaVuSans-68" x="163.330078"/>
     <use xlink:href="#DejaVuSans-20" x="226.708984"/>
     <use xlink:href="#DejaVuSans-57" x="258.496094"/>
     <use xlink:href="#DejaVuSans-45" x="357.373047"/>
    </g>
   </g>
  </g>
  <g id="axes_2">
   <g id="patch_7">
    <path d="M 284.894513 401.052375 
L 480.396712 401.052375 
L 480.396712 25.965375 
L 284.894513 25.965375 
z
" style="fill: #ffffff"/>
   </g>
   <g id="PathCollection_7">
    <defs>
     <path id="C2_0_93925320ba" d="M 0 7.071068 
C 1.875269 7.071068 3.673985 6.326016 5 5 
C 6.326016 3.673985 7.071068 1.875269 7.071068 -0 
C 7.071068 -1.875269 6.326016 -3.673985 5 -5 
C 3.673985 -6.326016 1.875269 -7.071068 0 -7.071068 
C -1.875269 -7.071068 -3.673985 -6.326016 -5 -5 
C -6.326016 -3.673985 -7.071068 -1.875269 -7.071068 0 
C -7.071068 1.875269 -6.326016 3.673985 -5 5 
C -3.673985 6.326016 -1.875269 7.071068 0 7.071068 
z
"/>
    </defs>
    <g clip-path="url(#p6ee5f4d1cf)">
     <use xlink:href="#C2_0_93925320ba" x="309.332288" y="154.632127" style="fill: #888888; stroke: #ffffff; stroke-width: 1.131371"/>
    </g>
    <g clip-path="url(#p6ee5f4d1cf)">
     <use xlink:href="#C2_0_93925320ba" x="358.207837" y="321.442684" style="fill: #888888; stroke: #ffffff; stroke-width: 1.131371"/>
    </g>
    <g clip-path="url(#p6ee5f4d1cf)">
     <use xlink:href="#C2_0_93925320ba" x="407.083387" y="57.350838" style="fill: #185249; stroke: #ffffff; stroke-width: 1.131371"/>
    </g>
    <g clip-path="url(#p6ee5f4d1cf)">
     <use xlink:href="#C2_0_93925320ba" x="455.958937" y="162.823339" style="fill: #185249; stroke: #ffffff; stroke-width: 1.131371"/>
    </g>
   </g>
   <g id="PathCollection_8"/>
   <g id="PathCollection_9"/>
   <g id="PathCollection_10">
    <defs>
     <path id="C3_0_588ac3038b" d="M 2.915561 -6.338177 
Q 1.475067 -6.338177 0.484006 -5.335592 
Q -0.507054 -4.33877 -0.507054 -2.898275 
Q -0.507054 -1.475067 0.484006 -0.49553 
Q 1.475067 0.484006 2.915561 0.484006 
Q 4.356056 0.484006 5.347116 -0.49553 
Q 6.338177 -1.475067 6.338177 -2.898275 
Q 6.338177 -4.321484 5.335592 -5.32983 
Q 4.33877 -6.338177 2.915561 -6.338177 
z
M 2.915561 -8.660254 
Q 4.067957 -8.660254 5.128161 -8.216582 
Q 6.194127 -7.778671 6.966232 -6.948946 
Q 7.795957 -6.142269 8.21082 -5.110875 
Q 8.625682 -4.085243 8.625682 -2.898275 
Q 8.625682 -0.52434 6.96047 1.123586 
Q 5.295258 2.771512 2.880989 2.771512 
Q 0.449434 2.771512 -1.169682 1.152396 
Q -2.788798 -0.46672 -2.788798 -2.898275 
Q -2.788798 -5.312544 -1.13511 -6.983518 
Q 0.52434 -8.660254 2.915561 -8.660254 
z
"/>
    </defs>
    <g clip-path="url(#p6ee5f4d1cf)">
     <use xlink:href="#C3_0_588ac3038b" x="309.332288" y="190.824803" style="fill: #888888; stroke: #888888; stroke-width: 1.385641"/>
    </g>
    <g clip-path="url(#p6ee5f4d1cf)">
     <use xlink:href="#C3_0_588ac3038b" x="358.207837" y="205.959085" style="fill: #888888; stroke: #888888; stroke-width: 1.385641"/>
    </g>
    <g clip-path="url(#p6ee5f4d1cf)">
     <use xlink:href="#C3_0_588ac3038b" x="407.083387" y="145.462342" style="fill: #185249; stroke: #185249; stroke-width: 1.385641"/>
    </g>
    <g clip-path="url(#p6ee5f4d1cf)">
     <use xlink:href="#C3_0_588ac3038b" x="455.958937" y="209.152028" style="fill: #185249; stroke: #185249; stroke-width: 1.385641"/>
    </g>
   </g>
   <g id="PathCollection_11"/>
   <g id="PathCollection_12"/>
   <g id="matplotlib.axis_3">
    <g id="xtick_5">
     <g id="text_13">
      <!-- DGRP-439_cish -->
      <g transform="translate(313.367569 527.161656)rotate(-90)scale(0.154 -0.154)">
       <use xlink:href="#DejaVuSans-44"/>
       <use xlink:href="#DejaVuSans-47" x="77.001953"/>
       <use xlink:href="#DejaVuSans-52" x="154.492188"/>
       <use xlink:href="#DejaVuSans-50" x="223.974609"/>
       <use xlink:href="#DejaVuSans-2d" x="282.027344"/>
       <use xlink:href="#DejaVuSans-34" x="318.111328"/>
       <use xlink:href="#DejaVuSans-33" x="381.734375"/>
       <use xlink:href="#DejaVuSans-39" x="445.357422"/>
       <use xlink:href="#DejaVuSans-5f" x="508.980469"/>
       <use xlink:href="#DejaVuSans-63" x="558.980469"/>
       <use xlink:href="#DejaVuSans-69" x="613.960938"/>
       <use xlink:href="#DejaVuSans-73" x="641.744141"/>
       <use xlink:href="#DejaVuSans-68" x="693.84375"/>
      </g>
     </g>
    </g>
    <g id="xtick_6">
     <g id="text_14">
      <!-- DGRP-57_cish -->
      <g transform="translate(362.243119 517.363406)rotate(-90)scale(0.154 -0.154)">
       <use xlink:href="#DejaVuSans-44"/>
       <use xlink:href="#DejaVuSans-47" x="77.001953"/>
       <use xlink:href="#DejaVuSans-52" x="154.492188"/>
       <use xlink:href="#DejaVuSans-50" x="223.974609"/>
       <use xlink:href="#DejaVuSans-2d" x="282.027344"/>
       <use xlink:href="#DejaVuSans-35" x="318.111328"/>
       <use xlink:href="#DejaVuSans-37" x="381.734375"/>
       <use xlink:href="#DejaVuSans-5f" x="445.357422"/>
       <use xlink:href="#DejaVuSans-63" x="495.357422"/>
       <use xlink:href="#DejaVuSans-69" x="550.337891"/>
       <use xlink:href="#DejaVuSans-73" x="578.121094"/>
       <use xlink:href="#DejaVuSans-68" x="630.220703"/>
      </g>
     </g>
    </g>
    <g id="xtick_7">
     <g id="text_15">
      <!-- DGRP-439_transh -->
      <g transform="translate(411.118669 545.980937)rotate(-90)scale(0.154 -0.154)">
       <use xlink:href="#DejaVuSans-44"/>
       <use xlink:href="#DejaVuSans-47" x="77.001953"/>
       <use xlink:href="#DejaVuSans-52" x="154.492188"/>
       <use xlink:href="#DejaVuSans-50" x="223.974609"/>
       <use xlink:href="#DejaVuSans-2d" x="282.027344"/>
       <use xlink:href="#DejaVuSans-34" x="318.111328"/>
       <use xlink:href="#DejaVuSans-33" x="381.734375"/>
       <use xlink:href="#DejaVuSans-39" x="445.357422"/>
       <use xlink:href="#DejaVuSans-5f" x="508.980469"/>
       <use xlink:href="#DejaVuSans-74" x="558.980469"/>
       <use xlink:href="#DejaVuSans-72" x="598.189453"/>
       <use xlink:href="#DejaVuSans-61" x="639.302734"/>
       <use xlink:href="#DejaVuSans-6e" x="700.582031"/>
       <use xlink:href="#DejaVuSans-73" x="763.960938"/>
       <use xlink:href="#DejaVuSans-68" x="816.060547"/>
      </g>
     </g>
    </g>
    <g id="xtick_8">
     <g id="text_16">
      <!-- DGRP-57_transh -->
      <g transform="translate(459.994219 536.182687)rotate(-90)scale(0.154 -0.154)">
       <use xlink:href="#DejaVuSans-44"/>
       <use xlink:href="#DejaVuSans-47" x="77.001953"/>
       <use xlink:href="#DejaVuSans-52" x="154.492188"/>
       <use xlink:href="#DejaVuSans-50" x="223.974609"/>
       <use xlink:href="#DejaVuSans-2d" x="282.027344"/>
       <use xlink:href="#DejaVuSans-35" x="318.111328"/>
       <use xlink:href="#DejaVuSans-37" x="381.734375"/>
       <use xlink:href="#DejaVuSans-5f" x="445.357422"/>
       <use xlink:href="#DejaVuSans-74" x="495.357422"/>
       <use xlink:href="#DejaVuSans-72" x="534.566406"/>
       <use xlink:href="#DejaVuSans-61" x="575.679688"/>
       <use xlink:href="#DejaVuSans-6e" x="636.958984"/>
       <use xlink:href="#DejaVuSans-73" x="700.337891"/>
       <use xlink:href="#DejaVuSans-68" x="752.4375"/>
      </g>
     </g>
    </g>
   </g>
   <g id="matplotlib.axis_4">
    <g id="ytick_7"/>
    <g id="ytick_8"/>
    <g id="ytick_9"/>
    <g id="ytick_10"/>
    <g id="ytick_11"/>
    <g id="ytick_12"/>
   </g>
   <g id="patch_8">
    <path d="M 284.894513 401.052375 
L 284.894513 25.965375 
" style="fill: none; stroke: #000000; stroke-width: 1.25; stroke-linejoin: miter; stroke-linecap: square"/>
   </g>
   <g id="patch_9">
    <path d="M 480.396712 401.052375 
L 480.396712 25.965375 
" style="fill: none; stroke: #000000; stroke-width: 1.25; stroke-linejoin: miter; stroke-linecap: square"/>
   </g>
   <g id="patch_10">
    <path d="M 284.894513 401.052375 
L 480.396712 401.052375 
" style="fill: none; stroke: #000000; stroke-width: 1.25; stroke-linejoin: miter; stroke-linecap: square"/>
   </g>
   <g id="patch_11">
    <path d="M 284.894513 25.965375 
L 480.396712 25.965375 
" style="fill: none; stroke: #000000; stroke-width: 1.25; stroke-linejoin: miter; stroke-linecap: square"/>
   </g>
   <g id="text_17">
    <!-- 4-6h WE -->
    <g transform="translate(347.319675 19.965375)scale(0.168 -0.168)">
     <use xlink:href="#DejaVuSans-34"/>
     <use xlink:href="#DejaVuSans-2d" x="63.623047"/>
     <use xlink:href="#DejaVuSans-36" x="99.707031"/>
     <use xlink:href="#DejaVuSans-68" x="163.330078"/>
     <use xlink:href="#DejaVuSans-20" x="226.708984"/>
     <use xlink:href="#DejaVuSans-57" x="258.496094"/>
     <use xlink:href="#DejaVuSans-45" x="357.373047"/>
    </g>
   </g>
  </g>
  <g id="axes_3">
   <g id="patch_12">
    <path d="M 498.540713 401.052375 
L 694.042912 401.052375 
L 694.042912 25.965375 
L 498.540713 25.965375 
z
" style="fill: #ffffff"/>
   </g>
   <g id="PathCollection_13">
    <defs>
     <path id="C4_0_11d5ac78ff" d="M 0 7.071068 
C 1.875269 7.071068 3.673985 6.326016 5 5 
C 6.326016 3.673985 7.071068 1.875269 7.071068 -0 
C 7.071068 -1.875269 6.326016 -3.673985 5 -5 
C 3.673985 -6.326016 1.875269 -7.071068 0 -7.071068 
C -1.875269 -7.071068 -3.673985 -6.326016 -5 -5 
C -6.326016 -3.673985 -7.071068 -1.875269 -7.071068 0 
C -7.071068 1.875269 -6.326016 3.673985 -5 5 
C -3.673985 6.326016 -1.875269 7.071068 0 7.071068 
z
"/>
    </defs>
    <g clip-path="url(#p6758b52892)">
     <use xlink:href="#C4_0_11d5ac78ff" x="522.978488" y="125.628454" style="fill: #888888; stroke: #ffffff; stroke-width: 1.131371"/>
    </g>
    <g clip-path="url(#p6758b52892)">
     <use xlink:href="#C4_0_11d5ac78ff" x="571.854038" y="288.111753" style="fill: #888888; stroke: #ffffff; stroke-width: 1.131371"/>
    </g>
    <g clip-path="url(#p6758b52892)">
     <use xlink:href="#C4_0_11d5ac78ff" x="620.729587" y="43.014784" style="fill: #185249; stroke: #ffffff; stroke-width: 1.131371"/>
    </g>
    <g clip-path="url(#p6758b52892)">
     <use xlink:href="#C4_0_11d5ac78ff" x="669.605137" y="174.00382" style="fill: #185249; stroke: #ffffff; stroke-width: 1.131371"/>
    </g>
   </g>
   <g id="PathCollection_14"/>
   <g id="PathCollection_15"/>
   <g id="PathCollection_16">
    <defs>
     <path id="C5_0_954f1d7874" d="M 2.915561 -6.338177 
Q 1.475067 -6.338177 0.484006 -5.335592 
Q -0.507054 -4.33877 -0.507054 -2.898275 
Q -0.507054 -1.475067 0.484006 -0.49553 
Q 1.475067 0.484006 2.915561 0.484006 
Q 4.356056 0.484006 5.347116 -0.49553 
Q 6.338177 -1.475067 6.338177 -2.898275 
Q 6.338177 -4.321484 5.335592 -5.32983 
Q 4.33877 -6.338177 2.915561 -6.338177 
z
M 2.915561 -8.660254 
Q 4.067957 -8.660254 5.128161 -8.216582 
Q 6.194127 -7.778671 6.966232 -6.948946 
Q 7.795957 -6.142269 8.21082 -5.110875 
Q 8.625682 -4.085243 8.625682 -2.898275 
Q 8.625682 -0.52434 6.96047 1.123586 
Q 5.295258 2.771512 2.880989 2.771512 
Q 0.449434 2.771512 -1.169682 1.152396 
Q -2.788798 -0.46672 -2.788798 -2.898275 
Q -2.788798 -5.312544 -1.13511 -6.983518 
Q 0.52434 -8.660254 2.915561 -8.660254 
z
"/>
    </defs>
    <g clip-path="url(#p6758b52892)">
     <use xlink:href="#C5_0_954f1d7874" x="522.978488" y="157.30902" style="fill: #888888; stroke: #888888; stroke-width: 1.385641"/>
    </g>
    <g clip-path="url(#p6758b52892)">
     <use xlink:href="#C5_0_954f1d7874" x="571.854038" y="173.24783" style="fill: #888888; stroke: #888888; stroke-width: 1.385641"/>
    </g>
    <g clip-path="url(#p6758b52892)">
     <use xlink:href="#C5_0_954f1d7874" x="620.729587" y="105.581266" style="fill: #185249; stroke: #185249; stroke-width: 1.385641"/>
    </g>
    <g clip-path="url(#p6758b52892)">
     <use xlink:href="#C5_0_954f1d7874" x="669.605137" y="188.966736" style="fill: #185249; stroke: #185249; stroke-width: 1.385641"/>
    </g>
   </g>
   <g id="PathCollection_17"/>
   <g id="PathCollection_18"/>
   <g id="matplotlib.axis_5">
    <g id="xtick_9">
     <g id="text_18">
      <!-- DGRP-439_cish -->
      <g transform="translate(527.013769 527.161656)rotate(-90)scale(0.154 -0.154)">
       <use xlink:href="#DejaVuSans-44"/>
       <use xlink:href="#DejaVuSans-47" x="77.001953"/>
       <use xlink:href="#DejaVuSans-52" x="154.492188"/>
       <use xlink:href="#DejaVuSans-50" x="223.974609"/>
       <use xlink:href="#DejaVuSans-2d" x="282.027344"/>
       <use xlink:href="#DejaVuSans-34" x="318.111328"/>
       <use xlink:href="#DejaVuSans-33" x="381.734375"/>
       <use xlink:href="#DejaVuSans-39" x="445.357422"/>
       <use xlink:href="#DejaVuSans-5f" x="508.980469"/>
       <use xlink:href="#DejaVuSans-63" x="558.980469"/>
       <use xlink:href="#DejaVuSans-69" x="613.960938"/>
       <use xlink:href="#DejaVuSans-73" x="641.744141"/>
       <use xlink:href="#DejaVuSans-68" x="693.84375"/>
      </g>
     </g>
    </g>
    <g id="xtick_10">
     <g id="text_19">
      <!-- DGRP-57_cish -->
      <g transform="translate(575.889319 517.363406)rotate(-90)scale(0.154 -0.154)">
       <use xlink:href="#DejaVuSans-44"/>
       <use xlink:href="#DejaVuSans-47" x="77.001953"/>
       <use xlink:href="#DejaVuSans-52" x="154.492188"/>
       <use xlink:href="#DejaVuSans-50" x="223.974609"/>
       <use xlink:href="#DejaVuSans-2d" x="282.027344"/>
       <use xlink:href="#DejaVuSans-35" x="318.111328"/>
       <use xlink:href="#DejaVuSans-37" x="381.734375"/>
       <use xlink:href="#DejaVuSans-5f" x="445.357422"/>
       <use xlink:href="#DejaVuSans-63" x="495.357422"/>
       <use xlink:href="#DejaVuSans-69" x="550.337891"/>
       <use xlink:href="#DejaVuSans-73" x="578.121094"/>
       <use xlink:href="#DejaVuSans-68" x="630.220703"/>
      </g>
     </g>
    </g>
    <g id="xtick_11">
     <g id="text_20">
      <!-- DGRP-439_transh -->
      <g transform="translate(624.764869 545.980937)rotate(-90)scale(0.154 -0.154)">
       <use xlink:href="#DejaVuSans-44"/>
       <use xlink:href="#DejaVuSans-47" x="77.001953"/>
       <use xlink:href="#DejaVuSans-52" x="154.492188"/>
       <use xlink:href="#DejaVuSans-50" x="223.974609"/>
       <use xlink:href="#DejaVuSans-2d" x="282.027344"/>
       <use xlink:href="#DejaVuSans-34" x="318.111328"/>
       <use xlink:href="#DejaVuSans-33" x="381.734375"/>
       <use xlink:href="#DejaVuSans-39" x="445.357422"/>
       <use xlink:href="#DejaVuSans-5f" x="508.980469"/>
       <use xlink:href="#DejaVuSans-74" x="558.980469"/>
       <use xlink:href="#DejaVuSans-72" x="598.189453"/>
       <use xlink:href="#DejaVuSans-61" x="639.302734"/>
       <use xlink:href="#DejaVuSans-6e" x="700.582031"/>
       <use xlink:href="#DejaVuSans-73" x="763.960938"/>
       <use xlink:href="#DejaVuSans-68" x="816.060547"/>
      </g>
     </g>
    </g>
    <g id="xtick_12">
     <g id="text_21">
      <!-- DGRP-57_transh -->
      <g transform="translate(673.640419 536.182687)rotate(-90)scale(0.154 -0.154)">
       <use xlink:href="#DejaVuSans-44"/>
       <use xlink:href="#DejaVuSans-47" x="77.001953"/>
       <use xlink:href="#DejaVuSans-52" x="154.492188"/>
       <use xlink:href="#DejaVuSans-50" x="223.974609"/>
       <use xlink:href="#DejaVuSans-2d" x="282.027344"/>
       <use xlink:href="#DejaVuSans-35" x="318.111328"/>
       <use xlink:href="#DejaVuSans-37" x="381.734375"/>
       <use xlink:href="#DejaVuSans-5f" x="445.357422"/>
       <use xlink:href="#DejaVuSans-74" x="495.357422"/>
       <use xlink:href="#DejaVuSans-72" x="534.566406"/>
       <use xlink:href="#DejaVuSans-61" x="575.679688"/>
       <use xlink:href="#DejaVuSans-6e" x="636.958984"/>
       <use xlink:href="#DejaVuSans-73" x="700.337891"/>
       <use xlink:href="#DejaVuSans-68" x="752.4375"/>
      </g>
     </g>
    </g>
   </g>
   <g id="matplotlib.axis_6">
    <g id="ytick_13"/>
    <g id="ytick_14"/>
    <g id="ytick_15"/>
    <g id="ytick_16"/>
    <g id="ytick_17"/>
    <g id="ytick_18"/>
   </g>
   <g id="patch_13">
    <path d="M 498.540713 401.052375 
L 498.540713 25.965375 
" style="fill: none; stroke: #000000; stroke-width: 1.25; stroke-linejoin: miter; stroke-linecap: square"/>
   </g>
   <g id="patch_14">
    <path d="M 694.042912 401.052375 
L 694.042912 25.965375 
" style="fill: none; stroke: #000000; stroke-width: 1.25; stroke-linejoin: miter; stroke-linecap: square"/>
   </g>
   <g id="patch_15">
    <path d="M 498.540713 401.052375 
L 694.042912 401.052375 
" style="fill: none; stroke: #000000; stroke-width: 1.25; stroke-linejoin: miter; stroke-linecap: square"/>
   </g>
   <g id="patch_16">
    <path d="M 498.540713 25.965375 
L 694.042912 25.965375 
" style="fill: none; stroke: #000000; stroke-width: 1.25; stroke-linejoin: miter; stroke-linecap: square"/>
   </g>
   <g id="text_22">
    <!-- 6-8h WE -->
    <g transform="translate(560.965875 19.965375)scale(0.168 -0.168)">
     <use xlink:href="#DejaVuSans-36"/>
     <use xlink:href="#DejaVuSans-2d" x="63.623047"/>
     <use xlink:href="#DejaVuSans-38" x="99.707031"/>
     <use xlink:href="#DejaVuSans-68" x="163.330078"/>
     <use xlink:href="#DejaVuSans-20" x="226.708984"/>
     <use xlink:href="#DejaVuSans-57" x="258.496094"/>
     <use xlink:href="#DejaVuSans-45" x="357.373047"/>
    </g>
   </g>
  </g>
  <g id="axes_4">
   <g id="patch_17">
    <path d="M 712.186912 401.052375 
L 907.689112 401.052375 
L 907.689112 25.965375 
L 712.186912 25.965375 
z
" style="fill: #ffffff"/>
   </g>
   <g id="PathCollection_19">
    <defs>
     <path id="C6_0_26022d8549" d="M 0 7.071068 
C 1.875269 7.071068 3.673985 6.326016 5 5 
C 6.326016 3.673985 7.071068 1.875269 7.071068 -0 
C 7.071068 -1.875269 6.326016 -3.673985 5 -5 
C 3.673985 -6.326016 1.875269 -7.071068 0 -7.071068 
C -1.875269 -7.071068 -3.673985 -6.326016 -5 -5 
C -6.326016 -3.673985 -7.071068 -1.875269 -7.071068 0 
C -7.071068 1.875269 -6.326016 3.673985 -5 5 
C -3.673985 6.326016 -1.875269 7.071068 0 7.071068 
z
"/>
    </defs>
    <g clip-path="url(#pf476787540)">
     <use xlink:href="#C6_0_26022d8549" x="736.624687" y="181.417349" style="fill: #888888; stroke: #ffffff; stroke-width: 1.131371"/>
    </g>
    <g clip-path="url(#pf476787540)">
     <use xlink:href="#C6_0_26022d8549" x="785.500237" y="285.954434" style="fill: #888888; stroke: #ffffff; stroke-width: 1.131371"/>
    </g>
    <g clip-path="url(#pf476787540)">
     <use xlink:href="#C6_0_26022d8549" x="834.375787" y="165.183916" style="fill: #185249; stroke: #ffffff; stroke-width: 1.131371"/>
    </g>
    <g clip-path="url(#pf476787540)">
     <use xlink:href="#C6_0_26022d8549" x="883.251337" y="108.19089" style="fill: #185249; stroke: #ffffff; stroke-width: 1.131371"/>
    </g>
   </g>
   <g id="PathCollection_20"/>
   <g id="PathCollection_21"/>
   <g id="PathCollection_22">
    <defs>
     <path id="C7_0_4581cebb78" d="M 2.915561 -6.338177 
Q 1.475067 -6.338177 0.484006 -5.335592 
Q -0.507054 -4.33877 -0.507054 -2.898275 
Q -0.507054 -1.475067 0.484006 -0.49553 
Q 1.475067 0.484006 2.915561 0.484006 
Q 4.356056 0.484006 5.347116 -0.49553 
Q 6.338177 -1.475067 6.338177 -2.898275 
Q 6.338177 -4.321484 5.335592 -5.32983 
Q 4.33877 -6.338177 2.915561 -6.338177 
z
M 2.915561 -8.660254 
Q 4.067957 -8.660254 5.128161 -8.216582 
Q 6.194127 -7.778671 6.966232 -6.948946 
Q 7.795957 -6.142269 8.21082 -5.110875 
Q 8.625682 -4.085243 8.625682 -2.898275 
Q 8.625682 -0.52434 6.96047 1.123586 
Q 5.295258 2.771512 2.880989 2.771512 
Q 0.449434 2.771512 -1.169682 1.152396 
Q -2.788798 -0.46672 -2.788798 -2.898275 
Q -2.788798 -5.312544 -1.13511 -6.983518 
Q 0.52434 -8.660254 2.915561 -8.660254 
z
"/>
    </defs>
    <g clip-path="url(#pf476787540)">
     <use xlink:href="#C7_0_4581cebb78" x="736.624687" y="156.447315" style="fill: #888888; stroke: #888888; stroke-width: 1.385641"/>
    </g>
    <g clip-path="url(#pf476787540)">
     <use xlink:href="#C7_0_4581cebb78" x="785.500237" y="162.937541" style="fill: #888888; stroke: #888888; stroke-width: 1.385641"/>
    </g>
    <g clip-path="url(#pf476787540)">
     <use xlink:href="#C7_0_4581cebb78" x="834.375787" y="135.5103" style="fill: #185249; stroke: #185249; stroke-width: 1.385641"/>
    </g>
    <g clip-path="url(#pf476787540)">
     <use xlink:href="#C7_0_4581cebb78" x="883.251337" y="137.736156" style="fill: #185249; stroke: #185249; stroke-width: 1.385641"/>
    </g>
   </g>
   <g id="PathCollection_23"/>
   <g id="PathCollection_24"/>
   <g id="matplotlib.axis_7">
    <g id="xtick_13">
     <g id="text_23">
      <!-- DGRP-439_cish -->
      <g transform="translate(740.659969 527.161656)rotate(-90)scale(0.154 -0.154)">
       <use xlink:href="#DejaVuSans-44"/>
       <use xlink:href="#DejaVuSans-47" x="77.001953"/>
       <use xlink:href="#DejaVuSans-52" x="154.492188"/>
       <use xlink:href="#DejaVuSans-50" x="223.974609"/>
       <use xlink:href="#DejaVuSans-2d" x="282.027344"/>
       <use xlink:href="#DejaVuSans-34" x="318.111328"/>
       <use xlink:href="#DejaVuSans-33" x="381.734375"/>
       <use xlink:href="#DejaVuSans-39" x="445.357422"/>
       <use xlink:href="#DejaVuSans-5f" x="508.980469"/>
       <use xlink:href="#DejaVuSans-63" x="558.980469"/>
       <use xlink:href="#DejaVuSans-69" x="613.960938"/>
       <use xlink:href="#DejaVuSans-73" x="641.744141"/>
       <use xlink:href="#DejaVuSans-68" x="693.84375"/>
      </g>
     </g>
    </g>
    <g id="xtick_14">
     <g id="text_24">
      <!-- DGRP-57_cish -->
      <g transform="translate(789.535519 517.363406)rotate(-90)scale(0.154 -0.154)">
       <use xlink:href="#DejaVuSans-44"/>
       <use xlink:href="#DejaVuSans-47" x="77.001953"/>
       <use xlink:href="#DejaVuSans-52" x="154.492188"/>
       <use xlink:href="#DejaVuSans-50" x="223.974609"/>
       <use xlink:href="#DejaVuSans-2d" x="282.027344"/>
       <use xlink:href="#DejaVuSans-35" x="318.111328"/>
       <use xlink:href="#DejaVuSans-37" x="381.734375"/>
       <use xlink:href="#DejaVuSans-5f" x="445.357422"/>
       <use xlink:href="#DejaVuSans-63" x="495.357422"/>
       <use xlink:href="#DejaVuSans-69" x="550.337891"/>
       <use xlink:href="#DejaVuSans-73" x="578.121094"/>
       <use xlink:href="#DejaVuSans-68" x="630.220703"/>
      </g>
     </g>
    </g>
    <g id="xtick_15">
     <g id="text_25">
      <!-- DGRP-439_transh -->
      <g transform="translate(838.411069 545.980937)rotate(-90)scale(0.154 -0.154)">
       <use xlink:href="#DejaVuSans-44"/>
       <use xlink:href="#DejaVuSans-47" x="77.001953"/>
       <use xlink:href="#DejaVuSans-52" x="154.492188"/>
       <use xlink:href="#DejaVuSans-50" x="223.974609"/>
       <use xlink:href="#DejaVuSans-2d" x="282.027344"/>
       <use xlink:href="#DejaVuSans-34" x="318.111328"/>
       <use xlink:href="#DejaVuSans-33" x="381.734375"/>
       <use xlink:href="#DejaVuSans-39" x="445.357422"/>
       <use xlink:href="#DejaVuSans-5f" x="508.980469"/>
       <use xlink:href="#DejaVuSans-74" x="558.980469"/>
       <use xlink:href="#DejaVuSans-72" x="598.189453"/>
       <use xlink:href="#DejaVuSans-61" x="639.302734"/>
       <use xlink:href="#DejaVuSans-6e" x="700.582031"/>
       <use xlink:href="#DejaVuSans-73" x="763.960938"/>
       <use xlink:href="#DejaVuSans-68" x="816.060547"/>
      </g>
     </g>
    </g>
    <g id="xtick_16">
     <g id="text_26">
      <!-- DGRP-57_transh -->
      <g transform="translate(887.286619 536.182687)rotate(-90)scale(0.154 -0.154)">
       <use xlink:href="#DejaVuSans-44"/>
       <use xlink:href="#DejaVuSans-47" x="77.001953"/>
       <use xlink:href="#DejaVuSans-52" x="154.492188"/>
       <use xlink:href="#DejaVuSans-50" x="223.974609"/>
       <use xlink:href="#DejaVuSans-2d" x="282.027344"/>
       <use xlink:href="#DejaVuSans-35" x="318.111328"/>
       <use xlink:href="#DejaVuSans-37" x="381.734375"/>
       <use xlink:href="#DejaVuSans-5f" x="445.357422"/>
       <use xlink:href="#DejaVuSans-74" x="495.357422"/>
       <use xlink:href="#DejaVuSans-72" x="534.566406"/>
       <use xlink:href="#DejaVuSans-61" x="575.679688"/>
       <use xlink:href="#DejaVuSans-6e" x="636.958984"/>
       <use xlink:href="#DejaVuSans-73" x="700.337891"/>
       <use xlink:href="#DejaVuSans-68" x="752.4375"/>
      </g>
     </g>
    </g>
   </g>
   <g id="matplotlib.axis_8">
    <g id="ytick_19"/>
    <g id="ytick_20"/>
    <g id="ytick_21"/>
    <g id="ytick_22"/>
    <g id="ytick_23"/>
    <g id="ytick_24"/>
   </g>
   <g id="patch_18">
    <path d="M 712.186912 401.052375 
L 712.186912 25.965375 
" style="fill: none; stroke: #000000; stroke-width: 1.25; stroke-linejoin: miter; stroke-linecap: square"/>
   </g>
   <g id="patch_19">
    <path d="M 907.689112 401.052375 
L 907.689112 25.965375 
" style="fill: none; stroke: #000000; stroke-width: 1.25; stroke-linejoin: miter; stroke-linecap: square"/>
   </g>
   <g id="patch_20">
    <path d="M 712.186912 401.052375 
L 907.689112 401.052375 
" style="fill: none; stroke: #000000; stroke-width: 1.25; stroke-linejoin: miter; stroke-linecap: square"/>
   </g>
   <g id="patch_21">
    <path d="M 712.186912 25.965375 
L 907.689112 25.965375 
" style="fill: none; stroke: #000000; stroke-width: 1.25; stroke-linejoin: miter; stroke-linecap: square"/>
   </g>
   <g id="text_27">
    <!-- 8-10h WE -->
    <g transform="translate(769.267575 19.965375)scale(0.168 -0.168)">
     <defs>
      <path id="DejaVuSans-31" d="M 794 531 
L 1825 531 
L 1825 4091 
L 703 3866 
L 703 4441 
L 1819 4666 
L 2450 4666 
L 2450 531 
L 3481 531 
L 3481 0 
L 794 0 
L 794 531 
z
" transform="scale(0.015625)"/>
     </defs>
     <use xlink:href="#DejaVuSans-38"/>
     <use xlink:href="#DejaVuSans-2d" x="63.623047"/>
     <use xlink:href="#DejaVuSans-31" x="99.707031"/>
     <use xlink:href="#DejaVuSans-30" x="163.330078"/>
     <use xlink:href="#DejaVuSans-68" x="226.953125"/>
     <use xlink:href="#DejaVuSans-20" x="290.332031"/>
     <use xlink:href="#DejaVuSans-57" x="322.119141"/>
     <use xlink:href="#DejaVuSans-45" x="420.996094"/>
    </g>
   </g>
  </g>
  <g id="axes_5">
   <g id="patch_22">
    <path d="M 925.833112 401.052375 
L 1121.335313 401.052375 
L 1121.335313 25.965375 
L 925.833112 25.965375 
z
" style="fill: #ffffff"/>
   </g>
   <g id="PathCollection_25">
    <defs>
     <path id="C8_0_8612b6e4c2" d="M 0 7.071068 
C 1.875269 7.071068 3.673985 6.326016 5 5 
C 6.326016 3.673985 7.071068 1.875269 7.071068 -0 
C 7.071068 -1.875269 6.326016 -3.673985 5 -5 
C 3.673985 -6.326016 1.875269 -7.071068 0 -7.071068 
C -1.875269 -7.071068 -3.673985 -6.326016 -5 -5 
C -6.326016 -3.673985 -7.071068 -1.875269 -7.071068 0 
C -7.071068 1.875269 -6.326016 3.673985 -5 5 
C -3.673985 6.326016 -1.875269 7.071068 0 7.071068 
z
"/>
    </defs>
    <g clip-path="url(#p363d70252c)">
     <use xlink:href="#C8_0_8612b6e4c2" x="950.270887" y="166.51425" style="fill: #888888; stroke: #ffffff; stroke-width: 1.131371"/>
    </g>
    <g clip-path="url(#p363d70252c)">
     <use xlink:href="#C8_0_8612b6e4c2" x="999.146438" y="213.472815" style="fill: #888888; stroke: #ffffff; stroke-width: 1.131371"/>
    </g>
    <g clip-path="url(#p363d70252c)">
     <use xlink:href="#C8_0_8612b6e4c2" x="1048.021988" y="119.167952" style="fill: #185249; stroke: #ffffff; stroke-width: 1.131371"/>
    </g>
    <g clip-path="url(#p363d70252c)">
     <use xlink:href="#C8_0_8612b6e4c2" x="1096.897537" y="118.223516" style="fill: #185249; stroke: #ffffff; stroke-width: 1.131371"/>
    </g>
   </g>
   <g id="PathCollection_26"/>
   <g id="PathCollection_27"/>
   <g id="PathCollection_28">
    <defs>
     <path id="C9_0_2c2be1b5c6" d="M 2.915561 -6.338177 
Q 1.475067 -6.338177 0.484006 -5.335592 
Q -0.507054 -4.33877 -0.507054 -2.898275 
Q -0.507054 -1.475067 0.484006 -0.49553 
Q 1.475067 0.484006 2.915561 0.484006 
Q 4.356056 0.484006 5.347116 -0.49553 
Q 6.338177 -1.475067 6.338177 -2.898275 
Q 6.338177 -4.321484 5.335592 -5.32983 
Q 4.33877 -6.338177 2.915561 -6.338177 
z
M 2.915561 -8.660254 
Q 4.067957 -8.660254 5.128161 -8.216582 
Q 6.194127 -7.778671 6.966232 -6.948946 
Q 7.795957 -6.142269 8.21082 -5.110875 
Q 8.625682 -4.085243 8.625682 -2.898275 
Q 8.625682 -0.52434 6.96047 1.123586 
Q 5.295258 2.771512 2.880989 2.771512 
Q 0.449434 2.771512 -1.169682 1.152396 
Q -2.788798 -0.46672 -2.788798 -2.898275 
Q -2.788798 -5.312544 -1.13511 -6.983518 
Q 0.52434 -8.660254 2.915561 -8.660254 
z
"/>
    </defs>
    <g clip-path="url(#p363d70252c)">
     <use xlink:href="#C9_0_2c2be1b5c6" x="950.270887" y="119.031335" style="fill: #888888; stroke: #888888; stroke-width: 1.385641"/>
    </g>
    <g clip-path="url(#p363d70252c)">
     <use xlink:href="#C9_0_2c2be1b5c6" x="999.146438" y="127.73339" style="fill: #888888; stroke: #888888; stroke-width: 1.385641"/>
    </g>
    <g clip-path="url(#p363d70252c)">
     <use xlink:href="#C9_0_2c2be1b5c6" x="1048.021988" y="102.27887" style="fill: #185249; stroke: #185249; stroke-width: 1.385641"/>
    </g>
    <g clip-path="url(#p363d70252c)">
     <use xlink:href="#C9_0_2c2be1b5c6" x="1096.897537" y="71.743252" style="fill: #185249; stroke: #185249; stroke-width: 1.385641"/>
    </g>
   </g>
   <g id="PathCollection_29"/>
   <g id="PathCollection_30"/>
   <g id="matplotlib.axis_9">
    <g id="xtick_17">
     <g id="text_28">
      <!-- DGRP-439_cish -->
      <g transform="translate(954.306169 527.161656)rotate(-90)scale(0.154 -0.154)">
       <use xlink:href="#DejaVuSans-44"/>
       <use xlink:href="#DejaVuSans-47" x="77.001953"/>
       <use xlink:href="#DejaVuSans-52" x="154.492188"/>
       <use xlink:href="#DejaVuSans-50" x="223.974609"/>
       <use xlink:href="#DejaVuSans-2d" x="282.027344"/>
       <use xlink:href="#DejaVuSans-34" x="318.111328"/>
       <use xlink:href="#DejaVuSans-33" x="381.734375"/>
       <use xlink:href="#DejaVuSans-39" x="445.357422"/>
       <use xlink:href="#DejaVuSans-5f" x="508.980469"/>
       <use xlink:href="#DejaVuSans-63" x="558.980469"/>
       <use xlink:href="#DejaVuSans-69" x="613.960938"/>
       <use xlink:href="#DejaVuSans-73" x="641.744141"/>
       <use xlink:href="#DejaVuSans-68" x="693.84375"/>
      </g>
     </g>
    </g>
    <g id="xtick_18">
     <g id="text_29">
      <!-- DGRP-57_cish -->
      <g transform="translate(1003.181719 517.363406)rotate(-90)scale(0.154 -0.154)">
       <use xlink:href="#DejaVuSans-44"/>
       <use xlink:href="#DejaVuSans-47" x="77.001953"/>
       <use xlink:href="#DejaVuSans-52" x="154.492188"/>
       <use xlink:href="#DejaVuSans-50" x="223.974609"/>
       <use xlink:href="#DejaVuSans-2d" x="282.027344"/>
       <use xlink:href="#DejaVuSans-35" x="318.111328"/>
       <use xlink:href="#DejaVuSans-37" x="381.734375"/>
       <use xlink:href="#DejaVuSans-5f" x="445.357422"/>
       <use xlink:href="#DejaVuSans-63" x="495.357422"/>
       <use xlink:href="#DejaVuSans-69" x="550.337891"/>
       <use xlink:href="#DejaVuSans-73" x="578.121094"/>
       <use xlink:href="#DejaVuSans-68" x="630.220703"/>
      </g>
     </g>
    </g>
    <g id="xtick_19">
     <g id="text_30">
      <!-- DGRP-439_transh -->
      <g transform="translate(1052.057269 545.980937)rotate(-90)scale(0.154 -0.154)">
       <use xlink:href="#DejaVuSans-44"/>
       <use xlink:href="#DejaVuSans-47" x="77.001953"/>
       <use xlink:href="#DejaVuSans-52" x="154.492188"/>
       <use xlink:href="#DejaVuSans-50" x="223.974609"/>
       <use xlink:href="#DejaVuSans-2d" x="282.027344"/>
       <use xlink:href="#DejaVuSans-34" x="318.111328"/>
       <use xlink:href="#DejaVuSans-33" x="381.734375"/>
       <use xlink:href="#DejaVuSans-39" x="445.357422"/>
       <use xlink:href="#DejaVuSans-5f" x="508.980469"/>
       <use xlink:href="#DejaVuSans-74" x="558.980469"/>
       <use xlink:href="#DejaVuSans-72" x="598.189453"/>
       <use xlink:href="#DejaVuSans-61" x="639.302734"/>
       <use xlink:href="#DejaVuSans-6e" x="700.582031"/>
       <use xlink:href="#DejaVuSans-73" x="763.960938"/>
       <use xlink:href="#DejaVuSans-68" x="816.060547"/>
      </g>
     </g>
    </g>
    <g id="xtick_20">
     <g id="text_31">
      <!-- DGRP-57_transh -->
      <g transform="translate(1100.932819 536.182687)rotate(-90)scale(0.154 -0.154)">
       <use xlink:href="#DejaVuSans-44"/>
       <use xlink:href="#DejaVuSans-47" x="77.001953"/>
       <use xlink:href="#DejaVuSans-52" x="154.492188"/>
       <use xlink:href="#DejaVuSans-50" x="223.974609"/>
       <use xlink:href="#DejaVuSans-2d" x="282.027344"/>
       <use xlink:href="#DejaVuSans-35" x="318.111328"/>
       <use xlink:href="#DejaVuSans-37" x="381.734375"/>
       <use xlink:href="#DejaVuSans-5f" x="445.357422"/>
       <use xlink:href="#DejaVuSans-74" x="495.357422"/>
       <use xlink:href="#DejaVuSans-72" x="534.566406"/>
       <use xlink:href="#DejaVuSans-61" x="575.679688"/>
       <use xlink:href="#DejaVuSans-6e" x="636.958984"/>
       <use xlink:href="#DejaVuSans-73" x="700.337891"/>
       <use xlink:href="#DejaVuSans-68" x="752.4375"/>
      </g>
     </g>
    </g>
   </g>
   <g id="matplotlib.axis_10">
    <g id="ytick_25"/>
    <g id="ytick_26"/>
    <g id="ytick_27"/>
    <g id="ytick_28"/>
    <g id="ytick_29"/>
    <g id="ytick_30"/>
   </g>
   <g id="patch_23">
    <path d="M 925.833112 401.052375 
L 925.833112 25.965375 
" style="fill: none; stroke: #000000; stroke-width: 1.25; stroke-linejoin: miter; stroke-linecap: square"/>
   </g>
   <g id="patch_24">
    <path d="M 1121.335313 401.052375 
L 1121.335313 25.965375 
" style="fill: none; stroke: #000000; stroke-width: 1.25; stroke-linejoin: miter; stroke-linecap: square"/>
   </g>
   <g id="patch_25">
    <path d="M 925.833112 401.052375 
L 1121.335313 401.052375 
" style="fill: none; stroke: #000000; stroke-width: 1.25; stroke-linejoin: miter; stroke-linecap: square"/>
   </g>
   <g id="patch_26">
    <path d="M 925.833112 25.965375 
L 1121.335313 25.965375 
" style="fill: none; stroke: #000000; stroke-width: 1.25; stroke-linejoin: miter; stroke-linecap: square"/>
   </g>
   <g id="text_32">
    <!-- 10-12h WE -->
    <g transform="translate(977.569275 19.965375)scale(0.168 -0.168)">
     <use xlink:href="#DejaVuSans-31"/>
     <use xlink:href="#DejaVuSans-30" x="63.623047"/>
     <use xlink:href="#DejaVuSans-2d" x="127.246094"/>
     <use xlink:href="#DejaVuSans-31" x="163.330078"/>
     <use xlink:href="#DejaVuSans-32" x="226.953125"/>
     <use xlink:href="#DejaVuSans-68" x="290.576172"/>
     <use xlink:href="#DejaVuSans-20" x="353.955078"/>
     <use xlink:href="#DejaVuSans-57" x="385.742188"/>
     <use xlink:href="#DejaVuSans-45" x="484.619141"/>
    </g>
   </g>
  </g>
 </g>
 <defs>
  <clipPath id="pfbe6b3e227">
   <rect x="71.248313" y="25.965375" width="195.5022" height="375.087"/>
  </clipPath>
  <clipPath id="p6ee5f4d1cf">
   <rect x="284.894513" y="25.965375" width="195.5022" height="375.087"/>
  </clipPath>
  <clipPath id="p6758b52892">
   <rect x="498.540713" y="25.965375" width="195.5022" height="375.087"/>
  </clipPath>
  <clipPath id="pf476787540">
   <rect x="712.186912" y="25.965375" width="195.5022" height="375.087"/>
  </clipPath>
  <clipPath id="p363d70252c">
   <rect x="925.833112" y="25.965375" width="195.5022" height="375.087"/>
  </clipPath>
 </defs>
</svg>
