<?xml version="1.0" encoding="utf-8" standalone="no"?>
<!DOCTYPE svg PUBLIC "-//W3C//DTD SVG 1.1//EN"
  "http://www.w3.org/Graphics/SVG/1.1/DTD/svg11.dtd">
<svg xmlns:xlink="http://www.w3.org/1999/xlink" width="829.741906pt" height="403.988938pt" viewBox="0 0 829.741906 403.988938" xmlns="http://www.w3.org/2000/svg" version="1.1">
 <metadata>
  <rdf:RDF xmlns:dc="http://purl.org/dc/elements/1.1/" xmlns:cc="http://creativecommons.org/ns#" xmlns:rdf="http://www.w3.org/1999/02/22-rdf-syntax-ns#">
   <cc:Work>
    <dc:type rdf:resource="http://purl.org/dc/dcmitype/StillImage"/>
    <dc:date>2025-02-19T10:34:41.936511</dc:date>
    <dc:format>image/svg+xml</dc:format>
    <dc:creator>
     <cc:Agent>
      <dc:title>Matplotlib v3.5.1, https://matplotlib.org/</dc:title>
     </cc:Agent>
    </dc:creator>
   </cc:Work>
  </rdf:RDF>
 </metadata>
 <defs>
  <style type="text/css">*{stroke-linejoin: round; stroke-linecap: butt}</style>
 </defs>
 <g id="figure_1">
  <g id="patch_1">
   <path d="M 0 403.988938 
L 829.741906 403.988938 
L 829.741906 0 
L 0 0 
L 0 403.988938 
z
" style="fill: none"/>
  </g>
  <g id="axes_1">
   <g id="patch_2">
    <path d="M 69.460469 352.125375 
L 627.460469 352.125375 
L 627.460469 25.965375 
L 69.460469 25.965375 
z
" style="fill: #ffffff"/>
   </g>
   <g id="patch_3">
    <path d="M 198.279839 205.794061 
L 198.279839 205.794061 
L 198.279839 205.794061 
L 198.279839 205.794061 
z
" clip-path="url(#p93ab0b9a2a)" style="fill: #a1a1a1; stroke: #2f2f2f; stroke-width: 0.75; stroke-linejoin: miter"/>
   </g>
   <g id="PolyCollection_1">
    <defs>
     <path id="mf86731f3ed" d="M 122.757619 -186.159178 
L 119.967015 -186.159178 
L 119.398376 -187.572392 
L 118.66122 -188.985606 
L 117.731385 -190.39882 
L 116.59043 -191.812034 
L 115.228954 -193.225248 
L 113.649701 -194.638462 
L 111.869963 -196.051676 
L 109.922791 -197.46489 
L 107.856662 -198.878104 
L 105.733418 -200.291318 
L 103.624546 -201.704532 
L 101.606137 -203.117746 
L 99.753073 -204.53096 
L 98.133092 -205.944174 
L 96.80143 -207.357388 
L 95.796622 -208.770602 
L 95.137859 -210.183816 
L 94.824105 -211.59703 
L 94.83491 -213.010245 
L 95.132731 -214.423459 
L 95.666405 -215.836673 
L 96.375379 -217.249887 
L 97.194301 -218.663101 
L 98.057591 -220.076315 
L 98.903692 -221.489529 
L 99.678737 -222.902743 
L 100.339453 -224.315957 
L 100.855196 -225.729171 
L 101.209044 -227.142385 
L 101.397964 -228.555599 
L 101.432092 -229.968813 
L 101.333205 -231.382027 
L 101.132532 -232.795241 
L 100.868024 -234.208455 
L 100.58131 -235.621669 
L 100.314541 -237.034883 
L 100.107386 -238.448097 
L 99.994421 -239.861311 
L 100.003146 -241.274525 
L 100.152765 -242.687739 
L 100.45382 -244.100953 
L 100.908591 -245.514167 
L 101.512128 -246.927381 
L 102.253684 -248.340595 
L 103.118273 -249.753809 
L 104.088143 -251.167023 
L 105.143978 -252.580237 
L 106.265764 -253.993451 
L 107.433319 -255.406665 
L 108.626581 -256.819879 
L 109.825767 -258.233093 
L 111.011532 -259.646307 
L 112.165217 -261.059521 
L 113.269256 -262.472735 
L 114.307714 -263.885949 
L 115.266929 -265.299163 
L 116.136157 -266.712377 
L 116.908115 -268.125591 
L 117.579332 -269.538805 
L 118.150213 -270.952019 
L 118.624801 -272.365233 
L 119.010226 -273.778447 
L 119.315934 -275.191661 
L 119.552772 -276.604875 
L 119.732075 -278.018089 
L 119.86485 -279.431303 
L 119.961168 -280.844517 
L 120.029791 -282.257731 
L 120.078032 -283.670945 
L 120.111799 -285.084159 
L 120.135749 -286.497373 
L 120.153477 -287.910587 
L 120.167685 -289.323801 
L 120.1803 -290.737015 
L 120.192568 -292.150229 
L 120.205137 -293.563443 
L 120.218172 -294.976657 
L 120.231535 -296.389871 
L 120.245017 -297.803085 
L 120.258591 -299.216299 
L 120.272639 -300.629513 
L 120.288092 -302.042727 
L 120.306435 -303.455941 
L 120.329558 -304.869156 
L 120.359484 -306.28237 
L 120.398012 -307.695584 
L 120.446361 -309.108798 
L 120.504889 -310.522012 
L 120.572946 -311.935226 
L 120.648887 -313.34844 
L 120.73025 -314.761654 
L 120.814052 -316.174868 
L 120.897144 -317.588082 
L 120.976571 -319.001296 
L 121.049857 -320.41451 
L 121.115207 -321.827724 
L 121.17158 -323.240938 
L 121.218665 -324.654152 
L 121.256774 -326.067366 
L 121.46786 -326.067366 
L 121.46786 -326.067366 
L 121.505969 -324.654152 
L 121.553054 -323.240938 
L 121.609426 -321.827724 
L 121.674776 -320.41451 
L 121.748063 -319.001296 
L 121.827489 -317.588082 
L 121.910582 -316.174868 
L 121.994383 -314.761654 
L 122.075746 -313.34844 
L 122.151687 -311.935226 
L 122.219744 -310.522012 
L 122.278272 -309.108798 
L 122.326621 -307.695584 
L 122.365149 -306.28237 
L 122.395075 -304.869156 
L 122.418199 -303.455941 
L 122.436541 -302.042727 
L 122.451995 -300.629513 
L 122.466043 -299.216299 
L 122.479616 -297.803085 
L 122.493098 -296.389871 
L 122.506462 -294.976657 
L 122.519497 -293.563443 
L 122.532065 -292.150229 
L 122.544334 -290.737015 
L 122.556949 -289.323801 
L 122.571156 -287.910587 
L 122.588884 -286.497373 
L 122.612834 -285.084159 
L 122.646601 -283.670945 
L 122.694842 -282.257731 
L 122.763466 -280.844517 
L 122.859784 -279.431303 
L 122.992559 -278.018089 
L 123.171861 -276.604875 
L 123.4087 -275.191661 
L 123.714408 -273.778447 
L 124.099833 -272.365233 
L 124.57442 -270.952019 
L 125.145302 -269.538805 
L 125.816518 -268.125591 
L 126.588477 -266.712377 
L 127.457704 -265.299163 
L 128.416919 -263.885949 
L 129.455377 -262.472735 
L 130.559416 -261.059521 
L 131.713102 -259.646307 
L 132.898866 -258.233093 
L 134.098053 -256.819879 
L 135.291315 -255.406665 
L 136.45887 -253.993451 
L 137.580655 -252.580237 
L 138.63649 -251.167023 
L 139.60636 -249.753809 
L 140.470949 -248.340595 
L 141.212505 -246.927381 
L 141.816043 -245.514167 
L 142.270813 -244.100953 
L 142.571868 -242.687739 
L 142.721488 -241.274525 
L 142.730212 -239.861311 
L 142.617248 -238.448097 
L 142.410092 -237.034883 
L 142.143324 -235.621669 
L 141.856609 -234.208455 
L 141.592101 -232.795241 
L 141.391428 -231.382027 
L 141.292542 -229.968813 
L 141.326669 -228.555599 
L 141.51559 -227.142385 
L 141.869438 -225.729171 
L 142.385181 -224.315957 
L 143.045897 -222.902743 
L 143.820941 -221.489529 
L 144.667043 -220.076315 
L 145.530333 -218.663101 
L 146.349254 -217.249887 
L 147.058228 -215.836673 
L 147.591902 -214.423459 
L 147.889724 -213.010245 
L 147.900528 -211.59703 
L 147.586774 -210.183816 
L 146.928012 -208.770602 
L 145.923203 -207.357388 
L 144.591542 -205.944174 
L 142.97156 -204.53096 
L 141.118496 -203.117746 
L 139.100088 -201.704532 
L 136.991215 -200.291318 
L 134.867971 -198.878104 
L 132.801843 -197.46489 
L 130.85467 -196.051676 
L 129.074932 -194.638462 
L 127.49568 -193.225248 
L 126.134204 -191.812034 
L 124.993249 -190.39882 
L 124.063414 -188.985606 
L 123.326258 -187.572392 
L 122.757619 -186.159178 
z
" style="stroke: #2f2f2f; stroke-width: 1.5"/>
    </defs>
    <g clip-path="url(#p93ab0b9a2a)">
     <use xlink:href="#mf86731f3ed" x="0" y="403.988938" style="fill: #a1a1a1; stroke: #2f2f2f; stroke-width: 1.5"/>
    </g>
   </g>
   <g id="patch_4">
    <path d="M 198.279839 205.794061 
L 198.279839 205.794061 
L 198.279839 205.794061 
L 198.279839 205.794061 
z
" clip-path="url(#p93ab0b9a2a)" style="fill: #2f6e65; stroke: #2f2f2f; stroke-width: 0.75; stroke-linejoin: miter"/>
   </g>
   <g id="PolyCollection_2">
    <defs>
     <path id="m8d54d50aa5" d="M 199.081207 -187.033203 
L 197.478472 -187.033203 
L 197.20503 -188.159172 
L 196.860347 -189.28514 
L 196.433702 -190.411109 
L 195.915261 -191.537077 
L 195.296976 -192.663045 
L 194.573574 -193.789014 
L 193.743563 -194.914982 
L 192.810158 -196.04095 
L 191.782006 -197.166919 
L 190.67362 -198.292887 
L 189.505399 -199.418856 
L 188.303175 -200.544824 
L 187.097263 -201.670792 
L 185.92102 -202.796761 
L 184.809018 -203.922729 
L 183.794943 -205.048698 
L 182.909422 -206.174666 
L 182.177958 -207.300634 
L 181.619194 -208.426603 
L 181.243679 -209.552571 
L 181.053261 -210.67854 
L 181.041177 -211.804508 
L 181.192822 -212.930476 
L 181.48711 -214.056445 
L 181.898261 -215.182413 
L 182.39782 -216.308382 
L 182.956676 -217.43435 
L 183.546857 -218.560318 
L 184.142919 -219.686287 
L 184.722793 -220.812255 
L 185.268016 -221.938224 
L 185.763379 -223.064192 
L 186.196046 -224.19016 
L 186.554318 -225.316129 
L 186.826231 -226.442097 
L 186.998203 -227.568066 
L 187.053971 -228.694034 
L 186.97403 -229.820002 
L 186.735726 -230.945971 
L 186.314132 -232.071939 
L 185.68371 -233.197908 
L 184.820708 -234.323876 
L 183.706124 -235.449844 
L 182.328986 -236.575813 
L 180.689614 -237.701781 
L 178.802504 -238.82775 
L 176.698428 -239.953718 
L 174.425413 -241.079686 
L 172.048302 -242.205655 
L 169.646771 -243.331623 
L 167.311781 -244.457592 
L 165.140656 -245.58356 
L 163.23113 -246.709528 
L 161.674862 -247.835497 
L 160.550992 -248.961465 
L 159.920379 -250.087434 
L 159.821078 -251.213402 
L 160.265522 -252.33937 
L 161.239705 -253.465339 
L 162.704422 -254.591307 
L 164.598441 -255.717276 
L 166.843243 -256.843244 
L 169.348842 -257.969212 
L 172.020089 -259.095181 
L 174.762871 -260.221149 
L 177.489648 -261.347118 
L 180.123914 -262.473086 
L 182.603309 -263.599054 
L 184.881289 -264.725023 
L 186.927405 -265.850991 
L 188.72639 -266.97696 
L 190.276337 -268.102928 
L 191.58628 -269.228896 
L 192.673516 -270.354865 
L 193.560919 -271.480833 
L 194.274494 -272.606802 
L 194.841286 -273.73277 
L 195.287739 -274.858738 
L 195.638491 -275.984707 
L 195.915586 -277.110675 
L 196.138036 -278.236643 
L 196.321654 -279.362612 
L 196.479098 -280.48858 
L 196.620052 -281.614549 
L 196.751505 -282.740517 
L 196.878094 -283.866485 
L 197.002471 -284.992454 
L 197.125698 -286.118422 
L 197.247627 -287.244391 
L 197.367282 -288.370359 
L 197.48319 -289.496327 
L 197.59369 -290.622296 
L 197.697176 -291.748264 
L 197.792278 -292.874233 
L 197.87799 -294.000201 
L 197.953728 -295.126169 
L 198.019335 -296.252138 
L 198.075049 -297.378106 
L 198.121435 -298.504075 
L 198.438244 -298.504075 
L 198.438244 -298.504075 
L 198.484629 -297.378106 
L 198.540343 -296.252138 
L 198.60595 -295.126169 
L 198.681688 -294.000201 
L 198.7674 -292.874233 
L 198.862503 -291.748264 
L 198.965988 -290.622296 
L 199.076489 -289.496327 
L 199.192397 -288.370359 
L 199.312051 -287.244391 
L 199.433981 -286.118422 
L 199.557207 -284.992454 
L 199.681584 -283.866485 
L 199.808173 -282.740517 
L 199.939627 -281.614549 
L 200.08058 -280.48858 
L 200.238024 -279.362612 
L 200.421642 -278.236643 
L 200.644092 -277.110675 
L 200.921187 -275.984707 
L 201.271939 -274.858738 
L 201.718392 -273.73277 
L 202.285185 -272.606802 
L 202.998759 -271.480833 
L 203.886162 -270.354865 
L 204.973398 -269.228896 
L 206.283342 -268.102928 
L 207.833288 -266.97696 
L 209.632273 -265.850991 
L 211.678389 -264.725023 
L 213.95637 -263.599054 
L 216.435765 -262.473086 
L 219.07003 -261.347118 
L 221.796807 -260.221149 
L 224.539589 -259.095181 
L 227.210837 -257.969212 
L 229.716435 -256.843244 
L 231.961237 -255.717276 
L 233.855257 -254.591307 
L 235.319974 -253.465339 
L 236.294156 -252.33937 
L 236.7386 -251.213402 
L 236.639299 -250.087434 
L 236.008686 -248.961465 
L 234.884816 -247.835497 
L 233.328548 -246.709528 
L 231.419023 -245.58356 
L 229.247898 -244.457592 
L 226.912908 -243.331623 
L 224.511377 -242.205655 
L 222.134266 -241.079686 
L 219.86125 -239.953718 
L 217.757175 -238.82775 
L 215.870065 -237.701781 
L 214.230693 -236.575813 
L 212.853554 -235.449844 
L 211.738971 -234.323876 
L 210.875969 -233.197908 
L 210.245547 -232.071939 
L 209.823952 -230.945971 
L 209.585649 -229.820002 
L 209.505707 -228.694034 
L 209.561475 -227.568066 
L 209.733447 -226.442097 
L 210.00536 -225.316129 
L 210.363633 -224.19016 
L 210.796299 -223.064192 
L 211.291662 -221.938224 
L 211.836886 -220.812255 
L 212.416759 -219.686287 
L 213.012822 -218.560318 
L 213.603003 -217.43435 
L 214.161859 -216.308382 
L 214.661418 -215.182413 
L 215.072568 -214.056445 
L 215.366856 -212.930476 
L 215.518501 -211.804508 
L 215.506417 -210.67854 
L 215.315999 -209.552571 
L 214.940484 -208.426603 
L 214.381721 -207.300634 
L 213.650256 -206.174666 
L 212.764735 -205.048698 
L 211.750661 -203.922729 
L 210.638658 -202.796761 
L 209.462416 -201.670792 
L 208.256503 -200.544824 
L 207.05428 -199.418856 
L 205.886058 -198.292887 
L 204.777672 -197.166919 
L 203.74952 -196.04095 
L 202.816115 -194.914982 
L 201.986105 -193.789014 
L 201.262703 -192.663045 
L 200.644417 -191.537077 
L 200.125976 -190.411109 
L 199.699331 -189.28514 
L 199.354649 -188.159172 
L 199.081207 -187.033203 
z
" style="stroke: #2f2f2f; stroke-width: 1.5"/>
    </defs>
    <g clip-path="url(#p93ab0b9a2a)">
     <use xlink:href="#m8d54d50aa5" x="0" y="403.988938" style="fill: #2f6e65; stroke: #2f2f2f; stroke-width: 1.5"/>
    </g>
   </g>
   <g id="patch_5">
    <path d="M 198.279839 205.794061 
L 198.279839 205.794061 
L 198.279839 205.794061 
L 198.279839 205.794061 
z
" clip-path="url(#p93ab0b9a2a)" style="fill: #6871a6; stroke: #2f2f2f; stroke-width: 0.75; stroke-linejoin: miter"/>
   </g>
   <g id="PolyCollection_3">
    <defs>
     <path id="m8c8f0f02d1" d="M 275.937244 -185.888827 
L 274.45748 -185.888827 
L 274.170218 -187.231463 
L 273.798635 -188.574099 
L 273.328766 -189.916735 
L 272.748131 -191.259371 
L 272.047205 -192.602007 
L 271.22102 -193.944644 
L 270.270705 -195.28728 
L 269.204791 -196.629916 
L 268.040027 -197.972552 
L 266.801548 -199.315188 
L 265.52222 -200.657824 
L 264.241136 -202.00046 
L 263.001311 -203.343096 
L 261.846759 -204.685732 
L 260.819247 -206.028368 
L 259.955061 -207.371004 
L 259.282181 -208.71364 
L 258.818179 -210.056276 
L 258.569103 -211.398912 
L 258.52943 -212.741548 
L 258.683063 -214.084185 
L 259.005175 -215.426821 
L 259.464578 -216.769457 
L 260.026269 -218.112093 
L 260.653763 -219.454729 
L 261.31091 -220.797365 
L 261.962998 -222.140001 
L 262.577071 -223.482637 
L 263.121576 -224.825273 
L 263.565561 -226.167909 
L 263.877762 -227.510545 
L 264.025971 -228.853181 
L 263.97706 -230.195817 
L 263.69795 -231.538453 
L 263.157683 -232.881089 
L 262.33058 -234.223725 
L 261.200227 -235.566362 
L 259.763864 -236.908998 
L 258.036554 -238.251634 
L 256.054446 -239.59427 
L 253.87642 -240.936906 
L 251.583547 -242.279542 
L 249.276016 -243.622178 
L 247.067527 -244.964814 
L 245.077483 -246.30745 
L 243.421707 -247.650086 
L 242.20269 -248.992722 
L 241.500504 -250.335358 
L 241.365524 -251.677994 
L 241.813893 -253.02063 
L 242.826307 -254.363266 
L 244.350272 -255.705903 
L 246.30549 -257.048539 
L 248.591633 -258.391175 
L 251.09749 -259.733811 
L 253.71033 -261.076447 
L 256.324421 -262.419083 
L 258.84784 -263.761719 
L 261.207047 -265.104355 
L 263.34906 -266.446991 
L 265.241385 -267.789627 
L 266.870148 -269.132263 
L 268.236995 -270.474899 
L 269.355369 -271.817535 
L 270.246743 -273.160171 
L 270.937204 -274.502807 
L 271.454683 -275.845443 
L 271.826921 -277.18808 
L 272.080158 -278.530716 
L 272.238431 -279.873352 
L 272.323328 -281.215988 
L 272.354026 -282.558624 
L 272.347468 -283.90126 
L 272.318574 -285.243896 
L 272.280406 -286.586532 
L 272.244261 -287.929168 
L 272.219684 -289.271804 
L 272.214417 -290.61444 
L 272.234325 -291.957076 
L 272.28332 -293.299712 
L 272.363329 -294.642348 
L 272.474335 -295.984984 
L 272.614496 -297.327621 
L 272.780365 -298.670257 
L 272.967193 -300.012893 
L 273.169303 -301.355529 
L 273.380503 -302.698165 
L 273.594511 -304.040801 
L 273.805351 -305.383437 
L 274.007691 -306.726073 
L 274.197111 -308.068709 
L 274.370259 -309.411345 
L 274.52492 -310.753981 
L 274.659991 -312.096617 
L 274.775371 -313.439253 
L 274.871804 -314.781889 
L 274.950676 -316.124525 
L 275.013814 -317.467161 
L 275.063289 -318.809798 
L 275.331434 -318.809798 
L 275.331434 -318.809798 
L 275.380909 -317.467161 
L 275.444048 -316.124525 
L 275.52292 -314.781889 
L 275.619352 -313.439253 
L 275.734732 -312.096617 
L 275.869803 -310.753981 
L 276.024465 -309.411345 
L 276.197612 -308.068709 
L 276.387032 -306.726073 
L 276.589373 -305.383437 
L 276.800212 -304.040801 
L 277.01422 -302.698165 
L 277.22542 -301.355529 
L 277.42753 -300.012893 
L 277.614358 -298.670257 
L 277.780227 -297.327621 
L 277.920388 -295.984984 
L 278.031394 -294.642348 
L 278.111404 -293.299712 
L 278.160398 -291.957076 
L 278.180306 -290.61444 
L 278.17504 -289.271804 
L 278.150462 -287.929168 
L 278.114318 -286.586532 
L 278.07615 -285.243896 
L 278.047255 -283.90126 
L 278.040697 -282.558624 
L 278.071395 -281.215988 
L 278.156293 -279.873352 
L 278.314566 -278.530716 
L 278.567802 -277.18808 
L 278.94004 -275.845443 
L 279.45752 -274.502807 
L 280.147981 -273.160171 
L 281.039354 -271.817535 
L 282.157729 -270.474899 
L 283.524575 -269.132263 
L 285.153339 -267.789627 
L 287.045664 -266.446991 
L 289.187676 -265.104355 
L 291.546884 -263.761719 
L 294.070303 -262.419083 
L 296.684394 -261.076447 
L 299.297234 -259.733811 
L 301.80309 -258.391175 
L 304.089234 -257.048539 
L 306.044451 -255.705903 
L 307.568417 -254.363266 
L 308.580831 -253.02063 
L 309.029199 -251.677994 
L 308.894219 -250.335358 
L 308.192033 -248.992722 
L 306.973016 -247.650086 
L 305.31724 -246.30745 
L 303.327196 -244.964814 
L 301.118707 -243.622178 
L 298.811177 -242.279542 
L 296.518303 -240.936906 
L 294.340277 -239.59427 
L 292.35817 -238.251634 
L 290.63086 -236.908998 
L 289.194496 -235.566362 
L 288.064144 -234.223725 
L 287.237041 -232.881089 
L 286.696774 -231.538453 
L 286.417663 -230.195817 
L 286.368752 -228.853181 
L 286.516962 -227.510545 
L 286.829162 -226.167909 
L 287.273147 -224.825273 
L 287.817653 -223.482637 
L 288.431726 -222.140001 
L 289.083813 -220.797365 
L 289.740961 -219.454729 
L 290.368454 -218.112093 
L 290.930145 -216.769457 
L 291.389548 -215.426821 
L 291.71166 -214.084185 
L 291.865294 -212.741548 
L 291.82562 -211.398912 
L 291.576544 -210.056276 
L 291.112543 -208.71364 
L 290.439662 -207.371004 
L 289.575476 -206.028368 
L 288.547964 -204.685732 
L 287.393413 -203.343096 
L 286.153587 -202.00046 
L 284.872504 -200.657824 
L 283.593176 -199.315188 
L 282.354697 -197.972552 
L 281.189933 -196.629916 
L 280.124018 -195.28728 
L 279.173704 -193.944644 
L 278.347518 -192.602007 
L 277.646593 -191.259371 
L 277.065957 -189.916735 
L 276.596089 -188.574099 
L 276.224505 -187.231463 
L 275.937244 -185.888827 
z
" style="stroke: #2f2f2f; stroke-width: 1.5"/>
    </defs>
    <g clip-path="url(#p93ab0b9a2a)">
     <use xlink:href="#m8c8f0f02d1" x="0" y="403.988938" style="fill: #6871a6; stroke: #2f2f2f; stroke-width: 1.5"/>
    </g>
   </g>
   <g id="PolyCollection_4">
    <defs>
     <path id="m9b062e1f26" d="M 409.922538 -64.920886 
L 409.683514 -64.920886 
L 409.635956 -66.398531 
L 409.574549 -67.876175 
L 409.497211 -69.35382 
L 409.40217 -70.831464 
L 409.288159 -72.309109 
L 409.154586 -73.786753 
L 409.001667 -75.264397 
L 408.830478 -76.742042 
L 408.642937 -78.219686 
L 408.441696 -79.697331 
L 408.229965 -81.174975 
L 408.011287 -82.652619 
L 407.789298 -84.130264 
L 407.567519 -85.607908 
L 407.349198 -87.085553 
L 407.137231 -88.563197 
L 406.934175 -90.040841 
L 406.74231 -91.518486 
L 406.563748 -92.99613 
L 406.400508 -94.473775 
L 406.254535 -95.951419 
L 406.127604 -97.429063 
L 406.021117 -98.906708 
L 405.935797 -100.384352 
L 405.871342 -101.861997 
L 405.826108 -103.339641 
L 405.796902 -104.817285 
L 405.778941 -106.29493 
L 405.766006 -107.772574 
L 405.750749 -109.250219 
L 405.725094 -110.727863 
L 405.680605 -112.205508 
L 405.608709 -113.683152 
L 405.500665 -115.160796 
L 405.347253 -116.638441 
L 405.138201 -118.116085 
L 404.861503 -119.59373 
L 404.502831 -121.071374 
L 404.045298 -122.549018 
L 403.469845 -124.026663 
L 402.756419 -125.504307 
L 401.886009 -126.981952 
L 400.843397 -128.459596 
L 399.620299 -129.93724 
L 398.218402 -131.414885 
L 396.651725 -132.892529 
L 394.947747 -134.370174 
L 393.146934 -135.847818 
L 391.300501 -137.325462 
L 389.466613 -138.803107 
L 387.705494 -140.280751 
L 386.074129 -141.758396 
L 384.621346 -143.23604 
L 383.383946 -144.713685 
L 382.384342 -146.191329 
L 381.62988 -147.668973 
L 381.113648 -149.146618 
L 380.816389 -150.624262 
L 380.708952 -152.101907 
L 380.754786 -153.579551 
L 380.912103 -155.057195 
L 381.135593 -156.53484 
L 381.377796 -158.012484 
L 381.590437 -159.490129 
L 381.726091 -160.967773 
L 381.740443 -162.445417 
L 381.595263 -163.923062 
L 381.261918 -165.400706 
L 380.72501 -166.878351 
L 379.985562 -168.355995 
L 379.063123 -169.833639 
L 377.9963 -171.311284 
L 376.841417 -172.788928 
L 375.669365 -174.266573 
L 374.560916 -175.744217 
L 373.601053 -177.221862 
L 372.872917 -178.699506 
L 372.451942 -180.17715 
L 372.400667 -181.654795 
L 372.764509 -183.132439 
L 373.568706 -184.610084 
L 374.816503 -186.087728 
L 376.488657 -187.565372 
L 378.544317 -189.043017 
L 380.923311 -190.520661 
L 383.549812 -191.998306 
L 386.33722 -193.47595 
L 389.19395 -194.953594 
L 392.029619 -196.431239 
L 394.761041 -197.908883 
L 397.317383 -199.386528 
L 399.643959 -200.864172 
L 401.70429 -202.341816 
L 403.480331 -203.819461 
L 404.971025 -205.297105 
L 406.189538 -206.77475 
L 407.159696 -208.252394 
L 407.912137 -209.730039 
L 408.480668 -211.207683 
L 411.125385 -211.207683 
L 411.125385 -211.207683 
L 411.693916 -209.730039 
L 412.446356 -208.252394 
L 413.416514 -206.77475 
L 414.635027 -205.297105 
L 416.125721 -203.819461 
L 417.901762 -202.341816 
L 419.962093 -200.864172 
L 422.28867 -199.386528 
L 424.845012 -197.908883 
L 427.576433 -196.431239 
L 430.412102 -194.953594 
L 433.268832 -193.47595 
L 436.05624 -191.998306 
L 438.682741 -190.520661 
L 441.061735 -189.043017 
L 443.117396 -187.565372 
L 444.789549 -186.087728 
L 446.037346 -184.610084 
L 446.841543 -183.132439 
L 447.205386 -181.654795 
L 447.15411 -180.17715 
L 446.733135 -178.699506 
L 446.004999 -177.221862 
L 445.045137 -175.744217 
L 443.936687 -174.266573 
L 442.764635 -172.788928 
L 441.609753 -171.311284 
L 440.542929 -169.833639 
L 439.620491 -168.355995 
L 438.881042 -166.878351 
L 438.344134 -165.400706 
L 438.010789 -163.923062 
L 437.865609 -162.445417 
L 437.879961 -160.967773 
L 438.015615 -159.490129 
L 438.228257 -158.012484 
L 438.470459 -156.53484 
L 438.693949 -155.057195 
L 438.851267 -153.579551 
L 438.8971 -152.101907 
L 438.789663 -150.624262 
L 438.492404 -149.146618 
L 437.976173 -147.668973 
L 437.22171 -146.191329 
L 436.222107 -144.713685 
L 434.984706 -143.23604 
L 433.531924 -141.758396 
L 431.900558 -140.280751 
L 430.139439 -138.803107 
L 428.305551 -137.325462 
L 426.459118 -135.847818 
L 424.658305 -134.370174 
L 422.954328 -132.892529 
L 421.38765 -131.414885 
L 419.985753 -129.93724 
L 418.762655 -128.459596 
L 417.720043 -126.981952 
L 416.849633 -125.504307 
L 416.136207 -124.026663 
L 415.560754 -122.549018 
L 415.103221 -121.071374 
L 414.744549 -119.59373 
L 414.467852 -118.116085 
L 414.258799 -116.638441 
L 414.105387 -115.160796 
L 413.997343 -113.683152 
L 413.925447 -112.205508 
L 413.880958 -110.727863 
L 413.855303 -109.250219 
L 413.840046 -107.772574 
L 413.827111 -106.29493 
L 413.809151 -104.817285 
L 413.779944 -103.339641 
L 413.73471 -101.861997 
L 413.670255 -100.384352 
L 413.584935 -98.906708 
L 413.478448 -97.429063 
L 413.351517 -95.951419 
L 413.205544 -94.473775 
L 413.042304 -92.99613 
L 412.863742 -91.518486 
L 412.671877 -90.040841 
L 412.468821 -88.563197 
L 412.256855 -87.085553 
L 412.038533 -85.607908 
L 411.816754 -84.130264 
L 411.594765 -82.652619 
L 411.376087 -81.174975 
L 411.164356 -79.697331 
L 410.963116 -78.219686 
L 410.775574 -76.742042 
L 410.604385 -75.264397 
L 410.451466 -73.786753 
L 410.317894 -72.309109 
L 410.203882 -70.831464 
L 410.108841 -69.35382 
L 410.031503 -67.876175 
L 409.970096 -66.398531 
L 409.922538 -64.920886 
z
" style="stroke: #2f2f2f; stroke-width: 1.5"/>
    </defs>
    <g clip-path="url(#p93ab0b9a2a)">
     <use xlink:href="#m9b062e1f26" x="0" y="403.988938" style="fill: #a1a1a1; stroke: #2f2f2f; stroke-width: 1.5"/>
    </g>
   </g>
   <g id="PolyCollection_5">
    <defs>
     <path id="m5caa879cd0" d="M 486.938906 -72.437299 
L 486.502191 -72.437299 
L 486.435695 -73.862872 
L 486.355788 -75.288445 
L 486.262022 -76.714018 
L 486.154651 -78.139591 
L 486.03476 -79.565164 
L 485.904333 -80.990737 
L 485.766239 -82.41631 
L 485.624106 -83.841883 
L 485.482087 -85.267457 
L 485.344536 -86.69303 
L 485.215596 -88.118603 
L 485.09877 -89.544176 
L 484.996503 -90.969749 
L 484.909847 -92.395322 
L 484.838246 -93.820895 
L 484.77949 -95.246468 
L 484.729836 -96.672041 
L 484.6843 -98.097614 
L 484.637073 -99.523187 
L 484.582013 -100.94876 
L 484.513131 -102.374333 
L 484.425016 -103.799906 
L 484.313121 -105.225479 
L 484.173887 -106.651052 
L 484.004664 -108.076625 
L 483.803482 -109.502198 
L 483.568675 -110.927771 
L 483.298455 -112.353344 
L 482.990483 -113.778917 
L 482.641538 -115.20449 
L 482.247322 -116.630063 
L 481.802455 -118.055636 
L 481.300672 -119.481209 
L 480.735203 -120.906782 
L 480.099298 -122.332355 
L 479.386845 -123.757928 
L 478.593005 -125.183501 
L 477.714821 -126.609074 
L 476.751723 -128.034647 
L 475.705932 -129.46022 
L 474.582705 -130.885794 
L 473.390464 -132.311367 
L 472.140772 -133.73694 
L 470.848206 -135.162513 
L 469.530096 -136.588086 
L 468.206143 -138.013659 
L 466.897898 -139.439232 
L 465.628084 -140.864805 
L 464.419752 -142.290378 
L 463.295284 -143.715951 
L 462.275266 -145.141524 
L 461.377296 -146.567097 
L 460.614806 -147.99267 
L 459.995985 -149.418243 
L 459.52292 -150.843816 
L 459.191026 -152.269389 
L 458.98885 -153.694962 
L 458.898265 -155.120535 
L 458.895088 -156.546108 
L 458.950073 -157.971681 
L 459.030246 -159.397254 
L 459.100521 -160.822827 
L 459.125527 -162.2484 
L 459.071587 -163.673973 
L 458.908764 -165.099546 
L 458.612926 -166.525119 
L 458.16773 -167.950692 
L 457.56643 -169.376265 
L 456.813397 -170.801838 
L 455.925191 -172.227411 
L 454.931042 -173.652984 
L 453.872565 -175.078557 
L 452.802585 -176.504131 
L 451.783 -177.929704 
L 450.881666 -179.355277 
L 450.168446 -180.78085 
L 449.710639 -182.206423 
L 449.568129 -183.631996 
L 449.788706 -185.057569 
L 450.403995 -186.483142 
L 451.426464 -187.908715 
L 452.847857 -189.334288 
L 454.639281 -190.759861 
L 456.752984 -192.185434 
L 459.125665 -193.611007 
L 461.682996 -195.03658 
L 464.344889 -196.462153 
L 467.030955 -197.887726 
L 469.665643 -199.313299 
L 472.182568 -200.738872 
L 474.527706 -202.164445 
L 476.661256 -203.590018 
L 478.558169 -205.015591 
L 480.207462 -206.441164 
L 481.610576 -207.866737 
L 482.779069 -209.29231 
L 483.731989 -210.717883 
L 484.493223 -212.143456 
L 485.089051 -213.569029 
L 488.352046 -213.569029 
L 488.352046 -213.569029 
L 488.947874 -212.143456 
L 489.709108 -210.717883 
L 490.662029 -209.29231 
L 491.830521 -207.866737 
L 493.233635 -206.441164 
L 494.882929 -205.015591 
L 496.779841 -203.590018 
L 498.913391 -202.164445 
L 501.258529 -200.738872 
L 503.775455 -199.313299 
L 506.410143 -197.887726 
L 509.096209 -196.462153 
L 511.758101 -195.03658 
L 514.315433 -193.611007 
L 516.688113 -192.185434 
L 518.801816 -190.759861 
L 520.593241 -189.334288 
L 522.014633 -187.908715 
L 523.037102 -186.483142 
L 523.652391 -185.057569 
L 523.872968 -183.631996 
L 523.730459 -182.206423 
L 523.272651 -180.78085 
L 522.559432 -179.355277 
L 521.658097 -177.929704 
L 520.638512 -176.504131 
L 519.568533 -175.078557 
L 518.510055 -173.652984 
L 517.515906 -172.227411 
L 516.627701 -170.801838 
L 515.874667 -169.376265 
L 515.273367 -167.950692 
L 514.828171 -166.525119 
L 514.532333 -165.099546 
L 514.369511 -163.673973 
L 514.31557 -162.2484 
L 514.340577 -160.822827 
L 514.410851 -159.397254 
L 514.491024 -157.971681 
L 514.546009 -156.546108 
L 514.542832 -155.120535 
L 514.452248 -153.694962 
L 514.250071 -152.269389 
L 513.918177 -150.843816 
L 513.445112 -149.418243 
L 512.826291 -147.99267 
L 512.063801 -146.567097 
L 511.165832 -145.141524 
L 510.145813 -143.715951 
L 509.021345 -142.290378 
L 507.813013 -140.864805 
L 506.543199 -139.439232 
L 505.234955 -138.013659 
L 503.911001 -136.588086 
L 502.592891 -135.162513 
L 501.300325 -133.73694 
L 500.050633 -132.311367 
L 498.858392 -130.885794 
L 497.735166 -129.46022 
L 496.689374 -128.034647 
L 495.726277 -126.609074 
L 494.848092 -125.183501 
L 494.054253 -123.757928 
L 493.341799 -122.332355 
L 492.705895 -120.906782 
L 492.140425 -119.481209 
L 491.638642 -118.055636 
L 491.193775 -116.630063 
L 490.799559 -115.20449 
L 490.450614 -113.778917 
L 490.142643 -112.353344 
L 489.872422 -110.927771 
L 489.637616 -109.502198 
L 489.436433 -108.076625 
L 489.267211 -106.651052 
L 489.127976 -105.225479 
L 489.016082 -103.799906 
L 488.927966 -102.374333 
L 488.859084 -100.94876 
L 488.804024 -99.523187 
L 488.756797 -98.097614 
L 488.711261 -96.672041 
L 488.661607 -95.246468 
L 488.602851 -93.820895 
L 488.53125 -92.395322 
L 488.444594 -90.969749 
L 488.342327 -89.544176 
L 488.225501 -88.118603 
L 488.096561 -86.69303 
L 487.95901 -85.267457 
L 487.816992 -83.841883 
L 487.674858 -82.41631 
L 487.536764 -80.990737 
L 487.406338 -79.565164 
L 487.286446 -78.139591 
L 487.179075 -76.714018 
L 487.085309 -75.288445 
L 487.005402 -73.862872 
L 486.938906 -72.437299 
z
" style="stroke: #2f2f2f; stroke-width: 1.5"/>
    </defs>
    <g clip-path="url(#p93ab0b9a2a)">
     <use xlink:href="#m5caa879cd0" x="0" y="403.988938" style="fill: #2f6e65; stroke: #2f2f2f; stroke-width: 1.5"/>
    </g>
   </g>
   <g id="PolyCollection_6">
    <defs>
     <path id="m252c6f7795" d="M 563.831603 -70.181217 
L 563.444539 -70.181217 
L 563.369841 -71.599279 
L 563.275095 -73.01734 
L 563.158447 -74.435402 
L 563.019179 -75.853464 
L 562.858138 -77.271526 
L 562.678073 -78.689588 
L 562.483828 -80.107649 
L 562.282298 -81.525711 
L 562.082119 -82.943773 
L 561.893069 -84.361835 
L 561.725236 -85.779897 
L 561.588008 -87.197958 
L 561.489038 -88.61602 
L 561.433302 -90.034082 
L 561.422403 -91.452144 
L 561.454225 -92.870206 
L 561.523013 -94.288267 
L 561.619876 -95.706329 
L 561.733649 -97.124391 
L 561.852015 -98.542453 
L 561.96273 -99.960515 
L 562.054782 -101.378576 
L 562.119342 -102.796638 
L 562.150378 -104.2147 
L 562.144867 -105.632762 
L 562.102569 -107.050824 
L 562.02542 -108.468886 
L 561.916604 -109.886947 
L 561.779429 -111.305009 
L 561.616143 -112.723071 
L 561.426824 -114.141133 
L 561.208468 -115.559195 
L 560.954403 -116.977256 
L 560.6541 -118.395318 
L 560.293441 -119.81338 
L 559.855466 -121.231442 
L 559.321586 -122.649504 
L 558.673193 -124.067565 
L 557.893575 -125.485627 
L 556.96997 -126.903689 
L 555.895572 -128.321751 
L 554.671249 -129.739813 
L 553.306747 -131.157874 
L 551.821139 -132.575936 
L 550.242362 -133.993998 
L 548.605759 -135.41206 
L 546.951677 -136.830122 
L 545.322299 -138.248183 
L 543.758034 -139.666245 
L 542.293886 -141.084307 
L 540.95626 -142.502369 
L 539.760656 -143.920431 
L 538.710559 -145.338493 
L 537.797684 -146.756554 
L 537.003536 -148.174616 
L 536.30201 -149.592678 
L 535.662674 -151.01074 
L 535.054243 -152.428802 
L 534.447846 -153.846863 
L 533.819728 -155.264925 
L 533.153204 -156.682987 
L 532.439803 -158.101049 
L 531.67961 -159.519111 
L 530.880906 -160.937172 
L 530.059158 -162.355234 
L 529.235433 -163.773296 
L 528.434309 -165.191358 
L 527.681426 -166.60942 
L 527.000895 -168.027481 
L 526.412939 -169.445543 
L 525.932177 -170.863605 
L 525.566982 -172.281667 
L 525.320202 -173.699729 
L 525.191252 -175.11779 
L 525.17931 -176.535852 
L 525.286969 -177.953914 
L 525.52352 -179.371976 
L 525.906962 -180.790038 
L 526.464041 -182.2081 
L 527.227951 -183.626161 
L 528.233843 -185.044223 
L 529.512798 -186.462285 
L 531.085278 -187.880347 
L 532.955298 -189.298409 
L 535.106466 -190.71647 
L 537.500703 -192.134532 
L 540.080001 -193.552594 
L 542.770974 -194.970656 
L 545.491498 -196.388718 
L 548.158352 -197.806779 
L 550.694713 -199.224841 
L 553.036424 -200.642903 
L 555.136287 -202.060965 
L 556.966014 -203.479027 
L 558.515901 -204.897088 
L 559.792606 -206.31515 
L 560.815658 -207.733212 
L 561.613366 -209.151274 
L 562.218754 -210.569336 
L 565.057389 -210.569336 
L 565.057389 -210.569336 
L 565.662776 -209.151274 
L 566.460484 -207.733212 
L 567.483537 -206.31515 
L 568.760242 -204.897088 
L 570.310128 -203.479027 
L 572.139855 -202.060965 
L 574.239718 -200.642903 
L 576.58143 -199.224841 
L 579.11779 -197.806779 
L 581.784644 -196.388718 
L 584.505168 -194.970656 
L 587.196142 -193.552594 
L 589.775439 -192.134532 
L 592.169676 -190.71647 
L 594.320844 -189.298409 
L 596.190864 -187.880347 
L 597.763344 -186.462285 
L 599.042299 -185.044223 
L 600.048192 -183.626161 
L 600.812101 -182.2081 
L 601.36918 -180.790038 
L 601.752622 -179.371976 
L 601.989173 -177.953914 
L 602.096832 -176.535852 
L 602.084891 -175.11779 
L 601.955941 -173.699729 
L 601.70916 -172.281667 
L 601.343966 -170.863605 
L 600.863203 -169.445543 
L 600.275247 -168.027481 
L 599.594716 -166.60942 
L 598.841833 -165.191358 
L 598.04071 -163.773296 
L 597.216984 -162.355234 
L 596.395236 -160.937172 
L 595.596532 -159.519111 
L 594.83634 -158.101049 
L 594.122938 -156.682987 
L 593.456415 -155.264925 
L 592.828296 -153.846863 
L 592.221899 -152.428802 
L 591.613468 -151.01074 
L 590.974132 -149.592678 
L 590.272607 -148.174616 
L 589.478458 -146.756554 
L 588.565583 -145.338493 
L 587.515486 -143.920431 
L 586.319882 -142.502369 
L 584.982257 -141.084307 
L 583.518108 -139.666245 
L 581.953843 -138.248183 
L 580.324465 -136.830122 
L 578.670383 -135.41206 
L 577.03378 -133.993998 
L 575.455003 -132.575936 
L 573.969395 -131.157874 
L 572.604894 -129.739813 
L 571.380571 -128.321751 
L 570.306172 -126.903689 
L 569.382567 -125.485627 
L 568.602949 -124.067565 
L 567.954557 -122.649504 
L 567.420676 -121.231442 
L 566.982701 -119.81338 
L 566.622042 -118.395318 
L 566.321739 -116.977256 
L 566.067674 -115.559195 
L 565.849318 -114.141133 
L 565.659999 -112.723071 
L 565.496714 -111.305009 
L 565.359538 -109.886947 
L 565.250722 -108.468886 
L 565.173573 -107.050824 
L 565.131275 -105.632762 
L 565.125764 -104.2147 
L 565.156801 -102.796638 
L 565.22136 -101.378576 
L 565.313412 -99.960515 
L 565.424127 -98.542453 
L 565.542494 -97.124391 
L 565.656266 -95.706329 
L 565.753129 -94.288267 
L 565.821918 -92.870206 
L 565.85374 -91.452144 
L 565.84284 -90.034082 
L 565.787105 -88.61602 
L 565.688135 -87.197958 
L 565.550907 -85.779897 
L 565.383073 -84.361835 
L 565.194024 -82.943773 
L 564.993844 -81.525711 
L 564.792314 -80.107649 
L 564.598069 -78.689588 
L 564.418004 -77.271526 
L 564.256963 -75.853464 
L 564.117696 -74.435402 
L 564.001048 -73.01734 
L 563.906302 -71.599279 
L 563.831603 -70.181217 
z
" style="stroke: #2f2f2f; stroke-width: 1.5"/>
    </defs>
    <g clip-path="url(#p93ab0b9a2a)">
     <use xlink:href="#m252c6f7795" x="0" y="403.988938" style="fill: #6871a6; stroke: #2f2f2f; stroke-width: 1.5"/>
    </g>
   </g>
   <g id="matplotlib.axis_1">
    <g id="xtick_1">
     <g id="line2d_1">
      <defs>
       <path id="md8df969b51" d="M 0 0 
L 0 6 
" style="stroke: #000000; stroke-width: 1.25"/>
      </defs>
      <g>
       <use xlink:href="#md8df969b51" x="198.279839" y="352.125375" style="stroke: #000000; stroke-width: 1.25"/>
      </g>
     </g>
     <g id="text_1">
      <!-- positive -->
      <g transform="translate(168.076589 373.326969)scale(0.154 -0.154)">
       <defs>
        <path id="DejaVuSans-70" d="M 1159 525 
L 1159 -1331 
L 581 -1331 
L 581 3500 
L 1159 3500 
L 1159 2969 
Q 1341 3281 1617 3432 
Q 1894 3584 2278 3584 
Q 2916 3584 3314 3078 
Q 3713 2572 3713 1747 
Q 3713 922 3314 415 
Q 2916 -91 2278 -91 
Q 1894 -91 1617 61 
Q 1341 213 1159 525 
z
M 3116 1747 
Q 3116 2381 2855 2742 
Q 2594 3103 2138 3103 
Q 1681 3103 1420 2742 
Q 1159 2381 1159 1747 
Q 1159 1113 1420 752 
Q 1681 391 2138 391 
Q 2594 391 2855 752 
Q 3116 1113 3116 1747 
z
" transform="scale(0.015625)"/>
        <path id="DejaVuSans-6f" d="M 1959 3097 
Q 1497 3097 1228 2736 
Q 959 2375 959 1747 
Q 959 1119 1226 758 
Q 1494 397 1959 397 
Q 2419 397 2687 759 
Q 2956 1122 2956 1747 
Q 2956 2369 2687 2733 
Q 2419 3097 1959 3097 
z
M 1959 3584 
Q 2709 3584 3137 3096 
Q 3566 2609 3566 1747 
Q 3566 888 3137 398 
Q 2709 -91 1959 -91 
Q 1206 -91 779 398 
Q 353 888 353 1747 
Q 353 2609 779 3096 
Q 1206 3584 1959 3584 
z
" transform="scale(0.015625)"/>
        <path id="DejaVuSans-73" d="M 2834 3397 
L 2834 2853 
Q 2591 2978 2328 3040 
Q 2066 3103 1784 3103 
Q 1356 3103 1142 2972 
Q 928 2841 928 2578 
Q 928 2378 1081 2264 
Q 1234 2150 1697 2047 
L 1894 2003 
Q 2506 1872 2764 1633 
Q 3022 1394 3022 966 
Q 3022 478 2636 193 
Q 2250 -91 1575 -91 
Q 1294 -91 989 -36 
Q 684 19 347 128 
L 347 722 
Q 666 556 975 473 
Q 1284 391 1588 391 
Q 1994 391 2212 530 
Q 2431 669 2431 922 
Q 2431 1156 2273 1281 
Q 2116 1406 1581 1522 
L 1381 1569 
Q 847 1681 609 1914 
Q 372 2147 372 2553 
Q 372 3047 722 3315 
Q 1072 3584 1716 3584 
Q 2034 3584 2315 3537 
Q 2597 3491 2834 3397 
z
" transform="scale(0.015625)"/>
        <path id="DejaVuSans-69" d="M 603 3500 
L 1178 3500 
L 1178 0 
L 603 0 
L 603 3500 
z
M 603 4863 
L 1178 4863 
L 1178 4134 
L 603 4134 
L 603 4863 
z
" transform="scale(0.015625)"/>
        <path id="DejaVuSans-74" d="M 1172 4494 
L 1172 3500 
L 2356 3500 
L 2356 3053 
L 1172 3053 
L 1172 1153 
Q 1172 725 1289 603 
Q 1406 481 1766 481 
L 2356 481 
L 2356 0 
L 1766 0 
Q 1100 0 847 248 
Q 594 497 594 1153 
L 594 3053 
L 172 3053 
L 172 3500 
L 594 3500 
L 594 4494 
L 1172 4494 
z
" transform="scale(0.015625)"/>
        <path id="DejaVuSans-76" d="M 191 3500 
L 800 3500 
L 1894 563 
L 2988 3500 
L 3597 3500 
L 2284 0 
L 1503 0 
L 191 3500 
z
" transform="scale(0.015625)"/>
        <path id="DejaVuSans-65" d="M 3597 1894 
L 3597 1613 
L 953 1613 
Q 991 1019 1311 708 
Q 1631 397 2203 397 
Q 2534 397 2845 478 
Q 3156 559 3463 722 
L 3463 178 
Q 3153 47 2828 -22 
Q 2503 -91 2169 -91 
Q 1331 -91 842 396 
Q 353 884 353 1716 
Q 353 2575 817 3079 
Q 1281 3584 2069 3584 
Q 2775 3584 3186 3129 
Q 3597 2675 3597 1894 
z
M 3022 2063 
Q 3016 2534 2758 2815 
Q 2500 3097 2075 3097 
Q 1594 3097 1305 2825 
Q 1016 2553 972 2059 
L 3022 2063 
z
" transform="scale(0.015625)"/>
       </defs>
       <use xlink:href="#DejaVuSans-70"/>
       <use xlink:href="#DejaVuSans-6f" x="63.476562"/>
       <use xlink:href="#DejaVuSans-73" x="124.658203"/>
       <use xlink:href="#DejaVuSans-69" x="176.757812"/>
       <use xlink:href="#DejaVuSans-74" x="204.541016"/>
       <use xlink:href="#DejaVuSans-69" x="243.75"/>
       <use xlink:href="#DejaVuSans-76" x="271.533203"/>
       <use xlink:href="#DejaVuSans-65" x="330.712891"/>
      </g>
     </g>
    </g>
    <g id="xtick_2">
     <g id="line2d_2">
      <g>
       <use xlink:href="#md8df969b51" x="486.720549" y="352.125375" style="stroke: #000000; stroke-width: 1.25"/>
      </g>
     </g>
     <g id="text_2">
      <!-- negative -->
      <g transform="translate(453.042674 373.326969)scale(0.154 -0.154)">
       <defs>
        <path id="DejaVuSans-6e" d="M 3513 2113 
L 3513 0 
L 2938 0 
L 2938 2094 
Q 2938 2591 2744 2837 
Q 2550 3084 2163 3084 
Q 1697 3084 1428 2787 
Q 1159 2491 1159 1978 
L 1159 0 
L 581 0 
L 581 3500 
L 1159 3500 
L 1159 2956 
Q 1366 3272 1645 3428 
Q 1925 3584 2291 3584 
Q 2894 3584 3203 3211 
Q 3513 2838 3513 2113 
z
" transform="scale(0.015625)"/>
        <path id="DejaVuSans-67" d="M 2906 1791 
Q 2906 2416 2648 2759 
Q 2391 3103 1925 3103 
Q 1463 3103 1205 2759 
Q 947 2416 947 1791 
Q 947 1169 1205 825 
Q 1463 481 1925 481 
Q 2391 481 2648 825 
Q 2906 1169 2906 1791 
z
M 3481 434 
Q 3481 -459 3084 -895 
Q 2688 -1331 1869 -1331 
Q 1566 -1331 1297 -1286 
Q 1028 -1241 775 -1147 
L 775 -588 
Q 1028 -725 1275 -790 
Q 1522 -856 1778 -856 
Q 2344 -856 2625 -561 
Q 2906 -266 2906 331 
L 2906 616 
Q 2728 306 2450 153 
Q 2172 0 1784 0 
Q 1141 0 747 490 
Q 353 981 353 1791 
Q 353 2603 747 3093 
Q 1141 3584 1784 3584 
Q 2172 3584 2450 3431 
Q 2728 3278 2906 2969 
L 2906 3500 
L 3481 3500 
L 3481 434 
z
" transform="scale(0.015625)"/>
        <path id="DejaVuSans-61" d="M 2194 1759 
Q 1497 1759 1228 1600 
Q 959 1441 959 1056 
Q 959 750 1161 570 
Q 1363 391 1709 391 
Q 2188 391 2477 730 
Q 2766 1069 2766 1631 
L 2766 1759 
L 2194 1759 
z
M 3341 1997 
L 3341 0 
L 2766 0 
L 2766 531 
Q 2569 213 2275 61 
Q 1981 -91 1556 -91 
Q 1019 -91 701 211 
Q 384 513 384 1019 
Q 384 1609 779 1909 
Q 1175 2209 1959 2209 
L 2766 2209 
L 2766 2266 
Q 2766 2663 2505 2880 
Q 2244 3097 1772 3097 
Q 1472 3097 1187 3025 
Q 903 2953 641 2809 
L 641 3341 
Q 956 3463 1253 3523 
Q 1550 3584 1831 3584 
Q 2591 3584 2966 3190 
Q 3341 2797 3341 1997 
z
" transform="scale(0.015625)"/>
       </defs>
       <use xlink:href="#DejaVuSans-6e"/>
       <use xlink:href="#DejaVuSans-65" x="63.378906"/>
       <use xlink:href="#DejaVuSans-67" x="124.902344"/>
       <use xlink:href="#DejaVuSans-61" x="188.378906"/>
       <use xlink:href="#DejaVuSans-74" x="249.658203"/>
       <use xlink:href="#DejaVuSans-69" x="288.867188"/>
       <use xlink:href="#DejaVuSans-76" x="316.650391"/>
       <use xlink:href="#DejaVuSans-65" x="375.830078"/>
      </g>
     </g>
    </g>
    <g id="text_3">
     <!-- Motif match change direction -->
     <g transform="translate(225.193094 393.295063)scale(0.168 -0.168)">
      <defs>
       <path id="DejaVuSans-4d" d="M 628 4666 
L 1569 4666 
L 2759 1491 
L 3956 4666 
L 4897 4666 
L 4897 0 
L 4281 0 
L 4281 4097 
L 3078 897 
L 2444 897 
L 1241 4097 
L 1241 0 
L 628 0 
L 628 4666 
z
" transform="scale(0.015625)"/>
       <path id="DejaVuSans-66" d="M 2375 4863 
L 2375 4384 
L 1825 4384 
Q 1516 4384 1395 4259 
Q 1275 4134 1275 3809 
L 1275 3500 
L 2222 3500 
L 2222 3053 
L 1275 3053 
L 1275 0 
L 697 0 
L 697 3053 
L 147 3053 
L 147 3500 
L 697 3500 
L 697 3744 
Q 697 4328 969 4595 
Q 1241 4863 1831 4863 
L 2375 4863 
z
" transform="scale(0.015625)"/>
       <path id="DejaVuSans-20" transform="scale(0.015625)"/>
       <path id="DejaVuSans-6d" d="M 3328 2828 
Q 3544 3216 3844 3400 
Q 4144 3584 4550 3584 
Q 5097 3584 5394 3201 
Q 5691 2819 5691 2113 
L 5691 0 
L 5113 0 
L 5113 2094 
Q 5113 2597 4934 2840 
Q 4756 3084 4391 3084 
Q 3944 3084 3684 2787 
Q 3425 2491 3425 1978 
L 3425 0 
L 2847 0 
L 2847 2094 
Q 2847 2600 2669 2842 
Q 2491 3084 2119 3084 
Q 1678 3084 1418 2786 
Q 1159 2488 1159 1978 
L 1159 0 
L 581 0 
L 581 3500 
L 1159 3500 
L 1159 2956 
Q 1356 3278 1631 3431 
Q 1906 3584 2284 3584 
Q 2666 3584 2933 3390 
Q 3200 3197 3328 2828 
z
" transform="scale(0.015625)"/>
       <path id="DejaVuSans-63" d="M 3122 3366 
L 3122 2828 
Q 2878 2963 2633 3030 
Q 2388 3097 2138 3097 
Q 1578 3097 1268 2742 
Q 959 2388 959 1747 
Q 959 1106 1268 751 
Q 1578 397 2138 397 
Q 2388 397 2633 464 
Q 2878 531 3122 666 
L 3122 134 
Q 2881 22 2623 -34 
Q 2366 -91 2075 -91 
Q 1284 -91 818 406 
Q 353 903 353 1747 
Q 353 2603 823 3093 
Q 1294 3584 2113 3584 
Q 2378 3584 2631 3529 
Q 2884 3475 3122 3366 
z
" transform="scale(0.015625)"/>
       <path id="DejaVuSans-68" d="M 3513 2113 
L 3513 0 
L 2938 0 
L 2938 2094 
Q 2938 2591 2744 2837 
Q 2550 3084 2163 3084 
Q 1697 3084 1428 2787 
Q 1159 2491 1159 1978 
L 1159 0 
L 581 0 
L 581 4863 
L 1159 4863 
L 1159 2956 
Q 1366 3272 1645 3428 
Q 1925 3584 2291 3584 
Q 2894 3584 3203 3211 
Q 3513 2838 3513 2113 
z
" transform="scale(0.015625)"/>
       <path id="DejaVuSans-64" d="M 2906 2969 
L 2906 4863 
L 3481 4863 
L 3481 0 
L 2906 0 
L 2906 525 
Q 2725 213 2448 61 
Q 2172 -91 1784 -91 
Q 1150 -91 751 415 
Q 353 922 353 1747 
Q 353 2572 751 3078 
Q 1150 3584 1784 3584 
Q 2172 3584 2448 3432 
Q 2725 3281 2906 2969 
z
M 947 1747 
Q 947 1113 1208 752 
Q 1469 391 1925 391 
Q 2381 391 2643 752 
Q 2906 1113 2906 1747 
Q 2906 2381 2643 2742 
Q 2381 3103 1925 3103 
Q 1469 3103 1208 2742 
Q 947 2381 947 1747 
z
" transform="scale(0.015625)"/>
       <path id="DejaVuSans-72" d="M 2631 2963 
Q 2534 3019 2420 3045 
Q 2306 3072 2169 3072 
Q 1681 3072 1420 2755 
Q 1159 2438 1159 1844 
L 1159 0 
L 581 0 
L 581 3500 
L 1159 3500 
L 1159 2956 
Q 1341 3275 1631 3429 
Q 1922 3584 2338 3584 
Q 2397 3584 2469 3576 
Q 2541 3569 2628 3553 
L 2631 2963 
z
" transform="scale(0.015625)"/>
      </defs>
      <use xlink:href="#DejaVuSans-4d"/>
      <use xlink:href="#DejaVuSans-6f" x="86.279297"/>
      <use xlink:href="#DejaVuSans-74" x="147.460938"/>
      <use xlink:href="#DejaVuSans-69" x="186.669922"/>
      <use xlink:href="#DejaVuSans-66" x="214.453125"/>
      <use xlink:href="#DejaVuSans-20" x="249.658203"/>
      <use xlink:href="#DejaVuSans-6d" x="281.445312"/>
      <use xlink:href="#DejaVuSans-61" x="378.857422"/>
      <use xlink:href="#DejaVuSans-74" x="440.136719"/>
      <use xlink:href="#DejaVuSans-63" x="479.345703"/>
      <use xlink:href="#DejaVuSans-68" x="534.326172"/>
      <use xlink:href="#DejaVuSans-20" x="597.705078"/>
      <use xlink:href="#DejaVuSans-63" x="629.492188"/>
      <use xlink:href="#DejaVuSans-68" x="684.472656"/>
      <use xlink:href="#DejaVuSans-61" x="747.851562"/>
      <use xlink:href="#DejaVuSans-6e" x="809.130859"/>
      <use xlink:href="#DejaVuSans-67" x="872.509766"/>
      <use xlink:href="#DejaVuSans-65" x="935.986328"/>
      <use xlink:href="#DejaVuSans-20" x="997.509766"/>
      <use xlink:href="#DejaVuSans-64" x="1029.296875"/>
      <use xlink:href="#DejaVuSans-69" x="1092.773438"/>
      <use xlink:href="#DejaVuSans-72" x="1120.556641"/>
      <use xlink:href="#DejaVuSans-65" x="1159.419922"/>
      <use xlink:href="#DejaVuSans-63" x="1220.943359"/>
      <use xlink:href="#DejaVuSans-74" x="1275.923828"/>
      <use xlink:href="#DejaVuSans-69" x="1315.132812"/>
      <use xlink:href="#DejaVuSans-6f" x="1342.916016"/>
      <use xlink:href="#DejaVuSans-6e" x="1404.097656"/>
     </g>
    </g>
   </g>
   <g id="matplotlib.axis_2">
    <g id="ytick_1">
     <g id="line2d_3">
      <defs>
       <path id="mac84dee812" d="M 0 0 
L -6 0 
" style="stroke: #000000; stroke-width: 1.25"/>
      </defs>
      <g>
       <use xlink:href="#mac84dee812" x="69.460469" y="331.63683" style="stroke: #000000; stroke-width: 1.25"/>
      </g>
     </g>
     <g id="text_4">
      <!-- −10 -->
      <g transform="translate(27.45925 337.487627)scale(0.154 -0.154)">
       <defs>
        <path id="DejaVuSans-2212" d="M 678 2272 
L 4684 2272 
L 4684 1741 
L 678 1741 
L 678 2272 
z
" transform="scale(0.015625)"/>
        <path id="DejaVuSans-31" d="M 794 531 
L 1825 531 
L 1825 4091 
L 703 3866 
L 703 4441 
L 1819 4666 
L 2450 4666 
L 2450 531 
L 3481 531 
L 3481 0 
L 794 0 
L 794 531 
z
" transform="scale(0.015625)"/>
        <path id="DejaVuSans-30" d="M 2034 4250 
Q 1547 4250 1301 3770 
Q 1056 3291 1056 2328 
Q 1056 1369 1301 889 
Q 1547 409 2034 409 
Q 2525 409 2770 889 
Q 3016 1369 3016 2328 
Q 3016 3291 2770 3770 
Q 2525 4250 2034 4250 
z
M 2034 4750 
Q 2819 4750 3233 4129 
Q 3647 3509 3647 2328 
Q 3647 1150 3233 529 
Q 2819 -91 2034 -91 
Q 1250 -91 836 529 
Q 422 1150 422 2328 
Q 422 3509 836 4129 
Q 1250 4750 2034 4750 
z
" transform="scale(0.015625)"/>
       </defs>
       <use xlink:href="#DejaVuSans-2212"/>
       <use xlink:href="#DejaVuSans-31" x="83.789062"/>
       <use xlink:href="#DejaVuSans-30" x="147.412109"/>
      </g>
     </g>
    </g>
    <g id="ytick_2">
     <g id="line2d_4">
      <g>
       <use xlink:href="#mac84dee812" x="69.460469" y="268.715446" style="stroke: #000000; stroke-width: 1.25"/>
      </g>
     </g>
     <g id="text_5">
      <!-- −5 -->
      <g transform="translate(37.2575 274.566243)scale(0.154 -0.154)">
       <defs>
        <path id="DejaVuSans-35" d="M 691 4666 
L 3169 4666 
L 3169 4134 
L 1269 4134 
L 1269 2991 
Q 1406 3038 1543 3061 
Q 1681 3084 1819 3084 
Q 2600 3084 3056 2656 
Q 3513 2228 3513 1497 
Q 3513 744 3044 326 
Q 2575 -91 1722 -91 
Q 1428 -91 1123 -41 
Q 819 9 494 109 
L 494 744 
Q 775 591 1075 516 
Q 1375 441 1709 441 
Q 2250 441 2565 725 
Q 2881 1009 2881 1497 
Q 2881 1984 2565 2268 
Q 2250 2553 1709 2553 
Q 1456 2553 1204 2497 
Q 953 2441 691 2322 
L 691 4666 
z
" transform="scale(0.015625)"/>
       </defs>
       <use xlink:href="#DejaVuSans-2212"/>
       <use xlink:href="#DejaVuSans-35" x="83.789062"/>
      </g>
     </g>
    </g>
    <g id="ytick_3">
     <g id="line2d_5">
      <g>
       <use xlink:href="#mac84dee812" x="69.460469" y="205.794061" style="stroke: #000000; stroke-width: 1.25"/>
      </g>
     </g>
     <g id="text_6">
      <!-- 0 -->
      <g transform="translate(50.162219 211.644858)scale(0.154 -0.154)">
       <use xlink:href="#DejaVuSans-30"/>
      </g>
     </g>
    </g>
    <g id="ytick_4">
     <g id="line2d_6">
      <g>
       <use xlink:href="#mac84dee812" x="69.460469" y="142.872677" style="stroke: #000000; stroke-width: 1.25"/>
      </g>
     </g>
     <g id="text_7">
      <!-- 5 -->
      <g transform="translate(50.162219 148.723474)scale(0.154 -0.154)">
       <use xlink:href="#DejaVuSans-35"/>
      </g>
     </g>
    </g>
    <g id="ytick_5">
     <g id="line2d_7">
      <g>
       <use xlink:href="#mac84dee812" x="69.460469" y="79.951293" style="stroke: #000000; stroke-width: 1.25"/>
      </g>
     </g>
     <g id="text_8">
      <!-- 10 -->
      <g transform="translate(40.363969 85.80209)scale(0.154 -0.154)">
       <use xlink:href="#DejaVuSans-31"/>
       <use xlink:href="#DejaVuSans-30" x="63.623047"/>
      </g>
     </g>
    </g>
    <g id="text_9">
     <!-- alleleDiff -->
     <g transform="translate(19.965375 226.246875)rotate(-90)scale(0.168 -0.168)">
      <defs>
       <path id="DejaVuSans-6c" d="M 603 4863 
L 1178 4863 
L 1178 0 
L 603 0 
L 603 4863 
z
" transform="scale(0.015625)"/>
       <path id="DejaVuSans-44" d="M 1259 4147 
L 1259 519 
L 2022 519 
Q 2988 519 3436 956 
Q 3884 1394 3884 2338 
Q 3884 3275 3436 3711 
Q 2988 4147 2022 4147 
L 1259 4147 
z
M 628 4666 
L 1925 4666 
Q 3281 4666 3915 4102 
Q 4550 3538 4550 2338 
Q 4550 1131 3912 565 
Q 3275 0 1925 0 
L 628 0 
L 628 4666 
z
" transform="scale(0.015625)"/>
      </defs>
      <use xlink:href="#DejaVuSans-61"/>
      <use xlink:href="#DejaVuSans-6c" x="61.279297"/>
      <use xlink:href="#DejaVuSans-6c" x="89.0625"/>
      <use xlink:href="#DejaVuSans-65" x="116.845703"/>
      <use xlink:href="#DejaVuSans-6c" x="178.369141"/>
      <use xlink:href="#DejaVuSans-65" x="206.152344"/>
      <use xlink:href="#DejaVuSans-44" x="267.675781"/>
      <use xlink:href="#DejaVuSans-69" x="344.677734"/>
      <use xlink:href="#DejaVuSans-66" x="372.460938"/>
      <use xlink:href="#DejaVuSans-66" x="407.666016"/>
     </g>
    </g>
   </g>
   <g id="line2d_8">
    <path d="M 121.362317 200.106155 
L 121.362317 125.350647 
" clip-path="url(#p93ab0b9a2a)" style="fill: none; stroke: #2f2f2f; stroke-width: 1.5; stroke-linecap: square"/>
   </g>
   <g id="line2d_9">
    <path d="M 121.362317 192.847149 
L 121.362317 160.353271 
" clip-path="url(#p93ab0b9a2a)" style="fill: none; stroke: #2f2f2f; stroke-width: 4.5; stroke-linecap: square"/>
   </g>
   <g id="line2d_10">
    <path d="M 198.279839 199.718073 
L 198.279839 122.722524 
" clip-path="url(#p93ab0b9a2a)" style="fill: none; stroke: #2f2f2f; stroke-width: 1.5; stroke-linecap: square"/>
   </g>
   <g id="line2d_11">
    <path d="M 198.279839 184.258315 
L 198.279839 152.369755 
" clip-path="url(#p93ab0b9a2a)" style="fill: none; stroke: #2f2f2f; stroke-width: 4.5; stroke-linecap: square"/>
   </g>
   <g id="line2d_12">
    <path d="M 275.197362 199.758981 
L 275.197362 103.520269 
" clip-path="url(#p93ab0b9a2a)" style="fill: none; stroke: #2f2f2f; stroke-width: 1.5; stroke-linecap: square"/>
   </g>
   <g id="line2d_13">
    <path d="M 275.197362 184.752439 
L 275.197362 150.971083 
" clip-path="url(#p93ab0b9a2a)" style="fill: none; stroke: #2f2f2f; stroke-width: 4.5; stroke-linecap: square"/>
   </g>
   <g id="line2d_14">
    <path d="M 409.803026 302.185129 
L 409.803026 211.181299 
" clip-path="url(#p93ab0b9a2a)" style="fill: none; stroke: #2f2f2f; stroke-width: 1.5; stroke-linecap: square"/>
   </g>
   <g id="line2d_15">
    <path d="M 409.803026 257.250277 
L 409.803026 222.313973 
" clip-path="url(#p93ab0b9a2a)" style="fill: none; stroke: #2f2f2f; stroke-width: 4.5; stroke-linecap: square"/>
   </g>
   <g id="line2d_16">
    <path d="M 486.720549 290.014185 
L 486.720549 211.197191 
" clip-path="url(#p93ab0b9a2a)" style="fill: none; stroke: #2f2f2f; stroke-width: 1.5; stroke-linecap: square"/>
   </g>
   <g id="line2d_17">
    <path d="M 486.720549 253.966069 
L 486.720549 218.238972 
" clip-path="url(#p93ab0b9a2a)" style="fill: none; stroke: #2f2f2f; stroke-width: 4.5; stroke-linecap: square"/>
   </g>
   <g id="line2d_18">
    <path d="M 563.638071 290.014185 
L 563.638071 211.197191 
" clip-path="url(#p93ab0b9a2a)" style="fill: none; stroke: #2f2f2f; stroke-width: 1.5; stroke-linecap: square"/>
   </g>
   <g id="line2d_19">
    <path d="M 563.638071 253.405287 
L 563.638071 221.339063 
" clip-path="url(#p93ab0b9a2a)" style="fill: none; stroke: #2f2f2f; stroke-width: 4.5; stroke-linecap: square"/>
   </g>
   <g id="line2d_20">
    <path d="M 486.720549 193.961523 
L 486.720549 188.2163 
L 563.638071 188.2163 
L 563.638071 193.961523 
" clip-path="url(#p93ab0b9a2a)" style="fill: none; stroke: #333333; stroke-width: 1.5; stroke-linecap: square"/>
   </g>
   <g id="line2d_21">
    <path d="M 409.803026 151.225353 
L 409.803026 145.480131 
L 486.720549 145.480131 
L 486.720549 151.225353 
" clip-path="url(#p93ab0b9a2a)" style="fill: none; stroke: #333333; stroke-width: 1.5; stroke-linecap: square"/>
   </g>
   <g id="line2d_22">
    <path d="M 121.362317 105.486856 
L 121.362317 99.741634 
L 198.279839 99.741634 
L 198.279839 105.486856 
" clip-path="url(#p93ab0b9a2a)" style="fill: none; stroke: #333333; stroke-width: 1.5; stroke-linecap: square"/>
   </g>
   <g id="line2d_23">
    <path d="M 198.279839 62.750687 
L 198.279839 57.005464 
L 275.197362 57.005464 
L 275.197362 62.750687 
" clip-path="url(#p93ab0b9a2a)" style="fill: none; stroke: #333333; stroke-width: 1.5; stroke-linecap: square"/>
   </g>
   <g id="patch_6">
    <path d="M 69.460469 352.125375 
L 69.460469 25.965375 
" style="fill: none; stroke: #000000; stroke-width: 1.25; stroke-linejoin: miter; stroke-linecap: square"/>
   </g>
   <g id="patch_7">
    <path d="M 69.460469 352.125375 
L 627.460469 352.125375 
" style="fill: none; stroke: #000000; stroke-width: 1.25; stroke-linejoin: miter; stroke-linecap: square"/>
   </g>
   <g id="PathCollection_1">
    <defs>
     <path id="mab9d0948d2" d="M 0 1.5 
C 0.397805 1.5 0.77937 1.341951 1.06066 1.06066 
C 1.341951 0.77937 1.5 0.397805 1.5 0 
C 1.5 -0.397805 1.341951 -0.77937 1.06066 -1.06066 
C 0.77937 -1.341951 0.397805 -1.5 0 -1.5 
C -0.397805 -1.5 -0.77937 -1.341951 -1.06066 -1.06066 
C -1.341951 -0.77937 -1.5 -0.397805 -1.5 0 
C -1.5 0.397805 -1.341951 0.77937 -1.06066 1.06066 
C -0.77937 1.341951 -0.397805 1.5 0 1.5 
z
" style="stroke: #2f2f2f"/>
    </defs>
    <g clip-path="url(#p93ab0b9a2a)">
     <use xlink:href="#mab9d0948d2" x="121.362317" y="175.168797" style="fill: #ffffff; stroke: #2f2f2f"/>
    </g>
   </g>
   <g id="PathCollection_2">
    <g clip-path="url(#p93ab0b9a2a)">
     <use xlink:href="#mab9d0948d2" x="198.279839" y="154.915185" style="fill: #ffffff; stroke: #2f2f2f"/>
    </g>
   </g>
   <g id="PathCollection_3">
    <g clip-path="url(#p93ab0b9a2a)">
     <use xlink:href="#mab9d0948d2" x="275.197362" y="154.061687" style="fill: #ffffff; stroke: #2f2f2f"/>
    </g>
   </g>
   <g id="PathCollection_4">
    <g clip-path="url(#p93ab0b9a2a)">
     <use xlink:href="#mab9d0948d2" x="409.803026" y="240.204099" style="fill: #ffffff; stroke: #2f2f2f"/>
    </g>
   </g>
   <g id="PathCollection_5">
    <g clip-path="url(#p93ab0b9a2a)">
     <use xlink:href="#mab9d0948d2" x="486.720549" y="234.912573" style="fill: #ffffff; stroke: #2f2f2f"/>
    </g>
   </g>
   <g id="PathCollection_6">
    <g clip-path="url(#p93ab0b9a2a)">
     <use xlink:href="#mab9d0948d2" x="563.638071" y="234.492019" style="fill: #ffffff; stroke: #2f2f2f"/>
    </g>
   </g>
   <g id="text_10">
    <!-- p=0.40 -->
    <g transform="translate(494.10456 181.722425)scale(0.168 -0.168)">
     <defs>
      <path id="DejaVuSans-3d" d="M 678 2906 
L 4684 2906 
L 4684 2381 
L 678 2381 
L 678 2906 
z
M 678 1631 
L 4684 1631 
L 4684 1100 
L 678 1100 
L 678 1631 
z
" transform="scale(0.015625)"/>
      <path id="DejaVuSans-2e" d="M 684 794 
L 1344 794 
L 1344 0 
L 684 0 
L 684 794 
z
" transform="scale(0.015625)"/>
      <path id="DejaVuSans-34" d="M 2419 4116 
L 825 1625 
L 2419 1625 
L 2419 4116 
z
M 2253 4666 
L 3047 4666 
L 3047 1625 
L 3713 1625 
L 3713 1100 
L 3047 1100 
L 3047 0 
L 2419 0 
L 2419 1100 
L 313 1100 
L 313 1709 
L 2253 4666 
z
" transform="scale(0.015625)"/>
     </defs>
     <use xlink:href="#DejaVuSans-70"/>
     <use xlink:href="#DejaVuSans-3d" x="63.476562"/>
     <use xlink:href="#DejaVuSans-30" x="147.265625"/>
     <use xlink:href="#DejaVuSans-2e" x="210.888672"/>
     <use xlink:href="#DejaVuSans-34" x="242.675781"/>
     <use xlink:href="#DejaVuSans-30" x="306.298828"/>
    </g>
   </g>
   <g id="text_11">
    <!-- p=0.21 -->
    <g transform="translate(417.187037 138.986256)scale(0.168 -0.168)">
     <defs>
      <path id="DejaVuSans-32" d="M 1228 531 
L 3431 531 
L 3431 0 
L 469 0 
L 469 531 
Q 828 903 1448 1529 
Q 2069 2156 2228 2338 
Q 2531 2678 2651 2914 
Q 2772 3150 2772 3378 
Q 2772 3750 2511 3984 
Q 2250 4219 1831 4219 
Q 1534 4219 1204 4116 
Q 875 4013 500 3803 
L 500 4441 
Q 881 4594 1212 4672 
Q 1544 4750 1819 4750 
Q 2544 4750 2975 4387 
Q 3406 4025 3406 3419 
Q 3406 3131 3298 2873 
Q 3191 2616 2906 2266 
Q 2828 2175 2409 1742 
Q 1991 1309 1228 531 
z
" transform="scale(0.015625)"/>
     </defs>
     <use xlink:href="#DejaVuSans-70"/>
     <use xlink:href="#DejaVuSans-3d" x="63.476562"/>
     <use xlink:href="#DejaVuSans-30" x="147.265625"/>
     <use xlink:href="#DejaVuSans-2e" x="210.888672"/>
     <use xlink:href="#DejaVuSans-32" x="242.675781"/>
     <use xlink:href="#DejaVuSans-31" x="306.298828"/>
    </g>
   </g>
   <g id="text_12">
    <!-- p=0.00 -->
    <g transform="translate(128.746328 93.247759)scale(0.168 -0.168)">
     <use xlink:href="#DejaVuSans-70"/>
     <use xlink:href="#DejaVuSans-3d" x="63.476562"/>
     <use xlink:href="#DejaVuSans-30" x="147.265625"/>
     <use xlink:href="#DejaVuSans-2e" x="210.888672"/>
     <use xlink:href="#DejaVuSans-30" x="242.675781"/>
     <use xlink:href="#DejaVuSans-30" x="306.298828"/>
    </g>
   </g>
   <g id="text_13">
    <!-- p=0.24 -->
    <g transform="translate(205.66385 50.511589)scale(0.168 -0.168)">
     <use xlink:href="#DejaVuSans-70"/>
     <use xlink:href="#DejaVuSans-3d" x="63.476562"/>
     <use xlink:href="#DejaVuSans-30" x="147.265625"/>
     <use xlink:href="#DejaVuSans-2e" x="210.888672"/>
     <use xlink:href="#DejaVuSans-32" x="242.675781"/>
     <use xlink:href="#DejaVuSans-34" x="306.298828"/>
    </g>
   </g>
   <g id="text_14">
    <!-- 2.43 -->
    <g transform="translate(111.747626 175.168797)scale(0.168 -0.168)">
     <defs>
      <path id="DejaVuSans-Bold-32" d="M 1844 884 
L 3897 884 
L 3897 0 
L 506 0 
L 506 884 
L 2209 2388 
Q 2438 2594 2547 2791 
Q 2656 2988 2656 3200 
Q 2656 3528 2436 3728 
Q 2216 3928 1850 3928 
Q 1569 3928 1234 3808 
Q 900 3688 519 3450 
L 519 4475 
Q 925 4609 1322 4679 
Q 1719 4750 2100 4750 
Q 2938 4750 3402 4381 
Q 3866 4013 3866 3353 
Q 3866 2972 3669 2642 
Q 3472 2313 2841 1759 
L 1844 884 
z
" transform="scale(0.015625)"/>
      <path id="DejaVuSans-Bold-2e" d="M 653 1209 
L 1778 1209 
L 1778 0 
L 653 0 
L 653 1209 
z
" transform="scale(0.015625)"/>
      <path id="DejaVuSans-Bold-34" d="M 2356 3675 
L 1038 1722 
L 2356 1722 
L 2356 3675 
z
M 2156 4666 
L 3494 4666 
L 3494 1722 
L 4159 1722 
L 4159 850 
L 3494 850 
L 3494 0 
L 2356 0 
L 2356 850 
L 288 850 
L 288 1881 
L 2156 4666 
z
" transform="scale(0.015625)"/>
      <path id="DejaVuSans-Bold-33" d="M 2981 2516 
Q 3453 2394 3698 2092 
Q 3944 1791 3944 1325 
Q 3944 631 3412 270 
Q 2881 -91 1863 -91 
Q 1503 -91 1142 -33 
Q 781 25 428 141 
L 428 1069 
Q 766 900 1098 814 
Q 1431 728 1753 728 
Q 2231 728 2486 893 
Q 2741 1059 2741 1369 
Q 2741 1688 2480 1852 
Q 2219 2016 1709 2016 
L 1228 2016 
L 1228 2791 
L 1734 2791 
Q 2188 2791 2409 2933 
Q 2631 3075 2631 3366 
Q 2631 3634 2415 3781 
Q 2200 3928 1806 3928 
Q 1516 3928 1219 3862 
Q 922 3797 628 3669 
L 628 4550 
Q 984 4650 1334 4700 
Q 1684 4750 2022 4750 
Q 2931 4750 3382 4451 
Q 3834 4153 3834 3553 
Q 3834 3144 3618 2883 
Q 3403 2622 2981 2516 
z
" transform="scale(0.015625)"/>
     </defs>
     <use xlink:href="#DejaVuSans-Bold-32"/>
     <use xlink:href="#DejaVuSans-Bold-2e" x="69.580078"/>
     <use xlink:href="#DejaVuSans-Bold-34" x="107.568359"/>
     <use xlink:href="#DejaVuSans-Bold-33" x="177.148438"/>
    </g>
   </g>
   <g id="text_15">
    <!-- 4.04 -->
    <g transform="translate(198.279839 154.915185)scale(0.168 -0.168)">
     <defs>
      <path id="DejaVuSans-Bold-30" d="M 2944 2338 
Q 2944 3213 2780 3570 
Q 2616 3928 2228 3928 
Q 1841 3928 1675 3570 
Q 1509 3213 1509 2338 
Q 1509 1453 1675 1090 
Q 1841 728 2228 728 
Q 2613 728 2778 1090 
Q 2944 1453 2944 2338 
z
M 4147 2328 
Q 4147 1169 3647 539 
Q 3147 -91 2228 -91 
Q 1306 -91 806 539 
Q 306 1169 306 2328 
Q 306 3491 806 4120 
Q 1306 4750 2228 4750 
Q 3147 4750 3647 4120 
Q 4147 3491 4147 2328 
z
" transform="scale(0.015625)"/>
     </defs>
     <use xlink:href="#DejaVuSans-Bold-34"/>
     <use xlink:href="#DejaVuSans-Bold-2e" x="69.580078"/>
     <use xlink:href="#DejaVuSans-Bold-30" x="107.568359"/>
     <use xlink:href="#DejaVuSans-Bold-34" x="177.148438"/>
    </g>
   </g>
   <g id="text_16">
    <!-- 4.11 -->
    <g transform="translate(284.812052 154.061687)scale(0.168 -0.168)">
     <defs>
      <path id="DejaVuSans-Bold-31" d="M 750 831 
L 1813 831 
L 1813 3847 
L 722 3622 
L 722 4441 
L 1806 4666 
L 2950 4666 
L 2950 831 
L 4013 831 
L 4013 0 
L 750 0 
L 750 831 
z
" transform="scale(0.015625)"/>
     </defs>
     <use xlink:href="#DejaVuSans-Bold-34"/>
     <use xlink:href="#DejaVuSans-Bold-2e" x="69.580078"/>
     <use xlink:href="#DejaVuSans-Bold-31" x="107.568359"/>
     <use xlink:href="#DejaVuSans-Bold-31" x="177.148438"/>
    </g>
   </g>
   <g id="text_17">
    <!-- -2.73 -->
    <g transform="translate(400.188336 240.204099)scale(0.168 -0.168)">
     <defs>
      <path id="DejaVuSans-Bold-2d" d="M 347 2297 
L 2309 2297 
L 2309 1388 
L 347 1388 
L 347 2297 
z
" transform="scale(0.015625)"/>
      <path id="DejaVuSans-Bold-37" d="M 428 4666 
L 3944 4666 
L 3944 3988 
L 2125 0 
L 953 0 
L 2675 3781 
L 428 3781 
L 428 4666 
z
" transform="scale(0.015625)"/>
     </defs>
     <use xlink:href="#DejaVuSans-Bold-2d"/>
     <use xlink:href="#DejaVuSans-Bold-32" x="41.503906"/>
     <use xlink:href="#DejaVuSans-Bold-2e" x="111.083984"/>
     <use xlink:href="#DejaVuSans-Bold-37" x="149.072266"/>
     <use xlink:href="#DejaVuSans-Bold-33" x="218.652344"/>
    </g>
   </g>
   <g id="text_18">
    <!-- -2.31 -->
    <g transform="translate(486.720549 234.912573)scale(0.168 -0.168)">
     <use xlink:href="#DejaVuSans-Bold-2d"/>
     <use xlink:href="#DejaVuSans-Bold-32" x="41.503906"/>
     <use xlink:href="#DejaVuSans-Bold-2e" x="111.083984"/>
     <use xlink:href="#DejaVuSans-Bold-33" x="149.072266"/>
     <use xlink:href="#DejaVuSans-Bold-31" x="218.652344"/>
    </g>
   </g>
   <g id="text_19">
    <!-- -2.28 -->
    <g transform="translate(573.252761 234.492019)scale(0.168 -0.168)">
     <defs>
      <path id="DejaVuSans-Bold-38" d="M 2228 2088 
Q 1891 2088 1709 1903 
Q 1528 1719 1528 1375 
Q 1528 1031 1709 848 
Q 1891 666 2228 666 
Q 2563 666 2741 848 
Q 2919 1031 2919 1375 
Q 2919 1722 2741 1905 
Q 2563 2088 2228 2088 
z
M 1350 2484 
Q 925 2613 709 2878 
Q 494 3144 494 3541 
Q 494 4131 934 4440 
Q 1375 4750 2228 4750 
Q 3075 4750 3515 4442 
Q 3956 4134 3956 3541 
Q 3956 3144 3739 2878 
Q 3522 2613 3097 2484 
Q 3572 2353 3814 2058 
Q 4056 1763 4056 1313 
Q 4056 619 3595 264 
Q 3134 -91 2228 -91 
Q 1319 -91 855 264 
Q 391 619 391 1313 
Q 391 1763 633 2058 
Q 875 2353 1350 2484 
z
M 1631 3419 
Q 1631 3141 1786 2991 
Q 1941 2841 2228 2841 
Q 2509 2841 2662 2991 
Q 2816 3141 2816 3419 
Q 2816 3697 2662 3845 
Q 2509 3994 2228 3994 
Q 1941 3994 1786 3844 
Q 1631 3694 1631 3419 
z
" transform="scale(0.015625)"/>
     </defs>
     <use xlink:href="#DejaVuSans-Bold-2d"/>
     <use xlink:href="#DejaVuSans-Bold-32" x="41.503906"/>
     <use xlink:href="#DejaVuSans-Bold-2e" x="111.083984"/>
     <use xlink:href="#DejaVuSans-Bold-32" x="149.072266"/>
     <use xlink:href="#DejaVuSans-Bold-38" x="218.652344"/>
    </g>
   </g>
   <g id="text_20">
    <!-- all merged 500 -->
    <g transform="translate(284.781906 19.965375)scale(0.168 -0.168)">
     <use xlink:href="#DejaVuSans-61"/>
     <use xlink:href="#DejaVuSans-6c" x="61.279297"/>
     <use xlink:href="#DejaVuSans-6c" x="89.0625"/>
     <use xlink:href="#DejaVuSans-20" x="116.845703"/>
     <use xlink:href="#DejaVuSans-6d" x="148.632812"/>
     <use xlink:href="#DejaVuSans-65" x="246.044922"/>
     <use xlink:href="#DejaVuSans-72" x="307.568359"/>
     <use xlink:href="#DejaVuSans-67" x="346.931641"/>
     <use xlink:href="#DejaVuSans-65" x="410.408203"/>
     <use xlink:href="#DejaVuSans-64" x="471.931641"/>
     <use xlink:href="#DejaVuSans-20" x="535.408203"/>
     <use xlink:href="#DejaVuSans-35" x="567.195312"/>
     <use xlink:href="#DejaVuSans-30" x="630.818359"/>
     <use xlink:href="#DejaVuSans-30" x="694.441406"/>
    </g>
   </g>
   <g id="legend_1">
    <g id="patch_8">
     <path d="M 658.440469 189.045375 
L 819.461906 189.045375 
Q 822.541906 189.045375 822.541906 185.965375 
L 822.541906 95.733187 
Q 822.541906 92.653187 819.461906 92.653187 
L 658.440469 92.653187 
Q 655.360469 92.653187 655.360469 95.733187 
L 655.360469 185.965375 
Q 655.360469 189.045375 658.440469 189.045375 
z
" style="fill: #ffffff; opacity: 0.8; stroke: #cccccc; stroke-linejoin: miter"/>
    </g>
    <g id="text_21">
     <!-- Haplotype status -->
     <g transform="translate(667.435687 111.578562)scale(0.168 -0.168)">
      <defs>
       <path id="DejaVuSans-48" d="M 628 4666 
L 1259 4666 
L 1259 2753 
L 3553 2753 
L 3553 4666 
L 4184 4666 
L 4184 0 
L 3553 0 
L 3553 2222 
L 1259 2222 
L 1259 0 
L 628 0 
L 628 4666 
z
" transform="scale(0.015625)"/>
       <path id="DejaVuSans-79" d="M 2059 -325 
Q 1816 -950 1584 -1140 
Q 1353 -1331 966 -1331 
L 506 -1331 
L 506 -850 
L 844 -850 
Q 1081 -850 1212 -737 
Q 1344 -625 1503 -206 
L 1606 56 
L 191 3500 
L 800 3500 
L 1894 763 
L 2988 3500 
L 3597 3500 
L 2059 -325 
z
" transform="scale(0.015625)"/>
       <path id="DejaVuSans-75" d="M 544 1381 
L 544 3500 
L 1119 3500 
L 1119 1403 
Q 1119 906 1312 657 
Q 1506 409 1894 409 
Q 2359 409 2629 706 
Q 2900 1003 2900 1516 
L 2900 3500 
L 3475 3500 
L 3475 0 
L 2900 0 
L 2900 538 
Q 2691 219 2414 64 
Q 2138 -91 1772 -91 
Q 1169 -91 856 284 
Q 544 659 544 1381 
z
M 1991 3584 
L 1991 3584 
z
" transform="scale(0.015625)"/>
      </defs>
      <use xlink:href="#DejaVuSans-48"/>
      <use xlink:href="#DejaVuSans-61" x="75.195312"/>
      <use xlink:href="#DejaVuSans-70" x="136.474609"/>
      <use xlink:href="#DejaVuSans-6c" x="199.951172"/>
      <use xlink:href="#DejaVuSans-6f" x="227.734375"/>
      <use xlink:href="#DejaVuSans-74" x="288.916016"/>
      <use xlink:href="#DejaVuSans-79" x="328.125"/>
      <use xlink:href="#DejaVuSans-70" x="387.304688"/>
      <use xlink:href="#DejaVuSans-65" x="450.78125"/>
      <use xlink:href="#DejaVuSans-20" x="512.304688"/>
      <use xlink:href="#DejaVuSans-73" x="544.091797"/>
      <use xlink:href="#DejaVuSans-74" x="596.191406"/>
      <use xlink:href="#DejaVuSans-61" x="635.400391"/>
      <use xlink:href="#DejaVuSans-74" x="696.679688"/>
      <use xlink:href="#DejaVuSans-75" x="735.888672"/>
      <use xlink:href="#DejaVuSans-73" x="799.267578"/>
     </g>
    </g>
    <g id="patch_9">
     <path d="M 661.520469 134.474031 
L 692.320469 134.474031 
L 692.320469 123.694031 
L 661.520469 123.694031 
z
" style="fill: #a1a1a1; stroke: #2f2f2f; stroke-width: 0.75; stroke-linejoin: miter"/>
    </g>
    <g id="text_22">
     <!-- affected -->
     <g transform="translate(704.640469 134.474031)scale(0.154 -0.154)">
      <use xlink:href="#DejaVuSans-61"/>
      <use xlink:href="#DejaVuSans-66" x="61.279297"/>
      <use xlink:href="#DejaVuSans-66" x="96.484375"/>
      <use xlink:href="#DejaVuSans-65" x="131.689453"/>
      <use xlink:href="#DejaVuSans-63" x="193.212891"/>
      <use xlink:href="#DejaVuSans-74" x="248.193359"/>
      <use xlink:href="#DejaVuSans-65" x="287.402344"/>
      <use xlink:href="#DejaVuSans-64" x="348.925781"/>
     </g>
    </g>
    <g id="patch_10">
     <path d="M 661.520469 157.078344 
L 692.320469 157.078344 
L 692.320469 146.298344 
L 661.520469 146.298344 
z
" style="fill: #2f6e65; stroke: #2f2f2f; stroke-width: 0.75; stroke-linejoin: miter"/>
    </g>
    <g id="text_23">
     <!-- compensating -->
     <g transform="translate(704.640469 157.078344)scale(0.154 -0.154)">
      <use xlink:href="#DejaVuSans-63"/>
      <use xlink:href="#DejaVuSans-6f" x="54.980469"/>
      <use xlink:href="#DejaVuSans-6d" x="116.162109"/>
      <use xlink:href="#DejaVuSans-70" x="213.574219"/>
      <use xlink:href="#DejaVuSans-65" x="277.050781"/>
      <use xlink:href="#DejaVuSans-6e" x="338.574219"/>
      <use xlink:href="#DejaVuSans-73" x="401.953125"/>
      <use xlink:href="#DejaVuSans-61" x="454.052734"/>
      <use xlink:href="#DejaVuSans-74" x="515.332031"/>
      <use xlink:href="#DejaVuSans-69" x="554.541016"/>
      <use xlink:href="#DejaVuSans-6e" x="582.324219"/>
      <use xlink:href="#DejaVuSans-67" x="645.703125"/>
     </g>
    </g>
    <g id="patch_11">
     <path d="M 661.520469 179.682656 
L 692.320469 179.682656 
L 692.320469 168.902656 
L 661.520469 168.902656 
z
" style="fill: #6871a6; stroke: #2f2f2f; stroke-width: 0.75; stroke-linejoin: miter"/>
    </g>
    <g id="text_24">
     <!-- unaffected bin -->
     <g transform="translate(704.640469 179.682656)scale(0.154 -0.154)">
      <defs>
       <path id="DejaVuSans-62" d="M 3116 1747 
Q 3116 2381 2855 2742 
Q 2594 3103 2138 3103 
Q 1681 3103 1420 2742 
Q 1159 2381 1159 1747 
Q 1159 1113 1420 752 
Q 1681 391 2138 391 
Q 2594 391 2855 752 
Q 3116 1113 3116 1747 
z
M 1159 2969 
Q 1341 3281 1617 3432 
Q 1894 3584 2278 3584 
Q 2916 3584 3314 3078 
Q 3713 2572 3713 1747 
Q 3713 922 3314 415 
Q 2916 -91 2278 -91 
Q 1894 -91 1617 61 
Q 1341 213 1159 525 
L 1159 0 
L 581 0 
L 581 4863 
L 1159 4863 
L 1159 2969 
z
" transform="scale(0.015625)"/>
      </defs>
      <use xlink:href="#DejaVuSans-75"/>
      <use xlink:href="#DejaVuSans-6e" x="63.378906"/>
      <use xlink:href="#DejaVuSans-61" x="126.757812"/>
      <use xlink:href="#DejaVuSans-66" x="188.037109"/>
      <use xlink:href="#DejaVuSans-66" x="223.242188"/>
      <use xlink:href="#DejaVuSans-65" x="258.447266"/>
      <use xlink:href="#DejaVuSans-63" x="319.970703"/>
      <use xlink:href="#DejaVuSans-74" x="374.951172"/>
      <use xlink:href="#DejaVuSans-65" x="414.160156"/>
      <use xlink:href="#DejaVuSans-64" x="475.683594"/>
      <use xlink:href="#DejaVuSans-20" x="539.160156"/>
      <use xlink:href="#DejaVuSans-62" x="570.947266"/>
      <use xlink:href="#DejaVuSans-69" x="634.423828"/>
      <use xlink:href="#DejaVuSans-6e" x="662.207031"/>
     </g>
    </g>
   </g>
  </g>
 </g>
 <defs>
  <clipPath id="p93ab0b9a2a">
   <rect x="69.460469" y="25.965375" width="558" height="326.16"/>
  </clipPath>
 </defs>
</svg>
