<?xml version="1.0" encoding="utf-8" standalone="no"?>
<!DOCTYPE svg PUBLIC "-//W3C//DTD SVG 1.1//EN"
  "http://www.w3.org/Graphics/SVG/1.1/DTD/svg11.dtd">
<svg xmlns:xlink="http://www.w3.org/1999/xlink" width="829.741906pt" height="403.988938pt" viewBox="0 0 829.741906 403.988938" xmlns="http://www.w3.org/2000/svg" version="1.1">
 <metadata>
  <rdf:RDF xmlns:dc="http://purl.org/dc/elements/1.1/" xmlns:cc="http://creativecommons.org/ns#" xmlns:rdf="http://www.w3.org/1999/02/22-rdf-syntax-ns#">
   <cc:Work>
    <dc:type rdf:resource="http://purl.org/dc/dcmitype/StillImage"/>
    <dc:date>2024-06-03T11:47:33.442972</dc:date>
    <dc:format>image/svg+xml</dc:format>
    <dc:creator>
     <cc:Agent>
      <dc:title>Matplotlib v3.5.1, https://matplotlib.org/</dc:title>
     </cc:Agent>
    </dc:creator>
   </cc:Work>
  </rdf:RDF>
 </metadata>
 <defs>
  <style type="text/css">*{stroke-linejoin: round; stroke-linecap: butt}</style>
 </defs>
 <g id="figure_1">
  <g id="patch_1">
   <path d="M 0 403.988938 
L 829.741906 403.988938 
L 829.741906 0 
L 0 0 
L 0 403.988938 
z
" style="fill: none"/>
  </g>
  <g id="axes_1">
   <g id="patch_2">
    <path d="M 69.460469 352.125375 
L 627.460469 352.125375 
L 627.460469 25.965375 
L 69.460469 25.965375 
z
" style="fill: #ffffff"/>
   </g>
   <g id="patch_3">
    <path d="M 197.982812 210.997366 
L 197.982812 210.997366 
L 197.982812 210.997366 
L 197.982812 210.997366 
z
" clip-path="url(#pefe69e42f7)" style="fill: #a1a1a1; stroke: #2f2f2f; stroke-width: 0.75; stroke-linejoin: miter"/>
   </g>
   <g id="PolyCollection_1">
    <defs>
     <path id="m91a0be8618" d="M 122.421394 -181.191589 
L 119.596032 -181.191589 
L 119.024011 -182.558358 
L 118.283211 -183.925127 
L 117.349409 -185.291896 
L 116.20405 -186.658666 
L 114.837608 -188.025435 
L 113.252777 -189.392204 
L 111.467009 -190.758973 
L 109.513899 -192.125742 
L 107.443026 -193.492511 
L 105.318011 -194.859281 
L 103.212832 -196.22605 
L 101.206657 -197.592819 
L 99.377735 -198.959588 
L 97.797012 -200.326357 
L 96.522218 -201.693126 
L 95.593091 -203.059895 
L 95.028264 -204.426665 
L 94.824105 -205.793434 
L 94.95554 -207.160203 
L 95.378687 -208.526972 
L 96.034917 -209.893741 
L 96.855878 -211.26051 
L 97.768941 -212.62728 
L 98.702582 -213.994049 
L 99.59125 -215.360818 
L 100.379399 -216.727587 
L 101.024456 -218.094356 
L 101.498621 -219.461125 
L 101.789499 -220.827894 
L 101.899648 -222.194664 
L 101.845189 -223.561433 
L 101.653653 -224.928202 
L 101.361278 -226.294971 
L 101.009939 -227.66174 
L 100.643957 -229.028509 
L 100.306967 -230.395278 
L 100.039081 -231.762048 
L 99.87454 -233.128817 
L 99.840003 -234.495586 
L 99.953608 -235.862355 
L 100.22479 -237.229124 
L 100.654823 -238.595893 
L 101.2379 -239.962663 
L 101.96256 -241.329432 
L 102.813221 -242.696201 
L 103.771604 -244.06297 
L 104.817909 -245.429739 
L 105.931669 -246.796508 
L 107.092289 -248.163277 
L 108.279358 -249.530047 
L 109.472831 -250.896816 
L 110.653206 -252.263585 
L 111.801784 -253.630354 
L 112.901061 -254.997123 
L 113.93525 -256.363892 
L 114.890881 -257.730662 
L 115.757403 -259.097431 
L 116.527693 -260.4642 
L 117.198363 -261.830969 
L 117.769808 -263.197738 
L 118.245956 -264.564507 
L 118.633739 -265.931276 
L 118.942343 -267.298046 
L 119.182336 -268.664815 
L 119.364792 -270.031584 
L 119.500515 -271.398353 
L 119.599444 -272.765122 
L 119.670284 -274.131891 
L 119.720354 -275.49866 
L 119.755605 -276.86543 
L 119.780749 -278.232199 
L 119.799428 -279.598968 
L 119.814366 -280.965737 
L 119.827504 -282.332506 
L 119.840093 -283.699275 
L 119.852803 -285.066045 
L 119.865853 -286.432814 
L 119.879194 -287.799583 
L 119.892731 -289.166352 
L 119.90656 -290.533121 
L 119.921165 -291.89989 
L 119.937532 -293.266659 
L 119.957134 -294.633429 
L 119.981778 -296.000198 
L 120.013342 -297.366967 
L 120.053442 -298.733736 
L 120.103112 -300.100505 
L 120.162552 -301.467274 
L 120.231007 -302.834044 
L 120.3068 -304.200813 
L 120.387505 -305.567582 
L 120.470233 -306.934351 
L 120.551969 -308.30112 
L 120.629901 -309.667889 
L 120.701693 -311.034658 
L 120.765657 -312.401428 
L 120.820831 -313.768197 
L 120.866942 -315.134966 
L 120.904308 -316.501735 
L 121.113117 -316.501735 
L 121.113117 -316.501735 
L 121.150483 -315.134966 
L 121.196594 -313.768197 
L 121.251768 -312.401428 
L 121.315733 -311.034658 
L 121.387524 -309.667889 
L 121.465457 -308.30112 
L 121.547192 -306.934351 
L 121.62992 -305.567582 
L 121.710625 -304.200813 
L 121.786418 -302.834044 
L 121.854873 -301.467274 
L 121.914313 -300.100505 
L 121.963983 -298.733736 
L 122.004083 -297.366967 
L 122.035647 -296.000198 
L 122.060291 -294.633429 
L 122.079893 -293.266659 
L 122.096261 -291.89989 
L 122.110866 -290.533121 
L 122.124694 -289.166352 
L 122.138231 -287.799583 
L 122.151572 -286.432814 
L 122.164623 -285.066045 
L 122.177333 -283.699275 
L 122.189922 -282.332506 
L 122.203059 -280.965737 
L 122.217998 -279.598968 
L 122.236676 -278.232199 
L 122.261821 -276.86543 
L 122.297072 -275.49866 
L 122.347141 -274.131891 
L 122.417982 -272.765122 
L 122.51691 -271.398353 
L 122.652633 -270.031584 
L 122.83509 -268.664815 
L 123.075082 -267.298046 
L 123.383686 -265.931276 
L 123.771469 -264.564507 
L 124.247617 -263.197738 
L 124.819062 -261.830969 
L 125.489732 -260.4642 
L 126.260022 -259.097431 
L 127.126545 -257.730662 
L 128.082175 -256.363892 
L 129.116364 -254.997123 
L 130.215642 -253.630354 
L 131.36422 -252.263585 
L 132.544594 -250.896816 
L 133.738067 -249.530047 
L 134.925136 -248.163277 
L 136.085756 -246.796508 
L 137.199516 -245.429739 
L 138.245821 -244.06297 
L 139.204204 -242.696201 
L 140.054865 -241.329432 
L 140.779526 -239.962663 
L 141.362602 -238.595893 
L 141.792635 -237.229124 
L 142.063817 -235.862355 
L 142.177422 -234.495586 
L 142.142886 -233.128817 
L 141.978344 -231.762048 
L 141.710458 -230.395278 
L 141.373468 -229.028509 
L 141.007486 -227.66174 
L 140.656148 -226.294971 
L 140.363772 -224.928202 
L 140.172236 -223.561433 
L 140.117777 -222.194664 
L 140.227926 -220.827894 
L 140.518804 -219.461125 
L 140.992969 -218.094356 
L 141.638027 -216.727587 
L 142.426176 -215.360818 
L 143.314843 -213.994049 
L 144.248484 -212.62728 
L 145.161548 -211.26051 
L 145.982509 -209.893741 
L 146.638739 -208.526972 
L 147.061885 -207.160203 
L 147.19332 -205.793434 
L 146.989161 -204.426665 
L 146.424334 -203.059895 
L 145.495207 -201.693126 
L 144.220413 -200.326357 
L 142.63969 -198.959588 
L 140.810768 -197.592819 
L 138.804593 -196.22605 
L 136.699414 -194.859281 
L 134.574399 -193.492511 
L 132.503526 -192.125742 
L 130.550417 -190.758973 
L 128.764648 -189.392204 
L 127.179817 -188.025435 
L 125.813375 -186.658666 
L 124.668017 -185.291896 
L 123.734214 -183.925127 
L 122.993415 -182.558358 
L 122.421394 -181.191589 
z
" style="stroke: #2f2f2f; stroke-width: 1.5"/>
    </defs>
    <g clip-path="url(#pefe69e42f7)">
     <use xlink:href="#m91a0be8618" x="0" y="403.988938" style="fill: #a1a1a1; stroke: #2f2f2f; stroke-width: 1.5"/>
    </g>
   </g>
   <g id="patch_4">
    <path d="M 197.982812 210.997366 
L 197.982812 210.997366 
L 197.982812 210.997366 
L 197.982812 210.997366 
z
" clip-path="url(#pefe69e42f7)" style="fill: #2f6e65; stroke: #2f2f2f; stroke-width: 0.75; stroke-linejoin: miter"/>
   </g>
   <g id="PolyCollection_2">
    <defs>
     <path id="m927de169e0" d="M 198.764066 -182.386093 
L 197.201557 -182.386093 
L 196.931077 -183.468746 
L 196.588925 -184.551399 
L 196.164032 -185.634052 
L 195.646184 -186.716705 
L 195.026959 -187.799358 
L 194.300768 -188.882011 
L 193.465919 -189.964665 
L 192.52561 -191.047318 
L 191.488714 -192.129971 
L 190.370257 -193.212624 
L 189.191459 -194.295277 
L 187.979273 -195.37793 
L 186.765381 -196.460583 
L 185.584674 -197.543237 
L 184.473295 -198.62589 
L 183.466401 -199.708543 
L 182.595837 -200.791196 
L 181.887934 -201.873849 
L 181.361659 -202.956502 
L 181.027318 -204.039155 
L 180.885936 -205.121808 
L 180.929393 -206.204462 
L 181.1413 -207.287115 
L 181.498494 -208.369768 
L 181.973002 -209.452421 
L 182.534233 -210.535074 
L 183.151152 -211.617727 
L 183.794212 -212.70038 
L 184.436833 -213.783034 
L 185.056289 -214.865687 
L 185.633942 -215.94834 
L 186.154843 -217.030993 
L 186.606785 -218.113646 
L 186.978974 -219.196299 
L 187.260517 -220.278952 
L 187.43897 -221.361606 
L 187.499174 -222.444259 
L 187.422594 -223.526912 
L 187.18734 -224.609565 
L 186.76896 -225.692218 
L 186.142058 -226.774871 
L 185.282642 -227.857524 
L 184.171075 -228.940177 
L 182.795355 -230.022831 
L 181.154409 -231.105484 
L 179.261041 -232.188137 
L 177.144119 -233.27079 
L 174.849678 -234.353443 
L 172.440637 -235.436096 
L 169.99497 -236.518749 
L 167.602342 -237.601403 
L 165.359346 -238.684056 
L 163.363703 -239.766709 
L 161.707873 -240.849362 
L 160.472676 -241.932015 
L 159.721513 -243.014668 
L 159.495762 -244.097321 
L 159.811815 -245.179975 
L 160.660036 -246.262628 
L 162.005743 -247.345281 
L 163.792083 -248.427934 
L 165.944473 -249.510587 
L 168.376156 -250.59324 
L 170.994278 -251.675893 
L 173.705941 -252.758546 
L 176.423681 -253.8412 
L 179.06996 -254.923853 
L 181.580395 -256.006506 
L 183.905616 -257.089159 
L 186.011785 -258.171812 
L 187.879947 -259.254465 
L 189.504471 -260.337118 
L 190.890865 -261.419772 
L 192.053287 -262.502425 
L 193.012004 -263.585078 
L 193.791012 -264.667731 
L 194.415972 -265.750384 
L 194.912536 -266.833037 
L 195.305077 -267.91569 
L 195.615812 -268.998343 
L 195.864261 -270.080997 
L 196.066978 -271.16365 
L 196.237502 -272.246303 
L 196.386455 -273.328956 
L 196.521762 -274.411609 
L 196.648941 -275.494262 
L 196.771444 -276.576915 
L 196.891029 -277.659569 
L 197.00814 -278.742222 
L 197.122283 -279.824875 
L 197.23237 -280.907528 
L 197.337036 -281.990181 
L 197.434889 -283.072834 
L 197.524714 -284.155487 
L 197.605602 -285.238141 
L 197.677023 -286.320794 
L 197.738841 -287.403447 
L 197.791289 -288.4861 
L 197.834908 -289.568753 
L 198.130716 -289.568753 
L 198.130716 -289.568753 
L 198.174334 -288.4861 
L 198.226782 -287.403447 
L 198.288601 -286.320794 
L 198.360021 -285.238141 
L 198.440909 -284.155487 
L 198.530734 -283.072834 
L 198.628588 -281.990181 
L 198.733253 -280.907528 
L 198.843341 -279.824875 
L 198.957483 -278.742222 
L 199.074595 -277.659569 
L 199.19418 -276.576915 
L 199.316683 -275.494262 
L 199.443862 -274.411609 
L 199.579169 -273.328956 
L 199.728122 -272.246303 
L 199.898645 -271.16365 
L 200.101362 -270.080997 
L 200.349811 -268.998343 
L 200.660547 -267.91569 
L 201.053088 -266.833037 
L 201.549651 -265.750384 
L 202.174612 -264.667731 
L 202.953619 -263.585078 
L 203.912336 -262.502425 
L 205.074759 -261.419772 
L 206.461153 -260.337118 
L 208.085676 -259.254465 
L 209.953839 -258.171812 
L 212.060007 -257.089159 
L 214.385228 -256.006506 
L 216.895664 -254.923853 
L 219.541942 -253.8412 
L 222.259683 -252.758546 
L 224.971346 -251.675893 
L 227.589468 -250.59324 
L 230.02115 -249.510587 
L 232.173541 -248.427934 
L 233.95988 -247.345281 
L 235.305588 -246.262628 
L 236.153808 -245.179975 
L 236.469861 -244.097321 
L 236.244111 -243.014668 
L 235.492947 -241.932015 
L 234.25775 -240.849362 
L 232.60192 -239.766709 
L 230.606277 -238.684056 
L 228.363282 -237.601403 
L 225.970654 -236.518749 
L 223.524987 -235.436096 
L 221.115946 -234.353443 
L 218.821505 -233.27079 
L 216.704583 -232.188137 
L 214.811214 -231.105484 
L 213.170269 -230.022831 
L 211.794548 -228.940177 
L 210.682982 -227.857524 
L 209.823566 -226.774871 
L 209.196663 -225.692218 
L 208.778284 -224.609565 
L 208.54303 -223.526912 
L 208.46645 -222.444259 
L 208.526654 -221.361606 
L 208.705107 -220.278952 
L 208.986649 -219.196299 
L 209.358838 -218.113646 
L 209.810781 -217.030993 
L 210.331682 -215.94834 
L 210.909335 -214.865687 
L 211.52879 -213.783034 
L 212.171411 -212.70038 
L 212.814472 -211.617727 
L 213.431391 -210.535074 
L 213.992621 -209.452421 
L 214.46713 -208.369768 
L 214.824324 -207.287115 
L 215.03623 -206.204462 
L 215.079688 -205.121808 
L 214.938305 -204.039155 
L 214.603964 -202.956502 
L 214.07769 -201.873849 
L 213.369787 -200.791196 
L 212.499223 -199.708543 
L 211.492329 -198.62589 
L 210.380949 -197.543237 
L 209.200242 -196.460583 
L 207.986351 -195.37793 
L 206.774165 -194.295277 
L 205.595367 -193.212624 
L 204.476909 -192.129971 
L 203.440014 -191.047318 
L 202.499704 -189.964665 
L 201.664856 -188.882011 
L 200.938664 -187.799358 
L 200.319439 -186.716705 
L 199.801591 -185.634052 
L 199.376699 -184.551399 
L 199.034547 -183.468746 
L 198.764066 -182.386093 
z
" style="stroke: #2f2f2f; stroke-width: 1.5"/>
    </defs>
    <g clip-path="url(#pefe69e42f7)">
     <use xlink:href="#m927de169e0" x="0" y="403.988938" style="fill: #2f6e65; stroke: #2f2f2f; stroke-width: 1.5"/>
    </g>
   </g>
   <g id="patch_5">
    <path d="M 197.982812 210.997366 
L 197.982812 210.997366 
L 197.982812 210.997366 
L 197.982812 210.997366 
z
" clip-path="url(#pefe69e42f7)" style="fill: #6871a6; stroke: #2f2f2f; stroke-width: 0.75; stroke-linejoin: miter"/>
   </g>
   <g id="PolyCollection_3">
    <defs>
     <path id="m7c4a35ef92" d="M 275.672043 -181.40032 
L 274.241779 -181.40032 
L 273.960911 -182.689542 
L 273.596876 -183.978763 
L 273.135937 -185.267985 
L 272.565973 -186.557207 
L 271.878002 -187.846428 
L 271.067831 -189.13565 
L 270.137626 -190.424871 
L 269.097204 -191.714093 
L 267.964795 -193.003315 
L 266.767088 -194.292536 
L 265.538399 -195.581758 
L 264.318938 -196.87098 
L 263.152246 -198.160201 
L 262.082035 -199.449423 
L 261.148744 -200.738645 
L 260.386216 -202.027866 
L 259.818898 -203.317088 
L 259.459929 -204.606309 
L 259.310334 -205.895531 
L 259.359417 -207.184753 
L 259.586253 -208.473974 
L 259.96202 -209.763196 
L 260.45279 -211.052418 
L 261.022356 -212.341639 
L 261.634679 -213.630861 
L 262.255613 -214.920083 
L 262.853743 -216.209304 
L 263.400286 -217.498526 
L 263.868227 -218.787747 
L 264.230985 -220.076969 
L 264.461003 -221.366191 
L 264.528721 -222.655412 
L 264.402346 -223.944634 
L 264.048735 -225.233856 
L 263.435561 -226.523077 
L 262.534724 -227.812299 
L 261.326736 -229.101521 
L 259.805588 -230.390742 
L 257.983461 -231.679964 
L 255.894481 -232.969185 
L 253.596799 -234.258407 
L 251.172334 -235.547629 
L 248.723806 -236.83685 
L 246.369032 -238.126072 
L 244.232814 -239.415294 
L 242.437193 -240.704515 
L 241.09111 -241.993737 
L 240.280695 -243.282959 
L 240.061402 -244.57218 
L 240.453001 -245.861402 
L 241.438061 -247.150623 
L 242.964098 -248.439845 
L 244.949062 -249.729067 
L 247.289379 -251.018288 
L 249.869488 -252.30751 
L 252.571661 -253.596732 
L 255.284975 -254.885953 
L 257.912528 -256.175175 
L 260.376331 -257.464397 
L 262.619688 -258.753618 
L 264.607237 -260.04284 
L 266.323087 -261.332061 
L 267.767658 -262.621283 
L 268.953852 -263.910505 
L 269.903145 -265.199726 
L 270.642043 -266.488948 
L 271.199169 -267.77817 
L 271.603128 -269.067391 
L 271.881092 -270.356613 
L 272.058037 -271.645835 
L 272.156438 -272.935056 
L 272.19628 -274.224278 
L 272.195221 -275.513499 
L 272.168799 -276.802721 
L 272.130606 -278.091943 
L 272.092401 -279.381164 
L 272.064131 -280.670386 
L 272.053905 -281.959608 
L 272.067924 -283.248829 
L 272.110418 -284.538051 
L 272.183611 -285.827273 
L 272.287753 -287.116494 
L 272.42124 -288.405716 
L 272.580817 -289.694937 
L 272.76188 -290.984159 
L 272.958843 -292.273381 
L 273.165556 -293.562602 
L 273.37573 -294.851824 
L 273.583343 -296.141046 
L 273.782996 -297.430267 
L 273.97018 -298.719489 
L 274.141457 -300.008711 
L 274.29453 -301.297932 
L 274.428226 -302.587154 
L 274.542392 -303.876375 
L 274.637733 -305.165597 
L 274.715617 -306.454819 
L 274.777859 -307.74404 
L 274.826528 -309.033262 
L 275.087294 -309.033262 
L 275.087294 -309.033262 
L 275.135963 -307.74404 
L 275.198205 -306.454819 
L 275.276089 -305.165597 
L 275.37143 -303.876375 
L 275.485596 -302.587154 
L 275.619292 -301.297932 
L 275.772365 -300.008711 
L 275.943642 -298.719489 
L 276.130826 -297.430267 
L 276.330479 -296.141046 
L 276.538092 -294.851824 
L 276.748266 -293.562602 
L 276.954979 -292.273381 
L 277.151942 -290.984159 
L 277.333005 -289.694937 
L 277.492582 -288.405716 
L 277.626068 -287.116494 
L 277.730211 -285.827273 
L 277.803404 -284.538051 
L 277.845898 -283.248829 
L 277.859917 -281.959608 
L 277.849691 -280.670386 
L 277.821421 -279.381164 
L 277.783216 -278.091943 
L 277.745023 -276.802721 
L 277.718601 -275.513499 
L 277.717542 -274.224278 
L 277.757384 -272.935056 
L 277.855785 -271.645835 
L 278.03273 -270.356613 
L 278.310694 -269.067391 
L 278.714652 -267.77817 
L 279.271779 -266.488948 
L 280.010677 -265.199726 
L 280.95997 -263.910505 
L 282.146164 -262.621283 
L 283.590735 -261.332061 
L 285.306585 -260.04284 
L 287.294134 -258.753618 
L 289.537491 -257.464397 
L 292.001294 -256.175175 
L 294.628847 -254.885953 
L 297.342161 -253.596732 
L 300.044334 -252.30751 
L 302.624443 -251.018288 
L 304.96476 -249.729067 
L 306.949724 -248.439845 
L 308.475761 -247.150623 
L 309.460821 -245.861402 
L 309.85242 -244.57218 
L 309.633127 -243.282959 
L 308.822712 -241.993737 
L 307.476629 -240.704515 
L 305.681008 -239.415294 
L 303.54479 -238.126072 
L 301.190016 -236.83685 
L 298.741488 -235.547629 
L 296.317023 -234.258407 
L 294.019341 -232.969185 
L 291.930361 -231.679964 
L 290.108234 -230.390742 
L 288.587086 -229.101521 
L 287.379098 -227.812299 
L 286.478261 -226.523077 
L 285.865087 -225.233856 
L 285.511476 -223.944634 
L 285.385101 -222.655412 
L 285.452819 -221.366191 
L 285.682837 -220.076969 
L 286.045594 -218.787747 
L 286.513536 -217.498526 
L 287.060079 -216.209304 
L 287.658209 -214.920083 
L 288.279143 -213.630861 
L 288.891465 -212.341639 
L 289.461032 -211.052418 
L 289.951802 -209.763196 
L 290.327569 -208.473974 
L 290.554405 -207.184753 
L 290.603488 -205.895531 
L 290.453893 -204.606309 
L 290.094924 -203.317088 
L 289.527606 -202.027866 
L 288.765078 -200.738645 
L 287.831787 -199.449423 
L 286.761576 -198.160201 
L 285.594884 -196.87098 
L 284.375422 -195.581758 
L 283.146734 -194.292536 
L 281.949027 -193.003315 
L 280.816618 -191.714093 
L 279.776196 -190.424871 
L 278.845991 -189.13565 
L 278.03582 -187.846428 
L 277.347849 -186.557207 
L 276.777885 -185.267985 
L 276.316946 -183.978763 
L 275.952911 -182.689542 
L 275.672043 -181.40032 
z
" style="stroke: #2f2f2f; stroke-width: 1.5"/>
    </defs>
    <g clip-path="url(#pefe69e42f7)">
     <use xlink:href="#m7c4a35ef92" x="0" y="403.988938" style="fill: #6871a6; stroke: #2f2f2f; stroke-width: 1.5"/>
    </g>
   </g>
   <g id="PolyCollection_4">
    <defs>
     <path id="m604150a2be" d="M 409.779955 -64.46538 
L 409.543214 -64.46538 
L 409.49611 -65.890385 
L 409.43529 -67.315389 
L 409.358691 -68.740393 
L 409.264558 -70.165397 
L 409.151636 -71.590402 
L 409.01934 -73.015406 
L 408.867882 -74.44041 
L 408.698329 -75.865415 
L 408.512579 -77.290419 
L 408.313261 -78.715423 
L 408.103554 -80.140427 
L 407.886965 -81.565432 
L 407.667097 -82.990436 
L 407.447437 -84.41544 
L 407.231202 -85.840445 
L 407.02126 -87.265449 
L 406.820144 -88.690453 
L 406.630113 -90.115458 
L 406.453257 -91.540462 
L 406.291577 -92.965466 
L 406.146998 -94.39047 
L 406.02128 -95.815475 
L 405.91581 -97.240479 
L 405.831305 -98.665483 
L 405.767466 -100.090488 
L 405.722664 -101.515492 
L 405.693737 -102.940496 
L 405.675948 -104.3655 
L 405.663137 -105.790505 
L 405.648026 -107.215509 
L 405.622615 -108.640513 
L 405.578552 -110.065518 
L 405.507342 -111.490522 
L 405.400331 -112.915526 
L 405.248385 -114.34053 
L 405.04133 -115.765535 
L 404.767276 -117.190539 
L 404.412031 -118.615543 
L 403.95887 -120.040548 
L 403.388915 -121.465552 
L 402.682305 -122.890556 
L 401.820211 -124.315561 
L 400.787561 -125.740565 
L 399.57615 -127.165569 
L 398.187648 -128.590573 
L 396.635939 -130.015578 
L 394.948242 -131.440582 
L 393.164635 -132.865586 
L 391.335844 -134.290591 
L 389.519479 -135.715595 
L 387.775186 -137.140599 
L 386.159408 -138.565603 
L 384.720507 -139.990608 
L 383.494929 -141.415612 
L 382.504876 -142.840616 
L 381.757623 -144.265621 
L 381.246324 -145.690625 
L 380.951905 -147.115629 
L 380.845494 -148.540634 
L 380.89089 -149.965638 
L 381.046704 -151.390642 
L 381.268059 -152.815646 
L 381.507947 -154.240651 
L 381.718557 -155.665655 
L 381.852915 -157.090659 
L 381.86713 -158.515664 
L 381.723337 -159.940668 
L 381.393177 -161.365672 
L 380.861399 -162.790676 
L 380.129015 -164.215681 
L 379.215391 -165.640685 
L 378.15876 -167.065689 
L 377.014912 -168.490694 
L 375.854059 -169.915698 
L 374.7562 -171.340702 
L 373.805509 -172.765706 
L 373.08433 -174.190711 
L 372.667377 -175.615715 
L 372.616592 -177.040719 
L 372.976957 -178.465724 
L 373.773471 -179.890728 
L 375.009345 -181.315732 
L 376.665522 -182.740737 
L 378.701541 -184.165741 
L 381.057805 -185.590745 
L 383.65921 -187.015749 
L 386.419986 -188.440754 
L 389.249421 -189.865758 
L 392.057996 -191.290762 
L 394.76332 -192.715767 
L 397.295237 -194.140771 
L 399.599584 -195.565775 
L 401.640229 -196.990779 
L 403.399301 -198.415784 
L 404.875751 -199.840788 
L 406.082622 -201.265792 
L 407.043511 -202.690797 
L 407.788762 -204.115801 
L 408.351861 -205.540805 
L 410.971308 -205.540805 
L 410.971308 -205.540805 
L 411.534407 -204.115801 
L 412.279658 -202.690797 
L 413.240547 -201.265792 
L 414.447418 -199.840788 
L 415.923868 -198.415784 
L 417.68294 -196.990779 
L 419.723585 -195.565775 
L 422.027932 -194.140771 
L 424.559849 -192.715767 
L 427.265173 -191.290762 
L 430.073748 -189.865758 
L 432.903183 -188.440754 
L 435.663958 -187.015749 
L 438.265364 -185.590745 
L 440.621628 -184.165741 
L 442.657647 -182.740737 
L 444.313824 -181.315732 
L 445.549698 -179.890728 
L 446.346212 -178.465724 
L 446.706577 -177.040719 
L 446.655792 -175.615715 
L 446.238839 -174.190711 
L 445.51766 -172.765706 
L 444.566969 -171.340702 
L 443.46911 -169.915698 
L 442.308257 -168.490694 
L 441.164409 -167.065689 
L 440.107778 -165.640685 
L 439.194153 -164.215681 
L 438.46177 -162.790676 
L 437.929992 -161.365672 
L 437.599832 -159.940668 
L 437.456039 -158.515664 
L 437.470254 -157.090659 
L 437.604612 -155.665655 
L 437.815222 -154.240651 
L 438.05511 -152.815646 
L 438.276465 -151.390642 
L 438.432279 -149.965638 
L 438.477675 -148.540634 
L 438.371264 -147.115629 
L 438.076845 -145.690625 
L 437.565546 -144.265621 
L 436.818293 -142.840616 
L 435.82824 -141.415612 
L 434.602662 -139.990608 
L 433.163761 -138.565603 
L 431.547983 -137.140599 
L 429.80369 -135.715595 
L 427.987325 -134.290591 
L 426.158534 -132.865586 
L 424.374927 -131.440582 
L 422.68723 -130.015578 
L 421.135521 -128.590573 
L 419.747019 -127.165569 
L 418.535608 -125.740565 
L 417.502957 -124.315561 
L 416.640864 -122.890556 
L 415.934254 -121.465552 
L 415.364299 -120.040548 
L 414.911138 -118.615543 
L 414.555893 -117.190539 
L 414.281839 -115.765535 
L 414.074784 -114.34053 
L 413.922838 -112.915526 
L 413.815827 -111.490522 
L 413.744617 -110.065518 
L 413.700554 -108.640513 
L 413.675143 -107.215509 
L 413.660032 -105.790505 
L 413.647221 -104.3655 
L 413.629432 -102.940496 
L 413.600505 -101.515492 
L 413.555703 -100.090488 
L 413.491864 -98.665483 
L 413.407359 -97.240479 
L 413.301889 -95.815475 
L 413.176171 -94.39047 
L 413.031592 -92.965466 
L 412.869912 -91.540462 
L 412.693056 -90.115458 
L 412.503025 -88.690453 
L 412.301909 -87.265449 
L 412.091967 -85.840445 
L 411.875732 -84.41544 
L 411.656072 -82.990436 
L 411.436204 -81.565432 
L 411.219615 -80.140427 
L 411.009908 -78.715423 
L 410.81059 -77.290419 
L 410.62484 -75.865415 
L 410.455287 -74.44041 
L 410.303829 -73.015406 
L 410.171533 -71.590402 
L 410.058611 -70.165397 
L 409.964478 -68.740393 
L 409.887879 -67.315389 
L 409.827059 -65.890385 
L 409.779955 -64.46538 
z
" style="stroke: #2f2f2f; stroke-width: 1.5"/>
    </defs>
    <g clip-path="url(#pefe69e42f7)">
     <use xlink:href="#m604150a2be" x="0" y="403.988938" style="fill: #a1a1a1; stroke: #2f2f2f; stroke-width: 1.5"/>
    </g>
   </g>
   <g id="PolyCollection_5">
    <defs>
     <path id="mbf6c2997c3" d="M 486.854009 -71.508985 
L 486.417358 -71.508985 
L 486.351377 -72.887915 
L 486.272168 -74.266845 
L 486.179276 -75.645775 
L 486.072925 -77.024705 
L 485.954139 -78.403635 
L 485.824809 -79.782566 
L 485.687682 -81.161496 
L 485.546246 -82.540426 
L 485.404507 -83.919356 
L 485.266679 -85.298286 
L 485.136799 -86.677216 
L 485.018306 -88.056147 
L 484.913645 -89.435077 
L 484.823937 -90.814007 
L 484.748764 -92.192937 
L 484.686105 -93.571867 
L 484.632445 -94.950797 
L 484.583035 -96.329728 
L 484.532281 -97.708658 
L 484.474201 -99.087588 
L 484.402896 -100.466518 
L 484.312955 -101.845448 
L 484.199746 -103.224378 
L 484.059541 -104.603309 
L 483.889479 -105.982239 
L 483.687351 -107.361169 
L 483.451278 -108.740099 
L 483.179317 -110.119029 
L 482.86908 -111.497959 
L 482.51743 -112.87689 
L 482.120317 -114.25582 
L 481.672794 -115.63475 
L 481.169223 -117.01368 
L 480.603662 -118.39261 
L 479.970387 -119.771541 
L 479.264498 -121.150471 
L 478.482541 -122.529401 
L 477.623073 -123.908331 
L 476.687123 -125.287261 
L 475.678504 -126.666191 
L 474.603961 -128.045122 
L 473.473143 -129.424052 
L 472.298423 -130.802982 
L 471.094572 -132.181912 
L 469.878329 -133.560842 
L 468.667857 -134.939772 
L 467.482127 -136.318703 
L 466.340231 -137.697633 
L 465.260628 -139.076563 
L 464.260351 -140.455493 
L 463.354203 -141.834423 
L 462.553955 -143.213353 
L 461.867619 -144.592284 
L 461.298818 -145.971214 
L 460.846317 -147.350144 
L 460.503749 -148.729074 
L 460.25957 -150.108004 
L 460.097264 -151.486934 
L 459.99581 -152.865865 
L 459.930394 -154.244795 
L 459.873387 -155.623725 
L 459.795545 -157.002655 
L 459.667431 -158.381585 
L 459.461035 -159.760515 
L 459.151538 -161.139446 
L 458.719185 -162.518376 
L 458.151162 -163.897306 
L 457.443387 -165.276236 
L 456.602049 -166.655166 
L 455.644745 -168.034096 
L 454.601015 -169.413027 
L 453.512125 -170.791957 
L 452.42993 -172.170887 
L 451.414771 -173.549817 
L 450.532411 -174.928747 
L 449.850134 -176.307677 
L 449.432269 -177.686608 
L 449.335473 -179.065538 
L 449.604222 -180.444468 
L 450.266938 -181.823398 
L 451.333208 -183.202328 
L 452.79241 -184.581258 
L 454.613948 -185.960189 
L 456.749119 -187.339119 
L 459.134442 -188.718049 
L 461.696117 -190.096979 
L 464.355163 -191.475909 
L 467.032706 -192.854839 
L 469.654917 -194.23377 
L 472.157151 -195.6127 
L 474.486971 -196.99163 
L 476.605888 -198.37056 
L 478.48982 -199.74949 
L 480.128385 -201.128421 
L 481.523277 -202.507351 
L 482.686024 -203.886281 
L 483.635435 -205.265211 
L 484.39502 -206.644141 
L 484.990628 -208.023071 
L 488.280739 -208.023071 
L 488.280739 -208.023071 
L 488.876348 -206.644141 
L 489.635932 -205.265211 
L 490.585343 -203.886281 
L 491.74809 -202.507351 
L 493.142983 -201.128421 
L 494.781547 -199.74949 
L 496.665479 -198.37056 
L 498.784397 -196.99163 
L 501.114216 -195.6127 
L 503.61645 -194.23377 
L 506.238662 -192.854839 
L 508.916204 -191.475909 
L 511.57525 -190.096979 
L 514.136926 -188.718049 
L 516.522248 -187.339119 
L 518.657419 -185.960189 
L 520.478957 -184.581258 
L 521.938159 -183.202328 
L 523.004429 -181.823398 
L 523.667145 -180.444468 
L 523.935894 -179.065538 
L 523.839099 -177.686608 
L 523.421233 -176.307677 
L 522.738956 -174.928747 
L 521.856596 -173.549817 
L 520.841438 -172.170887 
L 519.759242 -170.791957 
L 518.670352 -169.413027 
L 517.626623 -168.034096 
L 516.669318 -166.655166 
L 515.82798 -165.276236 
L 515.120205 -163.897306 
L 514.552183 -162.518376 
L 514.119829 -161.139446 
L 513.810332 -159.760515 
L 513.603936 -158.381585 
L 513.475823 -157.002655 
L 513.39798 -155.623725 
L 513.340973 -154.244795 
L 513.275558 -152.865865 
L 513.174103 -151.486934 
L 513.011798 -150.108004 
L 512.767618 -148.729074 
L 512.42505 -147.350144 
L 511.972549 -145.971214 
L 511.403748 -144.592284 
L 510.717412 -143.213353 
L 509.917164 -141.834423 
L 509.011016 -140.455493 
L 508.01074 -139.076563 
L 506.931136 -137.697633 
L 505.78924 -136.318703 
L 504.603511 -134.939772 
L 503.393038 -133.560842 
L 502.176795 -132.181912 
L 500.972945 -130.802982 
L 499.798224 -129.424052 
L 498.667406 -128.045122 
L 497.592863 -126.666191 
L 496.584245 -125.287261 
L 495.648294 -123.908331 
L 494.788826 -122.529401 
L 494.006869 -121.150471 
L 493.300981 -119.771541 
L 492.667705 -118.39261 
L 492.102144 -117.01368 
L 491.598573 -115.63475 
L 491.151051 -114.25582 
L 490.753938 -112.87689 
L 490.402288 -111.497959 
L 490.09205 -110.119029 
L 489.820089 -108.740099 
L 489.584016 -107.361169 
L 489.381888 -105.982239 
L 489.211826 -104.603309 
L 489.071622 -103.224378 
L 488.958412 -101.845448 
L 488.868472 -100.466518 
L 488.797167 -99.087588 
L 488.739087 -97.708658 
L 488.688332 -96.329728 
L 488.638922 -94.950797 
L 488.585262 -93.571867 
L 488.522603 -92.192937 
L 488.44743 -90.814007 
L 488.357722 -89.435077 
L 488.253062 -88.056147 
L 488.134569 -86.677216 
L 488.004688 -85.298286 
L 487.86686 -83.919356 
L 487.725122 -82.540426 
L 487.583685 -81.161496 
L 487.446559 -79.782566 
L 487.317229 -78.403635 
L 487.198442 -77.024705 
L 487.092091 -75.645775 
L 486.9992 -74.266845 
L 486.91999 -72.887915 
L 486.854009 -71.508985 
z
" style="stroke: #2f2f2f; stroke-width: 1.5"/>
    </defs>
    <g clip-path="url(#pefe69e42f7)">
     <use xlink:href="#mbf6c2997c3" x="0" y="403.988938" style="fill: #2f6e65; stroke: #2f2f2f; stroke-width: 1.5"/>
    </g>
   </g>
   <g id="PolyCollection_6">
    <defs>
     <path id="m675278f1c2" d="M 563.802922 -69.43487 
L 563.416643 -69.43487 
L 563.342468 -70.804504 
L 563.248473 -72.174138 
L 563.13283 -73.543772 
L 562.994822 -74.913407 
L 562.835259 -76.283041 
L 562.656818 -77.652675 
L 562.464225 -79.022309 
L 562.264223 -80.391943 
L 562.065268 -81.761577 
L 561.87696 -83.131211 
L 561.709222 -84.500845 
L 561.571331 -85.870479 
L 561.470892 -87.240113 
L 561.412919 -88.609747 
L 561.399137 -89.979381 
L 561.427632 -91.349015 
L 561.492907 -92.718649 
L 561.586354 -94.088284 
L 561.697086 -95.457918 
L 561.813023 -96.827552 
L 561.922088 -98.197186 
L 562.013346 -99.56682 
L 562.077952 -100.936454 
L 562.109764 -102.306088 
L 562.10557 -103.675722 
L 562.064891 -105.045356 
L 561.989392 -106.41499 
L 561.881988 -107.784624 
L 561.745748 -109.154258 
L 561.582733 -110.523892 
L 561.392903 -111.893526 
L 561.173227 -113.26316 
L 560.917106 -114.632795 
L 560.614199 -116.002429 
L 560.250707 -117.372063 
L 559.810138 -118.741697 
L 559.274537 -120.111331 
L 558.62612 -121.480965 
L 557.849206 -122.850599 
L 556.93227 -124.220233 
L 555.869943 -125.589867 
L 554.664683 -126.959501 
L 553.327894 -128.329135 
L 551.880248 -129.698769 
L 550.351042 -131.068403 
L 548.776528 -132.438037 
L 547.197265 -133.807672 
L 545.654728 -135.177306 
L 544.187512 -136.54694 
L 542.827607 -137.916574 
L 541.597245 -139.286208 
L 540.50678 -140.655842 
L 539.553922 -142.025476 
L 538.724474 -143.39511 
L 537.994442 -144.764744 
L 537.333228 -146.134378 
L 536.707413 -147.504012 
L 536.084597 -148.873646 
L 535.436818 -150.24328 
L 534.743181 -151.612914 
L 533.991499 -152.982548 
L 533.17894 -154.352183 
L 532.311767 -155.721817 
L 531.404332 -157.091451 
L 530.477503 -158.461085 
L 529.556637 -159.830719 
L 528.669246 -161.200353 
L 527.842512 -162.569987 
L 527.100848 -163.939621 
L 526.463834 -165.309255 
L 525.944881 -166.678889 
L 525.550964 -168.048523 
L 525.283649 -169.418157 
L 525.141383 -170.787791 
L 525.122733 -172.157425 
L 525.229961 -173.527059 
L 525.47212 -174.896694 
L 525.866853 -176.266328 
L 526.44023 -177.635962 
L 527.224328 -179.005596 
L 528.252731 -180.37523 
L 529.554608 -181.744864 
L 531.148371 -183.114498 
L 533.036107 -184.484132 
L 535.199869 -185.853766 
L 537.600608 -187.2234 
L 540.180035 -188.593034 
L 542.865178 -189.962668 
L 545.574906 -191.332302 
L 548.227396 -192.701936 
L 550.747396 -194.071571 
L 553.072279 -195.441205 
L 555.15615 -196.810839 
L 556.971687 -198.180473 
L 558.509762 -199.550107 
L 559.777246 -200.919741 
L 560.793579 -202.289375 
L 561.586767 -203.659009 
L 562.189419 -205.028643 
L 565.030147 -205.028643 
L 565.030147 -205.028643 
L 565.632798 -203.659009 
L 566.425986 -202.289375 
L 567.442319 -200.919741 
L 568.709804 -199.550107 
L 570.247879 -198.180473 
L 572.063415 -196.810839 
L 574.147286 -195.441205 
L 576.472169 -194.071571 
L 578.99217 -192.701936 
L 581.64466 -191.332302 
L 584.354388 -189.962668 
L 587.03953 -188.593034 
L 589.618958 -187.2234 
L 592.019697 -185.853766 
L 594.183459 -184.484132 
L 596.071195 -183.114498 
L 597.664958 -181.744864 
L 598.966834 -180.37523 
L 599.995238 -179.005596 
L 600.779335 -177.635962 
L 601.352713 -176.266328 
L 601.747446 -174.896694 
L 601.989605 -173.527059 
L 602.096832 -172.157425 
L 602.078183 -170.787791 
L 601.935917 -169.418157 
L 601.668601 -168.048523 
L 601.274684 -166.678889 
L 600.755731 -165.309255 
L 600.118717 -163.939621 
L 599.377053 -162.569987 
L 598.550319 -161.200353 
L 597.662929 -159.830719 
L 596.742062 -158.461085 
L 595.815233 -157.091451 
L 594.907799 -155.721817 
L 594.040625 -154.352183 
L 593.228066 -152.982548 
L 592.476384 -151.612914 
L 591.782747 -150.24328 
L 591.134969 -148.873646 
L 590.512153 -147.504012 
L 589.886337 -146.134378 
L 589.225124 -144.764744 
L 588.495092 -143.39511 
L 587.665643 -142.025476 
L 586.712786 -140.655842 
L 585.622321 -139.286208 
L 584.391959 -137.916574 
L 583.032054 -136.54694 
L 581.564838 -135.177306 
L 580.022301 -133.807672 
L 578.443038 -132.438037 
L 576.868523 -131.068403 
L 575.339318 -129.698769 
L 573.891672 -128.329135 
L 572.554883 -126.959501 
L 571.349623 -125.589867 
L 570.287296 -124.220233 
L 569.37036 -122.850599 
L 568.593445 -121.480965 
L 567.945029 -120.111331 
L 567.409428 -118.741697 
L 566.968858 -117.372063 
L 566.605366 -116.002429 
L 566.30246 -114.632795 
L 566.046339 -113.26316 
L 565.826662 -111.893526 
L 565.636832 -110.523892 
L 565.473817 -109.154258 
L 565.337578 -107.784624 
L 565.230174 -106.41499 
L 565.154674 -105.045356 
L 565.113995 -103.675722 
L 565.109802 -102.306088 
L 565.141614 -100.936454 
L 565.20622 -99.56682 
L 565.297478 -98.197186 
L 565.406543 -96.827552 
L 565.52248 -95.457918 
L 565.633212 -94.088284 
L 565.726659 -92.718649 
L 565.791934 -91.349015 
L 565.820429 -89.979381 
L 565.806647 -88.609747 
L 565.748673 -87.240113 
L 565.648235 -85.870479 
L 565.510343 -84.500845 
L 565.342606 -83.131211 
L 565.154297 -81.761577 
L 564.955343 -80.391943 
L 564.75534 -79.022309 
L 564.562748 -77.652675 
L 564.384307 -76.283041 
L 564.224744 -74.913407 
L 564.086736 -73.543772 
L 563.971093 -72.174138 
L 563.877098 -70.804504 
L 563.802922 -69.43487 
z
" style="stroke: #2f2f2f; stroke-width: 1.5"/>
    </defs>
    <g clip-path="url(#pefe69e42f7)">
     <use xlink:href="#m675278f1c2" x="0" y="403.988938" style="fill: #6871a6; stroke: #2f2f2f; stroke-width: 1.5"/>
    </g>
   </g>
   <g id="matplotlib.axis_1">
    <g id="xtick_1">
     <g id="line2d_1">
      <defs>
       <path id="m5d4885a893" d="M 0 0 
L 0 6 
" style="stroke: #000000; stroke-width: 1.25"/>
      </defs>
      <g>
       <use xlink:href="#m5d4885a893" x="197.982812" y="352.125375" style="stroke: #000000; stroke-width: 1.25"/>
      </g>
     </g>
     <g id="text_1">
      <!-- positive -->
      <g transform="translate(167.779562 373.326969)scale(0.154 -0.154)">
       <defs>
        <path id="DejaVuSans-70" d="M 1159 525 
L 1159 -1331 
L 581 -1331 
L 581 3500 
L 1159 3500 
L 1159 2969 
Q 1341 3281 1617 3432 
Q 1894 3584 2278 3584 
Q 2916 3584 3314 3078 
Q 3713 2572 3713 1747 
Q 3713 922 3314 415 
Q 2916 -91 2278 -91 
Q 1894 -91 1617 61 
Q 1341 213 1159 525 
z
M 3116 1747 
Q 3116 2381 2855 2742 
Q 2594 3103 2138 3103 
Q 1681 3103 1420 2742 
Q 1159 2381 1159 1747 
Q 1159 1113 1420 752 
Q 1681 391 2138 391 
Q 2594 391 2855 752 
Q 3116 1113 3116 1747 
z
" transform="scale(0.015625)"/>
        <path id="DejaVuSans-6f" d="M 1959 3097 
Q 1497 3097 1228 2736 
Q 959 2375 959 1747 
Q 959 1119 1226 758 
Q 1494 397 1959 397 
Q 2419 397 2687 759 
Q 2956 1122 2956 1747 
Q 2956 2369 2687 2733 
Q 2419 3097 1959 3097 
z
M 1959 3584 
Q 2709 3584 3137 3096 
Q 3566 2609 3566 1747 
Q 3566 888 3137 398 
Q 2709 -91 1959 -91 
Q 1206 -91 779 398 
Q 353 888 353 1747 
Q 353 2609 779 3096 
Q 1206 3584 1959 3584 
z
" transform="scale(0.015625)"/>
        <path id="DejaVuSans-73" d="M 2834 3397 
L 2834 2853 
Q 2591 2978 2328 3040 
Q 2066 3103 1784 3103 
Q 1356 3103 1142 2972 
Q 928 2841 928 2578 
Q 928 2378 1081 2264 
Q 1234 2150 1697 2047 
L 1894 2003 
Q 2506 1872 2764 1633 
Q 3022 1394 3022 966 
Q 3022 478 2636 193 
Q 2250 -91 1575 -91 
Q 1294 -91 989 -36 
Q 684 19 347 128 
L 347 722 
Q 666 556 975 473 
Q 1284 391 1588 391 
Q 1994 391 2212 530 
Q 2431 669 2431 922 
Q 2431 1156 2273 1281 
Q 2116 1406 1581 1522 
L 1381 1569 
Q 847 1681 609 1914 
Q 372 2147 372 2553 
Q 372 3047 722 3315 
Q 1072 3584 1716 3584 
Q 2034 3584 2315 3537 
Q 2597 3491 2834 3397 
z
" transform="scale(0.015625)"/>
        <path id="DejaVuSans-69" d="M 603 3500 
L 1178 3500 
L 1178 0 
L 603 0 
L 603 3500 
z
M 603 4863 
L 1178 4863 
L 1178 4134 
L 603 4134 
L 603 4863 
z
" transform="scale(0.015625)"/>
        <path id="DejaVuSans-74" d="M 1172 4494 
L 1172 3500 
L 2356 3500 
L 2356 3053 
L 1172 3053 
L 1172 1153 
Q 1172 725 1289 603 
Q 1406 481 1766 481 
L 2356 481 
L 2356 0 
L 1766 0 
Q 1100 0 847 248 
Q 594 497 594 1153 
L 594 3053 
L 172 3053 
L 172 3500 
L 594 3500 
L 594 4494 
L 1172 4494 
z
" transform="scale(0.015625)"/>
        <path id="DejaVuSans-76" d="M 191 3500 
L 800 3500 
L 1894 563 
L 2988 3500 
L 3597 3500 
L 2284 0 
L 1503 0 
L 191 3500 
z
" transform="scale(0.015625)"/>
        <path id="DejaVuSans-65" d="M 3597 1894 
L 3597 1613 
L 953 1613 
Q 991 1019 1311 708 
Q 1631 397 2203 397 
Q 2534 397 2845 478 
Q 3156 559 3463 722 
L 3463 178 
Q 3153 47 2828 -22 
Q 2503 -91 2169 -91 
Q 1331 -91 842 396 
Q 353 884 353 1716 
Q 353 2575 817 3079 
Q 1281 3584 2069 3584 
Q 2775 3584 3186 3129 
Q 3597 2675 3597 1894 
z
M 3022 2063 
Q 3016 2534 2758 2815 
Q 2500 3097 2075 3097 
Q 1594 3097 1305 2825 
Q 1016 2553 972 2059 
L 3022 2063 
z
" transform="scale(0.015625)"/>
       </defs>
       <use xlink:href="#DejaVuSans-70"/>
       <use xlink:href="#DejaVuSans-6f" x="63.476562"/>
       <use xlink:href="#DejaVuSans-73" x="124.658203"/>
       <use xlink:href="#DejaVuSans-69" x="176.757812"/>
       <use xlink:href="#DejaVuSans-74" x="204.541016"/>
       <use xlink:href="#DejaVuSans-69" x="243.75"/>
       <use xlink:href="#DejaVuSans-76" x="271.533203"/>
       <use xlink:href="#DejaVuSans-65" x="330.712891"/>
      </g>
     </g>
    </g>
    <g id="xtick_2">
     <g id="line2d_2">
      <g>
       <use xlink:href="#m5d4885a893" x="486.635684" y="352.125375" style="stroke: #000000; stroke-width: 1.25"/>
      </g>
     </g>
     <g id="text_2">
      <!-- negative -->
      <g transform="translate(452.957809 373.326969)scale(0.154 -0.154)">
       <defs>
        <path id="DejaVuSans-6e" d="M 3513 2113 
L 3513 0 
L 2938 0 
L 2938 2094 
Q 2938 2591 2744 2837 
Q 2550 3084 2163 3084 
Q 1697 3084 1428 2787 
Q 1159 2491 1159 1978 
L 1159 0 
L 581 0 
L 581 3500 
L 1159 3500 
L 1159 2956 
Q 1366 3272 1645 3428 
Q 1925 3584 2291 3584 
Q 2894 3584 3203 3211 
Q 3513 2838 3513 2113 
z
" transform="scale(0.015625)"/>
        <path id="DejaVuSans-67" d="M 2906 1791 
Q 2906 2416 2648 2759 
Q 2391 3103 1925 3103 
Q 1463 3103 1205 2759 
Q 947 2416 947 1791 
Q 947 1169 1205 825 
Q 1463 481 1925 481 
Q 2391 481 2648 825 
Q 2906 1169 2906 1791 
z
M 3481 434 
Q 3481 -459 3084 -895 
Q 2688 -1331 1869 -1331 
Q 1566 -1331 1297 -1286 
Q 1028 -1241 775 -1147 
L 775 -588 
Q 1028 -725 1275 -790 
Q 1522 -856 1778 -856 
Q 2344 -856 2625 -561 
Q 2906 -266 2906 331 
L 2906 616 
Q 2728 306 2450 153 
Q 2172 0 1784 0 
Q 1141 0 747 490 
Q 353 981 353 1791 
Q 353 2603 747 3093 
Q 1141 3584 1784 3584 
Q 2172 3584 2450 3431 
Q 2728 3278 2906 2969 
L 2906 3500 
L 3481 3500 
L 3481 434 
z
" transform="scale(0.015625)"/>
        <path id="DejaVuSans-61" d="M 2194 1759 
Q 1497 1759 1228 1600 
Q 959 1441 959 1056 
Q 959 750 1161 570 
Q 1363 391 1709 391 
Q 2188 391 2477 730 
Q 2766 1069 2766 1631 
L 2766 1759 
L 2194 1759 
z
M 3341 1997 
L 3341 0 
L 2766 0 
L 2766 531 
Q 2569 213 2275 61 
Q 1981 -91 1556 -91 
Q 1019 -91 701 211 
Q 384 513 384 1019 
Q 384 1609 779 1909 
Q 1175 2209 1959 2209 
L 2766 2209 
L 2766 2266 
Q 2766 2663 2505 2880 
Q 2244 3097 1772 3097 
Q 1472 3097 1187 3025 
Q 903 2953 641 2809 
L 641 3341 
Q 956 3463 1253 3523 
Q 1550 3584 1831 3584 
Q 2591 3584 2966 3190 
Q 3341 2797 3341 1997 
z
" transform="scale(0.015625)"/>
       </defs>
       <use xlink:href="#DejaVuSans-6e"/>
       <use xlink:href="#DejaVuSans-65" x="63.378906"/>
       <use xlink:href="#DejaVuSans-67" x="124.902344"/>
       <use xlink:href="#DejaVuSans-61" x="188.378906"/>
       <use xlink:href="#DejaVuSans-74" x="249.658203"/>
       <use xlink:href="#DejaVuSans-69" x="288.867188"/>
       <use xlink:href="#DejaVuSans-76" x="316.650391"/>
       <use xlink:href="#DejaVuSans-65" x="375.830078"/>
      </g>
     </g>
    </g>
    <g id="text_3">
     <!-- Motif match change direction -->
     <g transform="translate(225.193094 393.295063)scale(0.168 -0.168)">
      <defs>
       <path id="DejaVuSans-4d" d="M 628 4666 
L 1569 4666 
L 2759 1491 
L 3956 4666 
L 4897 4666 
L 4897 0 
L 4281 0 
L 4281 4097 
L 3078 897 
L 2444 897 
L 1241 4097 
L 1241 0 
L 628 0 
L 628 4666 
z
" transform="scale(0.015625)"/>
       <path id="DejaVuSans-66" d="M 2375 4863 
L 2375 4384 
L 1825 4384 
Q 1516 4384 1395 4259 
Q 1275 4134 1275 3809 
L 1275 3500 
L 2222 3500 
L 2222 3053 
L 1275 3053 
L 1275 0 
L 697 0 
L 697 3053 
L 147 3053 
L 147 3500 
L 697 3500 
L 697 3744 
Q 697 4328 969 4595 
Q 1241 4863 1831 4863 
L 2375 4863 
z
" transform="scale(0.015625)"/>
       <path id="DejaVuSans-20" transform="scale(0.015625)"/>
       <path id="DejaVuSans-6d" d="M 3328 2828 
Q 3544 3216 3844 3400 
Q 4144 3584 4550 3584 
Q 5097 3584 5394 3201 
Q 5691 2819 5691 2113 
L 5691 0 
L 5113 0 
L 5113 2094 
Q 5113 2597 4934 2840 
Q 4756 3084 4391 3084 
Q 3944 3084 3684 2787 
Q 3425 2491 3425 1978 
L 3425 0 
L 2847 0 
L 2847 2094 
Q 2847 2600 2669 2842 
Q 2491 3084 2119 3084 
Q 1678 3084 1418 2786 
Q 1159 2488 1159 1978 
L 1159 0 
L 581 0 
L 581 3500 
L 1159 3500 
L 1159 2956 
Q 1356 3278 1631 3431 
Q 1906 3584 2284 3584 
Q 2666 3584 2933 3390 
Q 3200 3197 3328 2828 
z
" transform="scale(0.015625)"/>
       <path id="DejaVuSans-63" d="M 3122 3366 
L 3122 2828 
Q 2878 2963 2633 3030 
Q 2388 3097 2138 3097 
Q 1578 3097 1268 2742 
Q 959 2388 959 1747 
Q 959 1106 1268 751 
Q 1578 397 2138 397 
Q 2388 397 2633 464 
Q 2878 531 3122 666 
L 3122 134 
Q 2881 22 2623 -34 
Q 2366 -91 2075 -91 
Q 1284 -91 818 406 
Q 353 903 353 1747 
Q 353 2603 823 3093 
Q 1294 3584 2113 3584 
Q 2378 3584 2631 3529 
Q 2884 3475 3122 3366 
z
" transform="scale(0.015625)"/>
       <path id="DejaVuSans-68" d="M 3513 2113 
L 3513 0 
L 2938 0 
L 2938 2094 
Q 2938 2591 2744 2837 
Q 2550 3084 2163 3084 
Q 1697 3084 1428 2787 
Q 1159 2491 1159 1978 
L 1159 0 
L 581 0 
L 581 4863 
L 1159 4863 
L 1159 2956 
Q 1366 3272 1645 3428 
Q 1925 3584 2291 3584 
Q 2894 3584 3203 3211 
Q 3513 2838 3513 2113 
z
" transform="scale(0.015625)"/>
       <path id="DejaVuSans-64" d="M 2906 2969 
L 2906 4863 
L 3481 4863 
L 3481 0 
L 2906 0 
L 2906 525 
Q 2725 213 2448 61 
Q 2172 -91 1784 -91 
Q 1150 -91 751 415 
Q 353 922 353 1747 
Q 353 2572 751 3078 
Q 1150 3584 1784 3584 
Q 2172 3584 2448 3432 
Q 2725 3281 2906 2969 
z
M 947 1747 
Q 947 1113 1208 752 
Q 1469 391 1925 391 
Q 2381 391 2643 752 
Q 2906 1113 2906 1747 
Q 2906 2381 2643 2742 
Q 2381 3103 1925 3103 
Q 1469 3103 1208 2742 
Q 947 2381 947 1747 
z
" transform="scale(0.015625)"/>
       <path id="DejaVuSans-72" d="M 2631 2963 
Q 2534 3019 2420 3045 
Q 2306 3072 2169 3072 
Q 1681 3072 1420 2755 
Q 1159 2438 1159 1844 
L 1159 0 
L 581 0 
L 581 3500 
L 1159 3500 
L 1159 2956 
Q 1341 3275 1631 3429 
Q 1922 3584 2338 3584 
Q 2397 3584 2469 3576 
Q 2541 3569 2628 3553 
L 2631 2963 
z
" transform="scale(0.015625)"/>
      </defs>
      <use xlink:href="#DejaVuSans-4d"/>
      <use xlink:href="#DejaVuSans-6f" x="86.279297"/>
      <use xlink:href="#DejaVuSans-74" x="147.460938"/>
      <use xlink:href="#DejaVuSans-69" x="186.669922"/>
      <use xlink:href="#DejaVuSans-66" x="214.453125"/>
      <use xlink:href="#DejaVuSans-20" x="249.658203"/>
      <use xlink:href="#DejaVuSans-6d" x="281.445312"/>
      <use xlink:href="#DejaVuSans-61" x="378.857422"/>
      <use xlink:href="#DejaVuSans-74" x="440.136719"/>
      <use xlink:href="#DejaVuSans-63" x="479.345703"/>
      <use xlink:href="#DejaVuSans-68" x="534.326172"/>
      <use xlink:href="#DejaVuSans-20" x="597.705078"/>
      <use xlink:href="#DejaVuSans-63" x="629.492188"/>
      <use xlink:href="#DejaVuSans-68" x="684.472656"/>
      <use xlink:href="#DejaVuSans-61" x="747.851562"/>
      <use xlink:href="#DejaVuSans-6e" x="809.130859"/>
      <use xlink:href="#DejaVuSans-67" x="872.509766"/>
      <use xlink:href="#DejaVuSans-65" x="935.986328"/>
      <use xlink:href="#DejaVuSans-20" x="997.509766"/>
      <use xlink:href="#DejaVuSans-64" x="1029.296875"/>
      <use xlink:href="#DejaVuSans-69" x="1092.773438"/>
      <use xlink:href="#DejaVuSans-72" x="1120.556641"/>
      <use xlink:href="#DejaVuSans-65" x="1159.419922"/>
      <use xlink:href="#DejaVuSans-63" x="1220.943359"/>
      <use xlink:href="#DejaVuSans-74" x="1275.923828"/>
      <use xlink:href="#DejaVuSans-69" x="1315.132812"/>
      <use xlink:href="#DejaVuSans-6f" x="1342.916016"/>
      <use xlink:href="#DejaVuSans-6e" x="1404.097656"/>
     </g>
    </g>
   </g>
   <g id="matplotlib.axis_2">
    <g id="ytick_1">
     <g id="line2d_3">
      <defs>
       <path id="mc3633442da" d="M 0 0 
L -6 0 
" style="stroke: #000000; stroke-width: 1.25"/>
      </defs>
      <g>
       <use xlink:href="#mc3633442da" x="69.460469" y="332.357069" style="stroke: #000000; stroke-width: 1.25"/>
      </g>
     </g>
     <g id="text_4">
      <!-- −10 -->
      <g transform="translate(27.45925 338.207866)scale(0.154 -0.154)">
       <defs>
        <path id="DejaVuSans-2212" d="M 678 2272 
L 4684 2272 
L 4684 1741 
L 678 1741 
L 678 2272 
z
" transform="scale(0.015625)"/>
        <path id="DejaVuSans-31" d="M 794 531 
L 1825 531 
L 1825 4091 
L 703 3866 
L 703 4441 
L 1819 4666 
L 2450 4666 
L 2450 531 
L 3481 531 
L 3481 0 
L 794 0 
L 794 531 
z
" transform="scale(0.015625)"/>
        <path id="DejaVuSans-30" d="M 2034 4250 
Q 1547 4250 1301 3770 
Q 1056 3291 1056 2328 
Q 1056 1369 1301 889 
Q 1547 409 2034 409 
Q 2525 409 2770 889 
Q 3016 1369 3016 2328 
Q 3016 3291 2770 3770 
Q 2525 4250 2034 4250 
z
M 2034 4750 
Q 2819 4750 3233 4129 
Q 3647 3509 3647 2328 
Q 3647 1150 3233 529 
Q 2819 -91 2034 -91 
Q 1250 -91 836 529 
Q 422 1150 422 2328 
Q 422 3509 836 4129 
Q 1250 4750 2034 4750 
z
" transform="scale(0.015625)"/>
       </defs>
       <use xlink:href="#DejaVuSans-2212"/>
       <use xlink:href="#DejaVuSans-31" x="83.789062"/>
       <use xlink:href="#DejaVuSans-30" x="147.412109"/>
      </g>
     </g>
    </g>
    <g id="ytick_2">
     <g id="line2d_4">
      <g>
       <use xlink:href="#mc3633442da" x="69.460469" y="271.677218" style="stroke: #000000; stroke-width: 1.25"/>
      </g>
     </g>
     <g id="text_5">
      <!-- −5 -->
      <g transform="translate(37.2575 277.528014)scale(0.154 -0.154)">
       <defs>
        <path id="DejaVuSans-35" d="M 691 4666 
L 3169 4666 
L 3169 4134 
L 1269 4134 
L 1269 2991 
Q 1406 3038 1543 3061 
Q 1681 3084 1819 3084 
Q 2600 3084 3056 2656 
Q 3513 2228 3513 1497 
Q 3513 744 3044 326 
Q 2575 -91 1722 -91 
Q 1428 -91 1123 -41 
Q 819 9 494 109 
L 494 744 
Q 775 591 1075 516 
Q 1375 441 1709 441 
Q 2250 441 2565 725 
Q 2881 1009 2881 1497 
Q 2881 1984 2565 2268 
Q 2250 2553 1709 2553 
Q 1456 2553 1204 2497 
Q 953 2441 691 2322 
L 691 4666 
z
" transform="scale(0.015625)"/>
       </defs>
       <use xlink:href="#DejaVuSans-2212"/>
       <use xlink:href="#DejaVuSans-35" x="83.789062"/>
      </g>
     </g>
    </g>
    <g id="ytick_3">
     <g id="line2d_5">
      <g>
       <use xlink:href="#mc3633442da" x="69.460469" y="210.997366" style="stroke: #000000; stroke-width: 1.25"/>
      </g>
     </g>
     <g id="text_6">
      <!-- 0 -->
      <g transform="translate(50.162219 216.848163)scale(0.154 -0.154)">
       <use xlink:href="#DejaVuSans-30"/>
      </g>
     </g>
    </g>
    <g id="ytick_4">
     <g id="line2d_6">
      <g>
       <use xlink:href="#mc3633442da" x="69.460469" y="150.317515" style="stroke: #000000; stroke-width: 1.25"/>
      </g>
     </g>
     <g id="text_7">
      <!-- 5 -->
      <g transform="translate(50.162219 156.168312)scale(0.154 -0.154)">
       <use xlink:href="#DejaVuSans-35"/>
      </g>
     </g>
    </g>
    <g id="ytick_5">
     <g id="line2d_7">
      <g>
       <use xlink:href="#mc3633442da" x="69.460469" y="89.637664" style="stroke: #000000; stroke-width: 1.25"/>
      </g>
     </g>
     <g id="text_8">
      <!-- 10 -->
      <g transform="translate(40.363969 95.488461)scale(0.154 -0.154)">
       <use xlink:href="#DejaVuSans-31"/>
       <use xlink:href="#DejaVuSans-30" x="63.623047"/>
      </g>
     </g>
    </g>
    <g id="ytick_6">
     <g id="line2d_8">
      <g>
       <use xlink:href="#mc3633442da" x="69.460469" y="28.957813" style="stroke: #000000; stroke-width: 1.25"/>
      </g>
     </g>
     <g id="text_9">
      <!-- 15 -->
      <g transform="translate(40.363969 34.80861)scale(0.154 -0.154)">
       <use xlink:href="#DejaVuSans-31"/>
       <use xlink:href="#DejaVuSans-35" x="63.623047"/>
      </g>
     </g>
    </g>
    <g id="text_10">
     <!-- alleleDiff -->
     <g transform="translate(19.965375 226.246875)rotate(-90)scale(0.168 -0.168)">
      <defs>
       <path id="DejaVuSans-6c" d="M 603 4863 
L 1178 4863 
L 1178 0 
L 603 0 
L 603 4863 
z
" transform="scale(0.015625)"/>
       <path id="DejaVuSans-44" d="M 1259 4147 
L 1259 519 
L 2022 519 
Q 2988 519 3436 956 
Q 3884 1394 3884 2338 
Q 3884 3275 3436 3711 
Q 2988 4147 2022 4147 
L 1259 4147 
z
M 628 4666 
L 1925 4666 
Q 3281 4666 3915 4102 
Q 4550 3538 4550 2338 
Q 4550 1131 3912 565 
Q 3275 0 1925 0 
L 628 0 
L 628 4666 
z
" transform="scale(0.015625)"/>
      </defs>
      <use xlink:href="#DejaVuSans-61"/>
      <use xlink:href="#DejaVuSans-6c" x="61.279297"/>
      <use xlink:href="#DejaVuSans-6c" x="89.0625"/>
      <use xlink:href="#DejaVuSans-65" x="116.845703"/>
      <use xlink:href="#DejaVuSans-6c" x="178.369141"/>
      <use xlink:href="#DejaVuSans-65" x="206.152344"/>
      <use xlink:href="#DejaVuSans-44" x="267.675781"/>
      <use xlink:href="#DejaVuSans-69" x="344.677734"/>
      <use xlink:href="#DejaVuSans-66" x="372.460938"/>
      <use xlink:href="#DejaVuSans-66" x="407.666016"/>
     </g>
    </g>
   </g>
   <g id="line2d_9">
    <path d="M 121.008713 205.512088 
L 121.008713 119.78476 
" clip-path="url(#pefe69e42f7)" style="fill: none; stroke: #2f2f2f; stroke-width: 1.5; stroke-linecap: square"/>
   </g>
   <g id="line2d_10">
    <path d="M 121.008713 198.618117 
L 121.008713 166.828038 
" clip-path="url(#pefe69e42f7)" style="fill: none; stroke: #2f2f2f; stroke-width: 4.5; stroke-linecap: square"/>
   </g>
   <g id="line2d_11">
    <path d="M 197.982812 205.137831 
L 197.982812 130.885198 
" clip-path="url(#pefe69e42f7)" style="fill: none; stroke: #2f2f2f; stroke-width: 1.5; stroke-linecap: square"/>
   </g>
   <g id="line2d_12">
    <path d="M 197.982812 190.228817 
L 197.982812 159.134317 
" clip-path="url(#pefe69e42f7)" style="fill: none; stroke: #2f2f2f; stroke-width: 4.5; stroke-linecap: square"/>
   </g>
   <g id="line2d_13">
    <path d="M 274.956911 205.177282 
L 274.956911 112.367011 
" clip-path="url(#pefe69e42f7)" style="fill: none; stroke: #2f2f2f; stroke-width: 1.5; stroke-linecap: square"/>
   </g>
   <g id="line2d_14">
    <path d="M 274.956911 188.124218 
L 274.956911 157.666462 
" clip-path="url(#pefe69e42f7)" style="fill: none; stroke: #2f2f2f; stroke-width: 4.5; stroke-linecap: square"/>
   </g>
   <g id="line2d_15">
    <path d="M 409.661584 303.954565 
L 409.661584 216.192687 
" clip-path="url(#pefe69e42f7)" style="fill: none; stroke: #2f2f2f; stroke-width: 1.5; stroke-linecap: square"/>
   </g>
   <g id="line2d_16">
    <path d="M 409.661584 260.620488 
L 409.661584 226.928767 
" clip-path="url(#pefe69e42f7)" style="fill: none; stroke: #2f2f2f; stroke-width: 4.5; stroke-linecap: square"/>
   </g>
   <g id="line2d_17">
    <path d="M 486.635684 292.217204 
L 486.635684 216.208013 
" clip-path="url(#pefe69e42f7)" style="fill: none; stroke: #2f2f2f; stroke-width: 1.5; stroke-linecap: square"/>
   </g>
   <g id="line2d_18">
    <path d="M 486.635684 257.711645 
L 486.635684 222.559405 
" clip-path="url(#pefe69e42f7)" style="fill: none; stroke: #2f2f2f; stroke-width: 4.5; stroke-linecap: square"/>
   </g>
   <g id="line2d_19">
    <path d="M 563.609783 292.217204 
L 563.609783 216.208013 
" clip-path="url(#pefe69e42f7)" style="fill: none; stroke: #2f2f2f; stroke-width: 1.5; stroke-linecap: square"/>
   </g>
   <g id="line2d_20">
    <path d="M 563.609783 257.194909 
L 563.609783 225.849069 
" clip-path="url(#pefe69e42f7)" style="fill: none; stroke: #2f2f2f; stroke-width: 4.5; stroke-linecap: square"/>
   </g>
   <g id="line2d_21">
    <path d="M 486.635684 199.573613 
L 486.635684 194.028813 
L 563.609783 194.028813 
L 563.609783 199.573613 
" clip-path="url(#pefe69e42f7)" style="fill: none; stroke: #333333; stroke-width: 1.5; stroke-linecap: square"/>
   </g>
   <g id="line2d_22">
    <path d="M 409.661584 158.328299 
L 409.661584 152.7835 
L 486.635684 152.7835 
L 486.635684 158.328299 
" clip-path="url(#pefe69e42f7)" style="fill: none; stroke: #333333; stroke-width: 1.5; stroke-linecap: square"/>
   </g>
   <g id="line2d_23">
    <path d="M 121.008713 103.150361 
L 121.008713 97.605561 
L 197.982812 97.605561 
L 197.982812 103.150361 
" clip-path="url(#pefe69e42f7)" style="fill: none; stroke: #333333; stroke-width: 1.5; stroke-linecap: square"/>
   </g>
   <g id="line2d_24">
    <path d="M 197.982812 61.905047 
L 197.982812 56.360247 
L 274.956911 56.360247 
L 274.956911 61.905047 
" clip-path="url(#pefe69e42f7)" style="fill: none; stroke: #333333; stroke-width: 1.5; stroke-linecap: square"/>
   </g>
   <g id="patch_6">
    <path d="M 69.460469 352.125375 
L 69.460469 25.965375 
" style="fill: none; stroke: #000000; stroke-width: 1.25; stroke-linejoin: miter; stroke-linecap: square"/>
   </g>
   <g id="patch_7">
    <path d="M 69.460469 352.125375 
L 627.460469 352.125375 
" style="fill: none; stroke: #000000; stroke-width: 1.25; stroke-linejoin: miter; stroke-linecap: square"/>
   </g>
   <g id="PathCollection_1">
    <defs>
     <path id="m3912fc943b" d="M 0 1.5 
C 0.397805 1.5 0.77937 1.341951 1.06066 1.06066 
C 1.341951 0.77937 1.5 0.397805 1.5 0 
C 1.5 -0.397805 1.341951 -0.77937 1.06066 -1.06066 
C 0.77937 -1.341951 0.397805 -1.5 0 -1.5 
C -0.397805 -1.5 -0.77937 -1.341951 -1.06066 -1.06066 
C -1.341951 -0.77937 -1.5 -0.397805 -1.5 0 
C -1.5 0.397805 -1.341951 0.77937 -1.06066 1.06066 
C -0.77937 1.341951 -0.397805 1.5 0 1.5 
z
" style="stroke: #2f2f2f"/>
    </defs>
    <g clip-path="url(#pefe69e42f7)">
     <use xlink:href="#m3912fc943b" x="121.008713" y="181.463107" style="fill: #ffffff; stroke: #2f2f2f"/>
    </g>
   </g>
   <g id="PathCollection_2">
    <g clip-path="url(#pefe69e42f7)">
     <use xlink:href="#m3912fc943b" x="197.982812" y="161.931017" style="fill: #ffffff; stroke: #2f2f2f"/>
    </g>
   </g>
   <g id="PathCollection_3">
    <g clip-path="url(#pefe69e42f7)">
     <use xlink:href="#m3912fc943b" x="274.956911" y="161.107924" style="fill: #ffffff; stroke: #2f2f2f"/>
    </g>
   </g>
   <g id="PathCollection_4">
    <g clip-path="url(#pefe69e42f7)">
     <use xlink:href="#m3912fc943b" x="409.661584" y="244.181569" style="fill: #ffffff; stroke: #2f2f2f"/>
    </g>
   </g>
   <g id="PathCollection_5">
    <g clip-path="url(#pefe69e42f7)">
     <use xlink:href="#m3912fc943b" x="486.635684" y="238.676165" style="fill: #ffffff; stroke: #2f2f2f"/>
    </g>
   </g>
   <g id="PathCollection_6">
    <g clip-path="url(#pefe69e42f7)">
     <use xlink:href="#m3912fc943b" x="563.609783" y="238.66979" style="fill: #ffffff; stroke: #2f2f2f"/>
    </g>
   </g>
   <g id="text_11">
    <!-- p=0.38 -->
    <g transform="translate(494.047983 187.534938)scale(0.168 -0.168)">
     <defs>
      <path id="DejaVuSans-3d" d="M 678 2906 
L 4684 2906 
L 4684 2381 
L 678 2381 
L 678 2906 
z
M 678 1631 
L 4684 1631 
L 4684 1100 
L 678 1100 
L 678 1631 
z
" transform="scale(0.015625)"/>
      <path id="DejaVuSans-2e" d="M 684 794 
L 1344 794 
L 1344 0 
L 684 0 
L 684 794 
z
" transform="scale(0.015625)"/>
      <path id="DejaVuSans-33" d="M 2597 2516 
Q 3050 2419 3304 2112 
Q 3559 1806 3559 1356 
Q 3559 666 3084 287 
Q 2609 -91 1734 -91 
Q 1441 -91 1130 -33 
Q 819 25 488 141 
L 488 750 
Q 750 597 1062 519 
Q 1375 441 1716 441 
Q 2309 441 2620 675 
Q 2931 909 2931 1356 
Q 2931 1769 2642 2001 
Q 2353 2234 1838 2234 
L 1294 2234 
L 1294 2753 
L 1863 2753 
Q 2328 2753 2575 2939 
Q 2822 3125 2822 3475 
Q 2822 3834 2567 4026 
Q 2313 4219 1838 4219 
Q 1578 4219 1281 4162 
Q 984 4106 628 3988 
L 628 4550 
Q 988 4650 1302 4700 
Q 1616 4750 1894 4750 
Q 2613 4750 3031 4423 
Q 3450 4097 3450 3541 
Q 3450 3153 3228 2886 
Q 3006 2619 2597 2516 
z
" transform="scale(0.015625)"/>
      <path id="DejaVuSans-38" d="M 2034 2216 
Q 1584 2216 1326 1975 
Q 1069 1734 1069 1313 
Q 1069 891 1326 650 
Q 1584 409 2034 409 
Q 2484 409 2743 651 
Q 3003 894 3003 1313 
Q 3003 1734 2745 1975 
Q 2488 2216 2034 2216 
z
M 1403 2484 
Q 997 2584 770 2862 
Q 544 3141 544 3541 
Q 544 4100 942 4425 
Q 1341 4750 2034 4750 
Q 2731 4750 3128 4425 
Q 3525 4100 3525 3541 
Q 3525 3141 3298 2862 
Q 3072 2584 2669 2484 
Q 3125 2378 3379 2068 
Q 3634 1759 3634 1313 
Q 3634 634 3220 271 
Q 2806 -91 2034 -91 
Q 1263 -91 848 271 
Q 434 634 434 1313 
Q 434 1759 690 2068 
Q 947 2378 1403 2484 
z
M 1172 3481 
Q 1172 3119 1398 2916 
Q 1625 2713 2034 2713 
Q 2441 2713 2670 2916 
Q 2900 3119 2900 3481 
Q 2900 3844 2670 4047 
Q 2441 4250 2034 4250 
Q 1625 4250 1398 4047 
Q 1172 3844 1172 3481 
z
" transform="scale(0.015625)"/>
     </defs>
     <use xlink:href="#DejaVuSans-70"/>
     <use xlink:href="#DejaVuSans-3d" x="63.476562"/>
     <use xlink:href="#DejaVuSans-30" x="147.265625"/>
     <use xlink:href="#DejaVuSans-2e" x="210.888672"/>
     <use xlink:href="#DejaVuSans-33" x="242.675781"/>
     <use xlink:href="#DejaVuSans-38" x="306.298828"/>
    </g>
   </g>
   <g id="text_12">
    <!-- p=0.19 -->
    <g transform="translate(417.073884 146.289625)scale(0.168 -0.168)">
     <defs>
      <path id="DejaVuSans-39" d="M 703 97 
L 703 672 
Q 941 559 1184 500 
Q 1428 441 1663 441 
Q 2288 441 2617 861 
Q 2947 1281 2994 2138 
Q 2813 1869 2534 1725 
Q 2256 1581 1919 1581 
Q 1219 1581 811 2004 
Q 403 2428 403 3163 
Q 403 3881 828 4315 
Q 1253 4750 1959 4750 
Q 2769 4750 3195 4129 
Q 3622 3509 3622 2328 
Q 3622 1225 3098 567 
Q 2575 -91 1691 -91 
Q 1453 -91 1209 -44 
Q 966 3 703 97 
z
M 1959 2075 
Q 2384 2075 2632 2365 
Q 2881 2656 2881 3163 
Q 2881 3666 2632 3958 
Q 2384 4250 1959 4250 
Q 1534 4250 1286 3958 
Q 1038 3666 1038 3163 
Q 1038 2656 1286 2365 
Q 1534 2075 1959 2075 
z
" transform="scale(0.015625)"/>
     </defs>
     <use xlink:href="#DejaVuSans-70"/>
     <use xlink:href="#DejaVuSans-3d" x="63.476562"/>
     <use xlink:href="#DejaVuSans-30" x="147.265625"/>
     <use xlink:href="#DejaVuSans-2e" x="210.888672"/>
     <use xlink:href="#DejaVuSans-31" x="242.675781"/>
     <use xlink:href="#DejaVuSans-39" x="306.298828"/>
    </g>
   </g>
   <g id="text_13">
    <!-- p=0.00 -->
    <g transform="translate(128.421012 91.111686)scale(0.168 -0.168)">
     <use xlink:href="#DejaVuSans-70"/>
     <use xlink:href="#DejaVuSans-3d" x="63.476562"/>
     <use xlink:href="#DejaVuSans-30" x="147.265625"/>
     <use xlink:href="#DejaVuSans-2e" x="210.888672"/>
     <use xlink:href="#DejaVuSans-30" x="242.675781"/>
     <use xlink:href="#DejaVuSans-30" x="306.298828"/>
    </g>
   </g>
   <g id="text_14">
    <!-- p=0.21 -->
    <g transform="translate(205.395111 49.866372)scale(0.168 -0.168)">
     <defs>
      <path id="DejaVuSans-32" d="M 1228 531 
L 3431 531 
L 3431 0 
L 469 0 
L 469 531 
Q 828 903 1448 1529 
Q 2069 2156 2228 2338 
Q 2531 2678 2651 2914 
Q 2772 3150 2772 3378 
Q 2772 3750 2511 3984 
Q 2250 4219 1831 4219 
Q 1534 4219 1204 4116 
Q 875 4013 500 3803 
L 500 4441 
Q 881 4594 1212 4672 
Q 1544 4750 1819 4750 
Q 2544 4750 2975 4387 
Q 3406 4025 3406 3419 
Q 3406 3131 3298 2873 
Q 3191 2616 2906 2266 
Q 2828 2175 2409 1742 
Q 1991 1309 1228 531 
z
" transform="scale(0.015625)"/>
     </defs>
     <use xlink:href="#DejaVuSans-70"/>
     <use xlink:href="#DejaVuSans-3d" x="63.476562"/>
     <use xlink:href="#DejaVuSans-30" x="147.265625"/>
     <use xlink:href="#DejaVuSans-2e" x="210.888672"/>
     <use xlink:href="#DejaVuSans-32" x="242.675781"/>
     <use xlink:href="#DejaVuSans-31" x="306.298828"/>
    </g>
   </g>
   <g id="text_15">
    <!-- 2.43 -->
    <g transform="translate(111.38695 181.463107)scale(0.168 -0.168)">
     <defs>
      <path id="DejaVuSans-Bold-32" d="M 1844 884 
L 3897 884 
L 3897 0 
L 506 0 
L 506 884 
L 2209 2388 
Q 2438 2594 2547 2791 
Q 2656 2988 2656 3200 
Q 2656 3528 2436 3728 
Q 2216 3928 1850 3928 
Q 1569 3928 1234 3808 
Q 900 3688 519 3450 
L 519 4475 
Q 925 4609 1322 4679 
Q 1719 4750 2100 4750 
Q 2938 4750 3402 4381 
Q 3866 4013 3866 3353 
Q 3866 2972 3669 2642 
Q 3472 2313 2841 1759 
L 1844 884 
z
" transform="scale(0.015625)"/>
      <path id="DejaVuSans-Bold-2e" d="M 653 1209 
L 1778 1209 
L 1778 0 
L 653 0 
L 653 1209 
z
" transform="scale(0.015625)"/>
      <path id="DejaVuSans-Bold-34" d="M 2356 3675 
L 1038 1722 
L 2356 1722 
L 2356 3675 
z
M 2156 4666 
L 3494 4666 
L 3494 1722 
L 4159 1722 
L 4159 850 
L 3494 850 
L 3494 0 
L 2356 0 
L 2356 850 
L 288 850 
L 288 1881 
L 2156 4666 
z
" transform="scale(0.015625)"/>
      <path id="DejaVuSans-Bold-33" d="M 2981 2516 
Q 3453 2394 3698 2092 
Q 3944 1791 3944 1325 
Q 3944 631 3412 270 
Q 2881 -91 1863 -91 
Q 1503 -91 1142 -33 
Q 781 25 428 141 
L 428 1069 
Q 766 900 1098 814 
Q 1431 728 1753 728 
Q 2231 728 2486 893 
Q 2741 1059 2741 1369 
Q 2741 1688 2480 1852 
Q 2219 2016 1709 2016 
L 1228 2016 
L 1228 2791 
L 1734 2791 
Q 2188 2791 2409 2933 
Q 2631 3075 2631 3366 
Q 2631 3634 2415 3781 
Q 2200 3928 1806 3928 
Q 1516 3928 1219 3862 
Q 922 3797 628 3669 
L 628 4550 
Q 984 4650 1334 4700 
Q 1684 4750 2022 4750 
Q 2931 4750 3382 4451 
Q 3834 4153 3834 3553 
Q 3834 3144 3618 2883 
Q 3403 2622 2981 2516 
z
" transform="scale(0.015625)"/>
     </defs>
     <use xlink:href="#DejaVuSans-Bold-32"/>
     <use xlink:href="#DejaVuSans-Bold-2e" x="69.580078"/>
     <use xlink:href="#DejaVuSans-Bold-34" x="107.568359"/>
     <use xlink:href="#DejaVuSans-Bold-33" x="177.148438"/>
    </g>
   </g>
   <g id="text_16">
    <!-- 4.04 -->
    <g transform="translate(197.982812 161.931017)scale(0.168 -0.168)">
     <defs>
      <path id="DejaVuSans-Bold-30" d="M 2944 2338 
Q 2944 3213 2780 3570 
Q 2616 3928 2228 3928 
Q 1841 3928 1675 3570 
Q 1509 3213 1509 2338 
Q 1509 1453 1675 1090 
Q 1841 728 2228 728 
Q 2613 728 2778 1090 
Q 2944 1453 2944 2338 
z
M 4147 2328 
Q 4147 1169 3647 539 
Q 3147 -91 2228 -91 
Q 1306 -91 806 539 
Q 306 1169 306 2328 
Q 306 3491 806 4120 
Q 1306 4750 2228 4750 
Q 3147 4750 3647 4120 
Q 4147 3491 4147 2328 
z
" transform="scale(0.015625)"/>
     </defs>
     <use xlink:href="#DejaVuSans-Bold-34"/>
     <use xlink:href="#DejaVuSans-Bold-2e" x="69.580078"/>
     <use xlink:href="#DejaVuSans-Bold-30" x="107.568359"/>
     <use xlink:href="#DejaVuSans-Bold-34" x="177.148438"/>
    </g>
   </g>
   <g id="text_17">
    <!-- 4.11 -->
    <g transform="translate(284.578673 161.107924)scale(0.168 -0.168)">
     <defs>
      <path id="DejaVuSans-Bold-31" d="M 750 831 
L 1813 831 
L 1813 3847 
L 722 3622 
L 722 4441 
L 1806 4666 
L 2950 4666 
L 2950 831 
L 4013 831 
L 4013 0 
L 750 0 
L 750 831 
z
" transform="scale(0.015625)"/>
     </defs>
     <use xlink:href="#DejaVuSans-Bold-34"/>
     <use xlink:href="#DejaVuSans-Bold-2e" x="69.580078"/>
     <use xlink:href="#DejaVuSans-Bold-31" x="107.568359"/>
     <use xlink:href="#DejaVuSans-Bold-31" x="177.148438"/>
    </g>
   </g>
   <g id="text_18">
    <!-- -2.73 -->
    <g transform="translate(400.039822 244.181569)scale(0.168 -0.168)">
     <defs>
      <path id="DejaVuSans-Bold-2d" d="M 347 2297 
L 2309 2297 
L 2309 1388 
L 347 1388 
L 347 2297 
z
" transform="scale(0.015625)"/>
      <path id="DejaVuSans-Bold-37" d="M 428 4666 
L 3944 4666 
L 3944 3988 
L 2125 0 
L 953 0 
L 2675 3781 
L 428 3781 
L 428 4666 
z
" transform="scale(0.015625)"/>
     </defs>
     <use xlink:href="#DejaVuSans-Bold-2d"/>
     <use xlink:href="#DejaVuSans-Bold-32" x="41.503906"/>
     <use xlink:href="#DejaVuSans-Bold-2e" x="111.083984"/>
     <use xlink:href="#DejaVuSans-Bold-37" x="149.072266"/>
     <use xlink:href="#DejaVuSans-Bold-33" x="218.652344"/>
    </g>
   </g>
   <g id="text_19">
    <!-- -2.28 -->
    <g transform="translate(486.635684 238.676165)scale(0.168 -0.168)">
     <defs>
      <path id="DejaVuSans-Bold-38" d="M 2228 2088 
Q 1891 2088 1709 1903 
Q 1528 1719 1528 1375 
Q 1528 1031 1709 848 
Q 1891 666 2228 666 
Q 2563 666 2741 848 
Q 2919 1031 2919 1375 
Q 2919 1722 2741 1905 
Q 2563 2088 2228 2088 
z
M 1350 2484 
Q 925 2613 709 2878 
Q 494 3144 494 3541 
Q 494 4131 934 4440 
Q 1375 4750 2228 4750 
Q 3075 4750 3515 4442 
Q 3956 4134 3956 3541 
Q 3956 3144 3739 2878 
Q 3522 2613 3097 2484 
Q 3572 2353 3814 2058 
Q 4056 1763 4056 1313 
Q 4056 619 3595 264 
Q 3134 -91 2228 -91 
Q 1319 -91 855 264 
Q 391 619 391 1313 
Q 391 1763 633 2058 
Q 875 2353 1350 2484 
z
M 1631 3419 
Q 1631 3141 1786 2991 
Q 1941 2841 2228 2841 
Q 2509 2841 2662 2991 
Q 2816 3141 2816 3419 
Q 2816 3697 2662 3845 
Q 2509 3994 2228 3994 
Q 1941 3994 1786 3844 
Q 1631 3694 1631 3419 
z
" transform="scale(0.015625)"/>
     </defs>
     <use xlink:href="#DejaVuSans-Bold-2d"/>
     <use xlink:href="#DejaVuSans-Bold-32" x="41.503906"/>
     <use xlink:href="#DejaVuSans-Bold-2e" x="111.083984"/>
     <use xlink:href="#DejaVuSans-Bold-32" x="149.072266"/>
     <use xlink:href="#DejaVuSans-Bold-38" x="218.652344"/>
    </g>
   </g>
   <g id="text_20">
    <!-- -2.28 -->
    <g transform="translate(573.231545 238.66979)scale(0.168 -0.168)">
     <use xlink:href="#DejaVuSans-Bold-2d"/>
     <use xlink:href="#DejaVuSans-Bold-32" x="41.503906"/>
     <use xlink:href="#DejaVuSans-Bold-2e" x="111.083984"/>
     <use xlink:href="#DejaVuSans-Bold-32" x="149.072266"/>
     <use xlink:href="#DejaVuSans-Bold-38" x="218.652344"/>
    </g>
   </g>
   <g id="text_21">
    <!-- all merged 500 -->
    <g transform="translate(284.781906 19.965375)scale(0.168 -0.168)">
     <use xlink:href="#DejaVuSans-61"/>
     <use xlink:href="#DejaVuSans-6c" x="61.279297"/>
     <use xlink:href="#DejaVuSans-6c" x="89.0625"/>
     <use xlink:href="#DejaVuSans-20" x="116.845703"/>
     <use xlink:href="#DejaVuSans-6d" x="148.632812"/>
     <use xlink:href="#DejaVuSans-65" x="246.044922"/>
     <use xlink:href="#DejaVuSans-72" x="307.568359"/>
     <use xlink:href="#DejaVuSans-67" x="346.931641"/>
     <use xlink:href="#DejaVuSans-65" x="410.408203"/>
     <use xlink:href="#DejaVuSans-64" x="471.931641"/>
     <use xlink:href="#DejaVuSans-20" x="535.408203"/>
     <use xlink:href="#DejaVuSans-35" x="567.195312"/>
     <use xlink:href="#DejaVuSans-30" x="630.818359"/>
     <use xlink:href="#DejaVuSans-30" x="694.441406"/>
    </g>
   </g>
   <g id="legend_1">
    <g id="patch_8">
     <path d="M 658.440469 189.045375 
L 819.461906 189.045375 
Q 822.541906 189.045375 822.541906 185.965375 
L 822.541906 95.733187 
Q 822.541906 92.653187 819.461906 92.653187 
L 658.440469 92.653187 
Q 655.360469 92.653187 655.360469 95.733187 
L 655.360469 185.965375 
Q 655.360469 189.045375 658.440469 189.045375 
z
" style="fill: #ffffff; opacity: 0.8; stroke: #cccccc; stroke-linejoin: miter"/>
    </g>
    <g id="text_22">
     <!-- Haplotype status -->
     <g transform="translate(667.435687 111.578562)scale(0.168 -0.168)">
      <defs>
       <path id="DejaVuSans-48" d="M 628 4666 
L 1259 4666 
L 1259 2753 
L 3553 2753 
L 3553 4666 
L 4184 4666 
L 4184 0 
L 3553 0 
L 3553 2222 
L 1259 2222 
L 1259 0 
L 628 0 
L 628 4666 
z
" transform="scale(0.015625)"/>
       <path id="DejaVuSans-79" d="M 2059 -325 
Q 1816 -950 1584 -1140 
Q 1353 -1331 966 -1331 
L 506 -1331 
L 506 -850 
L 844 -850 
Q 1081 -850 1212 -737 
Q 1344 -625 1503 -206 
L 1606 56 
L 191 3500 
L 800 3500 
L 1894 763 
L 2988 3500 
L 3597 3500 
L 2059 -325 
z
" transform="scale(0.015625)"/>
       <path id="DejaVuSans-75" d="M 544 1381 
L 544 3500 
L 1119 3500 
L 1119 1403 
Q 1119 906 1312 657 
Q 1506 409 1894 409 
Q 2359 409 2629 706 
Q 2900 1003 2900 1516 
L 2900 3500 
L 3475 3500 
L 3475 0 
L 2900 0 
L 2900 538 
Q 2691 219 2414 64 
Q 2138 -91 1772 -91 
Q 1169 -91 856 284 
Q 544 659 544 1381 
z
M 1991 3584 
L 1991 3584 
z
" transform="scale(0.015625)"/>
      </defs>
      <use xlink:href="#DejaVuSans-48"/>
      <use xlink:href="#DejaVuSans-61" x="75.195312"/>
      <use xlink:href="#DejaVuSans-70" x="136.474609"/>
      <use xlink:href="#DejaVuSans-6c" x="199.951172"/>
      <use xlink:href="#DejaVuSans-6f" x="227.734375"/>
      <use xlink:href="#DejaVuSans-74" x="288.916016"/>
      <use xlink:href="#DejaVuSans-79" x="328.125"/>
      <use xlink:href="#DejaVuSans-70" x="387.304688"/>
      <use xlink:href="#DejaVuSans-65" x="450.78125"/>
      <use xlink:href="#DejaVuSans-20" x="512.304688"/>
      <use xlink:href="#DejaVuSans-73" x="544.091797"/>
      <use xlink:href="#DejaVuSans-74" x="596.191406"/>
      <use xlink:href="#DejaVuSans-61" x="635.400391"/>
      <use xlink:href="#DejaVuSans-74" x="696.679688"/>
      <use xlink:href="#DejaVuSans-75" x="735.888672"/>
      <use xlink:href="#DejaVuSans-73" x="799.267578"/>
     </g>
    </g>
    <g id="patch_9">
     <path d="M 661.520469 134.474031 
L 692.320469 134.474031 
L 692.320469 123.694031 
L 661.520469 123.694031 
z
" style="fill: #a1a1a1; stroke: #2f2f2f; stroke-width: 0.75; stroke-linejoin: miter"/>
    </g>
    <g id="text_23">
     <!-- affected -->
     <g transform="translate(704.640469 134.474031)scale(0.154 -0.154)">
      <use xlink:href="#DejaVuSans-61"/>
      <use xlink:href="#DejaVuSans-66" x="61.279297"/>
      <use xlink:href="#DejaVuSans-66" x="96.484375"/>
      <use xlink:href="#DejaVuSans-65" x="131.689453"/>
      <use xlink:href="#DejaVuSans-63" x="193.212891"/>
      <use xlink:href="#DejaVuSans-74" x="248.193359"/>
      <use xlink:href="#DejaVuSans-65" x="287.402344"/>
      <use xlink:href="#DejaVuSans-64" x="348.925781"/>
     </g>
    </g>
    <g id="patch_10">
     <path d="M 661.520469 157.078344 
L 692.320469 157.078344 
L 692.320469 146.298344 
L 661.520469 146.298344 
z
" style="fill: #2f6e65; stroke: #2f2f2f; stroke-width: 0.75; stroke-linejoin: miter"/>
    </g>
    <g id="text_24">
     <!-- compensating -->
     <g transform="translate(704.640469 157.078344)scale(0.154 -0.154)">
      <use xlink:href="#DejaVuSans-63"/>
      <use xlink:href="#DejaVuSans-6f" x="54.980469"/>
      <use xlink:href="#DejaVuSans-6d" x="116.162109"/>
      <use xlink:href="#DejaVuSans-70" x="213.574219"/>
      <use xlink:href="#DejaVuSans-65" x="277.050781"/>
      <use xlink:href="#DejaVuSans-6e" x="338.574219"/>
      <use xlink:href="#DejaVuSans-73" x="401.953125"/>
      <use xlink:href="#DejaVuSans-61" x="454.052734"/>
      <use xlink:href="#DejaVuSans-74" x="515.332031"/>
      <use xlink:href="#DejaVuSans-69" x="554.541016"/>
      <use xlink:href="#DejaVuSans-6e" x="582.324219"/>
      <use xlink:href="#DejaVuSans-67" x="645.703125"/>
     </g>
    </g>
    <g id="patch_11">
     <path d="M 661.520469 179.682656 
L 692.320469 179.682656 
L 692.320469 168.902656 
L 661.520469 168.902656 
z
" style="fill: #6871a6; stroke: #2f2f2f; stroke-width: 0.75; stroke-linejoin: miter"/>
    </g>
    <g id="text_25">
     <!-- unaffected bin -->
     <g transform="translate(704.640469 179.682656)scale(0.154 -0.154)">
      <defs>
       <path id="DejaVuSans-62" d="M 3116 1747 
Q 3116 2381 2855 2742 
Q 2594 3103 2138 3103 
Q 1681 3103 1420 2742 
Q 1159 2381 1159 1747 
Q 1159 1113 1420 752 
Q 1681 391 2138 391 
Q 2594 391 2855 752 
Q 3116 1113 3116 1747 
z
M 1159 2969 
Q 1341 3281 1617 3432 
Q 1894 3584 2278 3584 
Q 2916 3584 3314 3078 
Q 3713 2572 3713 1747 
Q 3713 922 3314 415 
Q 2916 -91 2278 -91 
Q 1894 -91 1617 61 
Q 1341 213 1159 525 
L 1159 0 
L 581 0 
L 581 4863 
L 1159 4863 
L 1159 2969 
z
" transform="scale(0.015625)"/>
      </defs>
      <use xlink:href="#DejaVuSans-75"/>
      <use xlink:href="#DejaVuSans-6e" x="63.378906"/>
      <use xlink:href="#DejaVuSans-61" x="126.757812"/>
      <use xlink:href="#DejaVuSans-66" x="188.037109"/>
      <use xlink:href="#DejaVuSans-66" x="223.242188"/>
      <use xlink:href="#DejaVuSans-65" x="258.447266"/>
      <use xlink:href="#DejaVuSans-63" x="319.970703"/>
      <use xlink:href="#DejaVuSans-74" x="374.951172"/>
      <use xlink:href="#DejaVuSans-65" x="414.160156"/>
      <use xlink:href="#DejaVuSans-64" x="475.683594"/>
      <use xlink:href="#DejaVuSans-20" x="539.160156"/>
      <use xlink:href="#DejaVuSans-62" x="570.947266"/>
      <use xlink:href="#DejaVuSans-69" x="634.423828"/>
      <use xlink:href="#DejaVuSans-6e" x="662.207031"/>
     </g>
    </g>
   </g>
  </g>
 </g>
 <defs>
  <clipPath id="pefe69e42f7">
   <rect x="69.460469" y="25.965375" width="558" height="326.16"/>
  </clipPath>
 </defs>
</svg>
