<?xml version="1.0" encoding="utf-8" standalone="no"?>
<!DOCTYPE svg PUBLIC "-//W3C//DTD SVG 1.1//EN"
  "http://www.w3.org/Graphics/SVG/1.1/DTD/svg11.dtd">
<svg xmlns:xlink="http://www.w3.org/1999/xlink" width="815.589pt" height="420.790812pt" viewBox="0 0 815.589 420.790812" xmlns="http://www.w3.org/2000/svg" version="1.1">
 <metadata>
  <rdf:RDF xmlns:dc="http://purl.org/dc/elements/1.1/" xmlns:cc="http://creativecommons.org/ns#" xmlns:rdf="http://www.w3.org/1999/02/22-rdf-syntax-ns#">
   <cc:Work>
    <dc:type rdf:resource="http://purl.org/dc/dcmitype/StillImage"/>
    <dc:date>2024-05-27T16:49:04.559920</dc:date>
    <dc:format>image/svg+xml</dc:format>
    <dc:creator>
     <cc:Agent>
      <dc:title>Matplotlib v3.5.1, https://matplotlib.org/</dc:title>
     </cc:Agent>
    </dc:creator>
   </cc:Work>
  </rdf:RDF>
 </metadata>
 <defs>
  <style type="text/css">*{stroke-linejoin: round; stroke-linecap: butt}</style>
 </defs>
 <g id="figure_1">
  <g id="patch_1">
   <path d="M 0 420.790812 
L 815.589 420.790812 
L 815.589 0 
L 0 0 
L 0 420.790812 
z
" style="fill: none"/>
  </g>
  <g id="axes_1">
   <g id="patch_2">
    <path d="M 76.15225 368.92725 
L 634.15225 368.92725 
L 634.15225 42.76725 
L 76.15225 42.76725 
z
" style="fill: #ffffff"/>
   </g>
   <g id="patch_3">
    <path d="M 215.65225 332.989311 
L 215.65225 332.989311 
L 215.65225 332.989311 
L 215.65225 332.989311 
z
" clip-path="url(#p264a13fec1)" style="fill: #888888; stroke: #202020; stroke-width: 0.75; stroke-linejoin: miter"/>
   </g>
   <g id="PolyCollection_1">
    <defs>
     <path id="mb169ac791f" d="M 160.268458 -77.054168 
L 159.436042 -77.054168 
L 158.442756 -79.944511 
L 156.080203 -82.834854 
L 151.769882 -85.725196 
L 145.713814 -88.615539 
L 139.048381 -91.505882 
L 132.975975 -94.396225 
L 127.814129 -97.286568 
L 123.209948 -100.176911 
L 119.020867 -103.067253 
L 115.578241 -105.957596 
L 113.377621 -108.847939 
L 112.794855 -111.738282 
L 113.85887 -114.628625 
L 116.19313 -117.518968 
L 119.232832 -120.40931 
L 122.445634 -123.299653 
L 125.482851 -126.189996 
L 128.326653 -129.080339 
L 131.216621 -131.970682 
L 134.332492 -134.861025 
L 137.588354 -137.751367 
L 140.697806 -140.64171 
L 143.370425 -143.532053 
L 145.47522 -146.422396 
L 147.062772 -149.312739 
L 148.271468 -152.203082 
L 149.199325 -155.093424 
L 149.778571 -157.983767 
L 149.87326 -160.87411 
L 149.674941 -163.764453 
L 149.768391 -166.654796 
L 150.51924 -169.545138 
L 151.641295 -172.435481 
L 152.583972 -175.325824 
L 153.067423 -178.216167 
L 153.118311 -181.10651 
L 152.859868 -183.996853 
L 152.40713 -186.887195 
L 151.867534 -189.777538 
L 151.326695 -192.667881 
L 150.779051 -195.558224 
L 150.123752 -198.448567 
L 149.304197 -201.33891 
L 148.415572 -204.229252 
L 147.601792 -207.119595 
L 146.870813 -210.009938 
L 146.055301 -212.900281 
L 144.933654 -215.790624 
L 143.419324 -218.680967 
L 141.71423 -221.571309 
L 140.227284 -224.461652 
L 139.246884 -227.351995 
L 138.761876 -230.242338 
L 138.613962 -233.132681 
L 138.616331 -236.023024 
L 138.492378 -238.913366 
L 137.956425 -241.803709 
L 136.942696 -244.694052 
L 135.643203 -247.584395 
L 134.34728 -250.474738 
L 133.283533 -253.36508 
L 132.515529 -256.255423 
L 131.998129 -259.145766 
L 131.827565 -262.036109 
L 132.301783 -264.926452 
L 133.577313 -267.816795 
L 135.438159 -270.707137 
L 137.560276 -273.59748 
L 139.785981 -276.487823 
L 142.009214 -279.378166 
L 144.072291 -282.268509 
L 145.922353 -285.158852 
L 147.656637 -288.049194 
L 149.332844 -290.939537 
L 150.87165 -293.82988 
L 152.157271 -296.720223 
L 153.143287 -299.610566 
L 153.878804 -302.500909 
L 154.496751 -305.391251 
L 155.15269 -308.281594 
L 155.917146 -311.171937 
L 156.729809 -314.06228 
L 157.478226 -316.952623 
L 158.098067 -319.842966 
L 158.584519 -322.733308 
L 158.951604 -325.623651 
L 159.217597 -328.513994 
L 159.408571 -331.404337 
L 159.547304 -334.29468 
L 159.642508 -337.185023 
L 159.698135 -340.075365 
L 159.726584 -342.965708 
L 159.745272 -345.856051 
L 159.764738 -348.746394 
L 159.786264 -351.636737 
L 159.807652 -354.527079 
L 159.826359 -357.417422 
L 159.839955 -360.307765 
L 159.847654 -363.198108 
L 159.856846 -363.198108 
L 159.856846 -363.198108 
L 159.864545 -360.307765 
L 159.878141 -357.417422 
L 159.896848 -354.527079 
L 159.918236 -351.636737 
L 159.939762 -348.746394 
L 159.959228 -345.856051 
L 159.977916 -342.965708 
L 160.006365 -340.075365 
L 160.061992 -337.185023 
L 160.157196 -334.29468 
L 160.295929 -331.404337 
L 160.486903 -328.513994 
L 160.752896 -325.623651 
L 161.119981 -322.733308 
L 161.606433 -319.842966 
L 162.226274 -316.952623 
L 162.974691 -314.06228 
L 163.787354 -311.171937 
L 164.55181 -308.281594 
L 165.207749 -305.391251 
L 165.825696 -302.500909 
L 166.561213 -299.610566 
L 167.547229 -296.720223 
L 168.83285 -293.82988 
L 170.371656 -290.939537 
L 172.047863 -288.049194 
L 173.782147 -285.158852 
L 175.632209 -282.268509 
L 177.695286 -279.378166 
L 179.918519 -276.487823 
L 182.144224 -273.59748 
L 184.266341 -270.707137 
L 186.127187 -267.816795 
L 187.402717 -264.926452 
L 187.876935 -262.036109 
L 187.706371 -259.145766 
L 187.188971 -256.255423 
L 186.420967 -253.36508 
L 185.35722 -250.474738 
L 184.061297 -247.584395 
L 182.761804 -244.694052 
L 181.748075 -241.803709 
L 181.212122 -238.913366 
L 181.088169 -236.023024 
L 181.090538 -233.132681 
L 180.942624 -230.242338 
L 180.457616 -227.351995 
L 179.477216 -224.461652 
L 177.99027 -221.571309 
L 176.285176 -218.680967 
L 174.770846 -215.790624 
L 173.649199 -212.900281 
L 172.833687 -210.009938 
L 172.102708 -207.119595 
L 171.288928 -204.229252 
L 170.400303 -201.33891 
L 169.580748 -198.448567 
L 168.925449 -195.558224 
L 168.377805 -192.667881 
L 167.836966 -189.777538 
L 167.29737 -186.887195 
L 166.844632 -183.996853 
L 166.586189 -181.10651 
L 166.637077 -178.216167 
L 167.120528 -175.325824 
L 168.063205 -172.435481 
L 169.18526 -169.545138 
L 169.936109 -166.654796 
L 170.029559 -163.764453 
L 169.83124 -160.87411 
L 169.925929 -157.983767 
L 170.505175 -155.093424 
L 171.433032 -152.203082 
L 172.641728 -149.312739 
L 174.22928 -146.422396 
L 176.334075 -143.532053 
L 179.006694 -140.64171 
L 182.116146 -137.751367 
L 185.372008 -134.861025 
L 188.487879 -131.970682 
L 191.377847 -129.080339 
L 194.221649 -126.189996 
L 197.258866 -123.299653 
L 200.471668 -120.40931 
L 203.51137 -117.518968 
L 205.84563 -114.628625 
L 206.909645 -111.738282 
L 206.326879 -108.847939 
L 204.126259 -105.957596 
L 200.683633 -103.067253 
L 196.494552 -100.176911 
L 191.890371 -97.286568 
L 186.728525 -94.396225 
L 180.656119 -91.505882 
L 173.990686 -88.615539 
L 167.934618 -85.725196 
L 163.624297 -82.834854 
L 161.261744 -79.944511 
L 160.268458 -77.054168 
z
" style="stroke: #202020; stroke-width: 1.5"/>
    </defs>
    <g clip-path="url(#p264a13fec1)">
     <use xlink:href="#mb169ac791f" x="0" y="420.790812" style="fill: #888888; stroke: #202020; stroke-width: 1.5"/>
    </g>
   </g>
   <g id="patch_4">
    <path d="M 215.65225 332.989311 
L 215.65225 332.989311 
L 215.65225 332.989311 
L 215.65225 332.989311 
z
" clip-path="url(#p264a13fec1)" style="fill: #1f4b44; stroke: #202020; stroke-width: 0.75; stroke-linejoin: miter"/>
   </g>
   <g id="PolyCollection_2">
    <defs>
     <path id="m6b797785a1" d="M 271.655446 -74.605256 
L 271.249054 -74.605256 
L 270.97487 -77.348039 
L 270.478985 -80.090822 
L 269.710625 -82.833606 
L 268.677422 -85.576389 
L 267.452697 -88.319172 
L 266.156358 -91.061956 
L 264.92911 -93.804739 
L 263.905273 -96.547523 
L 263.173267 -99.290306 
L 262.737231 -102.033089 
L 262.518658 -104.775873 
L 262.407025 -107.518656 
L 262.322444 -110.261439 
L 262.253396 -113.004223 
L 262.254632 -115.747006 
L 262.401735 -118.489789 
L 262.726476 -121.232573 
L 263.188601 -123.975356 
L 263.709512 -126.71814 
L 264.224056 -129.460923 
L 264.696522 -132.203706 
L 265.10073 -134.94649 
L 265.397567 -137.689273 
L 265.532653 -140.432056 
L 265.460809 -143.17484 
L 265.18895 -145.917623 
L 264.803006 -148.660406 
L 264.438992 -151.40319 
L 264.206635 -154.145973 
L 264.133423 -156.888756 
L 264.185698 -159.63154 
L 264.33794 -162.374323 
L 264.603692 -165.117107 
L 264.989471 -167.85989 
L 265.427313 -170.602673 
L 265.763454 -173.345457 
L 265.815907 -176.08824 
L 265.456932 -178.831023 
L 264.678683 -181.573807 
L 263.6156 -184.31659 
L 262.495733 -187.059373 
L 261.5193 -189.802157 
L 260.734082 -192.54494 
L 260.011821 -195.287724 
L 259.150381 -198.030507 
L 258.000143 -200.77329 
L 256.496973 -203.516074 
L 254.611711 -206.258857 
L 252.334738 -209.00164 
L 249.750762 -211.744424 
L 247.103591 -214.487207 
L 244.724663 -217.22999 
L 242.85431 -219.972774 
L 241.517093 -222.715557 
L 240.548466 -225.458341 
L 239.706642 -228.201124 
L 238.751307 -230.943907 
L 237.464399 -233.686691 
L 235.681064 -236.429474 
L 233.371909 -239.172257 
L 230.707558 -241.915041 
L 227.992309 -244.657824 
L 225.468394 -247.400607 
L 223.157386 -250.143391 
L 220.913703 -252.886174 
L 218.678762 -255.628958 
L 216.724718 -258.371741 
L 215.65225 -261.114524 
L 216.090816 -263.857308 
L 218.311118 -266.600091 
L 222.061256 -269.342874 
L 226.736695 -272.085658 
L 231.684562 -274.828441 
L 236.391653 -277.571224 
L 240.53336 -280.314008 
L 243.999606 -283.056791 
L 246.903282 -285.799574 
L 249.484778 -288.542358 
L 251.935731 -291.285141 
L 254.283671 -294.027925 
L 256.422258 -296.770708 
L 258.238478 -299.513491 
L 259.730968 -302.256275 
L 261.037557 -304.999058 
L 262.35259 -307.741841 
L 263.795919 -310.484625 
L 265.339706 -313.227408 
L 266.847273 -315.970191 
L 268.174393 -318.712975 
L 269.241343 -321.455758 
L 270.038168 -324.198542 
L 270.59487 -326.941325 
L 270.957292 -329.684108 
L 271.176616 -332.426892 
L 271.30179 -335.169675 
L 271.371484 -337.912458 
L 271.410457 -340.655242 
L 271.432118 -343.398025 
L 271.443524 -346.140808 
L 271.460976 -346.140808 
L 271.460976 -346.140808 
L 271.472382 -343.398025 
L 271.494043 -340.655242 
L 271.533016 -337.912458 
L 271.60271 -335.169675 
L 271.727884 -332.426892 
L 271.947208 -329.684108 
L 272.30963 -326.941325 
L 272.866332 -324.198542 
L 273.663157 -321.455758 
L 274.730107 -318.712975 
L 276.057227 -315.970191 
L 277.564794 -313.227408 
L 279.108581 -310.484625 
L 280.55191 -307.741841 
L 281.866943 -304.999058 
L 283.173532 -302.256275 
L 284.666022 -299.513491 
L 286.482242 -296.770708 
L 288.620829 -294.027925 
L 290.968769 -291.285141 
L 293.419722 -288.542358 
L 296.001218 -285.799574 
L 298.904894 -283.056791 
L 302.37114 -280.314008 
L 306.512847 -277.571224 
L 311.219938 -274.828441 
L 316.167805 -272.085658 
L 320.843244 -269.342874 
L 324.593382 -266.600091 
L 326.813684 -263.857308 
L 327.25225 -261.114524 
L 326.179782 -258.371741 
L 324.225738 -255.628958 
L 321.990797 -252.886174 
L 319.747114 -250.143391 
L 317.436106 -247.400607 
L 314.912191 -244.657824 
L 312.196942 -241.915041 
L 309.532591 -239.172257 
L 307.223436 -236.429474 
L 305.440101 -233.686691 
L 304.153193 -230.943907 
L 303.197858 -228.201124 
L 302.356034 -225.458341 
L 301.387407 -222.715557 
L 300.05019 -219.972774 
L 298.179837 -217.22999 
L 295.800909 -214.487207 
L 293.153738 -211.744424 
L 290.569762 -209.00164 
L 288.292789 -206.258857 
L 286.407527 -203.516074 
L 284.904357 -200.77329 
L 283.754119 -198.030507 
L 282.892679 -195.287724 
L 282.170418 -192.54494 
L 281.3852 -189.802157 
L 280.408767 -187.059373 
L 279.2889 -184.31659 
L 278.225817 -181.573807 
L 277.447568 -178.831023 
L 277.088593 -176.08824 
L 277.141046 -173.345457 
L 277.477187 -170.602673 
L 277.915029 -167.85989 
L 278.300808 -165.117107 
L 278.56656 -162.374323 
L 278.718802 -159.63154 
L 278.771077 -156.888756 
L 278.697865 -154.145973 
L 278.465508 -151.40319 
L 278.101494 -148.660406 
L 277.71555 -145.917623 
L 277.443691 -143.17484 
L 277.371847 -140.432056 
L 277.506933 -137.689273 
L 277.80377 -134.94649 
L 278.207978 -132.203706 
L 278.680444 -129.460923 
L 279.194988 -126.71814 
L 279.715899 -123.975356 
L 280.178024 -121.232573 
L 280.502765 -118.489789 
L 280.649868 -115.747006 
L 280.651104 -113.004223 
L 280.582056 -110.261439 
L 280.497475 -107.518656 
L 280.385842 -104.775873 
L 280.167269 -102.033089 
L 279.731233 -99.290306 
L 278.999227 -96.547523 
L 277.97539 -93.804739 
L 276.748142 -91.061956 
L 275.451803 -88.319172 
L 274.227078 -85.576389 
L 273.193875 -82.833606 
L 272.425515 -80.090822 
L 271.92963 -77.348039 
L 271.655446 -74.605256 
z
" style="stroke: #202020; stroke-width: 1.5"/>
    </defs>
    <g clip-path="url(#p264a13fec1)">
     <use xlink:href="#m6b797785a1" x="0" y="420.790812" style="fill: #1f4b44; stroke: #202020; stroke-width: 1.5"/>
    </g>
   </g>
   <g id="PolyCollection_3">
    <defs>
     <path id="m515e794b54" d="M 440.016317 -67.825981 
L 437.688183 -67.825981 
L 436.834855 -70.514394 
L 435.555056 -73.202808 
L 433.761212 -75.891221 
L 431.410909 -78.579635 
L 428.532644 -81.268049 
L 425.239849 -83.956462 
L 421.726012 -86.644876 
L 418.239524 -89.33329 
L 415.043751 -92.021703 
L 412.372592 -94.710117 
L 410.392245 -97.398531 
L 409.176709 -100.086944 
L 408.699993 -102.775358 
L 408.84472 -105.463771 
L 409.425712 -108.152185 
L 410.226713 -110.840599 
L 411.046243 -113.529012 
L 411.744006 -116.217426 
L 412.274516 -118.90584 
L 412.694198 -121.594253 
L 413.135232 -124.282667 
L 413.752435 -126.97108 
L 414.662282 -129.659494 
L 415.898281 -132.347908 
L 417.400645 -135.036321 
L 419.043195 -137.724735 
L 420.684247 -140.413149 
L 422.218721 -143.101562 
L 423.609746 -145.789976 
L 424.888191 -148.478389 
L 426.122484 -151.166803 
L 427.372458 -153.855217 
L 428.645378 -156.54363 
L 429.868839 -159.232044 
L 430.887139 -161.920458 
L 431.48007 -164.608871 
L 431.399741 -167.297285 
L 430.421515 -169.985699 
L 428.405055 -172.674112 
L 425.356496 -175.362526 
L 421.473111 -178.050939 
L 417.144683 -180.739353 
L 412.890555 -183.427767 
L 409.232772 -186.11618 
L 406.537033 -188.804594 
L 404.878453 -191.493008 
L 403.991683 -194.181421 
L 403.339188 -196.869835 
L 402.286699 -199.558248 
L 400.330286 -202.246662 
L 397.294249 -204.935076 
L 393.42396 -207.623489 
L 389.332379 -210.311903 
L 385.812641 -213.000317 
L 383.582015 -215.68873 
L 383.05225 -218.377144 
L 384.211669 -221.065558 
L 386.657316 -223.753971 
L 389.752739 -226.442385 
L 392.839503 -229.130798 
L 395.419708 -231.819212 
L 397.252755 -234.507626 
L 398.35354 -237.196039 
L 398.917484 -239.884453 
L 399.215964 -242.572867 
L 399.5027 -245.26128 
L 399.95588 -247.949694 
L 400.661833 -250.638107 
L 401.630977 -253.326521 
L 402.828979 -256.014935 
L 404.206476 -258.703348 
L 405.71749 -261.391762 
L 407.325706 -264.080176 
L 409.00387 -266.768589 
L 410.73194 -269.457003 
L 412.49551 -272.145417 
L 414.281987 -274.83383 
L 416.072183 -277.522244 
L 417.82952 -280.210657 
L 419.49415 -282.899071 
L 420.989825 -285.587485 
L 422.245338 -288.275898 
L 423.223079 -290.964312 
L 423.940924 -293.652726 
L 424.475384 -296.341139 
L 424.943168 -299.029553 
L 425.46916 -301.717966 
L 426.154566 -304.40638 
L 427.056535 -307.094794 
L 428.182851 -309.783207 
L 429.498144 -312.471621 
L 430.935615 -315.160035 
L 432.410213 -317.848448 
L 433.832173 -320.536862 
L 435.120692 -323.225276 
L 436.216238 -325.913689 
L 437.088545 -328.602103 
L 437.737782 -331.290516 
L 438.188779 -333.97893 
L 439.515721 -333.97893 
L 439.515721 -333.97893 
L 439.966718 -331.290516 
L 440.615955 -328.602103 
L 441.488262 -325.913689 
L 442.583808 -323.225276 
L 443.872327 -320.536862 
L 445.294287 -317.848448 
L 446.768885 -315.160035 
L 448.206356 -312.471621 
L 449.521649 -309.783207 
L 450.647965 -307.094794 
L 451.549934 -304.40638 
L 452.23534 -301.717966 
L 452.761332 -299.029553 
L 453.229116 -296.341139 
L 453.763576 -293.652726 
L 454.481421 -290.964312 
L 455.459162 -288.275898 
L 456.714675 -285.587485 
L 458.21035 -282.899071 
L 459.87498 -280.210657 
L 461.632317 -277.522244 
L 463.422513 -274.83383 
L 465.20899 -272.145417 
L 466.97256 -269.457003 
L 468.70063 -266.768589 
L 470.378794 -264.080176 
L 471.98701 -261.391762 
L 473.498024 -258.703348 
L 474.875521 -256.014935 
L 476.073523 -253.326521 
L 477.042667 -250.638107 
L 477.74862 -247.949694 
L 478.2018 -245.26128 
L 478.488536 -242.572867 
L 478.787016 -239.884453 
L 479.35096 -237.196039 
L 480.451745 -234.507626 
L 482.284792 -231.819212 
L 484.864997 -229.130798 
L 487.951761 -226.442385 
L 491.047184 -223.753971 
L 493.492831 -221.065558 
L 494.65225 -218.377144 
L 494.122485 -215.68873 
L 491.891859 -213.000317 
L 488.372121 -210.311903 
L 484.28054 -207.623489 
L 480.410251 -204.935076 
L 477.374214 -202.246662 
L 475.417801 -199.558248 
L 474.365312 -196.869835 
L 473.712817 -194.181421 
L 472.826047 -191.493008 
L 471.167467 -188.804594 
L 468.471728 -186.11618 
L 464.813945 -183.427767 
L 460.559817 -180.739353 
L 456.231389 -178.050939 
L 452.348004 -175.362526 
L 449.299445 -172.674112 
L 447.282985 -169.985699 
L 446.304759 -167.297285 
L 446.22443 -164.608871 
L 446.817361 -161.920458 
L 447.835661 -159.232044 
L 449.059122 -156.54363 
L 450.332042 -153.855217 
L 451.582016 -151.166803 
L 452.816309 -148.478389 
L 454.094754 -145.789976 
L 455.485779 -143.101562 
L 457.020253 -140.413149 
L 458.661305 -137.724735 
L 460.303855 -135.036321 
L 461.806219 -132.347908 
L 463.042218 -129.659494 
L 463.952065 -126.97108 
L 464.569268 -124.282667 
L 465.010302 -121.594253 
L 465.429984 -118.90584 
L 465.960494 -116.217426 
L 466.658257 -113.529012 
L 467.477787 -110.840599 
L 468.278788 -108.152185 
L 468.85978 -105.463771 
L 469.004507 -102.775358 
L 468.527791 -100.086944 
L 467.312255 -97.398531 
L 465.331908 -94.710117 
L 462.660749 -92.021703 
L 459.464976 -89.33329 
L 455.978488 -86.644876 
L 452.464651 -83.956462 
L 449.171856 -81.268049 
L 446.293591 -78.579635 
L 443.943288 -75.891221 
L 442.149444 -73.202808 
L 440.869645 -70.514394 
L 440.016317 -67.825981 
z
" style="stroke: #202020; stroke-width: 1.5"/>
    </defs>
    <g clip-path="url(#p264a13fec1)">
     <use xlink:href="#m515e794b54" x="0" y="420.790812" style="fill: #888888; stroke: #202020; stroke-width: 1.5"/>
    </g>
   </g>
   <g id="PolyCollection_4">
    <defs>
     <path id="m5f96b1e294" d="M 553.210118 -66.689017 
L 547.694382 -66.689017 
L 545.735365 -69.394525 
L 542.863111 -72.100034 
L 538.956923 -74.805542 
L 534.043514 -77.511051 
L 528.350674 -80.216559 
L 522.312013 -82.922068 
L 516.503429 -85.627576 
L 511.517471 -88.333084 
L 507.811207 -91.038593 
L 505.580936 -93.744101 
L 504.711759 -96.44961 
L 504.822278 -99.155118 
L 505.387921 -101.860627 
L 505.898265 -104.566135 
L 505.996058 -107.271643 
L 505.558259 -109.977152 
L 504.703271 -112.68266 
L 503.732223 -115.388169 
L 503.028614 -118.093677 
L 502.947561 -120.799186 
L 503.724251 -123.504694 
L 505.422749 -126.210202 
L 507.93352 -128.915711 
L 511.014366 -131.621219 
L 514.358653 -134.326728 
L 517.669525 -137.032236 
L 520.720073 -139.737745 
L 523.38603 -142.443253 
L 525.647156 -145.148761 
L 527.563128 -147.85427 
L 529.236151 -150.559778 
L 530.773557 -153.265287 
L 532.25934 -155.970795 
L 533.736884 -158.676304 
L 535.200332 -161.381812 
L 536.591848 -164.087321 
L 537.805544 -166.792829 
L 538.702252 -169.498337 
L 539.138516 -172.203846 
L 539.007279 -174.909354 
L 538.27945 -177.614863 
L 537.030196 -180.320371 
L 535.435405 -183.02588 
L 533.733213 -185.731388 
L 532.159316 -188.436896 
L 530.876836 -191.142405 
L 529.926087 -193.847913 
L 529.213943 -196.553422 
L 528.548652 -199.25893 
L 527.709328 -201.964439 
L 526.526563 -204.669947 
L 524.946414 -207.375455 
L 523.056003 -210.080964 
L 521.062891 -212.786472 
L 519.236812 -215.491981 
L 517.834872 -218.197489 
L 517.035046 -220.902998 
L 516.896967 -223.608506 
L 517.357292 -226.314014 
L 518.2551 -229.019523 
L 519.375263 -231.725031 
L 520.495912 -234.43054 
L 521.428653 -237.136048 
L 522.045041 -239.841557 
L 522.288114 -242.547065 
L 522.172058 -245.252573 
L 521.774648 -247.958082 
L 521.225567 -250.66359 
L 520.690336 -253.369099 
L 520.347557 -256.074607 
L 520.359115 -258.780116 
L 520.838273 -261.485624 
L 521.825445 -264.191132 
L 523.281235 -266.896641 
L 525.099923 -269.602149 
L 527.137624 -272.307658 
L 529.243452 -275.013166 
L 531.283166 -277.718675 
L 533.151315 -280.424183 
L 534.775179 -283.129691 
L 536.116515 -285.8352 
L 537.174415 -288.540708 
L 537.987295 -291.246217 
L 538.62894 -293.951725 
L 539.19515 -296.657234 
L 539.782819 -299.362742 
L 540.468086 -302.06825 
L 541.29131 -304.773759 
L 542.253271 -307.479267 
L 543.321794 -310.184776 
L 544.444222 -312.890284 
L 545.560556 -315.595793 
L 546.614053 -318.301301 
L 547.558454 -321.006809 
L 548.362331 -323.712318 
L 549.011015 -326.417826 
L 549.506112 -329.123335 
L 549.86264 -331.828843 
L 550.104324 -334.534352 
L 550.800176 -334.534352 
L 550.800176 -334.534352 
L 551.04186 -331.828843 
L 551.398388 -329.123335 
L 551.893485 -326.417826 
L 552.542169 -323.712318 
L 553.346046 -321.006809 
L 554.290447 -318.301301 
L 555.343944 -315.595793 
L 556.460278 -312.890284 
L 557.582706 -310.184776 
L 558.651229 -307.479267 
L 559.61319 -304.773759 
L 560.436414 -302.06825 
L 561.121681 -299.362742 
L 561.70935 -296.657234 
L 562.27556 -293.951725 
L 562.917205 -291.246217 
L 563.730085 -288.540708 
L 564.787985 -285.8352 
L 566.129321 -283.129691 
L 567.753185 -280.424183 
L 569.621334 -277.718675 
L 571.661048 -275.013166 
L 573.766876 -272.307658 
L 575.804577 -269.602149 
L 577.623265 -266.896641 
L 579.079055 -264.191132 
L 580.066227 -261.485624 
L 580.545385 -258.780116 
L 580.556943 -256.074607 
L 580.214164 -253.369099 
L 579.678933 -250.66359 
L 579.129852 -247.958082 
L 578.732442 -245.252573 
L 578.616386 -242.547065 
L 578.859459 -239.841557 
L 579.475847 -237.136048 
L 580.408588 -234.43054 
L 581.529237 -231.725031 
L 582.6494 -229.019523 
L 583.547208 -226.314014 
L 584.007533 -223.608506 
L 583.869454 -220.902998 
L 583.069628 -218.197489 
L 581.667688 -215.491981 
L 579.841609 -212.786472 
L 577.848497 -210.080964 
L 575.958086 -207.375455 
L 574.377937 -204.669947 
L 573.195172 -201.964439 
L 572.355848 -199.25893 
L 571.690557 -196.553422 
L 570.978413 -193.847913 
L 570.027664 -191.142405 
L 568.745184 -188.436896 
L 567.171287 -185.731388 
L 565.469095 -183.02588 
L 563.874304 -180.320371 
L 562.62505 -177.614863 
L 561.897221 -174.909354 
L 561.765984 -172.203846 
L 562.202248 -169.498337 
L 563.098956 -166.792829 
L 564.312652 -164.087321 
L 565.704168 -161.381812 
L 567.167616 -158.676304 
L 568.64516 -155.970795 
L 570.130943 -153.265287 
L 571.668349 -150.559778 
L 573.341372 -147.85427 
L 575.257344 -145.148761 
L 577.51847 -142.443253 
L 580.184427 -139.737745 
L 583.234975 -137.032236 
L 586.545847 -134.326728 
L 589.890134 -131.621219 
L 592.97098 -128.915711 
L 595.481751 -126.210202 
L 597.180249 -123.504694 
L 597.956939 -120.799186 
L 597.875886 -118.093677 
L 597.172277 -115.388169 
L 596.201229 -112.68266 
L 595.346241 -109.977152 
L 594.908442 -107.271643 
L 595.006235 -104.566135 
L 595.516579 -101.860627 
L 596.082222 -99.155118 
L 596.192741 -96.44961 
L 595.323564 -93.744101 
L 593.093293 -91.038593 
L 589.387029 -88.333084 
L 584.401071 -85.627576 
L 578.592487 -82.922068 
L 572.553826 -80.216559 
L 566.860986 -77.511051 
L 561.947577 -74.805542 
L 558.041389 -72.100034 
L 555.169135 -69.394525 
L 553.210118 -66.689017 
z
" style="stroke: #202020; stroke-width: 1.5"/>
    </defs>
    <g clip-path="url(#p264a13fec1)">
     <use xlink:href="#m5f96b1e294" x="0" y="420.790812" style="fill: #1f4b44; stroke: #202020; stroke-width: 1.5"/>
    </g>
   </g>
   <g id="matplotlib.axis_1">
    <g id="xtick_1">
     <g id="line2d_1">
      <defs>
       <path id="md7b39147ec" d="M 0 0 
L 0 6 
" style="stroke: #000000; stroke-width: 1.25"/>
      </defs>
      <g>
       <use xlink:href="#md7b39147ec" x="215.65225" y="368.92725" style="stroke: #000000; stroke-width: 1.25"/>
      </g>
     </g>
     <g id="text_1">
      <!-- transDOWN -->
      <g transform="translate(170.494156 390.128844)scale(0.154 -0.154)">
       <defs>
        <path id="DejaVuSans-74" d="M 1172 4494 
L 1172 3500 
L 2356 3500 
L 2356 3053 
L 1172 3053 
L 1172 1153 
Q 1172 725 1289 603 
Q 1406 481 1766 481 
L 2356 481 
L 2356 0 
L 1766 0 
Q 1100 0 847 248 
Q 594 497 594 1153 
L 594 3053 
L 172 3053 
L 172 3500 
L 594 3500 
L 594 4494 
L 1172 4494 
z
" transform="scale(0.015625)"/>
        <path id="DejaVuSans-72" d="M 2631 2963 
Q 2534 3019 2420 3045 
Q 2306 3072 2169 3072 
Q 1681 3072 1420 2755 
Q 1159 2438 1159 1844 
L 1159 0 
L 581 0 
L 581 3500 
L 1159 3500 
L 1159 2956 
Q 1341 3275 1631 3429 
Q 1922 3584 2338 3584 
Q 2397 3584 2469 3576 
Q 2541 3569 2628 3553 
L 2631 2963 
z
" transform="scale(0.015625)"/>
        <path id="DejaVuSans-61" d="M 2194 1759 
Q 1497 1759 1228 1600 
Q 959 1441 959 1056 
Q 959 750 1161 570 
Q 1363 391 1709 391 
Q 2188 391 2477 730 
Q 2766 1069 2766 1631 
L 2766 1759 
L 2194 1759 
z
M 3341 1997 
L 3341 0 
L 2766 0 
L 2766 531 
Q 2569 213 2275 61 
Q 1981 -91 1556 -91 
Q 1019 -91 701 211 
Q 384 513 384 1019 
Q 384 1609 779 1909 
Q 1175 2209 1959 2209 
L 2766 2209 
L 2766 2266 
Q 2766 2663 2505 2880 
Q 2244 3097 1772 3097 
Q 1472 3097 1187 3025 
Q 903 2953 641 2809 
L 641 3341 
Q 956 3463 1253 3523 
Q 1550 3584 1831 3584 
Q 2591 3584 2966 3190 
Q 3341 2797 3341 1997 
z
" transform="scale(0.015625)"/>
        <path id="DejaVuSans-6e" d="M 3513 2113 
L 3513 0 
L 2938 0 
L 2938 2094 
Q 2938 2591 2744 2837 
Q 2550 3084 2163 3084 
Q 1697 3084 1428 2787 
Q 1159 2491 1159 1978 
L 1159 0 
L 581 0 
L 581 3500 
L 1159 3500 
L 1159 2956 
Q 1366 3272 1645 3428 
Q 1925 3584 2291 3584 
Q 2894 3584 3203 3211 
Q 3513 2838 3513 2113 
z
" transform="scale(0.015625)"/>
        <path id="DejaVuSans-73" d="M 2834 3397 
L 2834 2853 
Q 2591 2978 2328 3040 
Q 2066 3103 1784 3103 
Q 1356 3103 1142 2972 
Q 928 2841 928 2578 
Q 928 2378 1081 2264 
Q 1234 2150 1697 2047 
L 1894 2003 
Q 2506 1872 2764 1633 
Q 3022 1394 3022 966 
Q 3022 478 2636 193 
Q 2250 -91 1575 -91 
Q 1294 -91 989 -36 
Q 684 19 347 128 
L 347 722 
Q 666 556 975 473 
Q 1284 391 1588 391 
Q 1994 391 2212 530 
Q 2431 669 2431 922 
Q 2431 1156 2273 1281 
Q 2116 1406 1581 1522 
L 1381 1569 
Q 847 1681 609 1914 
Q 372 2147 372 2553 
Q 372 3047 722 3315 
Q 1072 3584 1716 3584 
Q 2034 3584 2315 3537 
Q 2597 3491 2834 3397 
z
" transform="scale(0.015625)"/>
        <path id="DejaVuSans-44" d="M 1259 4147 
L 1259 519 
L 2022 519 
Q 2988 519 3436 956 
Q 3884 1394 3884 2338 
Q 3884 3275 3436 3711 
Q 2988 4147 2022 4147 
L 1259 4147 
z
M 628 4666 
L 1925 4666 
Q 3281 4666 3915 4102 
Q 4550 3538 4550 2338 
Q 4550 1131 3912 565 
Q 3275 0 1925 0 
L 628 0 
L 628 4666 
z
" transform="scale(0.015625)"/>
        <path id="DejaVuSans-4f" d="M 2522 4238 
Q 1834 4238 1429 3725 
Q 1025 3213 1025 2328 
Q 1025 1447 1429 934 
Q 1834 422 2522 422 
Q 3209 422 3611 934 
Q 4013 1447 4013 2328 
Q 4013 3213 3611 3725 
Q 3209 4238 2522 4238 
z
M 2522 4750 
Q 3503 4750 4090 4092 
Q 4678 3434 4678 2328 
Q 4678 1225 4090 567 
Q 3503 -91 2522 -91 
Q 1538 -91 948 565 
Q 359 1222 359 2328 
Q 359 3434 948 4092 
Q 1538 4750 2522 4750 
z
" transform="scale(0.015625)"/>
        <path id="DejaVuSans-57" d="M 213 4666 
L 850 4666 
L 1831 722 
L 2809 4666 
L 3519 4666 
L 4500 722 
L 5478 4666 
L 6119 4666 
L 4947 0 
L 4153 0 
L 3169 4050 
L 2175 0 
L 1381 0 
L 213 4666 
z
" transform="scale(0.015625)"/>
        <path id="DejaVuSans-4e" d="M 628 4666 
L 1478 4666 
L 3547 763 
L 3547 4666 
L 4159 4666 
L 4159 0 
L 3309 0 
L 1241 3903 
L 1241 0 
L 628 0 
L 628 4666 
z
" transform="scale(0.015625)"/>
       </defs>
       <use xlink:href="#DejaVuSans-74"/>
       <use xlink:href="#DejaVuSans-72" x="39.208984"/>
       <use xlink:href="#DejaVuSans-61" x="80.322266"/>
       <use xlink:href="#DejaVuSans-6e" x="141.601562"/>
       <use xlink:href="#DejaVuSans-73" x="204.980469"/>
       <use xlink:href="#DejaVuSans-44" x="257.080078"/>
       <use xlink:href="#DejaVuSans-4f" x="334.082031"/>
       <use xlink:href="#DejaVuSans-57" x="412.792969"/>
       <use xlink:href="#DejaVuSans-4e" x="511.669922"/>
      </g>
     </g>
    </g>
    <g id="xtick_2">
     <g id="line2d_2">
      <g>
       <use xlink:href="#md7b39147ec" x="494.65225" y="368.92725" style="stroke: #000000; stroke-width: 1.25"/>
      </g>
     </g>
     <g id="text_2">
      <!-- transUP -->
      <g transform="translate(464.580141 390.128844)scale(0.154 -0.154)">
       <defs>
        <path id="DejaVuSans-55" d="M 556 4666 
L 1191 4666 
L 1191 1831 
Q 1191 1081 1462 751 
Q 1734 422 2344 422 
Q 2950 422 3222 751 
Q 3494 1081 3494 1831 
L 3494 4666 
L 4128 4666 
L 4128 1753 
Q 4128 841 3676 375 
Q 3225 -91 2344 -91 
Q 1459 -91 1007 375 
Q 556 841 556 1753 
L 556 4666 
z
" transform="scale(0.015625)"/>
        <path id="DejaVuSans-50" d="M 1259 4147 
L 1259 2394 
L 2053 2394 
Q 2494 2394 2734 2622 
Q 2975 2850 2975 3272 
Q 2975 3691 2734 3919 
Q 2494 4147 2053 4147 
L 1259 4147 
z
M 628 4666 
L 2053 4666 
Q 2838 4666 3239 4311 
Q 3641 3956 3641 3272 
Q 3641 2581 3239 2228 
Q 2838 1875 2053 1875 
L 1259 1875 
L 1259 0 
L 628 0 
L 628 4666 
z
" transform="scale(0.015625)"/>
       </defs>
       <use xlink:href="#DejaVuSans-74"/>
       <use xlink:href="#DejaVuSans-72" x="39.208984"/>
       <use xlink:href="#DejaVuSans-61" x="80.322266"/>
       <use xlink:href="#DejaVuSans-6e" x="141.601562"/>
       <use xlink:href="#DejaVuSans-73" x="204.980469"/>
       <use xlink:href="#DejaVuSans-55" x="257.080078"/>
       <use xlink:href="#DejaVuSans-50" x="330.273438"/>
      </g>
     </g>
    </g>
    <g id="text_3">
     <!-- bin pair type -->
     <g transform="translate(301.789938 410.096937)scale(0.168 -0.168)">
      <defs>
       <path id="DejaVuSans-62" d="M 3116 1747 
Q 3116 2381 2855 2742 
Q 2594 3103 2138 3103 
Q 1681 3103 1420 2742 
Q 1159 2381 1159 1747 
Q 1159 1113 1420 752 
Q 1681 391 2138 391 
Q 2594 391 2855 752 
Q 3116 1113 3116 1747 
z
M 1159 2969 
Q 1341 3281 1617 3432 
Q 1894 3584 2278 3584 
Q 2916 3584 3314 3078 
Q 3713 2572 3713 1747 
Q 3713 922 3314 415 
Q 2916 -91 2278 -91 
Q 1894 -91 1617 61 
Q 1341 213 1159 525 
L 1159 0 
L 581 0 
L 581 4863 
L 1159 4863 
L 1159 2969 
z
" transform="scale(0.015625)"/>
       <path id="DejaVuSans-69" d="M 603 3500 
L 1178 3500 
L 1178 0 
L 603 0 
L 603 3500 
z
M 603 4863 
L 1178 4863 
L 1178 4134 
L 603 4134 
L 603 4863 
z
" transform="scale(0.015625)"/>
       <path id="DejaVuSans-20" transform="scale(0.015625)"/>
       <path id="DejaVuSans-70" d="M 1159 525 
L 1159 -1331 
L 581 -1331 
L 581 3500 
L 1159 3500 
L 1159 2969 
Q 1341 3281 1617 3432 
Q 1894 3584 2278 3584 
Q 2916 3584 3314 3078 
Q 3713 2572 3713 1747 
Q 3713 922 3314 415 
Q 2916 -91 2278 -91 
Q 1894 -91 1617 61 
Q 1341 213 1159 525 
z
M 3116 1747 
Q 3116 2381 2855 2742 
Q 2594 3103 2138 3103 
Q 1681 3103 1420 2742 
Q 1159 2381 1159 1747 
Q 1159 1113 1420 752 
Q 1681 391 2138 391 
Q 2594 391 2855 752 
Q 3116 1113 3116 1747 
z
" transform="scale(0.015625)"/>
       <path id="DejaVuSans-79" d="M 2059 -325 
Q 1816 -950 1584 -1140 
Q 1353 -1331 966 -1331 
L 506 -1331 
L 506 -850 
L 844 -850 
Q 1081 -850 1212 -737 
Q 1344 -625 1503 -206 
L 1606 56 
L 191 3500 
L 800 3500 
L 1894 763 
L 2988 3500 
L 3597 3500 
L 2059 -325 
z
" transform="scale(0.015625)"/>
       <path id="DejaVuSans-65" d="M 3597 1894 
L 3597 1613 
L 953 1613 
Q 991 1019 1311 708 
Q 1631 397 2203 397 
Q 2534 397 2845 478 
Q 3156 559 3463 722 
L 3463 178 
Q 3153 47 2828 -22 
Q 2503 -91 2169 -91 
Q 1331 -91 842 396 
Q 353 884 353 1716 
Q 353 2575 817 3079 
Q 1281 3584 2069 3584 
Q 2775 3584 3186 3129 
Q 3597 2675 3597 1894 
z
M 3022 2063 
Q 3016 2534 2758 2815 
Q 2500 3097 2075 3097 
Q 1594 3097 1305 2825 
Q 1016 2553 972 2059 
L 3022 2063 
z
" transform="scale(0.015625)"/>
      </defs>
      <use xlink:href="#DejaVuSans-62"/>
      <use xlink:href="#DejaVuSans-69" x="63.476562"/>
      <use xlink:href="#DejaVuSans-6e" x="91.259766"/>
      <use xlink:href="#DejaVuSans-20" x="154.638672"/>
      <use xlink:href="#DejaVuSans-70" x="186.425781"/>
      <use xlink:href="#DejaVuSans-61" x="249.902344"/>
      <use xlink:href="#DejaVuSans-69" x="311.181641"/>
      <use xlink:href="#DejaVuSans-72" x="338.964844"/>
      <use xlink:href="#DejaVuSans-20" x="380.078125"/>
      <use xlink:href="#DejaVuSans-74" x="411.865234"/>
      <use xlink:href="#DejaVuSans-79" x="451.074219"/>
      <use xlink:href="#DejaVuSans-70" x="510.253906"/>
      <use xlink:href="#DejaVuSans-65" x="573.730469"/>
     </g>
    </g>
   </g>
   <g id="matplotlib.axis_2">
    <g id="ytick_1">
     <g id="line2d_3">
      <defs>
       <path id="m10302e0982" d="M 0 0 
L -6 0 
" style="stroke: #000000; stroke-width: 1.25"/>
      </defs>
      <g>
       <use xlink:href="#m10302e0982" x="76.15225" y="332.989311" style="stroke: #000000; stroke-width: 1.25"/>
      </g>
     </g>
     <g id="text_4">
      <!-- 0 -->
      <g transform="translate(56.854 338.840108)scale(0.154 -0.154)">
       <defs>
        <path id="DejaVuSans-30" d="M 2034 4250 
Q 1547 4250 1301 3770 
Q 1056 3291 1056 2328 
Q 1056 1369 1301 889 
Q 1547 409 2034 409 
Q 2525 409 2770 889 
Q 3016 1369 3016 2328 
Q 3016 3291 2770 3770 
Q 2525 4250 2034 4250 
z
M 2034 4750 
Q 2819 4750 3233 4129 
Q 3647 3509 3647 2328 
Q 3647 1150 3233 529 
Q 2819 -91 2034 -91 
Q 1250 -91 836 529 
Q 422 1150 422 2328 
Q 422 3509 836 4129 
Q 1250 4750 2034 4750 
z
" transform="scale(0.015625)"/>
       </defs>
       <use xlink:href="#DejaVuSans-30"/>
      </g>
     </g>
    </g>
    <g id="ytick_2">
     <g id="line2d_4">
      <g>
       <use xlink:href="#m10302e0982" x="76.15225" y="282.129215" style="stroke: #000000; stroke-width: 1.25"/>
      </g>
     </g>
     <g id="text_5">
      <!-- 200 -->
      <g transform="translate(37.2575 287.980011)scale(0.154 -0.154)">
       <defs>
        <path id="DejaVuSans-32" d="M 1228 531 
L 3431 531 
L 3431 0 
L 469 0 
L 469 531 
Q 828 903 1448 1529 
Q 2069 2156 2228 2338 
Q 2531 2678 2651 2914 
Q 2772 3150 2772 3378 
Q 2772 3750 2511 3984 
Q 2250 4219 1831 4219 
Q 1534 4219 1204 4116 
Q 875 4013 500 3803 
L 500 4441 
Q 881 4594 1212 4672 
Q 1544 4750 1819 4750 
Q 2544 4750 2975 4387 
Q 3406 4025 3406 3419 
Q 3406 3131 3298 2873 
Q 3191 2616 2906 2266 
Q 2828 2175 2409 1742 
Q 1991 1309 1228 531 
z
" transform="scale(0.015625)"/>
       </defs>
       <use xlink:href="#DejaVuSans-32"/>
       <use xlink:href="#DejaVuSans-30" x="63.623047"/>
       <use xlink:href="#DejaVuSans-30" x="127.246094"/>
      </g>
     </g>
    </g>
    <g id="ytick_3">
     <g id="line2d_5">
      <g>
       <use xlink:href="#m10302e0982" x="76.15225" y="231.269119" style="stroke: #000000; stroke-width: 1.25"/>
      </g>
     </g>
     <g id="text_6">
      <!-- 400 -->
      <g transform="translate(37.2575 237.119915)scale(0.154 -0.154)">
       <defs>
        <path id="DejaVuSans-34" d="M 2419 4116 
L 825 1625 
L 2419 1625 
L 2419 4116 
z
M 2253 4666 
L 3047 4666 
L 3047 1625 
L 3713 1625 
L 3713 1100 
L 3047 1100 
L 3047 0 
L 2419 0 
L 2419 1100 
L 313 1100 
L 313 1709 
L 2253 4666 
z
" transform="scale(0.015625)"/>
       </defs>
       <use xlink:href="#DejaVuSans-34"/>
       <use xlink:href="#DejaVuSans-30" x="63.623047"/>
       <use xlink:href="#DejaVuSans-30" x="127.246094"/>
      </g>
     </g>
    </g>
    <g id="ytick_4">
     <g id="line2d_6">
      <g>
       <use xlink:href="#m10302e0982" x="76.15225" y="180.409022" style="stroke: #000000; stroke-width: 1.25"/>
      </g>
     </g>
     <g id="text_7">
      <!-- 600 -->
      <g transform="translate(37.2575 186.259819)scale(0.154 -0.154)">
       <defs>
        <path id="DejaVuSans-36" d="M 2113 2584 
Q 1688 2584 1439 2293 
Q 1191 2003 1191 1497 
Q 1191 994 1439 701 
Q 1688 409 2113 409 
Q 2538 409 2786 701 
Q 3034 994 3034 1497 
Q 3034 2003 2786 2293 
Q 2538 2584 2113 2584 
z
M 3366 4563 
L 3366 3988 
Q 3128 4100 2886 4159 
Q 2644 4219 2406 4219 
Q 1781 4219 1451 3797 
Q 1122 3375 1075 2522 
Q 1259 2794 1537 2939 
Q 1816 3084 2150 3084 
Q 2853 3084 3261 2657 
Q 3669 2231 3669 1497 
Q 3669 778 3244 343 
Q 2819 -91 2113 -91 
Q 1303 -91 875 529 
Q 447 1150 447 2328 
Q 447 3434 972 4092 
Q 1497 4750 2381 4750 
Q 2619 4750 2861 4703 
Q 3103 4656 3366 4563 
z
" transform="scale(0.015625)"/>
       </defs>
       <use xlink:href="#DejaVuSans-36"/>
       <use xlink:href="#DejaVuSans-30" x="63.623047"/>
       <use xlink:href="#DejaVuSans-30" x="127.246094"/>
      </g>
     </g>
    </g>
    <g id="ytick_5">
     <g id="line2d_7">
      <g>
       <use xlink:href="#m10302e0982" x="76.15225" y="129.548926" style="stroke: #000000; stroke-width: 1.25"/>
      </g>
     </g>
     <g id="text_8">
      <!-- 800 -->
      <g transform="translate(37.2575 135.399723)scale(0.154 -0.154)">
       <defs>
        <path id="DejaVuSans-38" d="M 2034 2216 
Q 1584 2216 1326 1975 
Q 1069 1734 1069 1313 
Q 1069 891 1326 650 
Q 1584 409 2034 409 
Q 2484 409 2743 651 
Q 3003 894 3003 1313 
Q 3003 1734 2745 1975 
Q 2488 2216 2034 2216 
z
M 1403 2484 
Q 997 2584 770 2862 
Q 544 3141 544 3541 
Q 544 4100 942 4425 
Q 1341 4750 2034 4750 
Q 2731 4750 3128 4425 
Q 3525 4100 3525 3541 
Q 3525 3141 3298 2862 
Q 3072 2584 2669 2484 
Q 3125 2378 3379 2068 
Q 3634 1759 3634 1313 
Q 3634 634 3220 271 
Q 2806 -91 2034 -91 
Q 1263 -91 848 271 
Q 434 634 434 1313 
Q 434 1759 690 2068 
Q 947 2378 1403 2484 
z
M 1172 3481 
Q 1172 3119 1398 2916 
Q 1625 2713 2034 2713 
Q 2441 2713 2670 2916 
Q 2900 3119 2900 3481 
Q 2900 3844 2670 4047 
Q 2441 4250 2034 4250 
Q 1625 4250 1398 4047 
Q 1172 3844 1172 3481 
z
" transform="scale(0.015625)"/>
       </defs>
       <use xlink:href="#DejaVuSans-38"/>
       <use xlink:href="#DejaVuSans-30" x="63.623047"/>
       <use xlink:href="#DejaVuSans-30" x="127.246094"/>
      </g>
     </g>
    </g>
    <g id="ytick_6">
     <g id="line2d_8">
      <g>
       <use xlink:href="#m10302e0982" x="76.15225" y="78.68883" style="stroke: #000000; stroke-width: 1.25"/>
      </g>
     </g>
     <g id="text_9">
      <!-- 1000 -->
      <g transform="translate(27.45925 84.539627)scale(0.154 -0.154)">
       <defs>
        <path id="DejaVuSans-31" d="M 794 531 
L 1825 531 
L 1825 4091 
L 703 3866 
L 703 4441 
L 1819 4666 
L 2450 4666 
L 2450 531 
L 3481 531 
L 3481 0 
L 794 0 
L 794 531 
z
" transform="scale(0.015625)"/>
       </defs>
       <use xlink:href="#DejaVuSans-31"/>
       <use xlink:href="#DejaVuSans-30" x="63.623047"/>
       <use xlink:href="#DejaVuSans-30" x="127.246094"/>
       <use xlink:href="#DejaVuSans-30" x="190.869141"/>
      </g>
     </g>
    </g>
    <g id="text_10">
     <!-- position std -->
     <g transform="translate(19.965375 254.790375)rotate(-90)scale(0.168 -0.168)">
      <defs>
       <path id="DejaVuSans-6f" d="M 1959 3097 
Q 1497 3097 1228 2736 
Q 959 2375 959 1747 
Q 959 1119 1226 758 
Q 1494 397 1959 397 
Q 2419 397 2687 759 
Q 2956 1122 2956 1747 
Q 2956 2369 2687 2733 
Q 2419 3097 1959 3097 
z
M 1959 3584 
Q 2709 3584 3137 3096 
Q 3566 2609 3566 1747 
Q 3566 888 3137 398 
Q 2709 -91 1959 -91 
Q 1206 -91 779 398 
Q 353 888 353 1747 
Q 353 2609 779 3096 
Q 1206 3584 1959 3584 
z
" transform="scale(0.015625)"/>
       <path id="DejaVuSans-64" d="M 2906 2969 
L 2906 4863 
L 3481 4863 
L 3481 0 
L 2906 0 
L 2906 525 
Q 2725 213 2448 61 
Q 2172 -91 1784 -91 
Q 1150 -91 751 415 
Q 353 922 353 1747 
Q 353 2572 751 3078 
Q 1150 3584 1784 3584 
Q 2172 3584 2448 3432 
Q 2725 3281 2906 2969 
z
M 947 1747 
Q 947 1113 1208 752 
Q 1469 391 1925 391 
Q 2381 391 2643 752 
Q 2906 1113 2906 1747 
Q 2906 2381 2643 2742 
Q 2381 3103 1925 3103 
Q 1469 3103 1208 2742 
Q 947 2381 947 1747 
z
" transform="scale(0.015625)"/>
      </defs>
      <use xlink:href="#DejaVuSans-70"/>
      <use xlink:href="#DejaVuSans-6f" x="63.476562"/>
      <use xlink:href="#DejaVuSans-73" x="124.658203"/>
      <use xlink:href="#DejaVuSans-69" x="176.757812"/>
      <use xlink:href="#DejaVuSans-74" x="204.541016"/>
      <use xlink:href="#DejaVuSans-69" x="243.75"/>
      <use xlink:href="#DejaVuSans-6f" x="271.533203"/>
      <use xlink:href="#DejaVuSans-6e" x="332.714844"/>
      <use xlink:href="#DejaVuSans-20" x="396.09375"/>
      <use xlink:href="#DejaVuSans-73" x="427.880859"/>
      <use xlink:href="#DejaVuSans-74" x="479.980469"/>
      <use xlink:href="#DejaVuSans-64" x="519.189453"/>
     </g>
    </g>
   </g>
   <g id="line2d_9">
    <path d="M 159.85225 332.989311 
L 159.85225 68.340038 
" clip-path="url(#p264a13fec1)" style="fill: none; stroke: #202020; stroke-width: 1.5; stroke-linecap: square"/>
   </g>
   <g id="line2d_10">
    <path d="M 159.85225 304.180083 
L 159.85225 171.868769 
" clip-path="url(#p264a13fec1)" style="fill: none; stroke: #202020; stroke-width: 4.5; stroke-linecap: square"/>
   </g>
   <g id="line2d_11">
    <path d="M 271.45225 284.197469 
L 271.45225 87.974639 
" clip-path="url(#p264a13fec1)" style="fill: none; stroke: #202020; stroke-width: 1.5; stroke-linecap: square"/>
   </g>
   <g id="line2d_12">
    <path d="M 271.45225 206.268099 
L 271.45225 154.295547 
" clip-path="url(#p264a13fec1)" style="fill: none; stroke: #202020; stroke-width: 4.5; stroke-linecap: square"/>
   </g>
   <g id="line2d_13">
    <path d="M 438.85225 332.407769 
L 438.85225 107.368946 
" clip-path="url(#p264a13fec1)" style="fill: none; stroke: #202020; stroke-width: 1.5; stroke-linecap: square"/>
   </g>
   <g id="line2d_14">
    <path d="M 438.85225 277.18356 
L 438.85225 174.040554 
" clip-path="url(#p264a13fec1)" style="fill: none; stroke: #202020; stroke-width: 4.5; stroke-linecap: square"/>
   </g>
   <g id="line2d_15">
    <path d="M 550.45225 332.989311 
L 550.45225 107.368946 
" clip-path="url(#p264a13fec1)" style="fill: none; stroke: #202020; stroke-width: 1.5; stroke-linecap: square"/>
   </g>
   <g id="line2d_16">
    <path d="M 550.45225 302.472092 
L 550.45225 184.383898 
" clip-path="url(#p264a13fec1)" style="fill: none; stroke: #202020; stroke-width: 4.5; stroke-linecap: square"/>
   </g>
   <g id="line2d_17">
    <path d="M 438.85225 32.98245 
L 438.85225 26.45925 
L 550.45225 26.45925 
L 550.45225 32.98245 
" style="fill: none; stroke: #333333; stroke-width: 1.5; stroke-linecap: square"/>
   </g>
   <g id="line2d_18">
    <path d="M 159.85225 32.98245 
L 159.85225 26.45925 
L 271.45225 26.45925 
L 271.45225 32.98245 
" style="fill: none; stroke: #333333; stroke-width: 1.5; stroke-linecap: square"/>
   </g>
   <g id="patch_5">
    <path d="M 76.15225 368.92725 
L 76.15225 42.76725 
" style="fill: none; stroke: #000000; stroke-width: 1.25; stroke-linejoin: miter; stroke-linecap: square"/>
   </g>
   <g id="patch_6">
    <path d="M 76.15225 368.92725 
L 634.15225 368.92725 
" style="fill: none; stroke: #000000; stroke-width: 1.25; stroke-linejoin: miter; stroke-linecap: square"/>
   </g>
   <g id="PathCollection_1">
    <defs>
     <path id="m8f6dfab13c" d="M 0 1.5 
C 0.397805 1.5 0.77937 1.341951 1.06066 1.06066 
C 1.341951 0.77937 1.5 0.397805 1.5 0 
C 1.5 -0.397805 1.341951 -0.77937 1.06066 -1.06066 
C 0.77937 -1.341951 0.397805 -1.5 0 -1.5 
C -0.397805 -1.5 -0.77937 -1.341951 -1.06066 -1.06066 
C -1.341951 -0.77937 -1.5 -0.397805 -1.5 0 
C -1.5 0.397805 -1.341951 0.77937 -1.06066 1.06066 
C -0.77937 1.341951 -0.397805 1.5 0 1.5 
z
" style="stroke: #202020"/>
    </defs>
    <g clip-path="url(#p264a13fec1)">
     <use xlink:href="#m8f6dfab13c" x="159.85225" y="252.995598" style="fill: #ffffff; stroke: #202020"/>
    </g>
   </g>
   <g id="PathCollection_2">
    <g clip-path="url(#p264a13fec1)">
     <use xlink:href="#m8f6dfab13c" x="271.45225" y="174.040554" style="fill: #ffffff; stroke: #202020"/>
    </g>
   </g>
   <g id="PathCollection_3">
    <g clip-path="url(#p264a13fec1)">
     <use xlink:href="#m8f6dfab13c" x="438.85225" y="204.103442" style="fill: #ffffff; stroke: #202020"/>
    </g>
   </g>
   <g id="PathCollection_4">
    <g clip-path="url(#p264a13fec1)">
     <use xlink:href="#m8f6dfab13c" x="550.45225" y="256.524435" style="fill: #ffffff; stroke: #202020"/>
    </g>
   </g>
   <g id="text_11">
    <!-- p ≤ 1e-5 -->
    <g transform="translate(458.053187 19.965375)scale(0.168 -0.168)">
     <defs>
      <path id="DejaVuSans-2264" d="M 4684 3175 
L 1684 2309 
L 4684 1453 
L 4684 897 
L 678 2047 
L 678 2578 
L 4684 3725 
L 4684 3175 
z
M 678 531 
L 4684 531 
L 4684 0 
L 678 0 
L 678 531 
z
" transform="scale(0.015625)"/>
      <path id="DejaVuSans-2d" d="M 313 2009 
L 1997 2009 
L 1997 1497 
L 313 1497 
L 313 2009 
z
" transform="scale(0.015625)"/>
      <path id="DejaVuSans-35" d="M 691 4666 
L 3169 4666 
L 3169 4134 
L 1269 4134 
L 1269 2991 
Q 1406 3038 1543 3061 
Q 1681 3084 1819 3084 
Q 2600 3084 3056 2656 
Q 3513 2228 3513 1497 
Q 3513 744 3044 326 
Q 2575 -91 1722 -91 
Q 1428 -91 1123 -41 
Q 819 9 494 109 
L 494 744 
Q 775 591 1075 516 
Q 1375 441 1709 441 
Q 2250 441 2565 725 
Q 2881 1009 2881 1497 
Q 2881 1984 2565 2268 
Q 2250 2553 1709 2553 
Q 1456 2553 1204 2497 
Q 953 2441 691 2322 
L 691 4666 
z
" transform="scale(0.015625)"/>
     </defs>
     <use xlink:href="#DejaVuSans-70"/>
     <use xlink:href="#DejaVuSans-20" x="63.476562"/>
     <use xlink:href="#DejaVuSans-2264" x="95.263672"/>
     <use xlink:href="#DejaVuSans-20" x="179.052734"/>
     <use xlink:href="#DejaVuSans-31" x="210.839844"/>
     <use xlink:href="#DejaVuSans-65" x="274.462891"/>
     <use xlink:href="#DejaVuSans-2d" x="335.986328"/>
     <use xlink:href="#DejaVuSans-35" x="372.070312"/>
    </g>
   </g>
   <g id="text_12">
    <!-- p ≤ 1e-5 -->
    <g transform="translate(179.053188 19.965375)scale(0.168 -0.168)">
     <use xlink:href="#DejaVuSans-70"/>
     <use xlink:href="#DejaVuSans-20" x="63.476562"/>
     <use xlink:href="#DejaVuSans-2264" x="95.263672"/>
     <use xlink:href="#DejaVuSans-20" x="179.052734"/>
     <use xlink:href="#DejaVuSans-31" x="210.839844"/>
     <use xlink:href="#DejaVuSans-65" x="274.462891"/>
     <use xlink:href="#DejaVuSans-2d" x="335.986328"/>
     <use xlink:href="#DejaVuSans-35" x="372.070312"/>
    </g>
   </g>
   <g id="text_13">
    <!-- 315 -->
    <g style="fill: #ffffff" transform="translate(159.85225 252.995598)scale(0.168 -0.168)">
     <defs>
      <path id="DejaVuSans-Bold-33" d="M 2981 2516 
Q 3453 2394 3698 2092 
Q 3944 1791 3944 1325 
Q 3944 631 3412 270 
Q 2881 -91 1863 -91 
Q 1503 -91 1142 -33 
Q 781 25 428 141 
L 428 1069 
Q 766 900 1098 814 
Q 1431 728 1753 728 
Q 2231 728 2486 893 
Q 2741 1059 2741 1369 
Q 2741 1688 2480 1852 
Q 2219 2016 1709 2016 
L 1228 2016 
L 1228 2791 
L 1734 2791 
Q 2188 2791 2409 2933 
Q 2631 3075 2631 3366 
Q 2631 3634 2415 3781 
Q 2200 3928 1806 3928 
Q 1516 3928 1219 3862 
Q 922 3797 628 3669 
L 628 4550 
Q 984 4650 1334 4700 
Q 1684 4750 2022 4750 
Q 2931 4750 3382 4451 
Q 3834 4153 3834 3553 
Q 3834 3144 3618 2883 
Q 3403 2622 2981 2516 
z
" transform="scale(0.015625)"/>
      <path id="DejaVuSans-Bold-31" d="M 750 831 
L 1813 831 
L 1813 3847 
L 722 3622 
L 722 4441 
L 1806 4666 
L 2950 4666 
L 2950 831 
L 4013 831 
L 4013 0 
L 750 0 
L 750 831 
z
" transform="scale(0.015625)"/>
      <path id="DejaVuSans-Bold-35" d="M 678 4666 
L 3669 4666 
L 3669 3781 
L 1638 3781 
L 1638 3059 
Q 1775 3097 1914 3117 
Q 2053 3138 2203 3138 
Q 3056 3138 3531 2711 
Q 4006 2284 4006 1522 
Q 4006 766 3489 337 
Q 2972 -91 2053 -91 
Q 1656 -91 1267 -14 
Q 878 63 494 219 
L 494 1166 
Q 875 947 1217 837 
Q 1559 728 1863 728 
Q 2300 728 2551 942 
Q 2803 1156 2803 1522 
Q 2803 1891 2551 2103 
Q 2300 2316 1863 2316 
Q 1603 2316 1309 2248 
Q 1016 2181 678 2041 
L 678 4666 
z
" transform="scale(0.015625)"/>
     </defs>
     <use xlink:href="#DejaVuSans-Bold-33"/>
     <use xlink:href="#DejaVuSans-Bold-31" x="69.580078"/>
     <use xlink:href="#DejaVuSans-Bold-35" x="139.160156"/>
    </g>
   </g>
   <g id="text_14">
    <!-- 625 -->
    <g style="fill: #ffffff" transform="translate(271.45225 174.040554)scale(0.168 -0.168)">
     <defs>
      <path id="DejaVuSans-Bold-36" d="M 2316 2303 
Q 2000 2303 1842 2098 
Q 1684 1894 1684 1484 
Q 1684 1075 1842 870 
Q 2000 666 2316 666 
Q 2634 666 2792 870 
Q 2950 1075 2950 1484 
Q 2950 1894 2792 2098 
Q 2634 2303 2316 2303 
z
M 3803 4544 
L 3803 3681 
Q 3506 3822 3243 3889 
Q 2981 3956 2731 3956 
Q 2194 3956 1894 3657 
Q 1594 3359 1544 2772 
Q 1750 2925 1990 3001 
Q 2231 3078 2516 3078 
Q 3231 3078 3670 2659 
Q 4109 2241 4109 1563 
Q 4109 813 3618 361 
Q 3128 -91 2303 -91 
Q 1394 -91 895 523 
Q 397 1138 397 2266 
Q 397 3422 980 4083 
Q 1563 4744 2578 4744 
Q 2900 4744 3203 4694 
Q 3506 4644 3803 4544 
z
" transform="scale(0.015625)"/>
      <path id="DejaVuSans-Bold-32" d="M 1844 884 
L 3897 884 
L 3897 0 
L 506 0 
L 506 884 
L 2209 2388 
Q 2438 2594 2547 2791 
Q 2656 2988 2656 3200 
Q 2656 3528 2436 3728 
Q 2216 3928 1850 3928 
Q 1569 3928 1234 3808 
Q 900 3688 519 3450 
L 519 4475 
Q 925 4609 1322 4679 
Q 1719 4750 2100 4750 
Q 2938 4750 3402 4381 
Q 3866 4013 3866 3353 
Q 3866 2972 3669 2642 
Q 3472 2313 2841 1759 
L 1844 884 
z
" transform="scale(0.015625)"/>
     </defs>
     <use xlink:href="#DejaVuSans-Bold-36"/>
     <use xlink:href="#DejaVuSans-Bold-32" x="69.580078"/>
     <use xlink:href="#DejaVuSans-Bold-35" x="139.160156"/>
    </g>
   </g>
   <g id="text_15">
    <!-- 507 -->
    <g style="fill: #ffffff" transform="translate(438.85225 204.103442)scale(0.168 -0.168)">
     <defs>
      <path id="DejaVuSans-Bold-30" d="M 2944 2338 
Q 2944 3213 2780 3570 
Q 2616 3928 2228 3928 
Q 1841 3928 1675 3570 
Q 1509 3213 1509 2338 
Q 1509 1453 1675 1090 
Q 1841 728 2228 728 
Q 2613 728 2778 1090 
Q 2944 1453 2944 2338 
z
M 4147 2328 
Q 4147 1169 3647 539 
Q 3147 -91 2228 -91 
Q 1306 -91 806 539 
Q 306 1169 306 2328 
Q 306 3491 806 4120 
Q 1306 4750 2228 4750 
Q 3147 4750 3647 4120 
Q 4147 3491 4147 2328 
z
" transform="scale(0.015625)"/>
      <path id="DejaVuSans-Bold-37" d="M 428 4666 
L 3944 4666 
L 3944 3988 
L 2125 0 
L 953 0 
L 2675 3781 
L 428 3781 
L 428 4666 
z
" transform="scale(0.015625)"/>
     </defs>
     <use xlink:href="#DejaVuSans-Bold-35"/>
     <use xlink:href="#DejaVuSans-Bold-30" x="69.580078"/>
     <use xlink:href="#DejaVuSans-Bold-37" x="139.160156"/>
    </g>
   </g>
   <g id="text_16">
    <!-- 301 -->
    <g style="fill: #ffffff" transform="translate(550.45225 256.524435)scale(0.168 -0.168)">
     <use xlink:href="#DejaVuSans-Bold-33"/>
     <use xlink:href="#DejaVuSans-Bold-30" x="69.580078"/>
     <use xlink:href="#DejaVuSans-Bold-31" x="139.160156"/>
    </g>
   </g>
   <g id="legend_1">
    <g id="patch_7">
     <path d="M 665.13225 205.84725 
L 805.309 205.84725 
Q 808.389 205.84725 808.389 202.76725 
L 808.389 135.139375 
Q 808.389 132.059375 805.309 132.059375 
L 665.13225 132.059375 
Q 662.05225 132.059375 662.05225 135.139375 
L 662.05225 202.76725 
Q 662.05225 205.84725 665.13225 205.84725 
z
" style="fill: #ffffff; opacity: 0.8; stroke: #cccccc; stroke-linejoin: miter"/>
    </g>
    <g id="text_17">
     <!-- Interaction type -->
     <g transform="translate(668.21225 150.98475)scale(0.168 -0.168)">
      <defs>
       <path id="DejaVuSans-49" d="M 628 4666 
L 1259 4666 
L 1259 0 
L 628 0 
L 628 4666 
z
" transform="scale(0.015625)"/>
       <path id="DejaVuSans-63" d="M 3122 3366 
L 3122 2828 
Q 2878 2963 2633 3030 
Q 2388 3097 2138 3097 
Q 1578 3097 1268 2742 
Q 959 2388 959 1747 
Q 959 1106 1268 751 
Q 1578 397 2138 397 
Q 2388 397 2633 464 
Q 2878 531 3122 666 
L 3122 134 
Q 2881 22 2623 -34 
Q 2366 -91 2075 -91 
Q 1284 -91 818 406 
Q 353 903 353 1747 
Q 353 2603 823 3093 
Q 1294 3584 2113 3584 
Q 2378 3584 2631 3529 
Q 2884 3475 3122 3366 
z
" transform="scale(0.015625)"/>
      </defs>
      <use xlink:href="#DejaVuSans-49"/>
      <use xlink:href="#DejaVuSans-6e" x="29.492188"/>
      <use xlink:href="#DejaVuSans-74" x="92.871094"/>
      <use xlink:href="#DejaVuSans-65" x="132.080078"/>
      <use xlink:href="#DejaVuSans-72" x="193.603516"/>
      <use xlink:href="#DejaVuSans-61" x="234.716797"/>
      <use xlink:href="#DejaVuSans-63" x="295.996094"/>
      <use xlink:href="#DejaVuSans-74" x="350.976562"/>
      <use xlink:href="#DejaVuSans-69" x="390.185547"/>
      <use xlink:href="#DejaVuSans-6f" x="417.96875"/>
      <use xlink:href="#DejaVuSans-6e" x="479.150391"/>
      <use xlink:href="#DejaVuSans-20" x="542.529297"/>
      <use xlink:href="#DejaVuSans-74" x="574.316406"/>
      <use xlink:href="#DejaVuSans-79" x="613.525391"/>
      <use xlink:href="#DejaVuSans-70" x="672.705078"/>
      <use xlink:href="#DejaVuSans-65" x="736.181641"/>
     </g>
    </g>
    <g id="patch_8">
     <path d="M 688.986937 173.880219 
L 719.786937 173.880219 
L 719.786937 163.100219 
L 688.986937 163.100219 
z
" style="fill: #888888; stroke: #202020; stroke-width: 0.75; stroke-linejoin: miter"/>
    </g>
    <g id="text_18">
     <!-- cish -->
     <g transform="translate(732.106937 173.880219)scale(0.154 -0.154)">
      <defs>
       <path id="DejaVuSans-68" d="M 3513 2113 
L 3513 0 
L 2938 0 
L 2938 2094 
Q 2938 2591 2744 2837 
Q 2550 3084 2163 3084 
Q 1697 3084 1428 2787 
Q 1159 2491 1159 1978 
L 1159 0 
L 581 0 
L 581 4863 
L 1159 4863 
L 1159 2956 
Q 1366 3272 1645 3428 
Q 1925 3584 2291 3584 
Q 2894 3584 3203 3211 
Q 3513 2838 3513 2113 
z
" transform="scale(0.015625)"/>
      </defs>
      <use xlink:href="#DejaVuSans-63"/>
      <use xlink:href="#DejaVuSans-69" x="54.980469"/>
      <use xlink:href="#DejaVuSans-73" x="82.763672"/>
      <use xlink:href="#DejaVuSans-68" x="134.863281"/>
     </g>
    </g>
    <g id="patch_9">
     <path d="M 688.986937 196.484531 
L 719.786937 196.484531 
L 719.786937 185.704531 
L 688.986937 185.704531 
z
" style="fill: #1f4b44; stroke: #202020; stroke-width: 0.75; stroke-linejoin: miter"/>
    </g>
    <g id="text_19">
     <!-- transh -->
     <g transform="translate(732.106937 196.484531)scale(0.154 -0.154)">
      <use xlink:href="#DejaVuSans-74"/>
      <use xlink:href="#DejaVuSans-72" x="39.208984"/>
      <use xlink:href="#DejaVuSans-61" x="80.322266"/>
      <use xlink:href="#DejaVuSans-6e" x="141.601562"/>
      <use xlink:href="#DejaVuSans-73" x="204.980469"/>
      <use xlink:href="#DejaVuSans-68" x="257.080078"/>
     </g>
    </g>
   </g>
  </g>
 </g>
 <defs>
  <clipPath id="p264a13fec1">
   <rect x="76.15225" y="42.76725" width="558" height="326.16"/>
  </clipPath>
 </defs>
</svg>
