<?xml version="1.0" encoding="utf-8" standalone="no"?>
<!DOCTYPE svg PUBLIC "-//W3C//DTD SVG 1.1//EN"
  "http://www.w3.org/Graphics/SVG/1.1/DTD/svg11.dtd">
<svg xmlns:xlink="http://www.w3.org/1999/xlink" width="593.144305pt" height="240.278913pt" viewBox="0 0 593.144305 240.278913" xmlns="http://www.w3.org/2000/svg" version="1.1">
 <metadata>
  <rdf:RDF xmlns:dc="http://purl.org/dc/elements/1.1/" xmlns:cc="http://creativecommons.org/ns#" xmlns:rdf="http://www.w3.org/1999/02/22-rdf-syntax-ns#">
   <cc:Work>
    <dc:type rdf:resource="http://purl.org/dc/dcmitype/StillImage"/>
    <dc:date>2024-05-27T14:27:11.785470</dc:date>
    <dc:format>image/svg+xml</dc:format>
    <dc:creator>
     <cc:Agent>
      <dc:title>Matplotlib v3.5.1, https://matplotlib.org/</dc:title>
     </cc:Agent>
    </dc:creator>
   </cc:Work>
  </rdf:RDF>
 </metadata>
 <defs>
  <style type="text/css">*{stroke-linejoin: round; stroke-linecap: butt}</style>
 </defs>
 <g id="figure_1">
  <g id="patch_1">
   <path d="M 0 240.278913 
L 593.144305 240.278913 
L 593.144305 0 
L 0 0 
L 0 240.278913 
z
" style="fill: none"/>
  </g>
  <g id="axes_1">
   <g id="patch_2">
    <path d="M 296.099474 168.630482 
C 287.210202 163.004989 279.886764 155.221181 274.812983 146.005863 
C 269.739203 136.790546 267.078071 126.439759 267.078071 115.92 
C 267.078071 105.400241 269.739203 95.049454 274.812983 85.834137 
C 279.886764 76.618819 287.210202 68.835011 296.099474 63.209518 
C 290.559457 55.519665 283.84158 48.751074 276.193608 43.153382 
C 268.545636 37.55569 260.06276 33.198569 251.057841 30.242715 
C 242.052922 27.286861 232.638041 25.769065 223.160432 25.745306 
C 213.682823 25.721547 204.260451 27.19212 195.240825 30.102788 
C 186.221199 33.013457 177.716585 37.327992 170.040644 42.887269 
C 162.364702 48.446546 155.612974 55.18137 150.034472 62.843351 
C 144.455969 70.505332 140.120127 78.999104 137.186857 88.011404 
C 134.253586 97.023705 132.759397 106.442361 132.759397 115.92 
C 132.759397 125.397639 134.253586 134.816295 137.186857 143.828596 
C 140.120127 152.840896 144.455969 161.334668 150.034472 168.996649 
C 155.612974 176.65863 162.364702 183.393454 170.040644 188.952731 
C 177.716585 194.512008 186.221199 198.826543 195.240825 201.737212 
C 204.260451 204.64788 213.682823 206.118453 223.160432 206.094694 
C 232.638041 206.070935 242.052922 204.553139 251.057841 201.597285 
C 260.06276 198.641431 268.545636 194.28431 276.193608 188.686618 
C 283.84158 183.088926 290.559457 176.320335 296.099474 168.630482 
" clip-path="url(#p362ff16fc8)" style="fill: #bcbddc; opacity: 0.5"/>
   </g>
   <g id="patch_3">
    <path d="M 296.099474 63.209518 
C 307.15693 78.557886 313.109353 97.003348 313.109353 115.92 
C 313.109353 134.836652 307.15693 153.282114 296.099474 168.630482 
C 305.532911 174.600343 316.39823 177.929749 327.556785 178.26979 
C 338.71534 178.609831 349.763227 175.948198 359.542668 170.563821 
C 369.322109 165.179445 377.479119 157.267221 383.158874 147.656323 
C 388.838628 138.045425 391.835538 127.083735 391.835538 115.92 
C 391.835538 104.756265 388.838628 93.794575 383.158874 84.183677 
C 377.479119 74.572779 369.322109 66.660555 359.542668 61.276179 
C 349.763227 55.891802 338.71534 53.230169 327.556785 53.57021 
C 316.39823 53.910251 305.532911 57.239657 296.099474 63.209518 
" clip-path="url(#p362ff16fc8)" style="fill: #756bb1; opacity: 0.5"/>
   </g>
   <g id="patch_4">
    <path d="M 296.099474 168.630482 
C 307.15693 153.282114 313.109353 134.836652 313.109353 115.92 
C 313.109353 97.003348 307.15693 78.557886 296.099474 63.209518 
C 287.210202 68.835011 279.886764 76.618819 274.812983 85.834137 
C 269.739203 95.049454 267.078071 105.400241 267.078071 115.92 
C 267.078071 126.439759 269.739203 136.790546 274.812983 146.005863 
C 279.886764 155.221181 287.210202 163.004989 296.099474 168.630482 
" clip-path="url(#p362ff16fc8)" style="fill: #d5cfff; opacity: 0.5"/>
   </g>
   <g id="patch_5">
    <path d="M 222.934375 206.094978 
C 246.849059 206.094978 269.787478 196.593573 286.697713 179.683338 
C 303.607948 162.773103 313.109353 139.834684 313.109353 115.92 
C 313.109353 92.005316 303.607948 69.066897 286.697713 52.156662 
C 269.787478 35.246427 246.849059 25.745022 222.934375 25.745022 
C 199.019691 25.745022 176.081272 35.246427 159.171037 52.156662 
C 142.260802 69.066897 132.759397 92.005316 132.759397 115.92 
C 132.759397 139.834684 142.260802 162.773103 159.171037 179.683338 
C 176.081272 196.593573 199.019691 206.094978 222.934375 206.094978 
L 222.934375 206.094978 
z
" clip-path="url(#p362ff16fc8)" style="fill: none; stroke: #000000; stroke-linejoin: miter"/>
   </g>
   <g id="patch_6">
    <path d="M 329.456805 178.298733 
C 345.999838 178.298733 361.867539 171.726117 373.56523 160.028425 
C 385.262921 148.330734 391.835538 132.463033 391.835538 115.92 
C 391.835538 99.376967 385.262921 83.509266 373.56523 71.811575 
C 361.867539 60.113883 345.999838 53.541267 329.456805 53.541267 
C 312.913771 53.541267 297.046071 60.113883 285.348379 71.811575 
C 273.650688 83.509266 267.078071 99.376967 267.078071 115.92 
C 267.078071 132.463033 273.650688 148.330734 285.348379 160.028425 
C 297.046071 171.726117 312.913771 178.298733 329.456805 178.298733 
L 329.456805 178.298733 
z
" clip-path="url(#p362ff16fc8)" style="fill: none; stroke: #000000; stroke-linejoin: miter"/>
   </g>
   <g id="text_1">
    <!-- 5,656 -->
    <g transform="translate(171.290609 121.43875)scale(0.2 -0.2)">
     <defs>
      <path id="DejaVuSans-35" d="M 691 4666 
L 3169 4666 
L 3169 4134 
L 1269 4134 
L 1269 2991 
Q 1406 3038 1543 3061 
Q 1681 3084 1819 3084 
Q 2600 3084 3056 2656 
Q 3513 2228 3513 1497 
Q 3513 744 3044 326 
Q 2575 -91 1722 -91 
Q 1428 -91 1123 -41 
Q 819 9 494 109 
L 494 744 
Q 775 591 1075 516 
Q 1375 441 1709 441 
Q 2250 441 2565 725 
Q 2881 1009 2881 1497 
Q 2881 1984 2565 2268 
Q 2250 2553 1709 2553 
Q 1456 2553 1204 2497 
Q 953 2441 691 2322 
L 691 4666 
z
" transform="scale(0.015625)"/>
      <path id="DejaVuSans-2c" d="M 750 794 
L 1409 794 
L 1409 256 
L 897 -744 
L 494 -744 
L 750 256 
L 750 794 
z
" transform="scale(0.015625)"/>
      <path id="DejaVuSans-36" d="M 2113 2584 
Q 1688 2584 1439 2293 
Q 1191 2003 1191 1497 
Q 1191 994 1439 701 
Q 1688 409 2113 409 
Q 2538 409 2786 701 
Q 3034 994 3034 1497 
Q 3034 2003 2786 2293 
Q 2538 2584 2113 2584 
z
M 3366 4563 
L 3366 3988 
Q 3128 4100 2886 4159 
Q 2644 4219 2406 4219 
Q 1781 4219 1451 3797 
Q 1122 3375 1075 2522 
Q 1259 2794 1537 2939 
Q 1816 3084 2150 3084 
Q 2853 3084 3261 2657 
Q 3669 2231 3669 1497 
Q 3669 778 3244 343 
Q 2819 -91 2113 -91 
Q 1303 -91 875 529 
Q 447 1150 447 2328 
Q 447 3434 972 4092 
Q 1497 4750 2381 4750 
Q 2619 4750 2861 4703 
Q 3103 4656 3366 4563 
z
" transform="scale(0.015625)"/>
     </defs>
     <use xlink:href="#DejaVuSans-35"/>
     <use xlink:href="#DejaVuSans-2c" x="63.623047"/>
     <use xlink:href="#DejaVuSans-36" x="95.410156"/>
     <use xlink:href="#DejaVuSans-35" x="159.033203"/>
     <use xlink:href="#DejaVuSans-36" x="222.65625"/>
    </g>
   </g>
   <g id="text_2">
    <!-- 2,257 -->
    <g transform="translate(323.84432 121.43875)scale(0.2 -0.2)">
     <defs>
      <path id="DejaVuSans-32" d="M 1228 531 
L 3431 531 
L 3431 0 
L 469 0 
L 469 531 
Q 828 903 1448 1529 
Q 2069 2156 2228 2338 
Q 2531 2678 2651 2914 
Q 2772 3150 2772 3378 
Q 2772 3750 2511 3984 
Q 2250 4219 1831 4219 
Q 1534 4219 1204 4116 
Q 875 4013 500 3803 
L 500 4441 
Q 881 4594 1212 4672 
Q 1544 4750 1819 4750 
Q 2544 4750 2975 4387 
Q 3406 4025 3406 3419 
Q 3406 3131 3298 2873 
Q 3191 2616 2906 2266 
Q 2828 2175 2409 1742 
Q 1991 1309 1228 531 
z
" transform="scale(0.015625)"/>
      <path id="DejaVuSans-37" d="M 525 4666 
L 3525 4666 
L 3525 4397 
L 1831 0 
L 1172 0 
L 2766 4134 
L 525 4134 
L 525 4666 
z
" transform="scale(0.015625)"/>
     </defs>
     <use xlink:href="#DejaVuSans-32"/>
     <use xlink:href="#DejaVuSans-2c" x="63.623047"/>
     <use xlink:href="#DejaVuSans-32" x="95.410156"/>
     <use xlink:href="#DejaVuSans-35" x="159.033203"/>
     <use xlink:href="#DejaVuSans-37" x="222.65625"/>
    </g>
   </g>
   <g id="text_3">
    <!-- 862 -->
    <g transform="translate(271.006212 121.43875)scale(0.2 -0.2)">
     <defs>
      <path id="DejaVuSans-38" d="M 2034 2216 
Q 1584 2216 1326 1975 
Q 1069 1734 1069 1313 
Q 1069 891 1326 650 
Q 1584 409 2034 409 
Q 2484 409 2743 651 
Q 3003 894 3003 1313 
Q 3003 1734 2745 1975 
Q 2488 2216 2034 2216 
z
M 1403 2484 
Q 997 2584 770 2862 
Q 544 3141 544 3541 
Q 544 4100 942 4425 
Q 1341 4750 2034 4750 
Q 2731 4750 3128 4425 
Q 3525 4100 3525 3541 
Q 3525 3141 3298 2862 
Q 3072 2584 2669 2484 
Q 3125 2378 3379 2068 
Q 3634 1759 3634 1313 
Q 3634 634 3220 271 
Q 2806 -91 2034 -91 
Q 1263 -91 848 271 
Q 434 634 434 1313 
Q 434 1759 690 2068 
Q 947 2378 1403 2484 
z
M 1172 3481 
Q 1172 3119 1398 2916 
Q 1625 2713 2034 2713 
Q 2441 2713 2670 2916 
Q 2900 3119 2900 3481 
Q 2900 3844 2670 4047 
Q 2441 4250 2034 4250 
Q 1625 4250 1398 4047 
Q 1172 3844 1172 3481 
z
" transform="scale(0.015625)"/>
     </defs>
     <use xlink:href="#DejaVuSans-38"/>
     <use xlink:href="#DejaVuSans-36" x="63.623047"/>
     <use xlink:href="#DejaVuSans-32" x="127.246094"/>
    </g>
   </g>
   <g id="text_4">
    <!-- transh-down WE 2-4h -->
    <g transform="translate(7.2 228.919538)scale(0.2 -0.2)">
     <defs>
      <path id="DejaVuSans-74" d="M 1172 4494 
L 1172 3500 
L 2356 3500 
L 2356 3053 
L 1172 3053 
L 1172 1153 
Q 1172 725 1289 603 
Q 1406 481 1766 481 
L 2356 481 
L 2356 0 
L 1766 0 
Q 1100 0 847 248 
Q 594 497 594 1153 
L 594 3053 
L 172 3053 
L 172 3500 
L 594 3500 
L 594 4494 
L 1172 4494 
z
" transform="scale(0.015625)"/>
      <path id="DejaVuSans-72" d="M 2631 2963 
Q 2534 3019 2420 3045 
Q 2306 3072 2169 3072 
Q 1681 3072 1420 2755 
Q 1159 2438 1159 1844 
L 1159 0 
L 581 0 
L 581 3500 
L 1159 3500 
L 1159 2956 
Q 1341 3275 1631 3429 
Q 1922 3584 2338 3584 
Q 2397 3584 2469 3576 
Q 2541 3569 2628 3553 
L 2631 2963 
z
" transform="scale(0.015625)"/>
      <path id="DejaVuSans-61" d="M 2194 1759 
Q 1497 1759 1228 1600 
Q 959 1441 959 1056 
Q 959 750 1161 570 
Q 1363 391 1709 391 
Q 2188 391 2477 730 
Q 2766 1069 2766 1631 
L 2766 1759 
L 2194 1759 
z
M 3341 1997 
L 3341 0 
L 2766 0 
L 2766 531 
Q 2569 213 2275 61 
Q 1981 -91 1556 -91 
Q 1019 -91 701 211 
Q 384 513 384 1019 
Q 384 1609 779 1909 
Q 1175 2209 1959 2209 
L 2766 2209 
L 2766 2266 
Q 2766 2663 2505 2880 
Q 2244 3097 1772 3097 
Q 1472 3097 1187 3025 
Q 903 2953 641 2809 
L 641 3341 
Q 956 3463 1253 3523 
Q 1550 3584 1831 3584 
Q 2591 3584 2966 3190 
Q 3341 2797 3341 1997 
z
" transform="scale(0.015625)"/>
      <path id="DejaVuSans-6e" d="M 3513 2113 
L 3513 0 
L 2938 0 
L 2938 2094 
Q 2938 2591 2744 2837 
Q 2550 3084 2163 3084 
Q 1697 3084 1428 2787 
Q 1159 2491 1159 1978 
L 1159 0 
L 581 0 
L 581 3500 
L 1159 3500 
L 1159 2956 
Q 1366 3272 1645 3428 
Q 1925 3584 2291 3584 
Q 2894 3584 3203 3211 
Q 3513 2838 3513 2113 
z
" transform="scale(0.015625)"/>
      <path id="DejaVuSans-73" d="M 2834 3397 
L 2834 2853 
Q 2591 2978 2328 3040 
Q 2066 3103 1784 3103 
Q 1356 3103 1142 2972 
Q 928 2841 928 2578 
Q 928 2378 1081 2264 
Q 1234 2150 1697 2047 
L 1894 2003 
Q 2506 1872 2764 1633 
Q 3022 1394 3022 966 
Q 3022 478 2636 193 
Q 2250 -91 1575 -91 
Q 1294 -91 989 -36 
Q 684 19 347 128 
L 347 722 
Q 666 556 975 473 
Q 1284 391 1588 391 
Q 1994 391 2212 530 
Q 2431 669 2431 922 
Q 2431 1156 2273 1281 
Q 2116 1406 1581 1522 
L 1381 1569 
Q 847 1681 609 1914 
Q 372 2147 372 2553 
Q 372 3047 722 3315 
Q 1072 3584 1716 3584 
Q 2034 3584 2315 3537 
Q 2597 3491 2834 3397 
z
" transform="scale(0.015625)"/>
      <path id="DejaVuSans-68" d="M 3513 2113 
L 3513 0 
L 2938 0 
L 2938 2094 
Q 2938 2591 2744 2837 
Q 2550 3084 2163 3084 
Q 1697 3084 1428 2787 
Q 1159 2491 1159 1978 
L 1159 0 
L 581 0 
L 581 4863 
L 1159 4863 
L 1159 2956 
Q 1366 3272 1645 3428 
Q 1925 3584 2291 3584 
Q 2894 3584 3203 3211 
Q 3513 2838 3513 2113 
z
" transform="scale(0.015625)"/>
      <path id="DejaVuSans-2d" d="M 313 2009 
L 1997 2009 
L 1997 1497 
L 313 1497 
L 313 2009 
z
" transform="scale(0.015625)"/>
      <path id="DejaVuSans-64" d="M 2906 2969 
L 2906 4863 
L 3481 4863 
L 3481 0 
L 2906 0 
L 2906 525 
Q 2725 213 2448 61 
Q 2172 -91 1784 -91 
Q 1150 -91 751 415 
Q 353 922 353 1747 
Q 353 2572 751 3078 
Q 1150 3584 1784 3584 
Q 2172 3584 2448 3432 
Q 2725 3281 2906 2969 
z
M 947 1747 
Q 947 1113 1208 752 
Q 1469 391 1925 391 
Q 2381 391 2643 752 
Q 2906 1113 2906 1747 
Q 2906 2381 2643 2742 
Q 2381 3103 1925 3103 
Q 1469 3103 1208 2742 
Q 947 2381 947 1747 
z
" transform="scale(0.015625)"/>
      <path id="DejaVuSans-6f" d="M 1959 3097 
Q 1497 3097 1228 2736 
Q 959 2375 959 1747 
Q 959 1119 1226 758 
Q 1494 397 1959 397 
Q 2419 397 2687 759 
Q 2956 1122 2956 1747 
Q 2956 2369 2687 2733 
Q 2419 3097 1959 3097 
z
M 1959 3584 
Q 2709 3584 3137 3096 
Q 3566 2609 3566 1747 
Q 3566 888 3137 398 
Q 2709 -91 1959 -91 
Q 1206 -91 779 398 
Q 353 888 353 1747 
Q 353 2609 779 3096 
Q 1206 3584 1959 3584 
z
" transform="scale(0.015625)"/>
      <path id="DejaVuSans-77" d="M 269 3500 
L 844 3500 
L 1563 769 
L 2278 3500 
L 2956 3500 
L 3675 769 
L 4391 3500 
L 4966 3500 
L 4050 0 
L 3372 0 
L 2619 2869 
L 1863 0 
L 1184 0 
L 269 3500 
z
" transform="scale(0.015625)"/>
      <path id="DejaVuSans-20" transform="scale(0.015625)"/>
      <path id="DejaVuSans-57" d="M 213 4666 
L 850 4666 
L 1831 722 
L 2809 4666 
L 3519 4666 
L 4500 722 
L 5478 4666 
L 6119 4666 
L 4947 0 
L 4153 0 
L 3169 4050 
L 2175 0 
L 1381 0 
L 213 4666 
z
" transform="scale(0.015625)"/>
      <path id="DejaVuSans-45" d="M 628 4666 
L 3578 4666 
L 3578 4134 
L 1259 4134 
L 1259 2753 
L 3481 2753 
L 3481 2222 
L 1259 2222 
L 1259 531 
L 3634 531 
L 3634 0 
L 628 0 
L 628 4666 
z
" transform="scale(0.015625)"/>
      <path id="DejaVuSans-34" d="M 2419 4116 
L 825 1625 
L 2419 1625 
L 2419 4116 
z
M 2253 4666 
L 3047 4666 
L 3047 1625 
L 3713 1625 
L 3713 1100 
L 3047 1100 
L 3047 0 
L 2419 0 
L 2419 1100 
L 313 1100 
L 313 1709 
L 2253 4666 
z
" transform="scale(0.015625)"/>
     </defs>
     <use xlink:href="#DejaVuSans-74"/>
     <use xlink:href="#DejaVuSans-72" x="39.208984"/>
     <use xlink:href="#DejaVuSans-61" x="80.322266"/>
     <use xlink:href="#DejaVuSans-6e" x="141.601562"/>
     <use xlink:href="#DejaVuSans-73" x="204.980469"/>
     <use xlink:href="#DejaVuSans-68" x="257.080078"/>
     <use xlink:href="#DejaVuSans-2d" x="320.458984"/>
     <use xlink:href="#DejaVuSans-64" x="356.542969"/>
     <use xlink:href="#DejaVuSans-6f" x="420.019531"/>
     <use xlink:href="#DejaVuSans-77" x="481.201172"/>
     <use xlink:href="#DejaVuSans-6e" x="562.988281"/>
     <use xlink:href="#DejaVuSans-20" x="626.367188"/>
     <use xlink:href="#DejaVuSans-57" x="658.154297"/>
     <use xlink:href="#DejaVuSans-45" x="757.03125"/>
     <use xlink:href="#DejaVuSans-20" x="820.214844"/>
     <use xlink:href="#DejaVuSans-32" x="852.001953"/>
     <use xlink:href="#DejaVuSans-2d" x="915.625"/>
     <use xlink:href="#DejaVuSans-34" x="951.708984"/>
     <use xlink:href="#DejaVuSans-68" x="1015.332031"/>
    </g>
   </g>
   <g id="text_5">
    <!-- transh-down PnM cell line -->
    <g transform="translate(329.456805 201.123294)scale(0.2 -0.2)">
     <defs>
      <path id="DejaVuSans-50" d="M 1259 4147 
L 1259 2394 
L 2053 2394 
Q 2494 2394 2734 2622 
Q 2975 2850 2975 3272 
Q 2975 3691 2734 3919 
Q 2494 4147 2053 4147 
L 1259 4147 
z
M 628 4666 
L 2053 4666 
Q 2838 4666 3239 4311 
Q 3641 3956 3641 3272 
Q 3641 2581 3239 2228 
Q 2838 1875 2053 1875 
L 1259 1875 
L 1259 0 
L 628 0 
L 628 4666 
z
" transform="scale(0.015625)"/>
      <path id="DejaVuSans-4d" d="M 628 4666 
L 1569 4666 
L 2759 1491 
L 3956 4666 
L 4897 4666 
L 4897 0 
L 4281 0 
L 4281 4097 
L 3078 897 
L 2444 897 
L 1241 4097 
L 1241 0 
L 628 0 
L 628 4666 
z
" transform="scale(0.015625)"/>
      <path id="DejaVuSans-63" d="M 3122 3366 
L 3122 2828 
Q 2878 2963 2633 3030 
Q 2388 3097 2138 3097 
Q 1578 3097 1268 2742 
Q 959 2388 959 1747 
Q 959 1106 1268 751 
Q 1578 397 2138 397 
Q 2388 397 2633 464 
Q 2878 531 3122 666 
L 3122 134 
Q 2881 22 2623 -34 
Q 2366 -91 2075 -91 
Q 1284 -91 818 406 
Q 353 903 353 1747 
Q 353 2603 823 3093 
Q 1294 3584 2113 3584 
Q 2378 3584 2631 3529 
Q 2884 3475 3122 3366 
z
" transform="scale(0.015625)"/>
      <path id="DejaVuSans-65" d="M 3597 1894 
L 3597 1613 
L 953 1613 
Q 991 1019 1311 708 
Q 1631 397 2203 397 
Q 2534 397 2845 478 
Q 3156 559 3463 722 
L 3463 178 
Q 3153 47 2828 -22 
Q 2503 -91 2169 -91 
Q 1331 -91 842 396 
Q 353 884 353 1716 
Q 353 2575 817 3079 
Q 1281 3584 2069 3584 
Q 2775 3584 3186 3129 
Q 3597 2675 3597 1894 
z
M 3022 2063 
Q 3016 2534 2758 2815 
Q 2500 3097 2075 3097 
Q 1594 3097 1305 2825 
Q 1016 2553 972 2059 
L 3022 2063 
z
" transform="scale(0.015625)"/>
      <path id="DejaVuSans-6c" d="M 603 4863 
L 1178 4863 
L 1178 0 
L 603 0 
L 603 4863 
z
" transform="scale(0.015625)"/>
      <path id="DejaVuSans-69" d="M 603 3500 
L 1178 3500 
L 1178 0 
L 603 0 
L 603 3500 
z
M 603 4863 
L 1178 4863 
L 1178 4134 
L 603 4134 
L 603 4863 
z
" transform="scale(0.015625)"/>
     </defs>
     <use xlink:href="#DejaVuSans-74"/>
     <use xlink:href="#DejaVuSans-72" x="39.208984"/>
     <use xlink:href="#DejaVuSans-61" x="80.322266"/>
     <use xlink:href="#DejaVuSans-6e" x="141.601562"/>
     <use xlink:href="#DejaVuSans-73" x="204.980469"/>
     <use xlink:href="#DejaVuSans-68" x="257.080078"/>
     <use xlink:href="#DejaVuSans-2d" x="320.458984"/>
     <use xlink:href="#DejaVuSans-64" x="356.542969"/>
     <use xlink:href="#DejaVuSans-6f" x="420.019531"/>
     <use xlink:href="#DejaVuSans-77" x="481.201172"/>
     <use xlink:href="#DejaVuSans-6e" x="562.988281"/>
     <use xlink:href="#DejaVuSans-20" x="626.367188"/>
     <use xlink:href="#DejaVuSans-50" x="658.154297"/>
     <use xlink:href="#DejaVuSans-6e" x="716.707031"/>
     <use xlink:href="#DejaVuSans-4d" x="780.085938"/>
     <use xlink:href="#DejaVuSans-20" x="866.365234"/>
     <use xlink:href="#DejaVuSans-63" x="898.152344"/>
     <use xlink:href="#DejaVuSans-65" x="953.132812"/>
     <use xlink:href="#DejaVuSans-6c" x="1014.65625"/>
     <use xlink:href="#DejaVuSans-6c" x="1042.439453"/>
     <use xlink:href="#DejaVuSans-20" x="1070.222656"/>
     <use xlink:href="#DejaVuSans-6c" x="1102.009766"/>
     <use xlink:href="#DejaVuSans-69" x="1129.792969"/>
     <use xlink:href="#DejaVuSans-6e" x="1157.576172"/>
     <use xlink:href="#DejaVuSans-65" x="1220.955078"/>
    </g>
   </g>
  </g>
 </g>
 <defs>
  <clipPath id="p362ff16fc8">
   <rect x="114.214375" y="7.2" width="296.166186" height="217.44"/>
  </clipPath>
 </defs>
</svg>
