<?xml version="1.0" encoding="utf-8" standalone="no"?>
<!DOCTYPE svg PUBLIC "-//W3C//DTD SVG 1.1//EN"
  "http://www.w3.org/Graphics/SVG/1.1/DTD/svg11.dtd">
<svg xmlns:xlink="http://www.w3.org/1999/xlink" width="815.589pt" height="420.790813pt" viewBox="0 0 815.589 420.790813" xmlns="http://www.w3.org/2000/svg" version="1.1">
 <metadata>
  <rdf:RDF xmlns:dc="http://purl.org/dc/elements/1.1/" xmlns:cc="http://creativecommons.org/ns#" xmlns:rdf="http://www.w3.org/1999/02/22-rdf-syntax-ns#">
   <cc:Work>
    <dc:type rdf:resource="http://purl.org/dc/dcmitype/StillImage"/>
    <dc:date>2024-05-27T16:16:20.795241</dc:date>
    <dc:format>image/svg+xml</dc:format>
    <dc:creator>
     <cc:Agent>
      <dc:title>Matplotlib v3.5.1, https://matplotlib.org/</dc:title>
     </cc:Agent>
    </dc:creator>
   </cc:Work>
  </rdf:RDF>
 </metadata>
 <defs>
  <style type="text/css">*{stroke-linejoin: round; stroke-linecap: butt}</style>
 </defs>
 <g id="figure_1">
  <g id="patch_1">
   <path d="M 0 420.790813 
L 815.589 420.790813 
L 815.589 0 
L 0 0 
L 0 420.790813 
z
" style="fill: none"/>
  </g>
  <g id="axes_1">
   <g id="patch_2">
    <path d="M 76.15225 368.92725 
L 634.15225 368.92725 
L 634.15225 42.76725 
L 76.15225 42.76725 
z
" style="fill: #ffffff"/>
   </g>
   <g id="patch_3">
    <path d="M 215.65225 336.102687 
L 215.65225 336.102687 
L 215.65225 336.102687 
L 215.65225 336.102687 
z
" clip-path="url(#pefeead5cad)" style="fill: #888888; stroke: #202020; stroke-width: 0.75; stroke-linejoin: miter"/>
   </g>
   <g id="PolyCollection_1">
    <defs>
     <path id="m2f896ac07d" d="M 159.87493 -78.263841 
L 159.82957 -78.263841 
L 159.70611 -80.871095 
L 159.238766 -83.478349 
L 158.137731 -86.085603 
L 156.560491 -88.692857 
L 155.087503 -91.300111 
L 153.778899 -93.907364 
L 152.350406 -96.514618 
L 151.092458 -99.121872 
L 150.128881 -101.729126 
L 148.575061 -104.33638 
L 146.431211 -106.943634 
L 145.118525 -109.550887 
L 145.17707 -112.158141 
L 146.198051 -114.765395 
L 147.674647 -117.372649 
L 148.98359 -119.979903 
L 150.089546 -122.587157 
L 151.394872 -125.194411 
L 152.395538 -127.801664 
L 152.298225 -130.408918 
L 151.758805 -133.016172 
L 151.810326 -135.623426 
L 152.280849 -138.23068 
L 153.061017 -140.837934 
L 154.171468 -143.445187 
L 154.99052 -146.052441 
L 155.127796 -148.659695 
L 154.978787 -151.266949 
L 154.561379 -153.874203 
L 153.560292 -156.481457 
L 152.609422 -159.08871 
L 152.480639 -161.695964 
L 152.984114 -164.303218 
L 153.39425 -166.910472 
L 153.335544 -169.517726 
L 152.555425 -172.12498 
L 150.963535 -174.732234 
L 149.754204 -177.339487 
L 149.82722 -179.946741 
L 150.318559 -182.553995 
L 150.333966 -185.161249 
L 149.768438 -187.768503 
L 148.584248 -190.375757 
L 146.824489 -192.98301 
L 145.095341 -195.590264 
L 143.651219 -198.197518 
L 141.890741 -200.804772 
L 139.959851 -203.412026 
L 138.096318 -206.01928 
L 135.612198 -208.626533 
L 132.504843 -211.233787 
L 129.880084 -213.841041 
L 127.979823 -216.448295 
L 125.787549 -219.055549 
L 123.006005 -221.662803 
L 120.21572 -224.270056 
L 117.419202 -226.87731 
L 114.690217 -229.484564 
L 112.766734 -232.091818 
L 111.319251 -234.699072 
L 109.205048 -237.306326 
L 106.533141 -239.91358 
L 104.558903 -242.520833 
L 104.05225 -245.128087 
L 104.293931 -247.735341 
L 104.897057 -250.342595 
L 106.289166 -252.949849 
L 108.686145 -255.557103 
L 112.193484 -258.164356 
L 116.670829 -260.77161 
L 121.402994 -263.378864 
L 125.317734 -265.986118 
L 128.343467 -268.593372 
L 131.345403 -271.200626 
L 134.78852 -273.807879 
L 138.444598 -276.415133 
L 141.91286 -279.022387 
L 145.27681 -281.629641 
L 148.546451 -284.236895 
L 151.172216 -286.844149 
L 152.870043 -289.451402 
L 153.931036 -292.058656 
L 154.839224 -294.66591 
L 155.836352 -297.273164 
L 156.696448 -299.880418 
L 157.274285 -302.487672 
L 157.723738 -305.094926 
L 158.231032 -307.702179 
L 158.69205 -310.309433 
L 158.897993 -312.916687 
L 158.963736 -315.523941 
L 159.117931 -318.131195 
L 159.357043 -320.738449 
L 159.525152 -323.345702 
L 159.587714 -325.952956 
L 159.646995 -328.56021 
L 159.73696 -331.167464 
L 159.810428 -333.774718 
L 159.843144 -336.381972 
L 159.861356 -336.381972 
L 159.861356 -336.381972 
L 159.894072 -333.774718 
L 159.96754 -331.167464 
L 160.057505 -328.56021 
L 160.116786 -325.952956 
L 160.179348 -323.345702 
L 160.347457 -320.738449 
L 160.586569 -318.131195 
L 160.740764 -315.523941 
L 160.806507 -312.916687 
L 161.01245 -310.309433 
L 161.473468 -307.702179 
L 161.980762 -305.094926 
L 162.430215 -302.487672 
L 163.008052 -299.880418 
L 163.868148 -297.273164 
L 164.865276 -294.66591 
L 165.773464 -292.058656 
L 166.834457 -289.451402 
L 168.532284 -286.844149 
L 171.158049 -284.236895 
L 174.42769 -281.629641 
L 177.79164 -279.022387 
L 181.259902 -276.415133 
L 184.91598 -273.807879 
L 188.359097 -271.200626 
L 191.361033 -268.593372 
L 194.386766 -265.986118 
L 198.301506 -263.378864 
L 203.033671 -260.77161 
L 207.511016 -258.164356 
L 211.018355 -255.557103 
L 213.415334 -252.949849 
L 214.807443 -250.342595 
L 215.410569 -247.735341 
L 215.65225 -245.128087 
L 215.145597 -242.520833 
L 213.171359 -239.91358 
L 210.499452 -237.306326 
L 208.385249 -234.699072 
L 206.937766 -232.091818 
L 205.014283 -229.484564 
L 202.285298 -226.87731 
L 199.48878 -224.270056 
L 196.698495 -221.662803 
L 193.916951 -219.055549 
L 191.724677 -216.448295 
L 189.824416 -213.841041 
L 187.199657 -211.233787 
L 184.092302 -208.626533 
L 181.608182 -206.01928 
L 179.744649 -203.412026 
L 177.813759 -200.804772 
L 176.053281 -198.197518 
L 174.609159 -195.590264 
L 172.880011 -192.98301 
L 171.120252 -190.375757 
L 169.936062 -187.768503 
L 169.370534 -185.161249 
L 169.385941 -182.553995 
L 169.87728 -179.946741 
L 169.950296 -177.339487 
L 168.740965 -174.732234 
L 167.149075 -172.12498 
L 166.368956 -169.517726 
L 166.31025 -166.910472 
L 166.720386 -164.303218 
L 167.223861 -161.695964 
L 167.095078 -159.08871 
L 166.144208 -156.481457 
L 165.143121 -153.874203 
L 164.725713 -151.266949 
L 164.576704 -148.659695 
L 164.71398 -146.052441 
L 165.533032 -143.445187 
L 166.643483 -140.837934 
L 167.423651 -138.23068 
L 167.894174 -135.623426 
L 167.945695 -133.016172 
L 167.406275 -130.408918 
L 167.308962 -127.801664 
L 168.309628 -125.194411 
L 169.614954 -122.587157 
L 170.72091 -119.979903 
L 172.029853 -117.372649 
L 173.506449 -114.765395 
L 174.52743 -112.158141 
L 174.585975 -109.550887 
L 173.273289 -106.943634 
L 171.129439 -104.33638 
L 169.575619 -101.729126 
L 168.612042 -99.121872 
L 167.354094 -96.514618 
L 165.925601 -93.907364 
L 164.616997 -91.300111 
L 163.144009 -88.692857 
L 161.566769 -86.085603 
L 160.465734 -83.478349 
L 159.99839 -80.871095 
L 159.87493 -78.263841 
z
" style="stroke: #202020; stroke-width: 1.5"/>
    </defs>
    <g clip-path="url(#pefeead5cad)">
     <use xlink:href="#m2f896ac07d" x="0" y="420.790813" style="fill: #888888; stroke: #202020; stroke-width: 1.5"/>
    </g>
   </g>
   <g id="patch_4">
    <path d="M 215.65225 336.102687 
L 215.65225 336.102687 
L 215.65225 336.102687 
L 215.65225 336.102687 
z
" clip-path="url(#pefeead5cad)" style="fill: #1f4b44; stroke: #202020; stroke-width: 0.75; stroke-linejoin: miter"/>
   </g>
   <g id="PolyCollection_2">
    <defs>
     <path id="m1ba144aa9b" d="M 271.853783 -72.458855 
L 271.050717 -72.458855 
L 270.549658 -75.17711 
L 269.738749 -77.895366 
L 268.693222 -80.613621 
L 267.652314 -83.331877 
L 266.898885 -86.050132 
L 266.547055 -88.768388 
L 266.437135 -91.486643 
L 266.267371 -94.204899 
L 265.846897 -96.923154 
L 265.225537 -99.64141 
L 264.60043 -102.359665 
L 264.127819 -105.077921 
L 263.821863 -107.796176 
L 263.597848 -110.514431 
L 263.392955 -113.232687 
L 263.262867 -115.950942 
L 263.374405 -118.669198 
L 263.881873 -121.387453 
L 264.77864 -124.105709 
L 265.858097 -126.823964 
L 266.825597 -129.54222 
L 267.463956 -132.260475 
L 267.718243 -134.978731 
L 267.657443 -137.696986 
L 267.383907 -140.415242 
L 266.982036 -143.133497 
L 266.522343 -145.851753 
L 266.071035 -148.570008 
L 265.677391 -151.288264 
L 265.365115 -154.006519 
L 265.141725 -156.724775 
L 264.989686 -159.44303 
L 264.820328 -162.161286 
L 264.448665 -164.879541 
L 263.664503 -167.597797 
L 262.388605 -170.316052 
L 260.799404 -173.034308 
L 259.29816 -175.752563 
L 258.284488 -178.470819 
L 257.882033 -181.189074 
L 257.830694 -183.90733 
L 257.635513 -186.625585 
L 256.849785 -189.343841 
L 255.296258 -192.062096 
L 253.12553 -194.780352 
L 250.716441 -197.498607 
L 248.46618 -200.216863 
L 246.564471 -202.935118 
L 244.9005 -205.653374 
L 243.193952 -208.371629 
L 241.248362 -211.089885 
L 239.097363 -213.80814 
L 236.927804 -216.526396 
L 234.889505 -219.244651 
L 232.98218 -221.962907 
L 231.098526 -224.681162 
L 229.150326 -227.399418 
L 227.146893 -230.117673 
L 225.166093 -232.835929 
L 223.282443 -235.554184 
L 221.552314 -238.27244 
L 220.063037 -240.990695 
L 218.966091 -243.708951 
L 218.44514 -246.427206 
L 218.649687 -249.145462 
L 219.647639 -251.863717 
L 221.420523 -254.581973 
L 223.892687 -257.300228 
L 226.963059 -260.018484 
L 230.511047 -262.736739 
L 234.388629 -265.454995 
L 238.436063 -268.17325 
L 242.520996 -270.891506 
L 246.555293 -273.609761 
L 250.465719 -276.328017 
L 254.152995 -279.046272 
L 257.487681 -281.764528 
L 260.350699 -284.482783 
L 262.684561 -287.201039 
L 264.515062 -289.919294 
L 265.928325 -292.63755 
L 267.023273 -295.355805 
L 267.877603 -298.07406 
L 268.54634 -300.792316 
L 269.075377 -303.510571 
L 269.503788 -306.228827 
L 269.855943 -308.947082 
L 270.142814 -311.665338 
L 270.37513 -314.383593 
L 270.570497 -317.101849 
L 270.745777 -319.820104 
L 270.907281 -322.53836 
L 271.051648 -325.256615 
L 271.173705 -327.974871 
L 271.271138 -330.693126 
L 271.344086 -333.411382 
L 271.394146 -336.129637 
L 271.424707 -338.847893 
L 271.440897 -341.566148 
L 271.463603 -341.566148 
L 271.463603 -341.566148 
L 271.479793 -338.847893 
L 271.510354 -336.129637 
L 271.560414 -333.411382 
L 271.633362 -330.693126 
L 271.730795 -327.974871 
L 271.852852 -325.256615 
L 271.997219 -322.53836 
L 272.158723 -319.820104 
L 272.334003 -317.101849 
L 272.52937 -314.383593 
L 272.761686 -311.665338 
L 273.048557 -308.947082 
L 273.400712 -306.228827 
L 273.829123 -303.510571 
L 274.35816 -300.792316 
L 275.026897 -298.07406 
L 275.881227 -295.355805 
L 276.976175 -292.63755 
L 278.389438 -289.919294 
L 280.219939 -287.201039 
L 282.553801 -284.482783 
L 285.416819 -281.764528 
L 288.751505 -279.046272 
L 292.438781 -276.328017 
L 296.349207 -273.609761 
L 300.383504 -270.891506 
L 304.468437 -268.17325 
L 308.515871 -265.454995 
L 312.393453 -262.736739 
L 315.941441 -260.018484 
L 319.011813 -257.300228 
L 321.483977 -254.581973 
L 323.256861 -251.863717 
L 324.254813 -249.145462 
L 324.45936 -246.427206 
L 323.938409 -243.708951 
L 322.841463 -240.990695 
L 321.352186 -238.27244 
L 319.622057 -235.554184 
L 317.738407 -232.835929 
L 315.757607 -230.117673 
L 313.754174 -227.399418 
L 311.805974 -224.681162 
L 309.92232 -221.962907 
L 308.014995 -219.244651 
L 305.976696 -216.526396 
L 303.807137 -213.80814 
L 301.656138 -211.089885 
L 299.710548 -208.371629 
L 298.004 -205.653374 
L 296.340029 -202.935118 
L 294.43832 -200.216863 
L 292.188059 -197.498607 
L 289.77897 -194.780352 
L 287.608242 -192.062096 
L 286.054715 -189.343841 
L 285.268987 -186.625585 
L 285.073806 -183.90733 
L 285.022467 -181.189074 
L 284.620012 -178.470819 
L 283.60634 -175.752563 
L 282.105096 -173.034308 
L 280.515895 -170.316052 
L 279.239997 -167.597797 
L 278.455835 -164.879541 
L 278.084172 -162.161286 
L 277.914814 -159.44303 
L 277.762775 -156.724775 
L 277.539385 -154.006519 
L 277.227109 -151.288264 
L 276.833465 -148.570008 
L 276.382157 -145.851753 
L 275.922464 -143.133497 
L 275.520593 -140.415242 
L 275.247057 -137.696986 
L 275.186257 -134.978731 
L 275.440544 -132.260475 
L 276.078903 -129.54222 
L 277.046403 -126.823964 
L 278.12586 -124.105709 
L 279.022627 -121.387453 
L 279.530095 -118.669198 
L 279.641633 -115.950942 
L 279.511545 -113.232687 
L 279.306652 -110.514431 
L 279.082637 -107.796176 
L 278.776681 -105.077921 
L 278.30407 -102.359665 
L 277.678963 -99.64141 
L 277.057603 -96.923154 
L 276.637129 -94.204899 
L 276.467365 -91.486643 
L 276.357445 -88.768388 
L 276.005615 -86.050132 
L 275.252186 -83.331877 
L 274.211278 -80.613621 
L 273.165751 -77.895366 
L 272.354842 -75.17711 
L 271.853783 -72.458855 
z
" style="stroke: #202020; stroke-width: 1.5"/>
    </defs>
    <g clip-path="url(#pefeead5cad)">
     <use xlink:href="#m1ba144aa9b" x="0" y="420.790813" style="fill: #1f4b44; stroke: #202020; stroke-width: 1.5"/>
    </g>
   </g>
   <g id="PolyCollection_3">
    <defs>
     <path id="m13eb58b90c" d="M 439.523231 -69.921336 
L 438.181269 -69.921336 
L 437.307056 -72.851078 
L 435.771734 -75.78082 
L 433.509634 -78.710562 
L 430.726982 -81.640304 
L 427.875048 -84.570046 
L 425.413081 -87.499788 
L 423.529698 -90.42953 
L 422.087923 -93.359272 
L 420.855957 -96.289014 
L 419.781379 -99.218756 
L 419.02886 -102.148498 
L 418.774427 -105.07824 
L 418.997202 -108.007982 
L 419.473713 -110.937724 
L 419.958904 -113.867465 
L 420.372788 -116.797207 
L 420.813548 -119.726949 
L 421.364116 -122.656691 
L 421.857247 -125.586433 
L 421.848598 -128.516175 
L 420.886565 -131.445917 
L 418.87081 -134.375659 
L 416.177997 -137.305401 
L 413.459189 -140.235143 
L 411.321833 -143.164885 
L 410.140271 -146.094627 
L 410.02102 -149.024369 
L 410.819785 -151.954111 
L 412.174382 -154.883853 
L 413.564193 -157.813595 
L 414.354126 -160.743337 
L 413.816965 -163.673079 
L 411.276309 -166.60282 
L 406.494117 -169.532562 
L 400.117176 -172.462304 
L 393.719783 -175.392046 
L 389.158503 -178.321788 
L 387.548426 -181.25153 
L 388.605023 -184.181272 
L 390.86692 -187.111014 
L 392.612833 -190.040756 
L 392.794934 -192.970498 
L 391.409462 -195.90024 
L 389.188224 -198.829982 
L 386.939029 -201.759724 
L 385.073961 -204.689466 
L 383.693193 -207.619208 
L 383.05225 -210.54895 
L 383.794149 -213.478692 
L 386.53536 -216.408433 
L 391.11617 -219.338175 
L 396.2647 -222.267917 
L 400.111665 -225.197659 
L 401.280156 -228.127401 
L 399.792953 -231.057143 
L 397.122862 -233.986885 
L 395.306683 -236.916627 
L 395.744447 -239.846369 
L 398.527544 -242.776111 
L 402.665199 -245.705853 
L 406.871169 -248.635595 
L 410.270677 -251.565337 
L 412.631437 -254.495079 
L 414.165053 -257.424821 
L 415.208816 -260.354563 
L 416.047378 -263.284305 
L 416.897723 -266.214046 
L 417.92301 -269.143788 
L 419.191394 -272.07353 
L 420.625631 -275.003272 
L 422.029466 -277.933014 
L 423.218453 -280.862756 
L 424.187588 -283.792498 
L 425.170497 -286.72224 
L 426.486773 -289.651982 
L 428.273468 -292.581724 
L 430.353084 -295.511466 
L 432.371888 -298.441208 
L 434.0594 -301.37095 
L 435.357505 -304.300692 
L 436.347483 -307.230434 
L 437.111814 -310.160176 
L 437.675204 -313.089918 
L 438.036166 -316.01966 
L 438.214135 -318.949401 
L 438.260057 -321.879143 
L 438.237081 -324.808885 
L 438.200008 -327.738627 
L 438.186298 -330.668369 
L 438.213632 -333.598111 
L 438.279717 -336.527853 
L 438.367999 -339.457595 
L 438.460103 -342.387337 
L 438.546121 -345.317079 
L 438.624477 -348.246821 
L 438.69487 -351.176563 
L 438.754094 -354.106305 
L 438.798206 -357.036047 
L 438.826358 -359.965789 
L 438.878142 -359.965789 
L 438.878142 -359.965789 
L 438.906294 -357.036047 
L 438.950406 -354.106305 
L 439.00963 -351.176563 
L 439.080023 -348.246821 
L 439.158379 -345.317079 
L 439.244397 -342.387337 
L 439.336501 -339.457595 
L 439.424783 -336.527853 
L 439.490868 -333.598111 
L 439.518202 -330.668369 
L 439.504492 -327.738627 
L 439.467419 -324.808885 
L 439.444443 -321.879143 
L 439.490365 -318.949401 
L 439.668334 -316.01966 
L 440.029296 -313.089918 
L 440.592686 -310.160176 
L 441.357017 -307.230434 
L 442.346995 -304.300692 
L 443.6451 -301.37095 
L 445.332612 -298.441208 
L 447.351416 -295.511466 
L 449.431032 -292.581724 
L 451.217727 -289.651982 
L 452.534003 -286.72224 
L 453.516912 -283.792498 
L 454.486047 -280.862756 
L 455.675034 -277.933014 
L 457.078869 -275.003272 
L 458.513106 -272.07353 
L 459.78149 -269.143788 
L 460.806777 -266.214046 
L 461.657122 -263.284305 
L 462.495684 -260.354563 
L 463.539447 -257.424821 
L 465.073063 -254.495079 
L 467.433823 -251.565337 
L 470.833331 -248.635595 
L 475.039301 -245.705853 
L 479.176956 -242.776111 
L 481.960053 -239.846369 
L 482.397817 -236.916627 
L 480.581638 -233.986885 
L 477.911547 -231.057143 
L 476.424344 -228.127401 
L 477.592835 -225.197659 
L 481.4398 -222.267917 
L 486.58833 -219.338175 
L 491.16914 -216.408433 
L 493.910351 -213.478692 
L 494.65225 -210.54895 
L 494.011307 -207.619208 
L 492.630539 -204.689466 
L 490.765471 -201.759724 
L 488.516276 -198.829982 
L 486.295038 -195.90024 
L 484.909566 -192.970498 
L 485.091667 -190.040756 
L 486.83758 -187.111014 
L 489.099477 -184.181272 
L 490.156074 -181.25153 
L 488.545997 -178.321788 
L 483.984717 -175.392046 
L 477.587324 -172.462304 
L 471.210383 -169.532562 
L 466.428191 -166.60282 
L 463.887535 -163.673079 
L 463.350374 -160.743337 
L 464.140307 -157.813595 
L 465.530118 -154.883853 
L 466.884715 -151.954111 
L 467.68348 -149.024369 
L 467.564229 -146.094627 
L 466.382667 -143.164885 
L 464.245311 -140.235143 
L 461.526503 -137.305401 
L 458.83369 -134.375659 
L 456.817935 -131.445917 
L 455.855902 -128.516175 
L 455.847253 -125.586433 
L 456.340384 -122.656691 
L 456.890952 -119.726949 
L 457.331712 -116.797207 
L 457.745596 -113.867465 
L 458.230787 -110.937724 
L 458.707298 -108.007982 
L 458.930073 -105.07824 
L 458.67564 -102.148498 
L 457.923121 -99.218756 
L 456.848543 -96.289014 
L 455.616577 -93.359272 
L 454.174802 -90.42953 
L 452.291419 -87.499788 
L 449.829452 -84.570046 
L 446.977518 -81.640304 
L 444.194866 -78.710562 
L 441.932766 -75.78082 
L 440.397444 -72.851078 
L 439.523231 -69.921336 
z
" style="stroke: #202020; stroke-width: 1.5"/>
    </defs>
    <g clip-path="url(#pefeead5cad)">
     <use xlink:href="#m13eb58b90c" x="0" y="420.790813" style="fill: #888888; stroke: #202020; stroke-width: 1.5"/>
    </g>
   </g>
   <g id="PolyCollection_4">
    <defs>
     <path id="m68a0f7175d" d="M 553.098224 -66.689017 
L 547.806276 -66.689017 
L 545.132237 -69.684058 
L 540.803305 -72.6791 
L 534.635889 -75.674141 
L 526.956558 -78.669182 
L 518.692311 -81.664224 
L 511.156841 -84.659265 
L 505.574275 -87.654306 
L 502.593204 -90.649348 
L 502.086854 -93.644389 
L 503.341426 -96.63943 
L 505.463534 -99.634472 
L 507.727673 -102.629513 
L 509.704749 -105.624554 
L 511.209419 -108.619596 
L 512.192525 -111.614637 
L 512.658974 -114.609678 
L 512.620097 -117.60472 
L 512.077073 -120.599761 
L 511.053396 -123.594802 
L 509.680561 -126.589843 
L 508.281525 -129.584885 
L 507.356048 -132.579926 
L 507.416601 -135.574967 
L 508.739775 -138.570009 
L 511.190214 -141.56505 
L 514.249537 -144.560091 
L 517.247004 -147.555133 
L 519.649291 -150.550174 
L 521.234303 -153.545215 
L 522.065071 -156.540257 
L 522.317054 -159.535298 
L 522.09979 -162.530339 
L 521.402162 -165.525381 
L 520.191924 -168.520422 
L 518.578296 -171.515463 
L 516.887996 -174.510505 
L 515.56352 -177.505546 
L 514.932969 -180.500587 
L 515.012212 -183.495629 
L 515.487087 -186.49067 
L 515.895376 -189.485711 
L 515.890441 -192.480753 
L 515.42409 -195.475794 
L 514.753513 -198.470835 
L 514.29295 -201.465877 
L 514.414146 -204.460918 
L 515.306521 -207.455959 
L 516.947732 -210.451001 
L 519.157453 -213.446042 
L 521.668114 -216.441083 
L 524.168606 -219.436124 
L 526.331196 -222.431166 
L 527.862475 -225.426207 
L 528.594931 -228.421248 
L 528.579805 -231.41629 
L 528.109991 -234.411331 
L 527.630356 -237.406372 
L 527.564836 -240.401414 
L 528.14904 -243.396455 
L 529.35744 -246.391496 
L 530.955371 -249.386538 
L 532.631939 -252.381579 
L 534.133027 -255.37662 
L 535.33376 -258.371662 
L 536.240956 -261.366703 
L 536.95348 -264.361744 
L 537.610766 -267.356786 
L 538.343504 -270.351827 
L 539.232194 -273.346868 
L 540.283981 -276.34191 
L 541.439868 -279.336951 
L 542.611006 -282.331992 
L 543.72286 -285.327034 
L 544.739958 -288.322075 
L 545.660137 -291.317116 
L 546.491482 -294.312158 
L 547.234908 -297.307199 
L 547.88339 -300.30224 
L 548.430618 -303.297282 
L 548.876313 -306.292323 
L 549.224305 -309.287364 
L 549.479273 -312.282405 
L 549.647989 -315.277447 
L 549.743771 -318.272488 
L 549.788345 -321.267529 
L 549.807734 -324.262571 
L 549.824472 -327.257612 
L 549.851461 -330.252653 
L 549.891118 -333.247695 
L 549.939499 -336.242736 
L 549.99202 -339.237777 
L 550.047068 -342.232819 
L 550.105739 -345.22786 
L 550.1689 -348.222901 
L 550.234477 -351.217943 
L 550.297276 -354.212984 
L 550.351287 -357.208025 
L 550.392509 -360.203067 
L 550.420312 -363.198108 
L 550.484188 -363.198108 
L 550.484188 -363.198108 
L 550.511991 -360.203067 
L 550.553213 -357.208025 
L 550.607224 -354.212984 
L 550.670023 -351.217943 
L 550.7356 -348.222901 
L 550.798761 -345.22786 
L 550.857432 -342.232819 
L 550.91248 -339.237777 
L 550.965001 -336.242736 
L 551.013382 -333.247695 
L 551.053039 -330.252653 
L 551.080028 -327.257612 
L 551.096766 -324.262571 
L 551.116155 -321.267529 
L 551.160729 -318.272488 
L 551.256511 -315.277447 
L 551.425227 -312.282405 
L 551.680195 -309.287364 
L 552.028187 -306.292323 
L 552.473882 -303.297282 
L 553.02111 -300.30224 
L 553.669592 -297.307199 
L 554.413018 -294.312158 
L 555.244363 -291.317116 
L 556.164542 -288.322075 
L 557.18164 -285.327034 
L 558.293494 -282.331992 
L 559.464632 -279.336951 
L 560.620519 -276.34191 
L 561.672306 -273.346868 
L 562.560996 -270.351827 
L 563.293734 -267.356786 
L 563.95102 -264.361744 
L 564.663544 -261.366703 
L 565.57074 -258.371662 
L 566.771473 -255.37662 
L 568.272561 -252.381579 
L 569.949129 -249.386538 
L 571.54706 -246.391496 
L 572.75546 -243.396455 
L 573.339664 -240.401414 
L 573.274144 -237.406372 
L 572.794509 -234.411331 
L 572.324695 -231.41629 
L 572.309569 -228.421248 
L 573.042025 -225.426207 
L 574.573304 -222.431166 
L 576.735894 -219.436124 
L 579.236386 -216.441083 
L 581.747047 -213.446042 
L 583.956768 -210.451001 
L 585.597979 -207.455959 
L 586.490354 -204.460918 
L 586.61155 -201.465877 
L 586.150987 -198.470835 
L 585.48041 -195.475794 
L 585.014059 -192.480753 
L 585.009124 -189.485711 
L 585.417413 -186.49067 
L 585.892288 -183.495629 
L 585.971531 -180.500587 
L 585.34098 -177.505546 
L 584.016504 -174.510505 
L 582.326204 -171.515463 
L 580.712576 -168.520422 
L 579.502338 -165.525381 
L 578.80471 -162.530339 
L 578.587446 -159.535298 
L 578.839429 -156.540257 
L 579.670197 -153.545215 
L 581.255209 -150.550174 
L 583.657496 -147.555133 
L 586.654963 -144.560091 
L 589.714286 -141.56505 
L 592.164725 -138.570009 
L 593.487899 -135.574967 
L 593.548452 -132.579926 
L 592.622975 -129.584885 
L 591.223939 -126.589843 
L 589.851104 -123.594802 
L 588.827427 -120.599761 
L 588.284403 -117.60472 
L 588.245526 -114.609678 
L 588.711975 -111.614637 
L 589.695081 -108.619596 
L 591.199751 -105.624554 
L 593.176827 -102.629513 
L 595.440966 -99.634472 
L 597.563074 -96.63943 
L 598.817646 -93.644389 
L 598.311296 -90.649348 
L 595.330225 -87.654306 
L 589.747659 -84.659265 
L 582.212189 -81.664224 
L 573.947942 -78.669182 
L 566.268611 -75.674141 
L 560.101195 -72.6791 
L 555.772263 -69.684058 
L 553.098224 -66.689017 
z
" style="stroke: #202020; stroke-width: 1.5"/>
    </defs>
    <g clip-path="url(#pefeead5cad)">
     <use xlink:href="#m68a0f7175d" x="0" y="420.790813" style="fill: #1f4b44; stroke: #202020; stroke-width: 1.5"/>
    </g>
   </g>
   <g id="matplotlib.axis_1">
    <g id="xtick_1">
     <g id="line2d_1">
      <defs>
       <path id="m25b59cf5ff" d="M 0 0 
L 0 6 
" style="stroke: #000000; stroke-width: 1.25"/>
      </defs>
      <g>
       <use xlink:href="#m25b59cf5ff" x="215.65225" y="368.92725" style="stroke: #000000; stroke-width: 1.25"/>
      </g>
     </g>
     <g id="text_1">
      <!-- transDOWN -->
      <g transform="translate(170.494156 390.128844)scale(0.154 -0.154)">
       <defs>
        <path id="DejaVuSans-74" d="M 1172 4494 
L 1172 3500 
L 2356 3500 
L 2356 3053 
L 1172 3053 
L 1172 1153 
Q 1172 725 1289 603 
Q 1406 481 1766 481 
L 2356 481 
L 2356 0 
L 1766 0 
Q 1100 0 847 248 
Q 594 497 594 1153 
L 594 3053 
L 172 3053 
L 172 3500 
L 594 3500 
L 594 4494 
L 1172 4494 
z
" transform="scale(0.015625)"/>
        <path id="DejaVuSans-72" d="M 2631 2963 
Q 2534 3019 2420 3045 
Q 2306 3072 2169 3072 
Q 1681 3072 1420 2755 
Q 1159 2438 1159 1844 
L 1159 0 
L 581 0 
L 581 3500 
L 1159 3500 
L 1159 2956 
Q 1341 3275 1631 3429 
Q 1922 3584 2338 3584 
Q 2397 3584 2469 3576 
Q 2541 3569 2628 3553 
L 2631 2963 
z
" transform="scale(0.015625)"/>
        <path id="DejaVuSans-61" d="M 2194 1759 
Q 1497 1759 1228 1600 
Q 959 1441 959 1056 
Q 959 750 1161 570 
Q 1363 391 1709 391 
Q 2188 391 2477 730 
Q 2766 1069 2766 1631 
L 2766 1759 
L 2194 1759 
z
M 3341 1997 
L 3341 0 
L 2766 0 
L 2766 531 
Q 2569 213 2275 61 
Q 1981 -91 1556 -91 
Q 1019 -91 701 211 
Q 384 513 384 1019 
Q 384 1609 779 1909 
Q 1175 2209 1959 2209 
L 2766 2209 
L 2766 2266 
Q 2766 2663 2505 2880 
Q 2244 3097 1772 3097 
Q 1472 3097 1187 3025 
Q 903 2953 641 2809 
L 641 3341 
Q 956 3463 1253 3523 
Q 1550 3584 1831 3584 
Q 2591 3584 2966 3190 
Q 3341 2797 3341 1997 
z
" transform="scale(0.015625)"/>
        <path id="DejaVuSans-6e" d="M 3513 2113 
L 3513 0 
L 2938 0 
L 2938 2094 
Q 2938 2591 2744 2837 
Q 2550 3084 2163 3084 
Q 1697 3084 1428 2787 
Q 1159 2491 1159 1978 
L 1159 0 
L 581 0 
L 581 3500 
L 1159 3500 
L 1159 2956 
Q 1366 3272 1645 3428 
Q 1925 3584 2291 3584 
Q 2894 3584 3203 3211 
Q 3513 2838 3513 2113 
z
" transform="scale(0.015625)"/>
        <path id="DejaVuSans-73" d="M 2834 3397 
L 2834 2853 
Q 2591 2978 2328 3040 
Q 2066 3103 1784 3103 
Q 1356 3103 1142 2972 
Q 928 2841 928 2578 
Q 928 2378 1081 2264 
Q 1234 2150 1697 2047 
L 1894 2003 
Q 2506 1872 2764 1633 
Q 3022 1394 3022 966 
Q 3022 478 2636 193 
Q 2250 -91 1575 -91 
Q 1294 -91 989 -36 
Q 684 19 347 128 
L 347 722 
Q 666 556 975 473 
Q 1284 391 1588 391 
Q 1994 391 2212 530 
Q 2431 669 2431 922 
Q 2431 1156 2273 1281 
Q 2116 1406 1581 1522 
L 1381 1569 
Q 847 1681 609 1914 
Q 372 2147 372 2553 
Q 372 3047 722 3315 
Q 1072 3584 1716 3584 
Q 2034 3584 2315 3537 
Q 2597 3491 2834 3397 
z
" transform="scale(0.015625)"/>
        <path id="DejaVuSans-44" d="M 1259 4147 
L 1259 519 
L 2022 519 
Q 2988 519 3436 956 
Q 3884 1394 3884 2338 
Q 3884 3275 3436 3711 
Q 2988 4147 2022 4147 
L 1259 4147 
z
M 628 4666 
L 1925 4666 
Q 3281 4666 3915 4102 
Q 4550 3538 4550 2338 
Q 4550 1131 3912 565 
Q 3275 0 1925 0 
L 628 0 
L 628 4666 
z
" transform="scale(0.015625)"/>
        <path id="DejaVuSans-4f" d="M 2522 4238 
Q 1834 4238 1429 3725 
Q 1025 3213 1025 2328 
Q 1025 1447 1429 934 
Q 1834 422 2522 422 
Q 3209 422 3611 934 
Q 4013 1447 4013 2328 
Q 4013 3213 3611 3725 
Q 3209 4238 2522 4238 
z
M 2522 4750 
Q 3503 4750 4090 4092 
Q 4678 3434 4678 2328 
Q 4678 1225 4090 567 
Q 3503 -91 2522 -91 
Q 1538 -91 948 565 
Q 359 1222 359 2328 
Q 359 3434 948 4092 
Q 1538 4750 2522 4750 
z
" transform="scale(0.015625)"/>
        <path id="DejaVuSans-57" d="M 213 4666 
L 850 4666 
L 1831 722 
L 2809 4666 
L 3519 4666 
L 4500 722 
L 5478 4666 
L 6119 4666 
L 4947 0 
L 4153 0 
L 3169 4050 
L 2175 0 
L 1381 0 
L 213 4666 
z
" transform="scale(0.015625)"/>
        <path id="DejaVuSans-4e" d="M 628 4666 
L 1478 4666 
L 3547 763 
L 3547 4666 
L 4159 4666 
L 4159 0 
L 3309 0 
L 1241 3903 
L 1241 0 
L 628 0 
L 628 4666 
z
" transform="scale(0.015625)"/>
       </defs>
       <use xlink:href="#DejaVuSans-74"/>
       <use xlink:href="#DejaVuSans-72" x="39.208984"/>
       <use xlink:href="#DejaVuSans-61" x="80.322266"/>
       <use xlink:href="#DejaVuSans-6e" x="141.601562"/>
       <use xlink:href="#DejaVuSans-73" x="204.980469"/>
       <use xlink:href="#DejaVuSans-44" x="257.080078"/>
       <use xlink:href="#DejaVuSans-4f" x="334.082031"/>
       <use xlink:href="#DejaVuSans-57" x="412.792969"/>
       <use xlink:href="#DejaVuSans-4e" x="511.669922"/>
      </g>
     </g>
    </g>
    <g id="xtick_2">
     <g id="line2d_2">
      <g>
       <use xlink:href="#m25b59cf5ff" x="494.65225" y="368.92725" style="stroke: #000000; stroke-width: 1.25"/>
      </g>
     </g>
     <g id="text_2">
      <!-- transUP -->
      <g transform="translate(464.580141 390.128844)scale(0.154 -0.154)">
       <defs>
        <path id="DejaVuSans-55" d="M 556 4666 
L 1191 4666 
L 1191 1831 
Q 1191 1081 1462 751 
Q 1734 422 2344 422 
Q 2950 422 3222 751 
Q 3494 1081 3494 1831 
L 3494 4666 
L 4128 4666 
L 4128 1753 
Q 4128 841 3676 375 
Q 3225 -91 2344 -91 
Q 1459 -91 1007 375 
Q 556 841 556 1753 
L 556 4666 
z
" transform="scale(0.015625)"/>
        <path id="DejaVuSans-50" d="M 1259 4147 
L 1259 2394 
L 2053 2394 
Q 2494 2394 2734 2622 
Q 2975 2850 2975 3272 
Q 2975 3691 2734 3919 
Q 2494 4147 2053 4147 
L 1259 4147 
z
M 628 4666 
L 2053 4666 
Q 2838 4666 3239 4311 
Q 3641 3956 3641 3272 
Q 3641 2581 3239 2228 
Q 2838 1875 2053 1875 
L 1259 1875 
L 1259 0 
L 628 0 
L 628 4666 
z
" transform="scale(0.015625)"/>
       </defs>
       <use xlink:href="#DejaVuSans-74"/>
       <use xlink:href="#DejaVuSans-72" x="39.208984"/>
       <use xlink:href="#DejaVuSans-61" x="80.322266"/>
       <use xlink:href="#DejaVuSans-6e" x="141.601562"/>
       <use xlink:href="#DejaVuSans-73" x="204.980469"/>
       <use xlink:href="#DejaVuSans-55" x="257.080078"/>
       <use xlink:href="#DejaVuSans-50" x="330.273438"/>
      </g>
     </g>
    </g>
    <g id="text_3">
     <!-- bin pair type -->
     <g transform="translate(301.789938 410.096938)scale(0.168 -0.168)">
      <defs>
       <path id="DejaVuSans-62" d="M 3116 1747 
Q 3116 2381 2855 2742 
Q 2594 3103 2138 3103 
Q 1681 3103 1420 2742 
Q 1159 2381 1159 1747 
Q 1159 1113 1420 752 
Q 1681 391 2138 391 
Q 2594 391 2855 752 
Q 3116 1113 3116 1747 
z
M 1159 2969 
Q 1341 3281 1617 3432 
Q 1894 3584 2278 3584 
Q 2916 3584 3314 3078 
Q 3713 2572 3713 1747 
Q 3713 922 3314 415 
Q 2916 -91 2278 -91 
Q 1894 -91 1617 61 
Q 1341 213 1159 525 
L 1159 0 
L 581 0 
L 581 4863 
L 1159 4863 
L 1159 2969 
z
" transform="scale(0.015625)"/>
       <path id="DejaVuSans-69" d="M 603 3500 
L 1178 3500 
L 1178 0 
L 603 0 
L 603 3500 
z
M 603 4863 
L 1178 4863 
L 1178 4134 
L 603 4134 
L 603 4863 
z
" transform="scale(0.015625)"/>
       <path id="DejaVuSans-20" transform="scale(0.015625)"/>
       <path id="DejaVuSans-70" d="M 1159 525 
L 1159 -1331 
L 581 -1331 
L 581 3500 
L 1159 3500 
L 1159 2969 
Q 1341 3281 1617 3432 
Q 1894 3584 2278 3584 
Q 2916 3584 3314 3078 
Q 3713 2572 3713 1747 
Q 3713 922 3314 415 
Q 2916 -91 2278 -91 
Q 1894 -91 1617 61 
Q 1341 213 1159 525 
z
M 3116 1747 
Q 3116 2381 2855 2742 
Q 2594 3103 2138 3103 
Q 1681 3103 1420 2742 
Q 1159 2381 1159 1747 
Q 1159 1113 1420 752 
Q 1681 391 2138 391 
Q 2594 391 2855 752 
Q 3116 1113 3116 1747 
z
" transform="scale(0.015625)"/>
       <path id="DejaVuSans-79" d="M 2059 -325 
Q 1816 -950 1584 -1140 
Q 1353 -1331 966 -1331 
L 506 -1331 
L 506 -850 
L 844 -850 
Q 1081 -850 1212 -737 
Q 1344 -625 1503 -206 
L 1606 56 
L 191 3500 
L 800 3500 
L 1894 763 
L 2988 3500 
L 3597 3500 
L 2059 -325 
z
" transform="scale(0.015625)"/>
       <path id="DejaVuSans-65" d="M 3597 1894 
L 3597 1613 
L 953 1613 
Q 991 1019 1311 708 
Q 1631 397 2203 397 
Q 2534 397 2845 478 
Q 3156 559 3463 722 
L 3463 178 
Q 3153 47 2828 -22 
Q 2503 -91 2169 -91 
Q 1331 -91 842 396 
Q 353 884 353 1716 
Q 353 2575 817 3079 
Q 1281 3584 2069 3584 
Q 2775 3584 3186 3129 
Q 3597 2675 3597 1894 
z
M 3022 2063 
Q 3016 2534 2758 2815 
Q 2500 3097 2075 3097 
Q 1594 3097 1305 2825 
Q 1016 2553 972 2059 
L 3022 2063 
z
" transform="scale(0.015625)"/>
      </defs>
      <use xlink:href="#DejaVuSans-62"/>
      <use xlink:href="#DejaVuSans-69" x="63.476562"/>
      <use xlink:href="#DejaVuSans-6e" x="91.259766"/>
      <use xlink:href="#DejaVuSans-20" x="154.638672"/>
      <use xlink:href="#DejaVuSans-70" x="186.425781"/>
      <use xlink:href="#DejaVuSans-61" x="249.902344"/>
      <use xlink:href="#DejaVuSans-69" x="311.181641"/>
      <use xlink:href="#DejaVuSans-72" x="338.964844"/>
      <use xlink:href="#DejaVuSans-20" x="380.078125"/>
      <use xlink:href="#DejaVuSans-74" x="411.865234"/>
      <use xlink:href="#DejaVuSans-79" x="451.074219"/>
      <use xlink:href="#DejaVuSans-70" x="510.253906"/>
      <use xlink:href="#DejaVuSans-65" x="573.730469"/>
     </g>
    </g>
   </g>
   <g id="matplotlib.axis_2">
    <g id="ytick_1">
     <g id="line2d_3">
      <defs>
       <path id="maa330fd186" d="M 0 0 
L -6 0 
" style="stroke: #000000; stroke-width: 1.25"/>
      </defs>
      <g>
       <use xlink:href="#maa330fd186" x="76.15225" y="336.102687" style="stroke: #000000; stroke-width: 1.25"/>
      </g>
     </g>
     <g id="text_4">
      <!-- 0 -->
      <g transform="translate(56.854 341.953484)scale(0.154 -0.154)">
       <defs>
        <path id="DejaVuSans-30" d="M 2034 4250 
Q 1547 4250 1301 3770 
Q 1056 3291 1056 2328 
Q 1056 1369 1301 889 
Q 1547 409 2034 409 
Q 2525 409 2770 889 
Q 3016 1369 3016 2328 
Q 3016 3291 2770 3770 
Q 2525 4250 2034 4250 
z
M 2034 4750 
Q 2819 4750 3233 4129 
Q 3647 3509 3647 2328 
Q 3647 1150 3233 529 
Q 2819 -91 2034 -91 
Q 1250 -91 836 529 
Q 422 1150 422 2328 
Q 422 3509 836 4129 
Q 1250 4750 2034 4750 
z
" transform="scale(0.015625)"/>
       </defs>
       <use xlink:href="#DejaVuSans-30"/>
      </g>
     </g>
    </g>
    <g id="ytick_2">
     <g id="line2d_4">
      <g>
       <use xlink:href="#maa330fd186" x="76.15225" y="287.832358" style="stroke: #000000; stroke-width: 1.25"/>
      </g>
     </g>
     <g id="text_5">
      <!-- 200 -->
      <g transform="translate(37.2575 293.683155)scale(0.154 -0.154)">
       <defs>
        <path id="DejaVuSans-32" d="M 1228 531 
L 3431 531 
L 3431 0 
L 469 0 
L 469 531 
Q 828 903 1448 1529 
Q 2069 2156 2228 2338 
Q 2531 2678 2651 2914 
Q 2772 3150 2772 3378 
Q 2772 3750 2511 3984 
Q 2250 4219 1831 4219 
Q 1534 4219 1204 4116 
Q 875 4013 500 3803 
L 500 4441 
Q 881 4594 1212 4672 
Q 1544 4750 1819 4750 
Q 2544 4750 2975 4387 
Q 3406 4025 3406 3419 
Q 3406 3131 3298 2873 
Q 3191 2616 2906 2266 
Q 2828 2175 2409 1742 
Q 1991 1309 1228 531 
z
" transform="scale(0.015625)"/>
       </defs>
       <use xlink:href="#DejaVuSans-32"/>
       <use xlink:href="#DejaVuSans-30" x="63.623047"/>
       <use xlink:href="#DejaVuSans-30" x="127.246094"/>
      </g>
     </g>
    </g>
    <g id="ytick_3">
     <g id="line2d_5">
      <g>
       <use xlink:href="#maa330fd186" x="76.15225" y="239.562029" style="stroke: #000000; stroke-width: 1.25"/>
      </g>
     </g>
     <g id="text_6">
      <!-- 400 -->
      <g transform="translate(37.2575 245.412826)scale(0.154 -0.154)">
       <defs>
        <path id="DejaVuSans-34" d="M 2419 4116 
L 825 1625 
L 2419 1625 
L 2419 4116 
z
M 2253 4666 
L 3047 4666 
L 3047 1625 
L 3713 1625 
L 3713 1100 
L 3047 1100 
L 3047 0 
L 2419 0 
L 2419 1100 
L 313 1100 
L 313 1709 
L 2253 4666 
z
" transform="scale(0.015625)"/>
       </defs>
       <use xlink:href="#DejaVuSans-34"/>
       <use xlink:href="#DejaVuSans-30" x="63.623047"/>
       <use xlink:href="#DejaVuSans-30" x="127.246094"/>
      </g>
     </g>
    </g>
    <g id="ytick_4">
     <g id="line2d_6">
      <g>
       <use xlink:href="#maa330fd186" x="76.15225" y="191.2917" style="stroke: #000000; stroke-width: 1.25"/>
      </g>
     </g>
     <g id="text_7">
      <!-- 600 -->
      <g transform="translate(37.2575 197.142497)scale(0.154 -0.154)">
       <defs>
        <path id="DejaVuSans-36" d="M 2113 2584 
Q 1688 2584 1439 2293 
Q 1191 2003 1191 1497 
Q 1191 994 1439 701 
Q 1688 409 2113 409 
Q 2538 409 2786 701 
Q 3034 994 3034 1497 
Q 3034 2003 2786 2293 
Q 2538 2584 2113 2584 
z
M 3366 4563 
L 3366 3988 
Q 3128 4100 2886 4159 
Q 2644 4219 2406 4219 
Q 1781 4219 1451 3797 
Q 1122 3375 1075 2522 
Q 1259 2794 1537 2939 
Q 1816 3084 2150 3084 
Q 2853 3084 3261 2657 
Q 3669 2231 3669 1497 
Q 3669 778 3244 343 
Q 2819 -91 2113 -91 
Q 1303 -91 875 529 
Q 447 1150 447 2328 
Q 447 3434 972 4092 
Q 1497 4750 2381 4750 
Q 2619 4750 2861 4703 
Q 3103 4656 3366 4563 
z
" transform="scale(0.015625)"/>
       </defs>
       <use xlink:href="#DejaVuSans-36"/>
       <use xlink:href="#DejaVuSans-30" x="63.623047"/>
       <use xlink:href="#DejaVuSans-30" x="127.246094"/>
      </g>
     </g>
    </g>
    <g id="ytick_5">
     <g id="line2d_7">
      <g>
       <use xlink:href="#maa330fd186" x="76.15225" y="143.021371" style="stroke: #000000; stroke-width: 1.25"/>
      </g>
     </g>
     <g id="text_8">
      <!-- 800 -->
      <g transform="translate(37.2575 148.872168)scale(0.154 -0.154)">
       <defs>
        <path id="DejaVuSans-38" d="M 2034 2216 
Q 1584 2216 1326 1975 
Q 1069 1734 1069 1313 
Q 1069 891 1326 650 
Q 1584 409 2034 409 
Q 2484 409 2743 651 
Q 3003 894 3003 1313 
Q 3003 1734 2745 1975 
Q 2488 2216 2034 2216 
z
M 1403 2484 
Q 997 2584 770 2862 
Q 544 3141 544 3541 
Q 544 4100 942 4425 
Q 1341 4750 2034 4750 
Q 2731 4750 3128 4425 
Q 3525 4100 3525 3541 
Q 3525 3141 3298 2862 
Q 3072 2584 2669 2484 
Q 3125 2378 3379 2068 
Q 3634 1759 3634 1313 
Q 3634 634 3220 271 
Q 2806 -91 2034 -91 
Q 1263 -91 848 271 
Q 434 634 434 1313 
Q 434 1759 690 2068 
Q 947 2378 1403 2484 
z
M 1172 3481 
Q 1172 3119 1398 2916 
Q 1625 2713 2034 2713 
Q 2441 2713 2670 2916 
Q 2900 3119 2900 3481 
Q 2900 3844 2670 4047 
Q 2441 4250 2034 4250 
Q 1625 4250 1398 4047 
Q 1172 3844 1172 3481 
z
" transform="scale(0.015625)"/>
       </defs>
       <use xlink:href="#DejaVuSans-38"/>
       <use xlink:href="#DejaVuSans-30" x="63.623047"/>
       <use xlink:href="#DejaVuSans-30" x="127.246094"/>
      </g>
     </g>
    </g>
    <g id="ytick_6">
     <g id="line2d_8">
      <g>
       <use xlink:href="#maa330fd186" x="76.15225" y="94.751042" style="stroke: #000000; stroke-width: 1.25"/>
      </g>
     </g>
     <g id="text_9">
      <!-- 1000 -->
      <g transform="translate(27.45925 100.601839)scale(0.154 -0.154)">
       <defs>
        <path id="DejaVuSans-31" d="M 794 531 
L 1825 531 
L 1825 4091 
L 703 3866 
L 703 4441 
L 1819 4666 
L 2450 4666 
L 2450 531 
L 3481 531 
L 3481 0 
L 794 0 
L 794 531 
z
" transform="scale(0.015625)"/>
       </defs>
       <use xlink:href="#DejaVuSans-31"/>
       <use xlink:href="#DejaVuSans-30" x="63.623047"/>
       <use xlink:href="#DejaVuSans-30" x="127.246094"/>
       <use xlink:href="#DejaVuSans-30" x="190.869141"/>
      </g>
     </g>
    </g>
    <g id="ytick_7">
     <g id="line2d_9">
      <g>
       <use xlink:href="#maa330fd186" x="76.15225" y="46.480713" style="stroke: #000000; stroke-width: 1.25"/>
      </g>
     </g>
     <g id="text_10">
      <!-- 1200 -->
      <g transform="translate(27.45925 52.331509)scale(0.154 -0.154)">
       <use xlink:href="#DejaVuSans-31"/>
       <use xlink:href="#DejaVuSans-32" x="63.623047"/>
       <use xlink:href="#DejaVuSans-30" x="127.246094"/>
       <use xlink:href="#DejaVuSans-30" x="190.869141"/>
      </g>
     </g>
    </g>
    <g id="text_11">
     <!-- position std -->
     <g transform="translate(19.965375 254.790375)rotate(-90)scale(0.168 -0.168)">
      <defs>
       <path id="DejaVuSans-6f" d="M 1959 3097 
Q 1497 3097 1228 2736 
Q 959 2375 959 1747 
Q 959 1119 1226 758 
Q 1494 397 1959 397 
Q 2419 397 2687 759 
Q 2956 1122 2956 1747 
Q 2956 2369 2687 2733 
Q 2419 3097 1959 3097 
z
M 1959 3584 
Q 2709 3584 3137 3096 
Q 3566 2609 3566 1747 
Q 3566 888 3137 398 
Q 2709 -91 1959 -91 
Q 1206 -91 779 398 
Q 353 888 353 1747 
Q 353 2609 779 3096 
Q 1206 3584 1959 3584 
z
" transform="scale(0.015625)"/>
       <path id="DejaVuSans-64" d="M 2906 2969 
L 2906 4863 
L 3481 4863 
L 3481 0 
L 2906 0 
L 2906 525 
Q 2725 213 2448 61 
Q 2172 -91 1784 -91 
Q 1150 -91 751 415 
Q 353 922 353 1747 
Q 353 2572 751 3078 
Q 1150 3584 1784 3584 
Q 2172 3584 2448 3432 
Q 2725 3281 2906 2969 
z
M 947 1747 
Q 947 1113 1208 752 
Q 1469 391 1925 391 
Q 2381 391 2643 752 
Q 2906 1113 2906 1747 
Q 2906 2381 2643 2742 
Q 2381 3103 1925 3103 
Q 1469 3103 1208 2742 
Q 947 2381 947 1747 
z
" transform="scale(0.015625)"/>
      </defs>
      <use xlink:href="#DejaVuSans-70"/>
      <use xlink:href="#DejaVuSans-6f" x="63.476562"/>
      <use xlink:href="#DejaVuSans-73" x="124.658203"/>
      <use xlink:href="#DejaVuSans-69" x="176.757812"/>
      <use xlink:href="#DejaVuSans-74" x="204.541016"/>
      <use xlink:href="#DejaVuSans-69" x="243.75"/>
      <use xlink:href="#DejaVuSans-6f" x="271.533203"/>
      <use xlink:href="#DejaVuSans-6e" x="332.714844"/>
      <use xlink:href="#DejaVuSans-20" x="396.09375"/>
      <use xlink:href="#DejaVuSans-73" x="427.880859"/>
      <use xlink:href="#DejaVuSans-74" x="479.980469"/>
      <use xlink:href="#DejaVuSans-64" x="519.189453"/>
     </g>
    </g>
   </g>
   <g id="line2d_10">
    <path d="M 159.85225 293.781524 
L 159.85225 90.833125 
" clip-path="url(#pefeead5cad)" style="fill: none; stroke: #202020; stroke-width: 1.5; stroke-linecap: square"/>
   </g>
   <g id="line2d_11">
    <path d="M 159.85225 217.459574 
L 159.85225 166.530487 
" clip-path="url(#pefeead5cad)" style="fill: none; stroke: #202020; stroke-width: 4.5; stroke-linecap: square"/>
   </g>
   <g id="line2d_12">
    <path d="M 271.45225 294.870257 
L 271.45225 92.158944 
" clip-path="url(#pefeead5cad)" style="fill: none; stroke: #202020; stroke-width: 1.5; stroke-linecap: square"/>
   </g>
   <g id="line2d_13">
    <path d="M 271.45225 218.118706 
L 271.45225 166.730149 
" clip-path="url(#pefeead5cad)" style="fill: none; stroke: #202020; stroke-width: 4.5; stroke-linecap: square"/>
   </g>
   <g id="line2d_14">
    <path d="M 438.85225 336.102687 
L 438.85225 75.591813 
" clip-path="url(#pefeead5cad)" style="fill: none; stroke: #202020; stroke-width: 1.5; stroke-linecap: square"/>
   </g>
   <g id="line2d_15">
    <path d="M 438.85225 261.013944 
L 438.85225 185.135416 
" clip-path="url(#pefeead5cad)" style="fill: none; stroke: #202020; stroke-width: 4.5; stroke-linecap: square"/>
   </g>
   <g id="line2d_16">
    <path d="M 550.45225 336.102687 
L 550.45225 87.762448 
" clip-path="url(#pefeead5cad)" style="fill: none; stroke: #202020; stroke-width: 1.5; stroke-linecap: square"/>
   </g>
   <g id="line2d_17">
    <path d="M 550.45225 305.384008 
L 550.45225 213.876263 
" clip-path="url(#pefeead5cad)" style="fill: none; stroke: #202020; stroke-width: 4.5; stroke-linecap: square"/>
   </g>
   <g id="line2d_18">
    <path d="M 438.85225 32.98245 
L 438.85225 26.45925 
L 550.45225 26.45925 
L 550.45225 32.98245 
" style="fill: none; stroke: #333333; stroke-width: 1.5; stroke-linecap: square"/>
   </g>
   <g id="line2d_19">
    <path d="M 159.85225 32.98245 
L 159.85225 26.45925 
L 271.45225 26.45925 
L 271.45225 32.98245 
" style="fill: none; stroke: #333333; stroke-width: 1.5; stroke-linecap: square"/>
   </g>
   <g id="patch_5">
    <path d="M 76.15225 368.92725 
L 76.15225 42.76725 
" style="fill: none; stroke: #000000; stroke-width: 1.25; stroke-linejoin: miter; stroke-linecap: square"/>
   </g>
   <g id="patch_6">
    <path d="M 76.15225 368.92725 
L 634.15225 368.92725 
" style="fill: none; stroke: #000000; stroke-width: 1.25; stroke-linejoin: miter; stroke-linecap: square"/>
   </g>
   <g id="PathCollection_1">
    <defs>
     <path id="me2db12397c" d="M 0 1.5 
C 0.397805 1.5 0.77937 1.341951 1.06066 1.06066 
C 1.341951 0.77937 1.5 0.397805 1.5 0 
C 1.5 -0.397805 1.341951 -0.77937 1.06066 -1.06066 
C 0.77937 -1.341951 0.397805 -1.5 0 -1.5 
C -0.397805 -1.5 -0.77937 -1.341951 -1.06066 -1.06066 
C -1.341951 -0.77937 -1.5 -0.397805 -1.5 0 
C -1.5 0.397805 -1.341951 0.77937 -1.06066 1.06066 
C -0.77937 1.341951 -0.397805 1.5 0 1.5 
z
" style="stroke: #202020"/>
    </defs>
    <g clip-path="url(#pefeead5cad)">
     <use xlink:href="#me2db12397c" x="159.85225" y="186.538823" style="fill: #ffffff; stroke: #202020"/>
    </g>
   </g>
   <g id="PathCollection_2">
    <g clip-path="url(#pefeead5cad)">
     <use xlink:href="#me2db12397c" x="271.45225" y="187.344941" style="fill: #ffffff; stroke: #202020"/>
    </g>
   </g>
   <g id="PathCollection_3">
    <g clip-path="url(#pefeead5cad)">
     <use xlink:href="#me2db12397c" x="438.85225" y="219.267378" style="fill: #ffffff; stroke: #202020"/>
    </g>
   </g>
   <g id="PathCollection_4">
    <g clip-path="url(#pefeead5cad)">
     <use xlink:href="#me2db12397c" x="550.45225" y="261.128181" style="fill: #ffffff; stroke: #202020"/>
    </g>
   </g>
   <g id="text_12">
    <!-- p ≤ 1e-5 -->
    <g transform="translate(458.053187 19.965375)scale(0.168 -0.168)">
     <defs>
      <path id="DejaVuSans-2264" d="M 4684 3175 
L 1684 2309 
L 4684 1453 
L 4684 897 
L 678 2047 
L 678 2578 
L 4684 3725 
L 4684 3175 
z
M 678 531 
L 4684 531 
L 4684 0 
L 678 0 
L 678 531 
z
" transform="scale(0.015625)"/>
      <path id="DejaVuSans-2d" d="M 313 2009 
L 1997 2009 
L 1997 1497 
L 313 1497 
L 313 2009 
z
" transform="scale(0.015625)"/>
      <path id="DejaVuSans-35" d="M 691 4666 
L 3169 4666 
L 3169 4134 
L 1269 4134 
L 1269 2991 
Q 1406 3038 1543 3061 
Q 1681 3084 1819 3084 
Q 2600 3084 3056 2656 
Q 3513 2228 3513 1497 
Q 3513 744 3044 326 
Q 2575 -91 1722 -91 
Q 1428 -91 1123 -41 
Q 819 9 494 109 
L 494 744 
Q 775 591 1075 516 
Q 1375 441 1709 441 
Q 2250 441 2565 725 
Q 2881 1009 2881 1497 
Q 2881 1984 2565 2268 
Q 2250 2553 1709 2553 
Q 1456 2553 1204 2497 
Q 953 2441 691 2322 
L 691 4666 
z
" transform="scale(0.015625)"/>
     </defs>
     <use xlink:href="#DejaVuSans-70"/>
     <use xlink:href="#DejaVuSans-20" x="63.476562"/>
     <use xlink:href="#DejaVuSans-2264" x="95.263672"/>
     <use xlink:href="#DejaVuSans-20" x="179.052734"/>
     <use xlink:href="#DejaVuSans-31" x="210.839844"/>
     <use xlink:href="#DejaVuSans-65" x="274.462891"/>
     <use xlink:href="#DejaVuSans-2d" x="335.986328"/>
     <use xlink:href="#DejaVuSans-35" x="372.070312"/>
    </g>
   </g>
   <g id="text_13">
    <!-- p = 0.40 -->
    <g transform="translate(179.23825 19.965375)scale(0.168 -0.168)">
     <defs>
      <path id="DejaVuSans-3d" d="M 678 2906 
L 4684 2906 
L 4684 2381 
L 678 2381 
L 678 2906 
z
M 678 1631 
L 4684 1631 
L 4684 1100 
L 678 1100 
L 678 1631 
z
" transform="scale(0.015625)"/>
      <path id="DejaVuSans-2e" d="M 684 794 
L 1344 794 
L 1344 0 
L 684 0 
L 684 794 
z
" transform="scale(0.015625)"/>
     </defs>
     <use xlink:href="#DejaVuSans-70"/>
     <use xlink:href="#DejaVuSans-20" x="63.476562"/>
     <use xlink:href="#DejaVuSans-3d" x="95.263672"/>
     <use xlink:href="#DejaVuSans-20" x="179.052734"/>
     <use xlink:href="#DejaVuSans-30" x="210.839844"/>
     <use xlink:href="#DejaVuSans-2e" x="274.462891"/>
     <use xlink:href="#DejaVuSans-34" x="306.25"/>
     <use xlink:href="#DejaVuSans-30" x="369.873047"/>
    </g>
   </g>
   <g id="text_14">
    <!-- 620 -->
    <g style="fill: #ffffff" transform="translate(159.85225 186.538823)scale(0.168 -0.168)">
     <defs>
      <path id="DejaVuSans-Bold-36" d="M 2316 2303 
Q 2000 2303 1842 2098 
Q 1684 1894 1684 1484 
Q 1684 1075 1842 870 
Q 2000 666 2316 666 
Q 2634 666 2792 870 
Q 2950 1075 2950 1484 
Q 2950 1894 2792 2098 
Q 2634 2303 2316 2303 
z
M 3803 4544 
L 3803 3681 
Q 3506 3822 3243 3889 
Q 2981 3956 2731 3956 
Q 2194 3956 1894 3657 
Q 1594 3359 1544 2772 
Q 1750 2925 1990 3001 
Q 2231 3078 2516 3078 
Q 3231 3078 3670 2659 
Q 4109 2241 4109 1563 
Q 4109 813 3618 361 
Q 3128 -91 2303 -91 
Q 1394 -91 895 523 
Q 397 1138 397 2266 
Q 397 3422 980 4083 
Q 1563 4744 2578 4744 
Q 2900 4744 3203 4694 
Q 3506 4644 3803 4544 
z
" transform="scale(0.015625)"/>
      <path id="DejaVuSans-Bold-32" d="M 1844 884 
L 3897 884 
L 3897 0 
L 506 0 
L 506 884 
L 2209 2388 
Q 2438 2594 2547 2791 
Q 2656 2988 2656 3200 
Q 2656 3528 2436 3728 
Q 2216 3928 1850 3928 
Q 1569 3928 1234 3808 
Q 900 3688 519 3450 
L 519 4475 
Q 925 4609 1322 4679 
Q 1719 4750 2100 4750 
Q 2938 4750 3402 4381 
Q 3866 4013 3866 3353 
Q 3866 2972 3669 2642 
Q 3472 2313 2841 1759 
L 1844 884 
z
" transform="scale(0.015625)"/>
      <path id="DejaVuSans-Bold-30" d="M 2944 2338 
Q 2944 3213 2780 3570 
Q 2616 3928 2228 3928 
Q 1841 3928 1675 3570 
Q 1509 3213 1509 2338 
Q 1509 1453 1675 1090 
Q 1841 728 2228 728 
Q 2613 728 2778 1090 
Q 2944 1453 2944 2338 
z
M 4147 2328 
Q 4147 1169 3647 539 
Q 3147 -91 2228 -91 
Q 1306 -91 806 539 
Q 306 1169 306 2328 
Q 306 3491 806 4120 
Q 1306 4750 2228 4750 
Q 3147 4750 3647 4120 
Q 4147 3491 4147 2328 
z
" transform="scale(0.015625)"/>
     </defs>
     <use xlink:href="#DejaVuSans-Bold-36"/>
     <use xlink:href="#DejaVuSans-Bold-32" x="69.580078"/>
     <use xlink:href="#DejaVuSans-Bold-30" x="139.160156"/>
    </g>
   </g>
   <g id="text_15">
    <!-- 616 -->
    <g style="fill: #ffffff" transform="translate(271.45225 187.344941)scale(0.168 -0.168)">
     <defs>
      <path id="DejaVuSans-Bold-31" d="M 750 831 
L 1813 831 
L 1813 3847 
L 722 3622 
L 722 4441 
L 1806 4666 
L 2950 4666 
L 2950 831 
L 4013 831 
L 4013 0 
L 750 0 
L 750 831 
z
" transform="scale(0.015625)"/>
     </defs>
     <use xlink:href="#DejaVuSans-Bold-36"/>
     <use xlink:href="#DejaVuSans-Bold-31" x="69.580078"/>
     <use xlink:href="#DejaVuSans-Bold-36" x="139.160156"/>
    </g>
   </g>
   <g id="text_16">
    <!-- 484 -->
    <g style="fill: #ffffff" transform="translate(438.85225 219.267378)scale(0.168 -0.168)">
     <defs>
      <path id="DejaVuSans-Bold-34" d="M 2356 3675 
L 1038 1722 
L 2356 1722 
L 2356 3675 
z
M 2156 4666 
L 3494 4666 
L 3494 1722 
L 4159 1722 
L 4159 850 
L 3494 850 
L 3494 0 
L 2356 0 
L 2356 850 
L 288 850 
L 288 1881 
L 2156 4666 
z
" transform="scale(0.015625)"/>
      <path id="DejaVuSans-Bold-38" d="M 2228 2088 
Q 1891 2088 1709 1903 
Q 1528 1719 1528 1375 
Q 1528 1031 1709 848 
Q 1891 666 2228 666 
Q 2563 666 2741 848 
Q 2919 1031 2919 1375 
Q 2919 1722 2741 1905 
Q 2563 2088 2228 2088 
z
M 1350 2484 
Q 925 2613 709 2878 
Q 494 3144 494 3541 
Q 494 4131 934 4440 
Q 1375 4750 2228 4750 
Q 3075 4750 3515 4442 
Q 3956 4134 3956 3541 
Q 3956 3144 3739 2878 
Q 3522 2613 3097 2484 
Q 3572 2353 3814 2058 
Q 4056 1763 4056 1313 
Q 4056 619 3595 264 
Q 3134 -91 2228 -91 
Q 1319 -91 855 264 
Q 391 619 391 1313 
Q 391 1763 633 2058 
Q 875 2353 1350 2484 
z
M 1631 3419 
Q 1631 3141 1786 2991 
Q 1941 2841 2228 2841 
Q 2509 2841 2662 2991 
Q 2816 3141 2816 3419 
Q 2816 3697 2662 3845 
Q 2509 3994 2228 3994 
Q 1941 3994 1786 3844 
Q 1631 3694 1631 3419 
z
" transform="scale(0.015625)"/>
     </defs>
     <use xlink:href="#DejaVuSans-Bold-34"/>
     <use xlink:href="#DejaVuSans-Bold-38" x="69.580078"/>
     <use xlink:href="#DejaVuSans-Bold-34" x="139.160156"/>
    </g>
   </g>
   <g id="text_17">
    <!-- 311 -->
    <g style="fill: #ffffff" transform="translate(550.45225 261.128181)scale(0.168 -0.168)">
     <defs>
      <path id="DejaVuSans-Bold-33" d="M 2981 2516 
Q 3453 2394 3698 2092 
Q 3944 1791 3944 1325 
Q 3944 631 3412 270 
Q 2881 -91 1863 -91 
Q 1503 -91 1142 -33 
Q 781 25 428 141 
L 428 1069 
Q 766 900 1098 814 
Q 1431 728 1753 728 
Q 2231 728 2486 893 
Q 2741 1059 2741 1369 
Q 2741 1688 2480 1852 
Q 2219 2016 1709 2016 
L 1228 2016 
L 1228 2791 
L 1734 2791 
Q 2188 2791 2409 2933 
Q 2631 3075 2631 3366 
Q 2631 3634 2415 3781 
Q 2200 3928 1806 3928 
Q 1516 3928 1219 3862 
Q 922 3797 628 3669 
L 628 4550 
Q 984 4650 1334 4700 
Q 1684 4750 2022 4750 
Q 2931 4750 3382 4451 
Q 3834 4153 3834 3553 
Q 3834 3144 3618 2883 
Q 3403 2622 2981 2516 
z
" transform="scale(0.015625)"/>
     </defs>
     <use xlink:href="#DejaVuSans-Bold-33"/>
     <use xlink:href="#DejaVuSans-Bold-31" x="69.580078"/>
     <use xlink:href="#DejaVuSans-Bold-31" x="139.160156"/>
    </g>
   </g>
   <g id="legend_1">
    <g id="patch_7">
     <path d="M 665.13225 205.84725 
L 805.309 205.84725 
Q 808.389 205.84725 808.389 202.76725 
L 808.389 135.139375 
Q 808.389 132.059375 805.309 132.059375 
L 665.13225 132.059375 
Q 662.05225 132.059375 662.05225 135.139375 
L 662.05225 202.76725 
Q 662.05225 205.84725 665.13225 205.84725 
z
" style="fill: #ffffff; opacity: 0.8; stroke: #cccccc; stroke-linejoin: miter"/>
    </g>
    <g id="text_18">
     <!-- Interaction type -->
     <g transform="translate(668.21225 150.98475)scale(0.168 -0.168)">
      <defs>
       <path id="DejaVuSans-49" d="M 628 4666 
L 1259 4666 
L 1259 0 
L 628 0 
L 628 4666 
z
" transform="scale(0.015625)"/>
       <path id="DejaVuSans-63" d="M 3122 3366 
L 3122 2828 
Q 2878 2963 2633 3030 
Q 2388 3097 2138 3097 
Q 1578 3097 1268 2742 
Q 959 2388 959 1747 
Q 959 1106 1268 751 
Q 1578 397 2138 397 
Q 2388 397 2633 464 
Q 2878 531 3122 666 
L 3122 134 
Q 2881 22 2623 -34 
Q 2366 -91 2075 -91 
Q 1284 -91 818 406 
Q 353 903 353 1747 
Q 353 2603 823 3093 
Q 1294 3584 2113 3584 
Q 2378 3584 2631 3529 
Q 2884 3475 3122 3366 
z
" transform="scale(0.015625)"/>
      </defs>
      <use xlink:href="#DejaVuSans-49"/>
      <use xlink:href="#DejaVuSans-6e" x="29.492188"/>
      <use xlink:href="#DejaVuSans-74" x="92.871094"/>
      <use xlink:href="#DejaVuSans-65" x="132.080078"/>
      <use xlink:href="#DejaVuSans-72" x="193.603516"/>
      <use xlink:href="#DejaVuSans-61" x="234.716797"/>
      <use xlink:href="#DejaVuSans-63" x="295.996094"/>
      <use xlink:href="#DejaVuSans-74" x="350.976562"/>
      <use xlink:href="#DejaVuSans-69" x="390.185547"/>
      <use xlink:href="#DejaVuSans-6f" x="417.96875"/>
      <use xlink:href="#DejaVuSans-6e" x="479.150391"/>
      <use xlink:href="#DejaVuSans-20" x="542.529297"/>
      <use xlink:href="#DejaVuSans-74" x="574.316406"/>
      <use xlink:href="#DejaVuSans-79" x="613.525391"/>
      <use xlink:href="#DejaVuSans-70" x="672.705078"/>
      <use xlink:href="#DejaVuSans-65" x="736.181641"/>
     </g>
    </g>
    <g id="patch_8">
     <path d="M 688.986937 173.880219 
L 719.786937 173.880219 
L 719.786937 163.100219 
L 688.986937 163.100219 
z
" style="fill: #888888; stroke: #202020; stroke-width: 0.75; stroke-linejoin: miter"/>
    </g>
    <g id="text_19">
     <!-- cish -->
     <g transform="translate(732.106937 173.880219)scale(0.154 -0.154)">
      <defs>
       <path id="DejaVuSans-68" d="M 3513 2113 
L 3513 0 
L 2938 0 
L 2938 2094 
Q 2938 2591 2744 2837 
Q 2550 3084 2163 3084 
Q 1697 3084 1428 2787 
Q 1159 2491 1159 1978 
L 1159 0 
L 581 0 
L 581 4863 
L 1159 4863 
L 1159 2956 
Q 1366 3272 1645 3428 
Q 1925 3584 2291 3584 
Q 2894 3584 3203 3211 
Q 3513 2838 3513 2113 
z
" transform="scale(0.015625)"/>
      </defs>
      <use xlink:href="#DejaVuSans-63"/>
      <use xlink:href="#DejaVuSans-69" x="54.980469"/>
      <use xlink:href="#DejaVuSans-73" x="82.763672"/>
      <use xlink:href="#DejaVuSans-68" x="134.863281"/>
     </g>
    </g>
    <g id="patch_9">
     <path d="M 688.986937 196.484531 
L 719.786937 196.484531 
L 719.786937 185.704531 
L 688.986937 185.704531 
z
" style="fill: #1f4b44; stroke: #202020; stroke-width: 0.75; stroke-linejoin: miter"/>
    </g>
    <g id="text_20">
     <!-- transh -->
     <g transform="translate(732.106937 196.484531)scale(0.154 -0.154)">
      <use xlink:href="#DejaVuSans-74"/>
      <use xlink:href="#DejaVuSans-72" x="39.208984"/>
      <use xlink:href="#DejaVuSans-61" x="80.322266"/>
      <use xlink:href="#DejaVuSans-6e" x="141.601562"/>
      <use xlink:href="#DejaVuSans-73" x="204.980469"/>
      <use xlink:href="#DejaVuSans-68" x="257.080078"/>
     </g>
    </g>
   </g>
  </g>
 </g>
 <defs>
  <clipPath id="pefeead5cad">
   <rect x="76.15225" y="42.76725" width="558" height="326.16"/>
  </clipPath>
 </defs>
</svg>
